<svg width="47" height="70" viewBox="0 0 47 70" fill="none" xmlns="http://www.w3.org/2000/svg">
<path d="M5.46933 41.5305C6.04292 42.1041 6.96608 42.1041 8.81242 42.1041H28.3958C30.2421 42.1041 31.1652 42.1041 31.7388 41.5305M5.46933 41.5305C4.89575 40.9569 4.89575 40.0337 4.89575 38.1874V18.6041C4.89575 16.7577 4.89575 15.8346 5.46933 15.261M5.46933 41.5305L17.2193 29.7805M31.7388 41.5305C32.3124 40.9569 32.3124 40.0337 32.3124 38.1874V18.6041C32.3124 16.7577 32.3124 15.8346 31.7388 15.261M31.7388 41.5305L41.5305 31.7388C42.1041 31.1652 42.1041 30.2421 42.1041 28.3958V8.81242C42.1041 6.96608 42.1041 6.04292 41.5305 5.46933M5.46933 15.261C6.04292 14.6874 6.96608 14.6874 8.81242 14.6874H28.3958C30.2421 14.6874 31.1652 14.6874 31.7388 15.261M5.46933 15.261L15.261 5.46933C15.8346 4.89575 16.7577 4.89575 18.6041 4.89575H38.1874C40.0337 4.89575 40.9569 4.89575 41.5305 5.46933M17.2193 29.7805C17.7929 30.3541 18.7161 30.3541 20.5624 30.3541H27.4166M17.2193 29.7805C16.6458 29.2069 16.6458 28.2837 16.6458 26.4374V20.5624M31.7388 15.261L41.5305 5.46933" stroke="#F2F2F2" stroke-width="2.9375" stroke-linecap="round" stroke-linejoin="round"/>
<g filter="url(#filter0_d_885_2230)">
<path d="M17.6433 36.9062C18.5345 34.1279 22.4655 34.1278 23.3566 36.9062L30.0692 57.8337C30.6902 59.7699 29.2459 61.75 27.2125 61.75H13.7875C11.7541 61.75 10.3098 59.7699 10.9308 57.8337L17.6433 36.9062Z" fill="#FFA76A"/>
</g>
<g filter="url(#filter1_d_885_2230)">
<circle cx="20" cy="34" r="10" fill="#FFA76A"/>
</g>
<defs>
<filter id="filter0_d_885_2230" x="6.7854" y="34.8225" width="27.4292" height="34.9275" filterUnits="userSpaceOnUse" color-interpolation-filters="sRGB">
<feFlood flood-opacity="0" result="BackgroundImageFix"/>
<feColorMatrix in="SourceAlpha" type="matrix" values="0 0 0 0 0 0 0 0 0 0 0 0 0 0 0 0 0 0 127 0" result="hardAlpha"/>
<feOffset dy="4"/>
<feGaussianBlur stdDeviation="2"/>
<feComposite in2="hardAlpha" operator="out"/>
<feColorMatrix type="matrix" values="0 0 0 0 0 0 0 0 0 0 0 0 0 0 0 0 0 0 0.25 0"/>
<feBlend mode="normal" in2="BackgroundImageFix" result="effect1_dropShadow_885_2230"/>
<feBlend mode="normal" in="SourceGraphic" in2="effect1_dropShadow_885_2230" result="shape"/>
</filter>
<filter id="filter1_d_885_2230" x="6" y="24" width="28" height="28" filterUnits="userSpaceOnUse" color-interpolation-filters="sRGB">
<feFlood flood-opacity="0" result="BackgroundImageFix"/>
<feColorMatrix in="SourceAlpha" type="matrix" values="0 0 0 0 0 0 0 0 0 0 0 0 0 0 0 0 0 0 127 0" result="hardAlpha"/>
<feOffset dy="4"/>
<feGaussianBlur stdDeviation="2"/>
<feComposite in2="hardAlpha" operator="out"/>
<feColorMatrix type="matrix" values="0 0 0 0 0 0 0 0 0 0 0 0 0 0 0 0 0 0 0.25 0"/>
<feBlend mode="normal" in2="BackgroundImageFix" result="effect1_dropShadow_885_2230"/>
<feBlend mode="normal" in="SourceGraphic" in2="effect1_dropShadow_885_2230" result="shape"/>
</filter>
</defs>
</svg>
