<svg width="92" height="93" viewBox="0 0 92 93" fill="none" xmlns="http://www.w3.org/2000/svg">
<g opacity="0.3" filter="url(#filter0_d_885_2198)">
<path d="M12.866 47C12.3301 46.0718 12.3301 44.9282 12.866 44L28.384 17.1221C28.9199 16.1939 29.9103 15.6221 30.9821 15.6221H62.0179C63.0897 15.6221 64.0801 16.1939 64.616 17.1221L80.134 44C80.6699 44.9282 80.6699 46.0718 80.134 47L64.616 73.8779C64.0801 74.8061 63.0897 75.3779 62.0179 75.3779H30.9821C29.9103 75.3779 28.9199 74.8061 28.384 73.8779L12.866 47Z" fill="#F2F2F2"/>
</g>
<g opacity="0.75" filter="url(#filter1_d_885_2198)">
<path d="M33.866 47C33.3301 46.0718 33.3301 44.9282 33.866 44L38.884 35.3087C39.4199 34.3805 40.4103 33.8087 41.4821 33.8087H51.5179C52.5897 33.8087 53.5801 34.3805 54.116 35.3087L59.134 44C59.6699 44.9282 59.6699 46.0718 59.134 47L54.116 55.6913C53.5801 56.6195 52.5897 57.1913 51.5179 57.1913H41.4821C40.4103 57.1913 39.4199 56.6195 38.884 55.6913L33.866 47Z" fill="#F2F2F2"/>
</g>
<g opacity="0.15" filter="url(#filter2_d_885_2198)">
<path d="M37.866 11C37.3301 10.0718 37.3301 8.9282 37.866 8L40.884 2.77276C41.4199 1.84456 42.4103 1.27276 43.4821 1.27276H49.5179C50.5897 1.27276 51.5801 1.84456 52.116 2.77276L55.134 8C55.6699 8.9282 55.6699 10.0718 55.134 11L52.116 16.2272C51.5801 17.1554 50.5897 17.7272 49.5179 17.7272H43.4821C42.4103 17.7272 41.4199 17.1554 40.884 16.2272L37.866 11Z" fill="#8C8686"/>
<path d="M42.7061 1.37598C42.9066 1.32224 43.1138 1.28936 43.3252 1.27832V1.27734L43.3516 1.77637C43.3949 1.77411 43.4387 1.77246 43.4824 1.77246H43.7842V1.27246H46.1982V1.77246H48.0088V1.27246H49.2158V1.77246H49.5176C49.5613 1.77246 49.6051 1.77411 49.6484 1.77637L49.6738 1.27832C50.0997 1.30042 50.509 1.41217 50.8789 1.60059L50.6533 2.04492C50.8861 2.16359 51.1 2.31881 51.2861 2.50488L51.6387 2.15234C51.7855 2.2992 51.9179 2.46206 52.0332 2.63965L51.6143 2.91113L51.6826 3.02246L51.834 3.28418L52.2666 3.03418L53.4736 5.125L53.041 5.375L53.9463 6.94336L54.3789 6.69434L54.9824 7.73926L54.5498 7.98828L54.7012 8.25C54.7231 8.28794 54.7439 8.3265 54.7637 8.36523L55.207 8.13867C55.4008 8.51867 55.5087 8.92906 55.5303 9.34375L55.0322 9.36914C55.0425 9.56496 55.0299 9.76166 54.9941 9.95508L54.9512 10.1475L55.4336 10.2764V10.2773C55.3798 10.478 55.3033 10.6736 55.207 10.8623L54.7637 10.6348C54.7439 10.6735 54.7231 10.7121 54.7012 10.75L54.5498 11.0117L54.9824 11.2617L53.7754 13.3525L53.3428 13.1025L52.4375 14.6709L52.8701 14.9209V14.9219L52.2666 15.9668V15.9658L51.834 15.7158L51.6826 15.9775L51.6143 16.0889L52.0332 16.3613C51.8012 16.7186 51.4992 17.0163 51.1514 17.2422L50.8799 16.8242C50.6606 16.9666 50.4193 17.0744 50.165 17.1426L50.293 17.625C50.0924 17.6786 49.8852 17.7117 49.6738 17.7227L49.6484 17.2236L49.5176 17.2275H49.2158V17.7275H46.8018V17.2275H44.9912V17.7275H43.7842V17.2275H43.4824C43.4387 17.2275 43.3949 17.2259 43.3516 17.2236L43.3252 17.7227C42.8996 17.7004 42.4898 17.5888 42.1201 17.4004L42.3467 16.9551C42.1139 16.8364 41.9 16.6812 41.7139 16.4951L41.3604 16.8486C41.2136 16.7018 41.0811 16.5388 40.9658 16.3613L41.3857 16.0889L41.3174 15.9775L41.166 15.7158L40.7334 15.9658L40.7324 15.9668L39.5254 13.876L39.5264 13.875L39.959 13.625L39.0537 12.0566L38.6201 12.3066L38.0166 11.2617L38.4502 11.0117L38.2988 10.75C38.2769 10.7121 38.2561 10.6735 38.2363 10.6348L37.792 10.8623C37.5983 10.4825 37.4905 10.0717 37.4688 9.65723L37.9678 9.63086C37.9541 9.36982 37.9807 9.10681 38.0488 8.85254L37.5664 8.72363H37.5654C37.6192 8.52298 37.6958 8.32734 37.792 8.13867L38.2363 8.36523L38.2988 8.25L38.4502 7.98828L38.0166 7.73926L39.2236 5.64844L39.6572 5.89746L40.5625 4.3291L40.1299 4.0791H40.1289L40.7324 3.03418H40.7334L41.166 3.28418L41.3174 3.02246C41.3392 2.98463 41.3621 2.9475 41.3857 2.91113L40.9658 2.63965C41.1977 2.28231 41.5 1.9848 41.8477 1.75879L42.1201 2.17578C42.3394 2.03343 42.5807 1.92557 42.835 1.85742L42.7061 1.37598Z" stroke="#FFFDFD" stroke-dasharray="2 4 6 8"/>
</g>
<g opacity="0.15" filter="url(#filter3_d_885_2198)">
<path d="M72.866 47C72.3301 46.0718 72.3301 44.9282 72.866 44L75.884 38.7728C76.4199 37.8446 77.4103 37.2728 78.4821 37.2728H84.5179C85.5897 37.2728 86.5801 37.8446 87.116 38.7728L90.134 44C90.6699 44.9282 90.6699 46.0718 90.134 47L87.116 52.2272C86.5801 53.1554 85.5897 53.7272 84.5179 53.7272H78.4821C77.4103 53.7272 76.4199 53.1554 75.884 52.2272L72.866 47Z" fill="#8C8686"/>
<path d="M77.7061 37.376C77.9066 37.3222 78.1138 37.2894 78.3252 37.2783V37.2773L78.3516 37.7764C78.3949 37.7741 78.4387 37.7725 78.4824 37.7725H78.7842V37.2725H81.1982V37.7725H83.0088V37.2725H84.2158V37.7725H84.5176C84.5613 37.7725 84.6051 37.7741 84.6484 37.7764L84.6738 37.2783C85.0997 37.3004 85.509 37.4122 85.8789 37.6006L85.6533 38.0449C85.8861 38.1636 86.1 38.3188 86.2861 38.5049L86.6387 38.1523C86.7855 38.2992 86.9179 38.4621 87.0332 38.6396L86.6143 38.9111L86.6826 39.0225L86.834 39.2842L87.2666 39.0342L88.4736 41.125L88.041 41.375L88.9463 42.9434L89.3789 42.6943L89.9824 43.7393L89.5498 43.9883L89.7012 44.25C89.7231 44.2879 89.7439 44.3265 89.7637 44.3652L90.207 44.1387C90.4008 44.5187 90.5087 44.9291 90.5303 45.3438L90.0322 45.3691C90.0425 45.565 90.0299 45.7617 89.9941 45.9551L89.9512 46.1475L90.4336 46.2764V46.2773C90.3798 46.478 90.3033 46.6736 90.207 46.8623L89.7637 46.6348C89.7439 46.6735 89.7231 46.7121 89.7012 46.75L89.5498 47.0117L89.9824 47.2617L88.7754 49.3525L88.3428 49.1025L87.4375 50.6709L87.8701 50.9209V50.9219L87.2666 51.9668V51.9658L86.834 51.7158L86.6826 51.9775L86.6143 52.0889L87.0332 52.3613C86.8012 52.7186 86.4992 53.0163 86.1514 53.2422L85.8799 52.8242C85.6606 52.9666 85.4193 53.0744 85.165 53.1426L85.293 53.625C85.0924 53.6786 84.8852 53.7117 84.6738 53.7227L84.6484 53.2236L84.5176 53.2275H84.2158V53.7275H81.8018V53.2275H79.9912V53.7275H78.7842V53.2275H78.4824C78.4387 53.2275 78.3949 53.2259 78.3516 53.2236L78.3252 53.7227C77.8996 53.7004 77.4898 53.5888 77.1201 53.4004L77.3467 52.9551C77.1139 52.8364 76.9 52.6812 76.7139 52.4951L76.3604 52.8486C76.2136 52.7018 76.0811 52.5388 75.9658 52.3613L76.3857 52.0889L76.3174 51.9775L76.166 51.7158L75.7334 51.9658L75.7324 51.9668L74.5254 49.876L74.5264 49.875L74.959 49.625L74.0537 48.0566L73.6201 48.3066L73.0166 47.2617L73.4502 47.0117L73.2988 46.75C73.2769 46.7121 73.2561 46.6735 73.2363 46.6348L72.792 46.8623C72.5983 46.4825 72.4905 46.0717 72.4688 45.6572L72.9678 45.6309C72.9541 45.3698 72.9807 45.1068 73.0488 44.8525L72.5664 44.7236H72.5654C72.6192 44.523 72.6958 44.3273 72.792 44.1387L73.2363 44.3652L73.2988 44.25L73.4502 43.9883L73.0166 43.7393L74.2236 41.6484L74.6572 41.8975L75.5625 40.3291L75.1299 40.0791H75.1289L75.7324 39.0342H75.7334L76.166 39.2842L76.3174 39.0225C76.3392 38.9846 76.3621 38.9475 76.3857 38.9111L75.9658 38.6396C76.1977 38.2823 76.5 37.9848 76.8477 37.7588L77.1201 38.1758C77.3394 38.0334 77.5807 37.9256 77.835 37.8574L77.7061 37.376Z" stroke="#FFFDFD" stroke-dasharray="2 4 6 8"/>
</g>
<g opacity="0.15" filter="url(#filter4_d_885_2198)">
<path d="M37.866 83C37.3301 82.0718 37.3301 80.9282 37.866 80L40.884 74.7728C41.4199 73.8446 42.4103 73.2728 43.4821 73.2728H49.5179C50.5897 73.2728 51.5801 73.8446 52.116 74.7728L55.134 80C55.6699 80.9282 55.6699 82.0718 55.134 83L52.116 88.2272C51.5801 89.1554 50.5897 89.7272 49.5179 89.7272H43.4821C42.4103 89.7272 41.4199 89.1554 40.884 88.2272L37.866 83Z" fill="#8C8686"/>
<path d="M42.7061 73.376C42.9066 73.3222 43.1138 73.2894 43.3252 73.2783V73.2773L43.3516 73.7764C43.3949 73.7741 43.4387 73.7725 43.4824 73.7725H43.7842V73.2725H46.1982V73.7725H48.0088V73.2725H49.2158V73.7725H49.5176C49.5613 73.7725 49.6051 73.7741 49.6484 73.7764L49.6738 73.2783C50.0997 73.3004 50.509 73.4122 50.8789 73.6006L50.6533 74.0449C50.8861 74.1636 51.1 74.3188 51.2861 74.5049L51.6387 74.1523C51.7855 74.2992 51.9179 74.4621 52.0332 74.6396L51.6143 74.9111L51.6826 75.0225L51.834 75.2842L52.2666 75.0342L53.4736 77.125L53.041 77.375L53.9463 78.9434L54.3789 78.6943L54.9824 79.7393L54.5498 79.9883L54.7012 80.25C54.7231 80.2879 54.7439 80.3265 54.7637 80.3652L55.207 80.1387C55.4008 80.5187 55.5087 80.9291 55.5303 81.3438L55.0322 81.3691C55.0425 81.565 55.0299 81.7617 54.9941 81.9551L54.9512 82.1475L55.4336 82.2764V82.2773C55.3798 82.478 55.3033 82.6736 55.207 82.8623L54.7637 82.6348C54.7439 82.6735 54.7231 82.7121 54.7012 82.75L54.5498 83.0117L54.9824 83.2617L53.7754 85.3525L53.3428 85.1025L52.4375 86.6709L52.8701 86.9209V86.9219L52.2666 87.9668V87.9658L51.834 87.7158L51.6826 87.9775L51.6143 88.0889L52.0332 88.3613C51.8012 88.7186 51.4992 89.0163 51.1514 89.2422L50.8799 88.8242C50.6606 88.9666 50.4193 89.0744 50.165 89.1426L50.293 89.625C50.0924 89.6786 49.8852 89.7117 49.6738 89.7227L49.6484 89.2236L49.5176 89.2275H49.2158V89.7275H46.8018V89.2275H44.9912V89.7275H43.7842V89.2275H43.4824C43.4387 89.2275 43.3949 89.2259 43.3516 89.2236L43.3252 89.7227C42.8996 89.7004 42.4898 89.5888 42.1201 89.4004L42.3467 88.9551C42.1139 88.8364 41.9 88.6812 41.7139 88.4951L41.3604 88.8486C41.2136 88.7018 41.0811 88.5388 40.9658 88.3613L41.3857 88.0889L41.3174 87.9775L41.166 87.7158L40.7334 87.9658L40.7324 87.9668L39.5254 85.876L39.5264 85.875L39.959 85.625L39.0537 84.0566L38.6201 84.3066L38.0166 83.2617L38.4502 83.0117L38.2988 82.75C38.2769 82.7121 38.2561 82.6735 38.2363 82.6348L37.792 82.8623C37.5983 82.4825 37.4905 82.0717 37.4688 81.6572L37.9678 81.6309C37.9541 81.3698 37.9807 81.1068 38.0488 80.8525L37.5664 80.7236H37.5654C37.6192 80.523 37.6958 80.3273 37.792 80.1387L38.2363 80.3652L38.2988 80.25L38.4502 79.9883L38.0166 79.7393L39.2236 77.6484L39.6572 77.8975L40.5625 76.3291L40.1299 76.0791H40.1289L40.7324 75.0342H40.7334L41.166 75.2842L41.3174 75.0225C41.3392 74.9846 41.3621 74.9475 41.3857 74.9111L40.9658 74.6396C41.1977 74.2823 41.5 73.9848 41.8477 73.7588L42.1201 74.1758C42.3394 74.0334 42.5807 73.9256 42.835 73.8574L42.7061 73.376Z" stroke="#FFFDFD" stroke-dasharray="2 4 6 8"/>
</g>
<g opacity="0.15" filter="url(#filter5_d_885_2198)">
<path d="M3.86603 47C3.33013 46.0718 3.33013 44.9282 3.86603 44L6.88397 38.7728C7.41987 37.8446 8.41025 37.2728 9.48205 37.2728H15.5179C16.5897 37.2728 17.5801 37.8446 18.116 38.7728L21.134 44C21.6699 44.9282 21.6699 46.0718 21.134 47L18.116 52.2272C17.5801 53.1554 16.5897 53.7272 15.5179 53.7272H9.48205C8.41025 53.7272 7.41987 53.1554 6.88397 52.2272L3.86603 47Z" fill="#8C8686"/>
<path d="M8.70605 37.376C8.90661 37.3222 9.11382 37.2894 9.3252 37.2783V37.2773L9.35156 37.7764C9.39486 37.7741 9.43873 37.7725 9.48242 37.7725H9.78418V37.2725H12.1982V37.7725H14.0088V37.2725H15.2158V37.7725H15.5176C15.5613 37.7725 15.6051 37.7741 15.6484 37.7764L15.6738 37.2783C16.0997 37.3004 16.509 37.4122 16.8789 37.6006L16.6533 38.0449C16.8861 38.1636 17.1 38.3188 17.2861 38.5049L17.6387 38.1523C17.7855 38.2992 17.9179 38.4621 18.0332 38.6396L17.6143 38.9111L17.6826 39.0225L17.834 39.2842L18.2666 39.0342L19.4736 41.125L19.041 41.375L19.9463 42.9434L20.3789 42.6943L20.9824 43.7393L20.5498 43.9883L20.7012 44.25C20.7231 44.2879 20.7439 44.3265 20.7637 44.3652L21.207 44.1387C21.4008 44.5187 21.5087 44.9291 21.5303 45.3438L21.0322 45.3691C21.0425 45.565 21.0299 45.7617 20.9941 45.9551L20.9512 46.1475L21.4336 46.2764V46.2773C21.3798 46.478 21.3033 46.6736 21.207 46.8623L20.7637 46.6348C20.7439 46.6735 20.7231 46.7121 20.7012 46.75L20.5498 47.0117L20.9824 47.2617L19.7754 49.3525L19.3428 49.1025L18.4375 50.6709L18.8701 50.9209V50.9219L18.2666 51.9668V51.9658L17.834 51.7158L17.6826 51.9775L17.6143 52.0889L18.0332 52.3613C17.8012 52.7186 17.4992 53.0163 17.1514 53.2422L16.8799 52.8242C16.6606 52.9666 16.4193 53.0744 16.165 53.1426L16.293 53.625C16.0924 53.6786 15.8852 53.7117 15.6738 53.7227L15.6484 53.2236L15.5176 53.2275H15.2158V53.7275H12.8018V53.2275H10.9912V53.7275H9.78418V53.2275H9.48242C9.43873 53.2275 9.39486 53.2259 9.35156 53.2236L9.3252 53.7227C8.89955 53.7004 8.48983 53.5888 8.12012 53.4004L8.34668 52.9551C8.11386 52.8364 7.89996 52.6812 7.71387 52.4951L7.36035 52.8486C7.21357 52.7018 7.08105 52.5388 6.96582 52.3613L7.38574 52.0889L7.31738 51.9775L7.16602 51.7158L6.7334 51.9658L6.73242 51.9668L5.52539 49.876L5.52637 49.875L5.95898 49.625L5.05371 48.0566L4.62012 48.3066L4.0166 47.2617L4.4502 47.0117L4.29883 46.75C4.27693 46.7121 4.25607 46.6735 4.23633 46.6348L3.79199 46.8623C3.59828 46.4825 3.49048 46.0717 3.46875 45.6572L3.96777 45.6309C3.95411 45.3698 3.98071 45.1068 4.04883 44.8525L3.56641 44.7236H3.56543C3.61916 44.523 3.69584 44.3273 3.79199 44.1387L4.23633 44.3652L4.29883 44.25L4.4502 43.9883L4.0166 43.7393L5.22363 41.6484L5.65723 41.8975L6.5625 40.3291L6.12988 40.0791H6.12891L6.73242 39.0342H6.7334L7.16602 39.2842L7.31738 39.0225C7.33923 38.9846 7.36213 38.9475 7.38574 38.9111L6.96582 38.6396C7.19767 38.2823 7.49997 37.9848 7.84766 37.7588L8.12012 38.1758C8.33935 38.0334 8.5807 37.9256 8.83496 37.8574L8.70605 37.376Z" stroke="#FFFDFD" stroke-dasharray="2 4 6 8"/>
</g>
<g opacity="0.5">
<path d="M46.5 4.625V7.875" stroke="#F2F2F2" stroke-width="0.8125" stroke-linecap="round" stroke-linejoin="round"/>
<path opacity="0.3" d="M41.625 9.5H44.875" stroke="#F2F2F2" stroke-width="0.8125" stroke-linecap="round" stroke-linejoin="round"/>
<path opacity="0.3" d="M51.375 9.5H48.125" stroke="#F2F2F2" stroke-width="0.8125" stroke-linecap="round" stroke-linejoin="round"/>
<path opacity="0.3" d="M46.5 14.3751V10.8542" stroke="#F2F2F2" stroke-width="0.8125" stroke-linecap="round" stroke-linejoin="round"/>
<path d="M44.875 6.25L45.7985 5.1928C46.1292 4.81426 46.2945 4.625 46.5 4.625C46.7055 4.625 46.8708 4.81426 47.2015 5.1928L48.125 6.25" stroke="#F2F2F2" stroke-width="0.8125" stroke-linecap="round" stroke-linejoin="round"/>
<path opacity="0.3" d="M48.125 12.75L47.2015 13.8072C46.8708 14.1857 46.7055 14.375 46.5 14.375C46.2945 14.375 46.1292 14.1857 45.7985 13.8072L44.875 12.75" stroke="#F2F2F2" stroke-width="0.8125" stroke-linecap="round" stroke-linejoin="round"/>
<path opacity="0.3" d="M49.75 7.875L50.8072 8.79854C51.1857 9.12923 51.375 9.29455 51.375 9.5C51.375 9.70545 51.1857 9.87077 50.8072 10.2015L49.75 11.125" stroke="#F2F2F2" stroke-width="0.8125" stroke-linecap="round" stroke-linejoin="round"/>
<path opacity="0.3" d="M43.25 11.125L42.1928 10.2015C41.8143 9.87077 41.625 9.70545 41.625 9.5C41.625 9.29455 41.8143 9.12923 42.1928 8.79854L43.25 7.875" stroke="#F2F2F2" stroke-width="0.8125" stroke-linecap="round" stroke-linejoin="round"/>
</g>
<g opacity="0.5">
<path d="M46.5 86.375V83.125" stroke="#F2F2F2" stroke-width="0.8125" stroke-linecap="round" stroke-linejoin="round"/>
<path opacity="0.3" d="M51.375 81.5H48.125" stroke="#F2F2F2" stroke-width="0.8125" stroke-linecap="round" stroke-linejoin="round"/>
<path opacity="0.3" d="M41.625 81.5H44.875" stroke="#F2F2F2" stroke-width="0.8125" stroke-linecap="round" stroke-linejoin="round"/>
<path opacity="0.3" d="M46.5 76.6249V80.1458" stroke="#F2F2F2" stroke-width="0.8125" stroke-linecap="round" stroke-linejoin="round"/>
<path d="M48.125 84.75L47.2015 85.8072C46.8708 86.1857 46.7055 86.375 46.5 86.375C46.2945 86.375 46.1292 86.1857 45.7985 85.8072L44.875 84.75" stroke="#F2F2F2" stroke-width="0.8125" stroke-linecap="round" stroke-linejoin="round"/>
<path opacity="0.3" d="M44.875 78.25L45.7985 77.1928C46.1292 76.8143 46.2945 76.625 46.5 76.625C46.7055 76.625 46.8708 76.8143 47.2015 77.1928L48.125 78.25" stroke="#F2F2F2" stroke-width="0.8125" stroke-linecap="round" stroke-linejoin="round"/>
<path opacity="0.3" d="M43.25 83.125L42.1928 82.2015C41.8143 81.8708 41.625 81.7055 41.625 81.5C41.625 81.2945 41.8143 81.1292 42.1928 80.7985L43.25 79.875" stroke="#F2F2F2" stroke-width="0.8125" stroke-linecap="round" stroke-linejoin="round"/>
<path opacity="0.3" d="M49.75 79.875L50.8072 80.7985C51.1857 81.1292 51.375 81.2945 51.375 81.5C51.375 81.7055 51.1857 81.8708 50.8072 82.2015L49.75 83.125" stroke="#F2F2F2" stroke-width="0.8125" stroke-linecap="round" stroke-linejoin="round"/>
</g>
<g opacity="0.5">
<path opacity="0.3" d="M82.0491 42.8238L79.9977 42.7931C78.8647 42.7762 77.9325 43.6809 77.9156 44.8138C77.8986 45.9468 78.8033 46.879 79.9363 46.8959L85.1788 46.9744" stroke="#F2F2F2" stroke-width="0.683876" stroke-linecap="round" stroke-linejoin="round"/>
<path d="M83.8315 45.5862C83.8315 45.5862 85.1841 46.6138 85.1787 46.9742C85.1733 47.3347 83.7906 48.3214 83.7906 48.3214" stroke="#F2F2F2" stroke-width="0.683876" stroke-linecap="round" stroke-linejoin="round"/>
</g>
<g opacity="0.5">
<path opacity="0.3" d="M12.0554 42.8238L14.1068 42.7931C15.2398 42.7762 16.1719 43.6809 16.1889 44.8138C16.2058 45.9468 15.3011 46.879 14.1682 46.8959L8.92572 46.9744" stroke="#F2F2F2" stroke-width="0.683876" stroke-linecap="round" stroke-linejoin="round"/>
<path d="M10.2729 45.5862C10.2729 45.5862 8.92042 46.6138 8.92581 46.9742C8.9312 47.3347 10.3139 48.3214 10.3139 48.3214" stroke="#F2F2F2" stroke-width="0.683876" stroke-linecap="round" stroke-linejoin="round"/>
</g>
<defs>
<filter id="filter0_d_885_2198" x="9.96411" y="15.1221" width="71.0718" height="62.7559" filterUnits="userSpaceOnUse" color-interpolation-filters="sRGB">
<feFlood flood-opacity="0" result="BackgroundImageFix"/>
<feColorMatrix in="SourceAlpha" type="matrix" values="0 0 0 0 0 0 0 0 0 0 0 0 0 0 0 0 0 0 127 0" result="hardAlpha"/>
<feOffset dx="-1" dy="1"/>
<feGaussianBlur stdDeviation="0.75"/>
<feComposite in2="hardAlpha" operator="out"/>
<feColorMatrix type="matrix" values="0 0 0 0 0 0 0 0 0 0 0 0 0 0 0 0 0 0 0.25 0"/>
<feBlend mode="normal" in2="BackgroundImageFix" result="effect1_dropShadow_885_2198"/>
<feBlend mode="normal" in="SourceGraphic" in2="effect1_dropShadow_885_2198" result="shape"/>
</filter>
<filter id="filter1_d_885_2198" x="30.9641" y="33.3086" width="29.0718" height="26.3828" filterUnits="userSpaceOnUse" color-interpolation-filters="sRGB">
<feFlood flood-opacity="0" result="BackgroundImageFix"/>
<feColorMatrix in="SourceAlpha" type="matrix" values="0 0 0 0 0 0 0 0 0 0 0 0 0 0 0 0 0 0 127 0" result="hardAlpha"/>
<feOffset dx="-1" dy="1"/>
<feGaussianBlur stdDeviation="0.75"/>
<feComposite in2="hardAlpha" operator="out"/>
<feColorMatrix type="matrix" values="0 0 0 0 0 0 0 0 0 0 0 0 0 0 0 0 0 0 0.25 0"/>
<feBlend mode="normal" in2="BackgroundImageFix" result="effect1_dropShadow_885_2198"/>
<feBlend mode="normal" in="SourceGraphic" in2="effect1_dropShadow_885_2198" result="shape"/>
</filter>
<filter id="filter2_d_885_2198" x="34.9641" y="0.772705" width="21.0718" height="19.4546" filterUnits="userSpaceOnUse" color-interpolation-filters="sRGB">
<feFlood flood-opacity="0" result="BackgroundImageFix"/>
<feColorMatrix in="SourceAlpha" type="matrix" values="0 0 0 0 0 0 0 0 0 0 0 0 0 0 0 0 0 0 127 0" result="hardAlpha"/>
<feOffset dx="-1" dy="1"/>
<feGaussianBlur stdDeviation="0.75"/>
<feComposite in2="hardAlpha" operator="out"/>
<feColorMatrix type="matrix" values="0 0 0 0 0 0 0 0 0 0 0 0 0 0 0 0 0 0 0.25 0"/>
<feBlend mode="normal" in2="BackgroundImageFix" result="effect1_dropShadow_885_2198"/>
<feBlend mode="normal" in="SourceGraphic" in2="effect1_dropShadow_885_2198" result="shape"/>
</filter>
<filter id="filter3_d_885_2198" x="69.9641" y="36.7727" width="21.0718" height="19.4546" filterUnits="userSpaceOnUse" color-interpolation-filters="sRGB">
<feFlood flood-opacity="0" result="BackgroundImageFix"/>
<feColorMatrix in="SourceAlpha" type="matrix" values="0 0 0 0 0 0 0 0 0 0 0 0 0 0 0 0 0 0 127 0" result="hardAlpha"/>
<feOffset dx="-1" dy="1"/>
<feGaussianBlur stdDeviation="0.75"/>
<feComposite in2="hardAlpha" operator="out"/>
<feColorMatrix type="matrix" values="0 0 0 0 0 0 0 0 0 0 0 0 0 0 0 0 0 0 0.25 0"/>
<feBlend mode="normal" in2="BackgroundImageFix" result="effect1_dropShadow_885_2198"/>
<feBlend mode="normal" in="SourceGraphic" in2="effect1_dropShadow_885_2198" result="shape"/>
</filter>
<filter id="filter4_d_885_2198" x="34.9641" y="72.7727" width="21.0718" height="19.4543" filterUnits="userSpaceOnUse" color-interpolation-filters="sRGB">
<feFlood flood-opacity="0" result="BackgroundImageFix"/>
<feColorMatrix in="SourceAlpha" type="matrix" values="0 0 0 0 0 0 0 0 0 0 0 0 0 0 0 0 0 0 127 0" result="hardAlpha"/>
<feOffset dx="-1" dy="1"/>
<feGaussianBlur stdDeviation="0.75"/>
<feComposite in2="hardAlpha" operator="out"/>
<feColorMatrix type="matrix" values="0 0 0 0 0 0 0 0 0 0 0 0 0 0 0 0 0 0 0.25 0"/>
<feBlend mode="normal" in2="BackgroundImageFix" result="effect1_dropShadow_885_2198"/>
<feBlend mode="normal" in="SourceGraphic" in2="effect1_dropShadow_885_2198" result="shape"/>
</filter>
<filter id="filter5_d_885_2198" x="0.964111" y="36.7727" width="21.0718" height="19.4546" filterUnits="userSpaceOnUse" color-interpolation-filters="sRGB">
<feFlood flood-opacity="0" result="BackgroundImageFix"/>
<feColorMatrix in="SourceAlpha" type="matrix" values="0 0 0 0 0 0 0 0 0 0 0 0 0 0 0 0 0 0 127 0" result="hardAlpha"/>
<feOffset dx="-1" dy="1"/>
<feGaussianBlur stdDeviation="0.75"/>
<feComposite in2="hardAlpha" operator="out"/>
<feColorMatrix type="matrix" values="0 0 0 0 0 0 0 0 0 0 0 0 0 0 0 0 0 0 0.25 0"/>
<feBlend mode="normal" in2="BackgroundImageFix" result="effect1_dropShadow_885_2198"/>
<feBlend mode="normal" in="SourceGraphic" in2="effect1_dropShadow_885_2198" result="shape"/>
</filter>
</defs>
</svg>
