<svg width="79" height="59" viewBox="0 0 79 59" fill="none" xmlns="http://www.w3.org/2000/svg">
<path d="M36.5736 50.6347C37.1472 51.2083 38.0703 51.2083 39.9167 51.2083H59.5C61.3463 51.2083 62.2695 51.2083 62.8431 50.6347M36.5736 50.6347C36 50.0611 36 49.138 36 47.2917V27.7083C36 25.862 36 24.9388 36.5736 24.3652M36.5736 50.6347L48.3236 38.8847M62.8431 50.6347C63.4167 50.0611 63.4167 49.138 63.4167 47.2917V27.7083C63.4167 25.862 63.4167 24.9388 62.8431 24.3652M62.8431 50.6347L72.6347 40.8431C73.2083 40.2695 73.2083 39.3463 73.2083 37.5V17.9167C73.2083 16.0703 73.2083 15.1472 72.6347 14.5736M36.5736 24.3652C37.1472 23.7917 38.0703 23.7917 39.9167 23.7917H59.5C61.3463 23.7917 62.2695 23.7917 62.8431 24.3652M36.5736 24.3652L46.3652 14.5736C46.9388 14 47.862 14 49.7083 14H69.2917C71.138 14 72.0611 14 72.6347 14.5736M48.3236 38.8847C48.8972 39.4583 49.8203 39.4583 51.6667 39.4583H58.5208M48.3236 38.8847C47.75 38.3111 47.75 37.388 47.75 35.5417V29.6667M62.8431 24.3652L72.6347 14.5736" stroke="#F2F2F2" stroke-width="2.9375" stroke-linecap="round" stroke-linejoin="round"/>
<g filter="url(#filter0_d_885_2232)">
<path d="M11.7476 26.0104C12.6387 23.2321 16.5698 23.2321 17.4609 26.0104L24.1734 46.938C24.7945 48.8742 23.3501 50.8542 21.3168 50.8542H7.89172C5.85838 50.8542 4.41404 48.8742 5.03507 46.938L11.7476 26.0104Z" fill="#FFA76A"/>
</g>
<g filter="url(#filter1_d_885_2232)">
<circle cx="14.1042" cy="23.1042" r="10" fill="#FFA76A"/>
</g>
<defs>
<filter id="filter0_d_885_2232" x="0.889648" y="23.9268" width="27.4292" height="34.9275" filterUnits="userSpaceOnUse" color-interpolation-filters="sRGB">
<feFlood flood-opacity="0" result="BackgroundImageFix"/>
<feColorMatrix in="SourceAlpha" type="matrix" values="0 0 0 0 0 0 0 0 0 0 0 0 0 0 0 0 0 0 127 0" result="hardAlpha"/>
<feOffset dy="4"/>
<feGaussianBlur stdDeviation="2"/>
<feComposite in2="hardAlpha" operator="out"/>
<feColorMatrix type="matrix" values="0 0 0 0 0 0 0 0 0 0 0 0 0 0 0 0 0 0 0.25 0"/>
<feBlend mode="normal" in2="BackgroundImageFix" result="effect1_dropShadow_885_2232"/>
<feBlend mode="normal" in="SourceGraphic" in2="effect1_dropShadow_885_2232" result="shape"/>
</filter>
<filter id="filter1_d_885_2232" x="0.104248" y="13.1042" width="28" height="28" filterUnits="userSpaceOnUse" color-interpolation-filters="sRGB">
<feFlood flood-opacity="0" result="BackgroundImageFix"/>
<feColorMatrix in="SourceAlpha" type="matrix" values="0 0 0 0 0 0 0 0 0 0 0 0 0 0 0 0 0 0 127 0" result="hardAlpha"/>
<feOffset dy="4"/>
<feGaussianBlur stdDeviation="2"/>
<feComposite in2="hardAlpha" operator="out"/>
<feColorMatrix type="matrix" values="0 0 0 0 0 0 0 0 0 0 0 0 0 0 0 0 0 0 0.25 0"/>
<feBlend mode="normal" in2="BackgroundImageFix" result="effect1_dropShadow_885_2232"/>
<feBlend mode="normal" in="SourceGraphic" in2="effect1_dropShadow_885_2232" result="shape"/>
</filter>
</defs>
</svg>
