<svg width="70" height="120" viewBox="0 0 70 120" fill="none" xmlns="http://www.w3.org/2000/svg">
<path d="M1.3966 1.03677C1.4169 0.761374 1.21011 0.521661 0.934718 0.501354C0.659323 0.481047 0.41961 0.687837 0.399303 0.963231L1.3966 1.03677ZM69.6388 118.025C69.898 117.929 70.031 117.642 69.9359 117.383L68.3855 113.158C68.2904 112.899 68.0031 112.766 67.7439 112.861C67.4846 112.956 67.3516 113.244 67.4467 113.503L68.8249 117.258L65.0698 118.636C64.8105 118.731 64.6775 119.019 64.7726 119.278C64.8678 119.537 65.1551 119.67 65.4143 119.575L69.6388 118.025ZM0.897949 1L0.399303 0.963231C0.182833 3.89893 0.675338 7.72266 1.73464 12.1673C2.79569 16.6193 4.43304 21.7249 6.52823 27.2361C10.7187 38.2587 16.751 50.9303 23.7022 63.2835C30.6533 75.6364 38.5301 87.6831 46.4134 97.4519C54.2844 107.205 62.2058 114.744 69.2564 118.009L69.4665 117.555L69.6766 117.102C62.8453 113.938 55.0438 106.554 47.1916 96.8239C39.3518 87.1091 31.5053 75.1114 24.5737 62.7931C17.6424 50.4752 11.6328 37.8489 7.46296 26.8807C5.37801 21.3965 3.7556 16.3335 2.70739 11.9355C1.65744 7.53005 1.1912 3.82229 1.3966 1.03677L0.897949 1Z" fill="#F2F2F2"/>
</svg>
