<svg width="24" height="25" viewBox="0 0 24 25" fill="none" xmlns="http://www.w3.org/2000/svg">
<path d="M2.5 12.5C2.5 8.02166 2.5 5.78249 3.89124 4.39124C5.28249 3 7.52166 3 12 3C16.4783 3 18.7175 3 20.1088 4.39124C21.5 5.78249 21.5 8.02166 21.5 12.5C21.5 16.9783 21.5 19.2175 20.1088 20.6088C18.7175 22 16.4783 22 12 22C7.52166 22 5.28249 22 3.89124 20.6088C2.5 19.2175 2.5 16.9783 2.5 12.5Z" stroke="#F2F2F2" stroke-width="1.5"/>
<path d="M9.91559 8.5L8.05715 9.81716C7.64711 10.1078 7.4421 10.2531 7.51425 10.3765C7.58641 10.5 7.87635 10.5 8.45623 10.5H16.5" stroke="#F2F2F2" stroke-width="1.5" stroke-linecap="round" stroke-linejoin="round"/>
<path d="M14.0844 16.5L15.9428 15.1828C16.3529 14.8922 16.5579 14.7469 16.4857 14.6235C16.4136 14.5 16.1237 14.5 15.5438 14.5H7.5" stroke="#F2F2F2" stroke-width="1.5" stroke-linecap="round" stroke-linejoin="round"/>
</svg>
