<svg width="37" height="36" viewBox="0 0 37 36" fill="none" xmlns="http://www.w3.org/2000/svg">
<path d="M16.4486 15.8125L21.6717 20.9051" stroke="#F2F2F2" stroke-width="2" stroke-miterlimit="10" stroke-linecap="round"/>
<path d="M21.6728 15.8108L16.4497 20.9033" stroke="#F2F2F2" stroke-width="2" stroke-miterlimit="10" stroke-linecap="round"/>
<path d="M34.848 9.72709L33.9874 8.27087C33.3365 7.16956 33.0112 6.61891 32.4574 6.39932C31.9036 6.17975 31.2773 6.35301 30.0249 6.69954L27.8974 7.28383C27.0978 7.46362 26.2588 7.36162 25.5287 6.99587L24.9413 6.66544C24.3152 6.27446 23.8336 5.69799 23.567 5.02038L22.9848 3.32484C22.602 2.2028 22.4105 1.64178 21.9547 1.32089C21.4991 1 20.8938 1 19.683 1H17.7393C16.5287 1 15.9233 1 15.4675 1.32089C15.0119 1.64178 14.8204 2.2028 14.4376 3.32484L13.8553 5.02038C13.5887 5.69799 13.1072 6.27446 12.4811 6.66544L11.8937 6.99587C11.1636 7.36162 10.3247 7.46362 9.52502 7.28383L7.39745 6.69954C6.14496 6.35301 5.51873 6.17975 4.96501 6.39932C4.41128 6.61891 4.08586 7.16956 3.43498 8.27087L2.57438 9.72709C1.96428 10.7594 1.65922 11.2756 1.71843 11.8251C1.77763 12.3745 2.18601 12.8173 3.00276 13.7029L4.80046 15.6625C5.23985 16.2048 5.55179 17.15 5.55179 17.9998C5.55179 18.85 5.23995 19.7949 4.80052 20.3373L3.00276 22.2969C2.18601 23.1826 1.77764 23.6253 1.71843 24.1749C1.65922 24.7243 1.96428 25.2405 2.57438 26.2727L3.43496 27.7289C4.08582 28.8302 4.41128 29.381 4.96501 29.6005C5.51873 29.8201 6.14498 29.6469 7.39748 29.3002L9.52495 28.7159C10.3247 28.5361 11.1638 28.6383 11.894 29.0041L12.4813 29.3346C13.1073 29.7256 13.5887 30.3019 13.8553 30.9795L14.4376 32.6753C14.8204 33.7973 15.0119 34.3583 15.4675 34.6792C15.9233 35 16.5287 35 17.7393 35H19.683C20.8938 35 21.4991 35 21.9547 34.6792C22.4105 34.3583 22.602 33.7973 22.9848 32.6753L23.5672 30.9795C23.8336 30.3019 24.315 29.7256 24.9411 29.3346L25.5284 29.0041C26.2586 28.6383 27.0976 28.5361 27.8974 28.7159L30.0249 29.3002C31.2773 29.6469 31.9036 29.8201 32.4574 29.6005C33.0112 29.381 33.3365 28.8302 33.9874 27.7289L34.848 26.2727C35.4581 25.2405 35.7631 24.7243 35.704 24.1749C35.6447 23.6253 35.2363 23.1826 34.4196 22.2969L32.6218 20.3373C32.1824 19.7949 31.8705 18.85 31.8705 17.9998C31.8705 17.15 32.1826 16.2048 32.6218 15.6625L34.4196 13.7029C35.2363 12.8173 35.6447 12.3745 35.704 11.8251C35.7631 11.2756 35.4581 10.7594 34.848 9.72709Z" stroke="#F2F2F2" stroke-width="2" stroke-linecap="round"/>
</svg>
