<svg width="41" height="40" viewBox="0 0 41 40" fill="none" xmlns="http://www.w3.org/2000/svg">
<g filter="url(#filter0_d_60_1885)">
<path d="M23.7101 35H20.3243C20.0591 35 19.8047 34.8946 19.6172 34.7071L14.003 29.0929C13.8154 28.9054 13.7101 28.651 13.7101 28.3858V20V11.6142C13.7101 11.349 13.8154 11.0946 14.003 10.9071L19.6172 5.29289C19.8047 5.10536 20.0591 5 20.3243 5H23.7101M30.7555 26.0317C34.0099 22.7774 33.6375 23.2544 36.8919 20M36.8919 20C33.6375 16.7456 30.7555 13.9683 30.7555 13.9683M36.8919 20C29.0814 20 31.5206 20 23.7101 20" stroke="#F2F2F2" stroke-width="2" stroke-linecap="round" stroke-linejoin="round" shape-rendering="crispEdges"/>
</g>
<defs>
<filter id="filter0_d_60_1885" x="10.2101" y="3.5" width="28.1818" height="35" filterUnits="userSpaceOnUse" color-interpolation-filters="sRGB">
<feFlood flood-opacity="0" result="BackgroundImageFix"/>
<feColorMatrix in="SourceAlpha" type="matrix" values="0 0 0 0 0 0 0 0 0 0 0 0 0 0 0 0 0 0 127 0" result="hardAlpha"/>
<feOffset dx="-1" dy="1"/>
<feGaussianBlur stdDeviation="0.75"/>
<feComposite in2="hardAlpha" operator="out"/>
<feColorMatrix type="matrix" values="0 0 0 0 0 0 0 0 0 0 0 0 0 0 0 0 0 0 0.25 0"/>
<feBlend mode="normal" in2="BackgroundImageFix" result="effect1_dropShadow_60_1885"/>
<feBlend mode="normal" in="SourceGraphic" in2="effect1_dropShadow_60_1885" result="shape"/>
</filter>
</defs>
</svg>
