<svg width="17" height="17" viewBox="0 0 17 17" fill="none" xmlns="http://www.w3.org/2000/svg">
<g filter="url(#filter0_d_62_1811)">
<circle cx="9.5" cy="7.5" r="6.5" fill="#F2F2F2"/>
<path d="M6.31241 10.1195V10.6875H6.88043C7.34027 10.6875 7.5702 10.6875 7.77694 10.6019C7.98368 10.5162 8.14626 10.3536 8.47142 10.0285L12.1704 6.32951C12.5014 5.99855 12.6668 5.83306 12.6851 5.62997C12.6882 5.5964 12.6882 5.56262 12.6851 5.52904C12.6668 5.32595 12.5014 5.16047 12.1704 4.82951C11.8394 4.49855 11.6739 4.33306 11.4709 4.31477C11.4373 4.31174 11.4035 4.31174 11.3699 4.31477C11.1668 4.33306 11.0014 4.49855 10.6704 4.82951L6.97142 8.52848C6.64626 8.85364 6.48368 9.01624 6.39804 9.22298C6.31241 9.42971 6.31241 9.65963 6.31241 10.1195Z" stroke="#C16D36" stroke-linecap="round" stroke-linejoin="round"/>
<path d="M10.0625 5.4375L11.5625 6.9375" stroke="#C16D36" stroke-linecap="round" stroke-linejoin="round"/>
</g>
<defs>
<filter id="filter0_d_62_1811" x="0" y="0" width="17" height="17" filterUnits="userSpaceOnUse" color-interpolation-filters="sRGB">
<feFlood flood-opacity="0" result="BackgroundImageFix"/>
<feColorMatrix in="SourceAlpha" type="matrix" values="0 0 0 0 0 0 0 0 0 0 0 0 0 0 0 0 0 0 127 0" result="hardAlpha"/>
<feOffset dx="-1" dy="1"/>
<feGaussianBlur stdDeviation="1"/>
<feComposite in2="hardAlpha" operator="out"/>
<feColorMatrix type="matrix" values="0 0 0 0 0 0 0 0 0 0 0 0 0 0 0 0 0 0 0.25 0"/>
<feBlend mode="normal" in2="BackgroundImageFix" result="effect1_dropShadow_62_1811"/>
<feBlend mode="normal" in="SourceGraphic" in2="effect1_dropShadow_62_1811" result="shape"/>
</filter>
</defs>
</svg>
