<svg width="25" height="24" viewBox="0 0 25 24" fill="none" xmlns="http://www.w3.org/2000/svg">
<g filter="url(#filter0_d_6_475)">
<path d="M8.38103 12.25C8.29172 12.0953 8.29172 11.9047 8.38103 11.75L10.0924 8.7859C10.1817 8.6312 10.3467 8.5359 10.5254 8.5359H13.948C14.1267 8.5359 14.2917 8.6312 14.381 8.7859L16.0924 11.75C16.1817 11.9047 16.1817 12.0953 16.0924 12.25L14.381 15.2141C14.2917 15.3688 14.1267 15.4641 13.948 15.4641H10.5254C10.3467 15.4641 10.1817 15.3688 10.0924 15.2141L8.38103 12.25Z" fill="#F2F2F2"/>
</g>
<path d="M6.7198 3.65819C6.35384 3.25395 5.82492 3 5.23669 3C4.13212 3 3.23669 3.89543 3.23669 5C3.23669 5.58823 3.49064 6.11715 3.89488 6.48311M6.7198 3.65819C7.04103 4.01303 7.23669 4.48366 7.23669 5C7.23669 6.10457 6.34126 7 5.23669 7C4.72035 7 4.24972 6.80434 3.89488 6.48311M6.7198 3.65819C8.30109 2.6103 10.1976 2 12.2367 2C17.7595 2 22.2367 6.47715 22.2367 12C22.2367 14.0318 21.6307 15.9221 20.5897 17.5M3.89488 6.48311C2.84699 8.0644 2.23669 9.96093 2.23669 12C2.23669 17.5228 6.71384 22 12.2367 22C14.2758 22 16.1723 21.3897 17.7536 20.3418M17.7536 20.3418C18.1195 20.7461 18.6485 21 19.2367 21C20.3413 21 21.2367 20.1046 21.2367 19C21.2367 17.8954 20.3413 17 19.2367 17C18.1321 17 17.2367 17.8954 17.2367 19C17.2367 19.5163 17.4324 19.987 17.7536 20.3418Z" stroke="#F2F2F2" stroke-width="1.5" stroke-linecap="round"/>
<defs>
<filter id="filter0_d_6_475" x="5.81409" y="8.03589" width="10.8452" height="9.92822" filterUnits="userSpaceOnUse" color-interpolation-filters="sRGB">
<feFlood flood-opacity="0" result="BackgroundImageFix"/>
<feColorMatrix in="SourceAlpha" type="matrix" values="0 0 0 0 0 0 0 0 0 0 0 0 0 0 0 0 0 0 127 0" result="hardAlpha"/>
<feOffset dx="-1" dy="1"/>
<feGaussianBlur stdDeviation="0.75"/>
<feComposite in2="hardAlpha" operator="out"/>
<feColorMatrix type="matrix" values="0 0 0 0 0 0 0 0 0 0 0 0 0 0 0 0 0 0 0.25 0"/>
<feBlend mode="normal" in2="BackgroundImageFix" result="effect1_dropShadow_6_475"/>
<feBlend mode="normal" in="SourceGraphic" in2="effect1_dropShadow_6_475" result="shape"/>
</filter>
</defs>
</svg>
