<svg width="253" height="132" viewBox="0 0 253 132" fill="none" xmlns="http://www.w3.org/2000/svg">
<g filter="url(#filter0_d_6_468)">
<g clip-path="url(#clip0_6_468)">
<mask id="path-1-inside-1_6_468" fill="white">
<path d="M4.23669 3C4.23669 1.34314 5.57984 0 7.23669 0H249.237C250.894 0 252.237 1.34315 252.237 3V129C252.237 130.657 250.894 132 249.237 132H7.23669C5.57984 132 4.23669 130.657 4.23669 129V3Z"/>
</mask>
<path d="M4.23669 3C4.23669 1.34314 5.57984 0 7.23669 0H249.237C250.894 0 252.237 1.34315 252.237 3V129C252.237 130.657 250.894 132 249.237 132H7.23669C5.57984 132 4.23669 130.657 4.23669 129V3Z" fill="url(#paint0_linear_6_468)" fill-opacity="0.4" shape-rendering="crispEdges"/>
</g>
<path fill-rule="evenodd" clip-rule="evenodd" d="M7.23669 0C7.15754 0 7.07892 0.00229911 7.00091 0.00683418L7.00196 0.0204432C7.07896 0.00694192 7.15728 0 7.23669 0ZM6.18112 0.451393L6.06609 0.174013C5.57961 0.322671 5.13253 0.561568 4.74435 0.871192L5.33547 1.37653L5.49825 1.51569C5.57057 1.32551 5.65637 1.14835 5.75368 0.987127C5.87856 0.780241 6.02241 0.599604 6.18112 0.451393ZM5.23944 2.84158L4.74431 2.80311L3.74731 2.72566L3.45176 2.7027C3.41837 2.80016 3.38863 2.89931 3.36271 3C3.28045 3.31962 3.23669 3.6547 3.23669 4V4.05H3.73669H4.73669H5.23669V3C5.23669 2.94686 5.23762 2.89404 5.23944 2.84158ZM5.23669 8.25H4.73669H3.73669H3.23669V14.55H3.73669H4.73669H5.23669V8.25ZM5.23669 22.95H4.73669H3.73669H3.23669V25.05H3.73669H4.73669H5.23669V22.95ZM5.23669 29.25H4.73669H3.73669H3.23669V35.55H3.73669H4.73669H5.23669V29.25ZM5.23669 43.95H4.73669H3.73669H3.23669V46.05H3.73669H4.73669H5.23669V43.95ZM5.23669 50.25H4.73669H3.73669H3.23669V56.55H3.73669H4.73669H5.23669V50.25ZM5.23669 64.95H4.73669H3.73669H3.23669V67.05H3.73669H4.73669H5.23669V64.95ZM5.23669 71.25H4.73669H3.73669H3.23669V77.55H3.73669H4.73669H5.23669V71.25ZM5.23669 85.95H4.73669H3.73669H3.23669V88.05H3.73669H4.73669H5.23669V85.95ZM5.23669 92.25H4.73669H3.73669H3.23669V98.55H3.73669H4.73669H5.23669V92.25ZM5.23669 106.95H4.73669H3.73669H3.23669V109.05H3.73669H4.73669H5.23669V106.95ZM5.23669 113.25H4.73669H3.73669H3.23669V119.55H3.73669H4.73669H5.23669V113.25ZM5.23669 127.95H4.73669H3.73669H3.23669V129C3.23669 129.053 3.23771 129.105 3.23974 129.157C3.24176 129.209 3.24479 129.261 3.24881 129.313L3.74731 129.274L4.74431 129.197L5.24281 129.158C5.2418 129.145 5.24091 129.132 5.24015 129.119C5.23786 129.08 5.23669 129.04 5.23669 129V127.95ZM4.00247 130.34L4.9262 129.957L5.38806 129.765C5.46393 129.948 5.56648 130.118 5.69107 130.269C5.76583 130.36 5.84852 130.445 5.93813 130.521L5.61323 130.901L4.96343 131.661L4.63853 132.041C4.63111 132.035 4.62371 132.029 4.61634 132.022C4.50857 131.929 4.40583 131.83 4.30859 131.725C3.98665 131.379 3.72494 130.976 3.54061 130.531L4.00247 130.34ZM6.96235 132.489L7.03981 131.492L7.07854 130.994C7.13054 130.998 7.18327 131 7.23669 131M8.24502 131.5V132.5V133H7.23669C7.14467 133 7.05323 132.997 6.96248 132.991C6.94951 132.99 6.93656 132.989 6.92363 132.988L6.96235 132.489M12.2784 133H18.3284V132.5V131.5V131H12.2784V131.5V132.5V133ZM8.24502 131.5V131V131.5ZM7.23669 131H8.24502H7.23669ZM26.395 131V131.5V132.5V133H28.4117V132.5V131.5V131H26.395ZM32.445 131V131.5V132.5V133H38.495V132.5V131.5V131H32.445ZM46.5617 131V131.5V132.5V133H48.5784V132.5V131.5V131H46.5617ZM52.6117 131V131.5V132.5V133H58.6617V132.5V131.5V131H52.6117ZM66.7284 131V131.5V132.5V133H68.745V132.5V131.5V131H66.7284ZM72.7784 131V131.5V132.5V133H78.8284V132.5V131.5V131H72.7784ZM86.895 131V131.5V132.5V133H88.9117V132.5V131.5V131H86.895ZM92.945 131V131.5V132.5V133H98.995V132.5V131.5V131H92.945ZM107.062 131V131.5V132.5V133H109.078V132.5V131.5V131H107.062ZM113.112 131V131.5V132.5V133H119.162V132.5V131.5V131H113.112ZM127.228 131V131.5V132.5V133H129.245V132.5V131.5V131H127.228ZM133.278 131V131.5V132.5V133H139.328V132.5V131.5V131H133.278ZM147.395 131V131.5V132.5V133H149.412V132.5V131.5V131H147.395ZM153.445 131V131.5V132.5V133H159.495V132.5V131.5V131H153.445ZM167.562 131V131.5V132.5V133H169.578V132.5V131.5V131H167.562ZM173.612 131V131.5V132.5V133H179.662V132.5V131.5V131H173.612ZM187.728 131V131.5V132.5V133H189.745V132.5V131.5V131H187.728ZM193.778 131V131.5V132.5V133H199.828V132.5V131.5V131H193.778ZM207.895 131V131.5V132.5V133H209.912V132.5V131.5V131H207.895ZM213.945 131V131.5V132.5V133H219.995V132.5V131.5V131H213.945ZM228.062 131V131.5V132.5V133H230.078V132.5V131.5V131H228.062ZM234.112 131V131.5V132.5V133H240.162V132.5V131.5V131H234.112ZM248.228 131V131.5V132.5V133H249.237C249.329 133 249.42 132.997 249.511 132.991C249.524 132.99 249.537 132.989 249.55 132.988L249.511 132.489L249.434 131.492L249.395 130.994C249.343 130.998 249.29 131 249.237 131H248.228ZM250.577 132.234L250.194 131.311L250.002 130.849C250.148 130.788 250.286 130.71 250.413 130.618C250.54 130.525 250.656 130.418 250.758 130.299L251.138 130.623L251.898 131.273L252.278 131.598C252.028 131.891 251.736 132.147 251.412 132.358C251.209 132.489 250.994 132.602 250.768 132.696L250.577 132.234ZM251.729 129.197L251.231 129.158C251.235 129.106 251.237 129.053 251.237 129V127.95H251.737H252.737H253.237V129C253.237 129.092 253.234 129.183 253.227 129.274C253.227 129.287 253.226 129.3 253.225 129.313L252.726 129.274L251.729 129.197ZM253.237 123.75V117.45H252.737H251.737H251.237V123.75H251.737H252.737H253.237ZM251.237 109.05H251.737H252.737H253.237V106.95H252.737H251.737H251.237V109.05ZM251.237 102.75H251.737H252.737H253.237V96.45H252.737H251.737H251.237V102.75ZM251.237 88.05H251.737H252.737H253.237V85.95H252.737H251.737H251.237V88.05ZM251.237 81.75H251.737H252.737H253.237V75.45H252.737H251.737H251.237V81.75ZM251.237 67.05H251.737H252.737H253.237V64.95H252.737H251.737H251.237V67.05ZM251.237 60.75H251.737H252.737H253.237V54.45H252.737H251.737H251.237V60.75ZM251.237 46.05H251.737H252.737H253.237V43.95H252.737H251.737H251.237V46.05ZM251.237 39.75H251.737H252.737H253.237V33.45H252.737H251.737H251.237V39.75ZM251.237 25.05H251.737H252.737H253.237V22.95H252.737H251.737H251.237V25.05ZM251.237 18.75H251.737H252.737H253.237V12.45H252.737H251.737H251.237V18.75ZM251.237 4.05001H251.737H252.737H253.237V4C253.237 3.6547 253.193 3.31962 253.111 3C253.085 2.89931 253.055 2.80016 253.022 2.7027L252.726 2.72566L251.729 2.80312L251.234 2.84158C251.236 2.89404 251.237 2.94686 251.237 3V4.05001ZM251.165 2.20161L251.547 2.04316L252.471 1.66011L252.479 1.65681C252.472 1.64672 252.464 1.63669 252.457 1.62667C252.146 1.20605 251.755 0.848418 251.307 0.576535L250.86 1.09878L250.813 1.15372C250.973 1.46068 251.094 1.81556 251.165 2.20161ZM249.471 0.0204434L249.472 0.00683425C249.394 0.00229913 249.316 0 249.237 0C249.316 0 249.394 0.00694198 249.471 0.0204434Z" fill="#F2F2F2" mask="url(#path-1-inside-1_6_468)"/>
</g>
<defs>
<filter id="filter0_d_6_468" x="0.236694" y="-4" width="256" height="144" filterUnits="userSpaceOnUse" color-interpolation-filters="sRGB">
<feFlood flood-opacity="0" result="BackgroundImageFix"/>
<feColorMatrix in="SourceAlpha" type="matrix" values="0 0 0 0 0 0 0 0 0 0 0 0 0 0 0 0 0 0 127 0" result="hardAlpha"/>
<feOffset dy="4"/>
<feGaussianBlur stdDeviation="2"/>
<feComposite in2="hardAlpha" operator="out"/>
<feColorMatrix type="matrix" values="0 0 0 0 0 0 0 0 0 0 0 0 0 0 0 0 0 0 0.25 0"/>
<feBlend mode="normal" in2="BackgroundImageFix" result="effect1_dropShadow_6_468"/>
<feBlend mode="normal" in="SourceGraphic" in2="effect1_dropShadow_6_468" result="shape"/>
</filter>
<linearGradient id="paint0_linear_6_468" x1="110.49" y1="132" x2="110.49" y2="0" gradientUnits="userSpaceOnUse">
<stop stop-color="#3A434F"/>
<stop offset="1" stop-color="#38475B"/>
</linearGradient>
<clipPath id="clip0_6_468">
<path d="M4.23669 3C4.23669 1.34314 5.57984 0 7.23669 0H249.237C250.894 0 252.237 1.34315 252.237 3V129C252.237 130.657 250.894 132 249.237 132H7.23669C5.57984 132 4.23669 130.657 4.23669 129V3Z" fill="white"/>
</clipPath>
</defs>
</svg>
