<svg width="41" height="40" viewBox="0 0 41 40" fill="none" xmlns="http://www.w3.org/2000/svg">
<path d="M36.8469 11.015L35.9863 9.52149C35.3354 8.39194 35.0101 7.82718 34.4563 7.60196C33.9025 7.37676 33.2762 7.55446 32.0238 7.90988L29.8963 8.50915C29.0967 8.69355 28.2577 8.58893 27.5276 8.2138L26.9402 7.8749C26.3141 7.47389 25.8325 6.88264 25.5659 6.18767L24.9837 4.44865C24.6009 3.29785 24.4094 2.72245 23.9536 2.39333C23.498 2.06421 22.8927 2.06421 21.6819 2.06421H19.7382C18.5276 2.06421 17.9222 2.06421 17.4664 2.39333C17.0108 2.72245 16.8193 3.29785 16.4365 4.44865L15.8542 6.18767C15.5876 6.88264 15.1061 7.47389 14.48 7.8749L13.8926 8.2138C13.1625 8.58893 12.3236 8.69355 11.5239 8.50915L9.39635 7.90988C8.14386 7.55446 7.51764 7.37676 6.96391 7.60196C6.41018 7.82718 6.08476 8.39194 5.43388 9.52149L4.57328 11.015C3.96318 12.0738 3.65812 12.6032 3.71733 13.1668C3.77653 13.7304 4.18491 14.1845 5.00166 15.0928L6.79937 17.1026C7.23875 17.6588 7.55069 18.6283 7.55069 19.4999C7.55069 20.3718 7.23885 21.3409 6.79942 21.8973L5.00166 23.9071C4.18491 24.8155 3.77655 25.2696 3.71733 25.8333C3.65812 26.3968 3.96318 26.9262 4.57328 27.9849L5.43386 29.4784C6.08472 30.6079 6.41018 31.1728 6.96391 31.3979C7.51764 31.6232 8.14388 31.4455 9.39638 31.09L11.5239 30.4907C12.3236 30.3063 13.1627 30.4111 13.8929 30.7863L14.4802 31.1252C15.1062 31.5263 15.5876 32.1173 15.8542 32.8123L16.4365 34.5516C16.8193 35.7023 17.0108 36.2777 17.4664 36.6069C17.9222 36.9359 18.5276 36.9359 19.7382 36.9359H21.6819C22.8927 36.9359 23.498 36.9359 23.9536 36.6069C24.4094 36.2777 24.6009 35.7023 24.9837 34.5516L25.5661 32.8123C25.8325 32.1173 26.3139 31.5263 26.94 31.1252L27.5273 30.7863C28.2575 30.4111 29.0965 30.3063 29.8963 30.4907L32.0238 31.09C33.2762 31.4455 33.9025 31.6232 34.4563 31.3979C35.0101 31.1728 35.3354 30.6079 35.9863 29.4784L36.8469 27.9849C37.457 26.9262 37.762 26.3968 37.7029 25.8333C37.6436 25.2696 37.2352 24.8155 36.4185 23.9071L34.6207 21.8973C34.1813 21.3409 33.8694 20.3718 33.8694 19.4999C33.8694 18.6283 34.1815 17.6588 34.6207 17.1026L36.4185 15.0928C37.2352 14.1845 37.6436 13.7304 37.7029 13.1668C37.762 12.6032 37.457 12.0738 36.8469 11.015Z" stroke="#F2F2F2" stroke-width="2" stroke-linecap="round"/>
<g filter="url(#filter0_d_60_1881)">
<path d="M14.8544 20.25C14.7651 20.0953 14.7651 19.9047 14.8544 19.75L17.5657 15.0538C17.6551 14.8991 17.8201 14.8038 17.9988 14.8038H23.4214C23.6 14.8038 23.7651 14.8991 23.8544 15.0538L26.5657 19.75C26.6551 19.9047 26.6551 20.0953 26.5657 20.25L23.8544 24.9462C23.7651 25.1009 23.6 25.1962 23.4214 25.1962H17.9988C17.8201 25.1962 17.6551 25.1009 17.5657 24.9462L14.8544 20.25Z" fill="#F2F2F2"/>
</g>
<defs>
<filter id="filter0_d_60_1881" x="12.2875" y="14.304" width="14.8452" height="13.3921" filterUnits="userSpaceOnUse" color-interpolation-filters="sRGB">
<feFlood flood-opacity="0" result="BackgroundImageFix"/>
<feColorMatrix in="SourceAlpha" type="matrix" values="0 0 0 0 0 0 0 0 0 0 0 0 0 0 0 0 0 0 127 0" result="hardAlpha"/>
<feOffset dx="-1" dy="1"/>
<feGaussianBlur stdDeviation="0.75"/>
<feComposite in2="hardAlpha" operator="out"/>
<feColorMatrix type="matrix" values="0 0 0 0 0 0 0 0 0 0 0 0 0 0 0 0 0 0 0.25 0"/>
<feBlend mode="normal" in2="BackgroundImageFix" result="effect1_dropShadow_60_1881"/>
<feBlend mode="normal" in="SourceGraphic" in2="effect1_dropShadow_60_1881" result="shape"/>
</filter>
</defs>
</svg>
