<svg width="53" height="45" viewBox="0 0 53 45" fill="none" xmlns="http://www.w3.org/2000/svg">
<path d="M20.7716 29.1273C20.6748 28.9679 20.6748 28.7678 20.7716 28.6083L24.0765 23.165C24.1671 23.0157 24.3292 22.9245 24.5039 22.9245H31.1581C31.3328 22.9245 31.4948 23.0157 31.5855 23.165L34.8904 28.6083C34.9872 28.7678 34.9872 28.9679 34.8904 29.1273L31.5855 34.5708C31.4948 34.7201 31.3328 34.8113 31.1581 34.8113H24.5039C24.3292 34.8113 24.1671 34.7201 24.0765 34.5708L20.7716 29.1273Z" fill="#F2F2F2"/>
<path d="M10.583 11.297C10.4862 11.1375 10.4862 10.9374 10.583 10.778L13.8879 5.33467C13.9785 5.18534 14.1406 5.09416 14.3153 5.09416H20.9695C21.1442 5.09416 21.3062 5.18534 21.3969 5.33467L24.7018 10.778C24.7986 10.9374 24.7986 11.1375 24.7018 11.297L21.3969 16.7404C21.3062 16.8898 21.1442 16.981 20.9695 16.981H14.3153C14.1406 16.981 13.9785 16.8898 13.8879 16.7404L10.583 11.297Z" fill="#F2F2F2"/>
<path d="M0.39424 28.2784C0.297432 28.119 0.297433 27.9189 0.394242 27.7594L3.69916 22.3161C3.78982 22.1668 3.95185 22.0756 4.12655 22.0756H10.7808C10.9555 22.0756 11.1175 22.1668 11.2082 22.3161L14.5131 27.7594C14.6099 27.9189 14.6099 28.119 14.5131 28.2784L11.2082 33.7219C11.1175 33.8712 10.9555 33.9624 10.7808 33.9624H4.12655C3.95185 33.9624 3.78982 33.8712 3.69916 33.7219L0.39424 28.2784Z" fill="#F2F2F2"/>
<path d="M30.9603 12.1461C30.8635 11.9867 30.8635 11.7866 30.9603 11.6271L34.2652 6.18379C34.3559 6.03446 34.5179 5.94328 34.6926 5.94328H41.3468C41.5215 5.94328 41.6836 6.03446 41.7742 6.18379L45.0791 11.6271C45.1759 11.7866 45.1759 11.9867 45.0791 12.1461L41.7742 17.5896C41.6836 17.7389 41.5215 17.8301 41.3468 17.8301H34.6926C34.5179 17.8301 34.3559 17.7389 34.2652 17.5896L30.9603 12.1461Z" fill="#F2F2F2"/>
<path d="M21.199 16.9809L24.5039 11.5375H31.1581L34.463 16.9809L31.1581 22.4243L24.5039 22.4243L21.199 16.9809Z" stroke="#F2F2F2"/>
<path d="M11.0104 22.9245L14.3153 17.4811H20.9695L24.2744 22.9245L20.9695 28.3679L14.3153 28.3679L11.0104 22.9245Z" stroke="#F2F2F2"/>
<path d="M0.821635 16.9809L4.12655 11.5375H10.7808L14.0857 16.9809L10.7808 22.4243L4.12655 22.4243L0.821635 16.9809Z" stroke="#F2F2F2"/>
<path d="M21.199 5.94325L24.5039 0.499923H31.1581L34.463 5.94325L31.1581 11.3867L24.5039 11.3867L21.199 5.94325Z" stroke="#F2F2F2"/>
<path d="M11.0104 33.9623L14.3153 28.519H20.9695L24.2744 33.9623L20.9695 39.4058L14.3153 39.4058L11.0104 33.9623Z" stroke="#F2F2F2"/>
<path d="M31.3877 22.9245L34.6926 17.4811H41.3468L44.6517 22.9245L41.3468 28.3679L34.6926 28.3679L31.3877 22.9245Z" stroke="#F2F2F2"/>
<path d="M31.2367 36.5L35.0549 29H48.4185L52.2367 36.5L48.4185 44H35.0549L31.2367 36.5Z" fill="url(#paint0_linear_60_1893)" stroke="url(#paint1_linear_60_1893)"/>
<defs>
<linearGradient id="paint0_linear_60_1893" x1="41.7367" y1="29" x2="41.7367" y2="44" gradientUnits="userSpaceOnUse">
<stop stop-color="#141B34"/>
<stop offset="1" stop-color="#38475B"/>
</linearGradient>
<linearGradient id="paint1_linear_60_1893" x1="41.7367" y1="29" x2="41.7367" y2="44" gradientUnits="userSpaceOnUse">
<stop stop-color="#35404D"/>
<stop offset="1" stop-color="#252B38"/>
</linearGradient>
</defs>
</svg>
