<svg width="53" height="52" viewBox="0 0 53 52" fill="none" xmlns="http://www.w3.org/2000/svg">
<path d="M36.7924 11.2114C38.1352 16.3454 36.379 21.5611 32.6837 24.8768C36.5123 25.3067 40.1276 27.3796 42.402 30.8571M36.7924 11.2114C35.8326 11.2552 34.8802 11.3998 33.9507 11.6429M36.7924 11.2114C37.9691 15.7104 36.766 20.2722 33.9636 23.5631M42.402 30.8571C42.9656 31.7188 43.428 32.6425 43.78 33.61L43.6884 33.6699C39.3033 36.5379 33.8601 36.505 29.617 34.0437C30.3906 37.863 29.5129 41.9861 26.8651 45.2493C26.2454 46.0131 25.5442 46.7069 24.774 47.3186L24.6353 47.4288C20.5559 44.1188 18.9068 38.9239 19.9242 34.1147C16.5289 36.0166 12.3405 36.4435 8.42677 34.9262C7.50974 34.5707 6.63422 34.1163 5.81574 33.5709L5.8798 33.4057C7.78049 28.5029 12.2255 25.3381 17.1204 24.8356C14.2974 22.242 12.6035 18.4598 12.8004 14.3301C12.8494 13.3018 13.0167 12.2825 13.2991 11.2924L13.3291 11.1871M42.402 30.8571C41.6049 29.6383 40.643 28.592 39.565 27.7286M13.3291 11.1871C18.5832 11.4376 22.986 14.6811 24.9677 19.1905C26.6184 15.5854 29.8154 12.7246 33.9507 11.6429M13.3291 11.1871C15.8781 11.3087 18.2267 12.1346 20.1957 13.4678M33.9507 11.6429C30.451 12.5583 27.6234 14.7479 25.8362 17.5846" stroke="white" stroke-linejoin="round"/>
<path d="M24.8514 7.65552C29.3054 10.686 30.7074 14.8766 29.689 19.8812C33.056 17.9004 37.2324 17.4118 41.1599 18.9063M24.8514 7.65552C23.5509 8.31912 22.8601 8.8774 22.2505 9.64633C19.5385 13.0674 19.2048 15.8811 20.0203 19.8774C15.7134 17.3488 10.1971 17.3476 5.77954 20.3473M24.8514 7.65552C28.7527 10.3099 30.2508 13.5719 29.9429 18.0108M41.1599 18.9063C42.1331 19.2766 43.0612 19.7601 43.9259 20.3473L43.8873 20.4529C42.0408 25.5073 37.5997 28.8029 32.681 29.3525C35.5937 32.0465 37.347 36.0004 37.1481 40.3219C37.1015 41.3334 36.947 42.3366 36.6873 43.3139L36.6405 43.4899C31.3471 43.2361 26.9003 39.9363 24.8502 35.3284C23.2299 38.9776 20.083 41.8884 15.9965 43.0197C15.039 43.2847 14.056 43.4424 13.065 43.4899L13.0182 43.3139C11.6296 38.0892 13.3472 32.7522 17.0227 29.3475C13.1783 28.9207 9.54014 26.8193 7.22994 23.2756C6.65467 22.3931 6.18094 21.446 5.81813 20.4529L5.77954 20.3473M41.1599 18.9063C39.7834 18.3825 38.3764 18.1023 36.9843 18.0446M5.77954 20.3473C7.92267 18.892 10.3244 18.143 12.7212 18.0463" stroke="white" stroke-linejoin="round"/>
<path d="M26.7866 24.6885C26.767 24.7848 26.8056 24.8837 26.8854 24.9412C26.9652 24.9986 27.0712 25.004 27.1564 24.9549C27.372 24.8307 27.5957 24.7212 27.8258 24.6271C29.0922 24.1097 30.5524 24.0619 31.9365 24.6054C32.2417 24.7252 32.5362 24.8717 32.8166 25.0432C32.1148 26.7361 30.6821 27.9018 29.0332 28.3119C28.789 28.3727 28.5401 28.4168 28.2881 28.4436C28.1904 28.4541 28.1078 28.5208 28.0771 28.6142C28.0464 28.7076 28.0733 28.8104 28.1459 28.8767C28.9095 29.5752 29.4791 30.4847 29.7669 31.5077C29.9221 32.0596 29.9954 32.6449 29.9729 33.2484C29.9595 33.6071 29.9118 33.9631 29.8306 34.3114C27.7615 34.1523 26.0211 32.8402 25.2078 31.0261C25.1673 30.9359 25.0776 30.878 24.9787 30.8784C24.8799 30.8787 24.7905 30.9373 24.7508 31.0278C24.1048 32.4983 22.8374 33.6671 21.1845 34.1183C20.8385 34.2127 20.4839 34.2726 20.1258 34.2971C19.6401 32.2552 20.3231 30.1993 21.7542 28.8751C21.8258 28.8089 21.8523 28.707 21.8221 28.6143C21.7919 28.5215 21.7106 28.4548 21.6137 28.4433C20.0322 28.2566 18.5342 27.3823 17.587 25.9203C17.4014 25.6338 17.2418 25.3311 17.1103 25.0159C18.8826 23.904 21.0582 23.9401 22.7754 24.9412C22.8608 24.991 22.9675 24.9858 23.0477 24.9279C23.1278 24.8701 23.1664 24.7704 23.146 24.6737C22.8178 23.1152 23.1484 21.4345 24.1903 20.0973C24.4174 19.8059 24.6731 19.5388 24.9533 19.3001C25.6673 19.9173 26.1904 20.6814 26.5134 21.5122C26.9056 22.5213 27.0023 23.6283 26.7866 24.6885Z" fill="white" stroke="white" stroke-width="0.5" stroke-linejoin="round"/>
<path fill-rule="evenodd" clip-rule="evenodd" d="M19.9948 13.3344C20.0139 13.3468 20.0329 13.3593 20.0519 13.3718L19.9948 13.3344ZM39.3371 27.5501C39.3371 27.5501 39.3371 27.5501 39.3371 27.5501V27.5501Z" fill="#D9D9D9"/>
<path d="M42.402 30.8571C42.9656 31.7188 43.428 32.6425 43.78 33.61L43.6884 33.6699C39.3033 36.5379 33.8601 36.505 29.617 34.0437C30.3906 37.863 29.5129 41.9861 26.8651 45.2493C26.2454 46.0131 25.5442 46.7069 24.774 47.3186L24.6353 47.4288C20.5559 44.1188 18.9068 38.9239 19.9242 34.1147C16.5289 36.0166 12.3405 36.4435 8.42677 34.9262C7.50974 34.5707 6.63422 34.1163 5.81574 33.5709L5.8798 33.4057C7.78049 28.5029 12.2255 25.3381 17.1204 24.8356C14.2974 22.242 12.6035 18.4598 12.8004 14.3301C12.8494 13.3018 13.0167 12.2825 13.2991 11.2924L13.3291 11.1871C15.7919 11.3045 18.0677 12.0796 19.9948 13.3344M42.402 30.8571C41.6049 29.6383 40.643 28.592 39.565 27.7286C39.4896 27.6682 39.4136 27.6087 39.3371 27.5501M42.402 30.8571C41.5491 29.553 40.5076 28.4465 39.3371 27.5501M33.9507 11.6429C34.8802 11.3998 35.8326 11.2552 36.7924 11.2114C37.9674 15.7036 36.7696 20.2585 33.9763 23.5483M33.9507 11.6429C30.451 12.5583 27.6234 14.7479 25.8362 17.5846C25.8086 17.6284 25.7812 17.6724 25.7541 17.7166M33.9507 11.6429C30.3969 12.5724 27.5361 14.8159 25.7541 17.7166M20.1957 13.4678C20.148 13.4355 20.1 13.4035 20.0519 13.3718M33.9636 23.5631C33.9679 23.5582 33.9721 23.5532 33.9763 23.5483M33.9763 23.5483C33.5772 24.0182 33.1456 24.4624 32.6837 24.8768C35.015 25.1386 37.2673 26.0096 39.1858 27.4359C39.2365 27.4736 39.2869 27.5116 39.3371 27.5501M19.9948 13.3344C20.0139 13.3468 20.0329 13.3593 20.0519 13.3718M19.9948 13.3344L20.0519 13.3718M25.7541 17.7166C25.7414 17.7373 25.7287 17.758 25.7161 17.7788C25.4397 18.2342 25.1897 18.7056 24.9677 19.1905C23.9241 16.8158 22.2091 14.7921 20.0519 13.3718M39.3371 27.5501C39.3371 27.5501 39.3371 27.55 39.3371 27.5501Z" stroke="white" stroke-linejoin="round"/>
<path d="M24.8514 7.65552C29.3054 10.686 30.7074 14.8766 29.689 19.8812C33.056 17.9004 37.2324 17.4118 41.1599 18.9063M24.8514 7.65552C23.5509 8.31912 22.8601 8.8774 22.2505 9.64633C19.5385 13.0674 19.2048 15.8811 20.0203 19.8774C15.7134 17.3488 10.1971 17.3476 5.77954 20.3473M24.8514 7.65552C28.7527 10.3099 30.2508 13.5719 29.9429 18.0108M41.1599 18.9063C42.1331 19.2766 43.0612 19.7601 43.9259 20.3473L43.8873 20.4529C42.0408 25.5073 37.5997 28.8029 32.681 29.3525C35.5937 32.0465 37.347 36.0004 37.1481 40.3219C37.1015 41.3334 36.947 42.3366 36.6873 43.3139L36.6405 43.4899C31.3471 43.2361 26.9003 39.9363 24.8502 35.3284C23.2299 38.9776 20.083 41.8884 15.9965 43.0197C15.039 43.2847 14.056 43.4424 13.065 43.4899L13.0182 43.3139C11.6296 38.0892 13.3472 32.7522 17.0227 29.3475C13.1783 28.9207 9.54014 26.8193 7.22994 23.2756C6.65467 22.3931 6.18094 21.446 5.81813 20.4529L5.77954 20.3473M41.1599 18.9063C39.7834 18.3825 38.3764 18.1023 36.9843 18.0446M5.77954 20.3473C7.92267 18.892 10.3244 18.143 12.7212 18.0463" stroke="white" stroke-linejoin="round"/>
<path d="M26.7866 24.6885C26.767 24.7848 26.8056 24.8837 26.8854 24.9412C26.9652 24.9986 27.0712 25.004 27.1564 24.9549C27.372 24.8307 27.5957 24.7212 27.8258 24.6271C29.0922 24.1097 30.5524 24.0619 31.9365 24.6054C32.2417 24.7252 32.5362 24.8717 32.8166 25.0432C32.1148 26.7361 30.6821 27.9018 29.0332 28.3119C28.789 28.3727 28.5401 28.4168 28.2881 28.4436C28.1904 28.4541 28.1078 28.5208 28.0771 28.6142C28.0464 28.7076 28.0733 28.8104 28.1459 28.8767C28.9095 29.5752 29.4791 30.4847 29.7669 31.5077C29.9221 32.0596 29.9954 32.6449 29.9729 33.2484C29.9595 33.6071 29.9118 33.9631 29.8306 34.3114C27.7615 34.1523 26.0211 32.8402 25.2078 31.0261C25.1673 30.9359 25.0776 30.878 24.9787 30.8784C24.8799 30.8787 24.7905 30.9373 24.7508 31.0278C24.1048 32.4983 22.8374 33.6671 21.1845 34.1183C20.8385 34.2127 20.4839 34.2726 20.1258 34.2971C19.6401 32.2552 20.3231 30.1993 21.7542 28.8751C21.8258 28.8089 21.8523 28.707 21.8221 28.6143C21.7919 28.5215 21.7106 28.4548 21.6137 28.4433C20.0322 28.2566 18.5342 27.3823 17.587 25.9203C17.4014 25.6338 17.2418 25.3311 17.1103 25.0159C18.8826 23.904 21.0582 23.9401 22.7754 24.9412C22.8608 24.991 22.9675 24.9858 23.0477 24.9279C23.1278 24.8701 23.1664 24.7704 23.146 24.6737C22.8178 23.1152 23.1484 21.4345 24.1903 20.0973C24.4174 19.8059 24.6731 19.5388 24.9533 19.3001C25.6673 19.9173 26.1904 20.6814 26.5134 21.5122C26.9056 22.5213 27.0023 23.6283 26.7866 24.6885Z" fill="white" stroke="white" stroke-width="0.5" stroke-linejoin="round"/>
<path d="M13.7244 12.4126C13.8455 12.4126 14.2066 12.272 14.3087 12.3741C14.3723 12.4377 14.2947 12.5615 14.4438 12.5615C14.6102 12.5615 14.8022 12.5364 14.9619 12.5863C15.3059 12.6938 15.6724 12.7469 16.0093 12.8592C16.1299 12.8994 16.1576 12.9994 16.3043 13.008C16.3799 13.0125 16.6135 13.1593 16.6902 13.2065C17.0075 13.4017 17.3594 13.4916 17.6935 13.642C17.8003 13.69 17.9525 13.8018 18.0656 13.8018C18.1707 13.8018 18.3191 13.7745 18.4129 13.8266C18.6468 13.9566 18.5005 14.2095 18.4873 14.4468C18.4732 14.6993 18.4873 14.9574 18.4873 15.2103C18.4873 15.461 18.5865 15.6469 18.5865 15.8856C18.5865 15.9989 18.6857 16.0605 18.6857 16.1833C18.6857 16.2984 18.679 16.4157 18.6857 16.5306C18.7089 16.9253 18.785 17.3338 18.785 17.7461C18.785 17.8258 18.8301 17.9373 18.7243 17.8315C18.6381 17.7453 18.5012 17.7558 18.388 17.6992C18.1264 17.5684 17.9071 17.4188 17.6328 17.3134C17.4807 17.2549 17.4433 17.1755 17.2717 17.1755C17.0441 17.1755 16.8238 17.1374 16.5964 17.1232C16.2892 17.104 16.0086 17.0278 15.7089 16.9881C15.5054 16.9612 15.3257 16.9237 15.1246 16.8806C15.0398 16.8625 14.9943 16.783 14.9151 16.7786C14.6817 16.7657 14.5158 16.8179 14.4079 16.6022C14.2335 16.2535 14.1213 15.8062 14.1213 15.4143C14.1213 15.097 14.0045 14.7366 14.0744 14.422C14.1379 14.1362 14.7726 13.2448 15.1246 13.675C15.4283 14.0463 15.4851 14.5069 15.4608 14.9429C15.4371 15.3697 15.9824 15.3398 16.3263 15.3398C16.6008 15.3398 17.0258 15.1502 17.1863 15.4391C17.3191 15.6782 17.4746 15.9148 17.6686 16.1089C17.7585 16.1987 17.8855 16.2745 17.9525 16.3817C17.9998 16.4573 18.054 16.5591 18.1152 16.6326C18.2423 16.7852 18.301 17.04 18.3991 17.2252C18.4809 17.3798 18.5018 17.609 18.6251 17.7323C18.693 17.8002 18.6779 17.8728 18.7353 17.9446C18.8064 18.0334 18.8962 18.0203 18.807 17.9694C18.6239 17.8648 18.3621 17.2582 18.4404 17.4539C18.5095 17.6265 18.5586 17.8202 18.6968 17.9583C18.9817 18.2433 18.756 17.8052 18.6554 17.7158C18.3986 17.4876 18.3653 17.1031 18.14 16.8779" stroke="white" stroke-width="2.3" stroke-linecap="round"/>
<path d="M36.3295 12.6995C36.1943 12.702 35.7887 12.5664 35.6766 12.6721C35.6068 12.7381 35.6957 12.8623 35.5294 12.8653C35.3436 12.8687 35.1289 12.8471 34.9515 12.901C34.5696 13.0172 34.1615 13.0786 33.7875 13.1995C33.6537 13.2428 33.6247 13.345 33.4611 13.3568C33.3768 13.3628 33.1188 13.5168 33.0341 13.5662C32.6835 13.7711 32.2925 13.8696 31.9224 14.0291C31.804 14.0801 31.6362 14.1968 31.51 14.1991C31.3927 14.2012 31.2266 14.1765 31.1229 14.2313C30.8642 14.3681 31.0322 14.6222 31.0513 14.863C31.0716 15.1193 31.0607 15.3818 31.0654 15.6388C31.07 15.8935 30.9627 16.0844 30.9671 16.327C30.9692 16.4421 30.8596 16.5067 30.8618 16.6314C30.864 16.7484 30.8737 16.8675 30.8683 16.9843C30.8496 17.3859 30.7723 17.8025 30.78 18.2214C30.7814 18.3024 30.7331 18.4167 30.8492 18.307C30.9439 18.2177 31.0968 18.2256 31.2221 18.1658C31.5117 18.0275 31.7537 17.8711 32.0578 17.7584C32.2266 17.6958 32.2668 17.6145 32.4583 17.611C32.7123 17.6064 32.9575 17.5632 33.211 17.5441C33.5536 17.5184 33.8653 17.4353 34.1991 17.3889C34.4257 17.3574 34.6256 17.3157 34.8493 17.2678C34.9436 17.2476 34.9928 17.166 35.0812 17.1599C35.3414 17.142 35.5276 17.1917 35.6439 16.9704C35.8321 16.6125 35.9492 16.1557 35.942 15.7575C35.9361 15.4352 36.0598 15.0666 35.9759 14.7483C35.8998 14.4592 35.175 13.5663 34.7901 14.0106C34.4579 14.394 34.4031 14.8632 34.4382 15.3057C34.4725 15.7389 33.8634 15.7196 33.4796 15.7266C33.1732 15.7322 32.6954 15.548 32.5216 15.8449C32.3778 16.0905 32.2086 16.3341 31.9956 16.5352C31.897 16.6283 31.7566 16.7079 31.6838 16.8182C31.6325 16.8959 31.5739 17.0005 31.5069 17.0764C31.3678 17.234 31.307 17.4942 31.201 17.6843C31.1125 17.8431 31.0934 18.0764 30.9581 18.2042C30.8836 18.2745 30.9017 18.348 30.839 18.4221C30.7613 18.5138 30.6608 18.5024 30.7595 18.4487C30.9618 18.3387 31.2429 17.7171 31.1591 17.9176C31.0852 18.0944 31.034 18.2921 30.8823 18.4353C30.5695 18.7307 30.8133 18.2809 30.924 18.188C31.2063 17.9509 31.2365 17.5596 31.4838 17.3261" stroke="white" stroke-width="2.5" stroke-linecap="round"/>
<path d="M42.3554 33.6018C42.2993 33.4638 42.2714 32.9961 42.1231 32.921C42.0307 32.8743 41.944 33.0124 41.875 32.8428C41.798 32.6533 41.734 32.4246 41.6106 32.2629C41.345 31.9146 41.1227 31.5187 40.8556 31.1804C40.7599 31.0593 40.6481 31.0681 40.5717 30.9046C40.5323 30.8203 40.2787 30.6134 40.1966 30.5452C39.8563 30.2626 39.6044 29.8982 39.3009 29.5784C39.2039 29.4761 39.0227 29.3478 38.9704 29.2192C38.9217 29.0995 38.8801 28.9196 38.785 28.8338C38.5481 28.6198 38.3654 28.8883 38.1366 28.9988C37.893 29.1164 37.631 29.2044 37.3806 29.3062C37.1324 29.4071 36.9024 29.369 36.6661 29.4651C36.5539 29.5107 36.447 29.4226 36.3254 29.472C36.2115 29.5184 36.0984 29.5733 35.9816 29.6118C35.58 29.7444 35.1404 29.8223 34.7321 29.9883C34.6532 30.0204 34.5219 30.0139 34.6756 30.0917C34.8009 30.1552 34.8538 30.3152 34.9623 30.4213C35.213 30.6665 35.4626 30.8559 35.6939 31.1256C35.8223 31.2752 35.9181 31.2858 35.9975 31.4812C36.1029 31.7403 36.2427 31.9757 36.362 32.2288C36.5232 32.5709 36.7286 32.8596 36.9066 33.1848C37.0275 33.4056 37.1477 33.5951 37.2835 33.8067C37.3408 33.8959 37.4404 33.9157 37.4815 34.0041C37.6023 34.2646 37.6275 34.4745 37.8909 34.5105C38.317 34.5685 38.8118 34.5163 39.1998 34.3585C39.5139 34.2307 39.9248 34.2186 40.2039 34.0123C40.4575 33.8249 41.0463 32.7436 40.4574 32.5161C39.9492 32.3198 39.4669 32.4406 39.0464 32.6438C38.6348 32.8426 38.4119 32.2098 38.2527 31.8183C38.1257 31.5058 38.1167 30.9457 37.7564 30.8793C37.4581 30.8244 37.1519 30.7426 36.8699 30.5999C36.7394 30.5338 36.6056 30.4197 36.4683 30.3866C36.3717 30.3632 36.2458 30.3425 36.1447 30.3024C35.9348 30.2191 35.6553 30.2549 35.4266 30.2178C35.2355 30.1869 34.9989 30.2554 34.8198 30.1647C34.7212 30.1148 34.6562 30.1611 34.5586 30.1247C34.4377 30.0795 34.4091 29.972 34.5009 30.0531C34.6892 30.2193 35.411 30.2732 35.1809 30.2629C34.9781 30.2538 34.7636 30.2758 34.5628 30.1741C34.1488 29.9645 34.687 30.045 34.8221 30.1236C35.167 30.324 35.563 30.2072 35.8904 30.3729" stroke="white" stroke-width="2.5" stroke-linecap="round"/>
<path d="M24.4673 39.9833C24.4673 39.8744 24.4369 39.71 24.5015 39.6212C24.5294 39.5828 24.5086 39.5 24.5113 39.4547C24.5148 39.3954 24.5913 39.3917 24.5994 39.3226C24.6107 39.2266 24.6875 39.1852 24.6875 39.0583C24.6875 38.9042 24.6875 38.75 24.6875 38.5958C24.6875 38.4917 24.6606 38.3398 24.7536 38.2655C24.8136 38.2174 24.9619 38.0893 24.7756 38.0893C24.5846 38.0893 24.6513 37.9659 24.7218 37.825C24.8107 37.647 24.8244 38.3895 24.8441 38.471C25.0029 39.1289 25.2823 39.7839 25.774 40.2574C25.8457 40.3264 26.06 40.5569 26.053 40.3161C26.0438 40.0043 25.8837 39.4876 25.637 39.2761C25.5636 39.2133 25.5026 39.0925 25.4363 39.0167C25.36 38.9295 25.3368 38.7609 25.2405 38.7059C25.1037 38.6278 25.2219 38.4025 25.1378 38.2997C25.0321 38.1705 24.8196 37.9612 24.8196 37.803C24.8196 37.7552 24.81 37.6657 24.8221 37.7687C24.8524 38.0267 24.996 38.288 25.0839 38.5298C25.297 39.1158 25.4652 39.7694 25.8083 40.2941C25.8804 40.4045 25.9614 40.5777 26.0774 40.644C26.1839 40.7049 26.2335 40.8544 26.3515 40.8643C26.4848 40.8754 26.5984 40.9964 26.7479 40.9964C26.876 40.9964 27.0041 40.9964 27.1321 40.9964C27.3266 40.9964 27.5109 41.123 27.6289 41.2705C27.6763 41.3297 27.6387 41.5472 27.6387 41.6229C27.6387 41.8365 27.5032 41.9696 27.46 42.1637C27.434 42.2806 27.3219 42.4766 27.2618 42.5797C27.2119 42.6652 27.1515 42.7294 27.1076 42.8244C27.0733 42.8988 26.9422 42.9517 26.9339 43.0226C26.9193 43.1468 26.6999 43.2717 26.6354 43.375C26.5788 43.4654 26.4346 43.685 26.3393 43.7273C26.2195 43.7805 26.1974 43.9671 26.0774 44.0357C25.9731 44.0953 25.9146 44.3013 25.8327 44.388C25.6476 44.5841 25.4678 44.7726 25.2797 44.9607C25.1947 45.0457 25.0992 45.1984 24.9958 45.2592C24.9001 45.3155 24.8632 45.4892 24.7536 45.4892C24.5233 45.4892 24.3413 45.0702 24.2226 44.9191C24.086 44.7453 23.9035 44.5842 23.7429 44.4321C23.5393 44.2391 23.3575 43.9362 23.2119 43.6613C22.9976 43.2565 22.6254 43.0452 22.3726 42.68C22.2332 42.4787 22.0515 42.3596 21.9982 42.1196C21.9718 42.0009 21.8685 41.9422 21.8685 41.8113C21.8685 41.7099 21.8172 41.6034 21.8244 41.4809C21.8291 41.4008 22.0995 41.253 22.1572 41.2069C22.4903 40.9404 22.6795 40.4948 22.9697 40.184C23.186 39.9521 23.5168 39.9599 23.738 39.7386C23.86 39.6166 23.9243 39.5342 23.9852 39.3324C24.1091 38.9219 24.2741 38.5257 24.3987 38.1162C24.421 38.0432 24.4232 37.8123 24.4232 37.8886C24.4232 38.7259 24.3385 39.5226 24.2715 40.3553C24.1992 41.2533 24.0177 42.2073 24.0708 43.1107C24.0812 43.2869 24.676 42.8384 24.7218 42.7926C24.7892 42.7252 25.003 42.3299 25.1475 42.4744C25.2201 42.547 25.172 42.8638 25.172 42.959C25.172 43.4189 25.128 43.8767 25.128 44.3342C25.128 44.6177 24.977 44.8194 24.8466 45.0512C24.7642 45.1976 24.7758 45.3983 24.6875 45.5528C24.6589 45.6029 24.5994 45.8582 24.5994 45.6654" stroke="white" stroke-width="2.5" stroke-linecap="round"/>
<path d="M27.286 40.4676C27.2416 40.2453 26.8882 40.0362 26.6938 39.9806C26.6392 39.965 26.5901 39.7961 26.547 39.753C26.5341 39.7401 26.6028 39.938 26.6253 39.9831" stroke="white" stroke-width="2" stroke-linecap="round"/>
<path d="M6.71606 33.2442C6.72561 33.1678 6.85273 33.0907 6.91183 33.0582C7.10297 32.9533 7.23777 32.7924 7.41103 32.6618C7.66587 32.4697 7.90409 32.2406 8.12558 32.0109C8.21995 31.913 8.29132 31.7996 8.38007 31.6976C8.46175 31.6038 8.58936 31.5556 8.6468 31.4407C8.8545 31.0253 9.435 30.9044 9.66723 30.5133C9.83223 30.2354 10.1995 30.1095 10.394 29.8501C10.4953 29.7151 10.6288 29.695 10.7488 29.5883C10.8207 29.5244 10.8989 29.4222 10.9666 29.368C11.0237 29.3223 10.9886 29.1085 10.9886 29.0377C10.9886 28.7368 10.9233 28.921 10.7342 29.0597C10.4987 29.2324 10.3108 29.5431 10.0637 29.6862C10.0076 29.7186 9.75568 29.8898 9.87034 29.8281C10.3252 29.5831 10.6742 29.5442 11.1869 29.5442C11.3854 29.5442 11.5881 29.5325 11.7864 29.5467C11.9847 29.5608 12.1431 29.6653 12.3296 29.7106C12.7066 29.8023 13.0226 29.8966 13.421 29.8966C13.7334 29.8966 14.0459 29.8966 14.3583 29.8966C14.5043 29.8966 14.6503 29.8966 14.7963 29.8966C14.8753 29.8966 14.8648 29.9401 14.8648 30.0067C14.8648 30.1369 14.6241 30.2316 14.5418 30.2783C13.707 30.7526 12.8739 31.293 12.2415 32.0158C12.1491 32.1214 12.0645 32.2977 12.0017 32.4269C11.9297 32.5752 11.9139 32.7418 11.8353 32.8918C11.7985 32.9621 11.7143 33.007 11.6959 33.09C11.618 33.4403 11.5613 33.7204 11.5613 34.0811C11.5613 34.2199 11.6148 34.3013 11.7595 34.3013C11.8983 34.3013 11.9636 34.0643 12.0115 33.9685C12.3029 33.3857 12.7813 32.9349 13.1445 32.3902C13.3734 32.0468 12.6442 33.0478 12.4226 33.3959C12.295 33.5964 12.222 33.9773 12.222 34.2132C12.222 34.307 12.2124 34.5383 12.3101 34.3796C12.4494 34.1532 12.5401 33.8808 12.6404 33.6357C12.7991 33.2479 12.8501 32.9813 13.1886 32.6936C13.3578 32.5497 13.5534 32.3623 13.656 32.1626C13.6872 32.1018 13.9265 31.6234 13.7881 31.7025C13.7345 31.7332 13.6749 31.8353 13.629 31.8812C13.4796 32.0306 13.2922 32.1637 13.1225 32.2898C12.9512 32.4171 12.5789 32.5304 12.3835 32.5394C12.074 32.5537 11.7891 32.5931 11.4781 32.5394C11.0917 32.4728 10.7029 32.2263 10.3524 32.0549C9.95572 31.861 9.47745 31.6585 9.0261 31.6585C8.85239 31.6585 8.56254 31.9053 8.48774 32.0549C8.35042 32.3296 8.67521 32.6242 8.74469 32.8673C8.77219 32.9636 8.86885 33.057 8.96247 33.068C9.00426 33.0729 9.31438 33.4365 9.35645 33.4865C9.58479 33.7576 9.93459 33.9627 10.2398 34.1153C10.3544 34.1726 10.5179 34.0851 10.6363 34.1349C10.7406 34.1789 10.9952 34.3013 11.0988 34.3013C11.1678 34.3013 11.4396 34.3552 11.4732 34.4139C11.5373 34.5261 11.7667 34.4775 11.8794 34.4775C12.0242 34.4775 12.1556 34.4627 12.288 34.5216C12.7021 34.7056 12.2129 34.0119 12.1143 33.8755C11.852 33.513 11.7427 33.0135 11.5564 32.608C11.4177 32.306 11.2142 31.9407 11.1404 31.6144C11.039 31.1662 11.0904 30.694 11.067 30.2392C11.0664 30.2278 11.0133 29.5928 10.9446 29.7473C10.7972 30.0789 10.6895 30.4135 10.5482 30.7482C10.3197 31.2893 9.84626 31.7045 9.56201 32.2189C9.5338 32.2699 9.39239 32.5204 9.33443 32.537C9.28998 32.5497 9.23833 32.5704 9.20718 32.6104C9.07616 32.7789 8.92734 33.0033 8.75203 33.1365C8.57885 33.2681 8.47795 33.9462 8.47795 33.7287" stroke="white" stroke-width="2.5" stroke-linecap="round"/>
</svg>
