<svg width="46" height="46" viewBox="0 0 46 46" fill="none" xmlns="http://www.w3.org/2000/svg">
<path d="M5.50383 34.3499C4.28886 34.2405 3.41787 33.5476 3.07272 32.2908C2.58465 30.5136 3.62341 28.6775 5.39459 28.1784C7.16037 27.8723 8.79167 28.5116 10.286 29.735C11.7926 30.9685 13.1189 32.7656 14.2271 34.6611C15.1628 36.2613 15.93 37.9087 16.5105 39.3014C14.8355 37.3452 12.478 35.3909 9.36946 34.5285C8.6841 34.3384 7.99266 34.3288 7.35022 34.3449C7.20093 34.3487 7.05539 34.3537 6.91272 34.3586C6.42086 34.3755 5.96313 34.3913 5.50383 34.3499Z" stroke="white"/>
<path d="M34.0424 4.92474C34.0934 3.70591 33.5209 2.75151 32.3203 2.24438C30.6225 1.52725 28.6659 2.316 27.9387 4.00633C27.4034 5.71665 27.823 7.41775 28.8397 9.05973C29.8648 10.7153 31.4722 12.2659 33.2058 13.6134C34.6161 14.7096 36.0904 15.6565 37.3629 16.4025C35.3766 14.3448 33.9965 12.0731 33.6669 8.76403C33.5972 8.06394 33.6887 7.3823 33.793 6.75053C33.8129 6.62974 33.8332 6.5113 33.8532 6.3947C33.9407 5.88335 34.0222 5.40745 34.0424 4.92474Z" fill="white" stroke="white"/>
<path d="M22.1731 3.7592C24.1482 12.966 31.3802 20.198 40.587 22.1731C31.3802 24.1482 24.1482 31.3802 22.1731 40.587C20.198 31.3802 12.966 24.1482 3.7592 22.1731C12.966 20.198 20.198 12.966 22.1731 3.7592Z" fill="white" stroke="white"/>
</svg>
