<svg width="70" height="70" viewBox="0 0 70 70" fill="none" xmlns="http://www.w3.org/2000/svg">
<path d="M5.5867 48.8926C6.30643 51.5134 8.36446 52.8452 11.1139 52.6781C12.3776 52.6013 13.6546 52.3949 14.892 52.6627C22.7774 54.3698 27.6802 60.8139 30 64.854C29.7115 63.8035 22 39.354 9.77766 41.5283C6.58675 42.4046 4.71039 45.7017 5.5867 48.8926Z" fill="#D9D9D9"/>
<path d="M49.035 4.33139C51.5386 5.3889 52.5887 7.60395 52.0622 10.3077C51.8201 11.5504 51.4549 12.7891 51.5213 14.0534C51.9296 21.8254 55.9515 25.8763 61.6536 30.6286C60.6501 30.2048 37.4244 19.3506 41.1842 7.51938C42.4718 4.47111 45.9867 3.0438 49.035 4.33139Z" fill="#D9D9D9"/>
<path d="M34.5 0L34.5776 1.40524C35.5611 19.2169 49.7831 33.4389 67.5948 34.4224L69 34.5L67.5948 34.5776C49.7831 35.5611 35.5611 49.7831 34.5776 67.5948L34.5 69L34.4224 67.5948C33.4389 49.7831 19.2169 35.5611 1.40524 34.5776L0 34.5L1.40524 34.4224C19.2169 33.4389 33.4389 19.2169 34.4224 1.40524L34.5 0Z" fill="#D9D9D9"/>
</svg>
