<svg width="24" height="25" viewBox="0 0 24 25" fill="none" xmlns="http://www.w3.org/2000/svg">
<path d="M21 20.5C20.3567 19.2133 19 17.5243 19 16.0279C19 14.3295 19.3671 12.2341 18.5777 10.6554C18.2445 9.98892 18 9.31397 18 8.55573V4.92857C18 4.69188 17.8081 4.5 17.5714 4.5C16.1513 4.5 15 5.65127 15 7.07143M8 18.5L11.6348 20.7717C11.8755 20.9222 12.0814 21.1222 12.2389 21.3583L13 22.5" stroke="#F2F2F2" stroke-width="1.5" stroke-linecap="round"/>
<path d="M5.02734 15.5C5.08201 16.5967 5.24516 17.2809 5.73203 17.7678C6.46426 18.5 7.64277 18.5 9.99979 18.5C12.3568 18.5 13.5353 18.5 14.2676 17.7678C14.9998 17.0355 14.9998 15.857 14.9998 13.5V7.5C14.9998 5.14298 14.9998 3.96447 14.2676 3.23223C13.5353 2.5 12.3568 2.5 9.99979 2.5C7.64277 2.5 6.46426 2.5 5.73203 3.23223C5.24516 3.7191 5.08201 4.40328 5.02734 5.5" stroke="#F2F2F2" stroke-width="1.5" stroke-linejoin="round"/>
<path d="M4.25 8H5.75C6.44036 8 7 7.44036 7 6.75C7 6.05964 6.44036 5.5 5.75 5.5H4.25C3.55964 5.5 3 6.05964 3 6.75C3 7.44036 3.55964 8 4.25 8ZM4.25 8H6.75C7.44036 8 8 8.55964 8 9.25C8 9.94036 7.44036 10.5 6.75 10.5H4.25M4.25 8C3.55964 8 3 8.55964 3 9.25C3 9.94036 3.55964 10.5 4.25 10.5M4.25 10.5H5.75C6.44036 10.5 7 11.0596 7 11.75C7 12.4404 6.44036 13 5.75 13H4.25M4.25 10.5C3.55964 10.5 3 11.0596 3 11.75C3 12.4404 3.55964 13 4.25 13M4.25 13H5.25C5.94036 13 6.5 13.5596 6.5 14.25C6.5 14.9404 5.94036 15.5 5.25 15.5H4.25C3.55964 15.5 3 14.9404 3 14.25C3 13.5596 3.55964 13 4.25 13Z" stroke="#F2F2F2" stroke-width="1.5" stroke-linecap="round"/>
<path d="M9.99981 15.5H10.0088" stroke="#F2F2F2" stroke-width="2" stroke-linecap="round" stroke-linejoin="round"/>
</svg>
