<svg width="442" height="262" viewBox="0 0 442 262" fill="none" xmlns="http://www.w3.org/2000/svg">
<path d="M24.08 236.698H27.728V250.306H32.168V253.33H24.08V236.698ZM35.1373 235.738C36.1133 235.738 36.6013 236.194 36.6013 237.106C36.6013 237.714 36.3613 238.458 35.8813 239.338C35.4173 240.218 34.9293 241.002 34.4173 241.69H32.8813L33.8893 235.738H35.1373ZM44.5232 236.698H48.1232V249.274C48.1232 250.586 47.6992 251.634 46.8512 252.418C46.0192 253.186 44.7792 253.57 43.1312 253.57C41.4992 253.57 40.2592 253.186 39.4112 252.418C38.5792 251.65 38.1632 250.602 38.1632 249.274V236.698H41.7632V249.082C41.7632 249.882 42.2192 250.282 43.1312 250.282C44.0592 250.282 44.5232 249.882 44.5232 249.082V236.698ZM58.854 236.698V239.818H55.854V253.33H52.206V239.818H49.206V236.698H58.854ZM60.0566 236.698H63.7046V253.33H60.0566V236.698ZM65.8691 236.698H69.5171V250.306H73.9571V253.33H65.8691V236.698ZM75.1503 236.698H78.7983V253.33H75.1503V236.698ZM80.3628 240.586C80.3628 239.306 80.7948 238.322 81.6588 237.634C82.5228 236.93 83.7628 236.578 85.3788 236.578C87.0108 236.578 88.2268 236.746 89.0268 237.082V240.538C88.0508 240.122 86.9388 239.914 85.6908 239.914C85.0508 239.914 84.6188 240.018 84.3948 240.226C84.1708 240.418 84.0588 240.698 84.0588 241.066V241.426C84.0588 241.874 84.1308 242.21 84.2748 242.434C84.4348 242.642 84.7708 242.882 85.2828 243.154L88.0188 244.69C89.3308 245.41 89.9868 246.49 89.9868 247.93V249.418C89.9868 250.714 89.5068 251.714 88.5468 252.418C87.5868 253.106 86.2348 253.45 84.4908 253.45C82.7628 253.45 81.4588 253.266 80.5788 252.898V249.418C81.6668 249.882 82.8988 250.114 84.2748 250.114C85.6508 250.114 86.3388 249.722 86.3388 248.938V248.578C86.3388 248.21 86.2588 247.938 86.0988 247.762C85.9548 247.57 85.6748 247.362 85.2588 247.138L82.6908 245.746C81.1388 244.882 80.3628 243.666 80.3628 242.098V240.586ZM98.6137 253.33L97.9177 249.49H94.6297L93.9817 253.33H90.5497L93.8137 236.698H98.8297L102.046 253.33H98.6137ZM95.1337 246.442H97.3897L96.2377 240.01L95.1337 246.442ZM111.94 236.698V239.818H108.94V253.33H105.292V239.818H102.292V236.698H111.94ZM113.143 236.698H116.791V253.33H113.143V236.698ZM125.171 240.946C125.171 240.146 124.691 239.746 123.731 239.746C122.787 239.746 122.315 240.146 122.315 240.946V249.082C122.315 249.882 122.787 250.282 123.731 250.282C124.691 250.282 125.171 249.882 125.171 249.082V240.946ZM118.715 240.754C118.715 239.442 119.139 238.402 119.987 237.634C120.835 236.85 122.083 236.458 123.731 236.458C125.379 236.458 126.627 236.85 127.475 237.634C128.339 238.402 128.771 239.442 128.771 240.754V249.274C128.771 250.586 128.339 251.634 127.475 252.418C126.627 253.186 125.379 253.57 123.731 253.57C122.083 253.57 120.835 253.186 119.987 252.418C119.139 251.634 118.715 250.586 118.715 249.274V240.754ZM137.753 236.698H141.305V253.33H137.849C135.481 247.282 134.113 243.634 133.745 242.386C134.081 243.65 134.249 245.826 134.249 248.914V253.33H130.697V236.698H134.249L136.433 242.266C137.361 244.65 137.985 246.458 138.305 247.69C137.937 246.138 137.753 243.866 137.753 240.874V236.698ZM154.236 240.538C154.236 240.25 154.164 240.034 154.02 239.89C153.892 239.73 153.636 239.65 153.252 239.65H151.524V250.234H153.252C153.908 250.234 154.236 249.866 154.236 249.13V240.538ZM147.924 236.698H153.756C155.052 236.698 156.052 237.01 156.756 237.634C157.476 238.258 157.836 239.178 157.836 240.394V249.418C157.836 252.026 156.548 253.33 153.972 253.33H147.924V236.698ZM161.536 235.738C162.512 235.738 163 236.194 163 237.106C163 237.714 162.76 238.458 162.28 239.338C161.816 240.218 161.328 241.002 160.816 241.69H159.28L160.288 235.738H161.536ZM170.922 236.698H174.522V249.274C174.522 250.586 174.098 251.634 173.25 252.418C172.418 253.186 171.178 253.57 169.53 253.57C167.898 253.57 166.658 253.186 165.81 252.418C164.978 251.65 164.562 250.602 164.562 249.274V236.698H168.162V249.082C168.162 249.882 168.618 250.282 169.53 250.282C170.458 250.282 170.922 249.882 170.922 249.082V236.698ZM183.62 236.698H187.172V253.33H183.716C181.348 247.282 179.98 243.634 179.612 242.386C179.948 243.65 180.116 245.826 180.116 248.914V253.33H176.564V236.698H180.116L182.3 242.266C183.228 244.65 183.852 246.458 184.172 247.69C183.804 246.138 183.62 243.866 183.62 240.874V236.698ZM193.551 240.634C193.551 239.354 193.991 238.362 194.871 237.658C195.767 236.938 197.111 236.578 198.903 236.578C200.087 236.578 201.095 236.69 201.927 236.914V240.226C201.031 239.954 200.143 239.818 199.263 239.818C198.399 239.818 197.839 239.922 197.583 240.13C197.327 240.322 197.199 240.61 197.199 240.994V249.058C197.199 249.826 197.799 250.21 198.999 250.21C200.215 250.21 201.215 250.09 201.999 249.85V253.09C201.135 253.33 200.087 253.45 198.855 253.45C197.063 253.45 195.727 253.098 194.847 252.394C193.983 251.69 193.551 250.698 193.551 249.418V240.634ZM210.786 253.33L210.09 249.49H206.802L206.154 253.33H202.722L205.986 236.698H211.002L214.218 253.33H210.786ZM207.306 246.442H209.562L208.41 240.01L207.306 246.442ZM214.824 240.586C214.824 239.306 215.256 238.322 216.12 237.634C216.984 236.93 218.224 236.578 219.84 236.578C221.472 236.578 222.688 236.746 223.488 237.082V240.538C222.512 240.122 221.4 239.914 220.152 239.914C219.512 239.914 219.08 240.018 218.856 240.226C218.632 240.418 218.52 240.698 218.52 241.066V241.426C218.52 241.874 218.592 242.21 218.736 242.434C218.896 242.642 219.232 242.882 219.744 243.154L222.48 244.69C223.792 245.41 224.448 246.49 224.448 247.93V249.418C224.448 250.714 223.968 251.714 223.008 252.418C222.048 253.106 220.696 253.45 218.952 253.45C217.224 253.45 215.92 253.266 215.04 252.898V249.418C216.128 249.882 217.36 250.114 218.736 250.114C220.112 250.114 220.8 249.722 220.8 248.938V248.578C220.8 248.21 220.72 247.938 220.56 247.762C220.416 247.57 220.136 247.362 219.72 247.138L217.152 245.746C215.6 244.882 214.824 243.666 214.824 242.098V240.586ZM230.747 253.57C229.099 253.57 227.851 253.186 227.003 252.418C226.155 251.634 225.731 250.586 225.731 249.274V240.754C225.731 239.442 226.155 238.402 227.003 237.634C227.851 236.85 229.099 236.458 230.747 236.458C232.395 236.458 233.643 236.85 234.491 237.634C235.355 238.402 235.787 239.442 235.787 240.754V249.274C235.787 250.714 235.291 251.81 234.299 252.562L237.083 255.418H232.835L231.059 253.57H230.747ZM229.331 240.946V249.082C229.331 249.882 229.803 250.282 230.747 250.282C231.707 250.282 232.187 249.882 232.187 249.082V240.946C232.187 240.146 231.707 239.746 230.747 239.746C229.803 239.746 229.331 240.146 229.331 240.946ZM243.953 236.698H247.553V249.274C247.553 250.586 247.129 251.634 246.281 252.418C245.449 253.186 244.209 253.57 242.561 253.57C240.929 253.57 239.689 253.186 238.841 252.418C238.009 251.65 237.593 250.602 237.593 249.274V236.698H241.193V249.082C241.193 249.882 241.649 250.282 242.561 250.282C243.489 250.282 243.953 249.882 243.953 249.082V236.698ZM249.596 236.698H258.02V239.818H253.196V243.346H257.372V246.466H253.196V250.21H258.02V253.33H249.596V236.698ZM264.15 236.698H272.574V239.818H267.75V243.346H271.926V246.466H267.75V250.21H272.574V253.33H264.15V236.698ZM273.652 240.586C273.652 239.306 274.084 238.322 274.948 237.634C275.812 236.93 277.052 236.578 278.668 236.578C280.3 236.578 281.516 236.746 282.316 237.082V240.538C281.34 240.122 280.228 239.914 278.98 239.914C278.34 239.914 277.908 240.018 277.684 240.226C277.46 240.418 277.348 240.698 277.348 241.066V241.426C277.348 241.874 277.42 242.21 277.564 242.434C277.724 242.642 278.06 242.882 278.572 243.154L281.308 244.69C282.62 245.41 283.276 246.49 283.276 247.93V249.418C283.276 250.714 282.796 251.714 281.836 252.418C280.876 253.106 279.524 253.45 277.78 253.45C276.052 253.45 274.748 253.266 273.868 252.898V249.418C274.956 249.882 276.188 250.114 277.564 250.114C278.94 250.114 279.628 249.722 279.628 248.938V248.578C279.628 248.21 279.548 247.938 279.388 247.762C279.244 247.57 278.964 247.362 278.548 247.138L275.98 245.746C274.428 244.882 273.652 243.666 273.652 242.098V240.586ZM293.487 236.698V239.818H290.487V253.33H286.839V239.818H283.839V236.698H293.487ZM302.743 247.33V253.33H299.143V236.698H304.567C305.879 236.698 306.903 237.01 307.639 237.634C308.375 238.258 308.743 239.17 308.743 240.37V243.442C308.743 245.362 308.087 246.562 306.775 247.042L309.391 253.33H305.431L303.199 247.33H302.743ZM302.743 239.77V244.474H304.159C304.527 244.474 304.783 244.394 304.927 244.234C305.071 244.074 305.143 243.794 305.143 243.394V240.682C305.143 240.33 305.063 240.09 304.903 239.962C304.743 239.834 304.495 239.77 304.159 239.77H302.743ZM310.721 236.698H319.145V239.818H314.321V243.346H318.497V246.466H314.321V250.21H319.145V253.33H310.721V236.698ZM320.582 240.634C320.582 239.354 321.022 238.362 321.902 237.658C322.798 236.938 324.142 236.578 325.934 236.578C327.118 236.578 328.126 236.69 328.958 236.914V240.226C328.062 239.954 327.174 239.818 326.294 239.818C325.43 239.818 324.87 239.922 324.614 240.13C324.358 240.322 324.23 240.61 324.23 240.994V249.058C324.23 249.826 324.83 250.21 326.03 250.21C327.246 250.21 328.246 250.09 329.03 249.85V253.09C328.166 253.33 327.118 253.45 325.886 253.45C324.094 253.45 322.758 253.098 321.878 252.394C321.014 251.69 320.582 250.698 320.582 249.418V240.634ZM336.929 240.946C336.929 240.146 336.449 239.746 335.489 239.746C334.545 239.746 334.073 240.146 334.073 240.946V249.082C334.073 249.882 334.545 250.282 335.489 250.282C336.449 250.282 336.929 249.882 336.929 249.082V240.946ZM330.473 240.754C330.473 239.442 330.897 238.402 331.745 237.634C332.593 236.85 333.841 236.458 335.489 236.458C337.137 236.458 338.385 236.85 339.233 237.634C340.097 238.402 340.529 239.442 340.529 240.754V249.274C340.529 250.586 340.097 251.634 339.233 252.418C338.385 253.186 337.137 253.57 335.489 253.57C333.841 253.57 332.593 253.186 331.745 252.418C330.897 251.634 330.473 250.586 330.473 249.274V240.754ZM355.871 236.698V253.33H352.391V247.546C352.391 245.882 352.543 244.242 352.847 242.626L350.543 249.106H347.759L345.455 242.626C345.759 244.114 345.911 245.754 345.911 247.546V253.33H342.455V236.698H346.151L349.151 245.194L352.151 236.698H355.871ZM371.457 236.698V253.33H367.977V247.546C367.977 245.882 368.129 244.242 368.433 242.626L366.129 249.106H363.345L361.041 242.626C361.345 244.114 361.497 245.754 361.497 247.546V253.33H358.041V236.698H361.737L364.737 245.194L367.737 236.698H371.457ZM380.731 253.33L380.035 249.49H376.747L376.099 253.33H372.667L375.931 236.698H380.947L384.163 253.33H380.731ZM377.251 246.442H379.507L378.355 240.01L377.251 246.442ZM392.425 236.698H395.977V253.33H392.521C390.153 247.282 388.785 243.634 388.417 242.386C388.753 243.65 388.921 245.826 388.921 248.914V253.33H385.369V236.698H388.921L391.105 242.266C392.033 244.65 392.657 246.458 392.977 247.69C392.609 246.138 392.425 243.866 392.425 240.874V236.698ZM404.455 240.538C404.455 240.25 404.383 240.034 404.239 239.89C404.111 239.73 403.855 239.65 403.471 239.65H401.743V250.234H403.471C404.127 250.234 404.455 249.866 404.455 249.13V240.538ZM398.143 236.698H403.975C405.271 236.698 406.271 237.01 406.975 237.634C407.695 238.258 408.055 239.178 408.055 240.394V249.418C408.055 252.026 406.767 253.33 404.191 253.33H398.143V236.698ZM409.978 236.698H418.402V239.818H413.578V243.346H417.754V246.466H413.578V250.21H418.402V253.33H409.978V236.698ZM414.202 233.002H416.842L415.042 235.762H413.146L414.202 233.002Z" fill="white"/>
<path d="M278.647 117.923C278.647 114.383 278.647 112.614 279.247 111.038C280.99 106.456 285.586 104.678 290.189 102.816C295.365 100.723 297.952 99.6764 300.516 99.4921C303.427 99.2833 306.343 99.8402 308.831 101.08C312.13 102.723 314.43 105.847 316.785 108.386C327.662 120.116 333.099 125.983 335.089 132.451C336.695 137.67 336.695 143.128 335.089 148.347C332.187 157.781 323.018 165.689 316.231 173.009C312.759 176.753 311.023 178.625 308.831 179.718C306.343 180.957 303.427 181.514 300.516 181.306C297.952 181.121 295.365 180.075 290.189 177.981C285.586 176.119 280.99 174.342 279.247 169.76C278.647 168.183 278.647 166.414 278.647 162.875V117.923Z" stroke="#F2F2F2" stroke-width="10"/>
<path d="M163.353 117.924C163.353 113.468 163.212 109.464 159.155 106.331C157.68 105.191 155.723 104.4 151.811 102.817C146.635 100.725 144.048 99.6786 141.484 99.4943C133.791 98.9415 129.652 103.604 125.215 108.389C114.339 120.119 108.9 125.984 106.91 132.452C105.304 137.672 105.304 143.13 106.91 148.349C109.813 157.783 118.982 165.691 125.77 173.011C130.048 177.625 134.135 181.835 141.484 181.308C144.048 181.123 146.635 180.076 151.811 177.984C155.723 176.401 157.68 175.61 159.155 174.47C163.212 171.337 163.353 167.334 163.353 162.877V117.924Z" stroke="#F2F2F2" stroke-width="10"/>
<path d="M301.706 99.4493V78.9744C301.706 39.3967 265.573 7.3125 221 7.3125C176.427 7.3125 140.294 39.3967 140.294 78.9744V99.4493" stroke="#F2F2F2" stroke-width="10" stroke-linecap="square" stroke-linejoin="round"/>
<g clip-path="url(#clip0_373_514)">
<path d="M287.924 6.82981V6.82981C303.247 13.803 314.28 27.842 317.444 44.0843V44.0843" stroke="#C16D36" stroke-width="5" stroke-linecap="round" stroke-linejoin="round"/>
<path d="M305.334 4.02593V4.02593C313.581 10.2092 320.143 18.2923 324.429 27.5477L324.931 28.6312" stroke="#C16D36" stroke-opacity="0.75" stroke-width="3" stroke-linecap="round" stroke-linejoin="round"/>
</g>
<defs>
<clipPath id="clip0_373_514">
<rect width="336" height="189.758" fill="white" transform="translate(53)"/>
</clipPath>
</defs>
</svg>
