<svg width="2882" height="1622" viewBox="0 0 2882 1622" fill="none" xmlns="http://www.w3.org/2000/svg">
<rect width="2882" height="1621.12" fill="black"/>
<path d="M246.967 1330.56C248.208 1329.24 249.284 1328.58 250.194 1328.58C250.856 1328.58 251.724 1328.99 252.8 1329.82C254.868 1331.31 255.902 1336.31 255.902 1344.83C255.902 1352.53 255.985 1357.66 256.151 1360.22C256.812 1370.31 257.143 1377.18 257.143 1380.82C257.143 1381.48 257.557 1381.9 258.384 1382.06C259.212 1382.15 261.983 1382.23 266.699 1382.31C276.379 1382.48 282.046 1382.6 283.701 1382.68C285.438 1382.77 286.472 1383.1 286.803 1383.68C287.051 1384.09 287.176 1384.59 287.176 1385.17C287.176 1386.9 286.017 1388.85 283.701 1391C281.798 1392.74 279.357 1393.85 276.379 1394.35C274.311 1394.76 272.863 1394.97 272.035 1394.97C271.704 1394.97 271.498 1394.93 271.415 1394.85C270.588 1394.27 266.285 1393.89 258.508 1393.73C255.282 1393.56 253.462 1393.36 253.048 1393.11C252.634 1392.86 251.518 1392.57 249.697 1392.24C247.96 1391.91 246.926 1391.25 246.595 1390.25C246.264 1389.18 245.85 1388.43 245.354 1388.02C244.94 1387.69 244.651 1385.83 244.485 1382.44C244.32 1379.13 244.154 1377.35 243.989 1377.1C243.989 1377.02 243.823 1372.22 243.492 1362.7C243.492 1361.71 243.451 1360.47 243.368 1358.98C243.368 1357.41 243.368 1356.33 243.368 1355.75C243.368 1351.2 243.658 1347.03 244.237 1343.22C244.816 1340.16 245.106 1337.64 245.106 1335.65V1334.53C245.106 1333.13 245.726 1331.8 246.967 1330.56ZM306.158 1333.54C306.158 1332.46 306.53 1331.47 307.275 1330.56C308.02 1329.65 308.93 1329.2 310.005 1329.2C311.825 1329.2 312.735 1330.02 312.735 1331.68C312.735 1333.5 311.825 1336.1 310.005 1339.5C308.681 1342.06 307.234 1344.21 305.662 1345.95C304.09 1347.6 302.766 1348.43 301.69 1348.43C300.863 1348.43 300.449 1347.89 300.449 1346.82C300.449 1345.83 300.656 1345.21 301.07 1344.96C301.566 1344.63 302.518 1342.85 303.924 1339.62C305.413 1336.31 306.158 1334.28 306.158 1333.54ZM365.871 1329.57C366.699 1328.99 367.443 1328.7 368.105 1328.7C369.346 1328.7 370.38 1329.98 371.208 1332.55C371.456 1333.46 371.746 1334.28 372.076 1335.03C372.407 1335.69 372.614 1336.19 372.697 1336.52C372.78 1336.77 372.862 1337.26 372.945 1338.01C373.111 1338.75 373.235 1339.87 373.317 1341.36C373.483 1344.25 373.648 1345.83 373.814 1346.07C373.897 1346.24 374.103 1350.25 374.434 1358.11C374.517 1359.77 374.558 1361.83 374.558 1364.32C374.558 1365.64 374.517 1366.76 374.434 1367.67C374.434 1368.58 374.352 1369.49 374.186 1370.4C374.103 1371.23 373.979 1371.85 373.814 1372.26C373.731 1372.67 373.524 1373.46 373.193 1374.62C372.945 1375.78 372.738 1376.69 372.573 1377.35C372.159 1379.75 370.918 1382.31 368.85 1385.04C366.782 1387.69 364.465 1389.84 361.9 1391.49C358.343 1393.73 354.661 1394.85 350.855 1394.85C348.87 1394.85 346.719 1394.6 344.402 1394.1C342.251 1393.69 339.935 1392.28 337.453 1389.88C334.971 1387.48 333.068 1384.75 331.744 1381.69C330.007 1377.8 329.096 1375.65 329.014 1375.24C328.931 1374.49 328.6 1373.38 328.021 1371.89C327.607 1370.73 327.276 1369.57 327.028 1368.41C326.863 1367.17 326.697 1365.56 326.532 1363.57C326.366 1361.5 326.242 1359.97 326.159 1358.98C325.911 1356.5 325.787 1354.31 325.787 1352.4C325.787 1350.33 325.953 1347.56 326.284 1344.09C326.614 1340.53 326.821 1338.17 326.904 1337.01C326.987 1334.95 327.276 1333.5 327.773 1332.67C328.269 1331.84 329.221 1331.26 330.627 1330.93C330.71 1330.93 330.793 1330.93 330.875 1330.93C331.041 1330.85 331.165 1330.81 331.248 1330.81C332.075 1330.81 332.778 1331.18 333.357 1331.93C334.019 1332.59 334.35 1333.37 334.35 1334.28C334.35 1335.44 334.516 1336.19 334.846 1336.52C335.095 1336.77 335.301 1337.8 335.467 1339.62C336.294 1354.93 337.742 1365.02 339.81 1369.9C340.472 1371.47 340.679 1372.42 340.431 1372.76C340.183 1373.17 340.265 1373.38 340.679 1373.38C341.093 1373.38 341.548 1374.08 342.044 1375.49C342.623 1377.39 343.864 1379.17 345.767 1380.82C347.67 1382.48 349.573 1383.47 351.476 1383.8C351.724 1383.88 352.096 1383.92 352.593 1383.92C353.42 1383.92 354.62 1383.18 356.192 1381.69C357.846 1380.04 358.674 1378.96 358.674 1378.46C358.674 1378.05 358.88 1377.84 359.294 1377.84C359.708 1377.84 359.915 1377.43 359.915 1376.6C359.915 1375.69 360.328 1374.29 361.156 1372.38C361.9 1370.23 362.314 1366.05 362.397 1359.85C362.562 1352.65 362.728 1348.51 362.893 1347.44C363.224 1345.21 363.348 1344.01 363.265 1343.84C363.1 1342.85 363.017 1341.94 363.017 1341.11C363.017 1338.88 363.307 1336.52 363.886 1334.04C364.465 1331.55 365.127 1330.07 365.871 1329.57ZM414.888 1329.07C415.219 1328.74 418.197 1328.58 423.823 1328.58C429.863 1328.58 434.868 1328.78 438.839 1329.2C442.811 1329.61 445.582 1330.15 447.154 1330.81C448.726 1331.47 449.512 1332.46 449.512 1333.79C449.512 1334.04 449.429 1334.49 449.264 1335.15C448.933 1336.48 447.775 1337.43 445.789 1338.01C443.803 1338.5 440.411 1338.75 435.613 1338.75H428.787C425.643 1338.75 424.071 1338.92 424.071 1339.25C424.071 1339.33 424.154 1339.54 424.32 1339.87C424.651 1340.78 425.023 1345.25 425.437 1353.27C425.933 1361.21 426.223 1368.54 426.305 1375.24V1379.21C426.305 1384.83 426.057 1388.43 425.561 1390.01C425.064 1391.49 423.823 1392.74 421.838 1393.73C420.348 1394.39 419.232 1394.72 418.487 1394.72C416.998 1394.72 415.757 1393.81 414.764 1391.99C414.268 1391 413.937 1389.88 413.771 1388.64C413.606 1387.4 413.523 1384.59 413.523 1380.2V1369.28V1362.46C413.523 1353.27 413.275 1348.27 412.778 1347.44C412.282 1346.69 411.868 1345.91 411.537 1345.08C411.206 1344.25 410.131 1343.47 408.311 1342.72C406.573 1341.98 404.588 1341.57 402.354 1341.48C399.789 1341.32 397.059 1340.9 394.163 1340.24C391.268 1339.58 389.489 1338.96 388.827 1338.38C388.331 1337.97 388.082 1337.43 388.082 1336.77C388.082 1335.36 388.91 1334.16 390.564 1333.17C393.295 1331.43 399.706 1330.27 409.8 1329.69C412.944 1329.53 414.64 1329.32 414.888 1329.07ZM467.946 1328.33C468.277 1328.33 468.69 1328.33 469.187 1328.33C469.683 1328.25 470.097 1328.2 470.428 1328.2C470.759 1328.12 471.007 1328.08 471.172 1328.08H472.537C474.937 1328.08 478.163 1328.33 482.217 1328.82C486.271 1329.32 488.67 1329.73 489.415 1330.07C491.152 1330.89 492.021 1332.17 492.021 1333.91C492.021 1334.66 491.897 1335.32 491.649 1335.9C491.152 1336.97 491.07 1337.51 491.401 1337.51L490.16 1338.26C489.746 1338.5 489.456 1338.67 489.291 1338.75C487.636 1339.66 486.23 1340.12 485.071 1340.12C484.327 1340.12 483.83 1340.28 483.582 1340.61C483.334 1340.94 483.127 1341.77 482.962 1343.1C482.879 1343.59 482.838 1344.34 482.838 1345.33C482.838 1346.65 482.879 1347.52 482.962 1347.94C483.127 1348.6 483.293 1354.72 483.458 1366.3C483.541 1374.58 483.624 1379.42 483.706 1380.82C483.872 1382.23 484.285 1382.93 484.947 1382.93C486.519 1382.93 488.257 1383.26 490.16 1383.92C492.062 1384.5 493.097 1385.08 493.262 1385.66C493.593 1386.41 493.924 1386.78 494.255 1386.78C494.669 1386.78 494.875 1387.11 494.875 1387.77C494.875 1388.76 494.503 1390.09 493.758 1391.74C493.097 1393.31 492.393 1394.35 491.649 1394.85C490.821 1395.42 489.746 1395.71 488.422 1395.71C488.091 1395.71 486.933 1395.63 484.947 1395.47C483.872 1395.38 481.845 1395.26 478.866 1395.09C475.971 1394.93 474.068 1394.8 473.158 1394.72C469.104 1394.56 466.415 1394.14 465.091 1393.48C463.85 1392.74 463.064 1391.21 462.733 1388.89C462.651 1388.47 462.609 1387.94 462.609 1387.28C462.609 1386.28 463.147 1385.25 464.223 1384.17C465.381 1383.1 466.581 1382.56 467.822 1382.56C467.987 1382.56 468.235 1382.6 468.566 1382.68C468.98 1382.68 469.311 1382.68 469.559 1382.68L473.034 1383.06L473.158 1378.34C473.241 1373.87 473.282 1367.21 473.282 1358.36C473.282 1346.69 473.199 1340.78 473.034 1340.61C472.951 1340.61 472.786 1340.61 472.537 1340.61C472.289 1340.53 471.958 1340.49 471.545 1340.49C471.131 1340.41 470.759 1340.37 470.428 1340.37C468.608 1340.2 467.367 1339.99 466.705 1339.74C466.126 1339.5 465.34 1338.88 464.347 1337.88C463.271 1336.89 462.733 1336.02 462.733 1335.28C462.733 1334.62 463.23 1333.29 464.223 1331.31C465.133 1329.49 466.374 1328.49 467.946 1328.33ZM511.649 1330.56C512.89 1329.24 513.966 1328.58 514.876 1328.58C515.538 1328.58 516.406 1328.99 517.482 1329.82C519.55 1331.31 520.584 1336.31 520.584 1344.83C520.584 1352.53 520.667 1357.66 520.833 1360.22C521.494 1370.31 521.825 1377.18 521.825 1380.82C521.825 1381.48 522.239 1381.9 523.066 1382.06C523.894 1382.15 526.665 1382.23 531.381 1382.31C541.061 1382.48 546.728 1382.6 548.383 1382.68C550.12 1382.77 551.154 1383.1 551.485 1383.68C551.734 1384.09 551.858 1384.59 551.858 1385.17C551.858 1386.9 550.699 1388.85 548.383 1391C546.48 1392.74 544.039 1393.85 541.061 1394.35C538.993 1394.76 537.545 1394.97 536.717 1394.97C536.386 1394.97 536.18 1394.93 536.097 1394.85C535.27 1394.27 530.967 1393.89 523.191 1393.73C519.964 1393.56 518.144 1393.36 517.73 1393.11C517.316 1392.86 516.2 1392.57 514.379 1392.24C512.642 1391.91 511.608 1391.25 511.277 1390.25C510.946 1389.18 510.532 1388.43 510.036 1388.02C509.622 1387.69 509.333 1385.83 509.167 1382.44C509.002 1379.13 508.836 1377.35 508.671 1377.1C508.671 1377.02 508.505 1372.22 508.174 1362.7C508.174 1361.71 508.133 1360.47 508.05 1358.98C508.05 1357.41 508.05 1356.33 508.05 1355.75C508.05 1351.2 508.34 1347.03 508.919 1343.22C509.498 1340.16 509.788 1337.64 509.788 1335.65V1334.53C509.788 1333.13 510.408 1331.8 511.649 1330.56ZM570.716 1328.33C571.047 1328.33 571.461 1328.33 571.957 1328.33C572.453 1328.25 572.867 1328.2 573.198 1328.2C573.529 1328.12 573.777 1328.08 573.943 1328.08H575.308C577.707 1328.08 580.934 1328.33 584.987 1328.82C589.041 1329.32 591.441 1329.73 592.185 1330.07C593.923 1330.89 594.791 1332.17 594.791 1333.91C594.791 1334.66 594.667 1335.32 594.419 1335.9C593.923 1336.97 593.84 1337.51 594.171 1337.51L592.93 1338.26C592.516 1338.5 592.227 1338.67 592.061 1338.75C590.407 1339.66 589 1340.12 587.842 1340.12C587.097 1340.12 586.601 1340.28 586.353 1340.61C586.104 1340.94 585.898 1341.77 585.732 1343.1C585.649 1343.59 585.608 1344.34 585.608 1345.33C585.608 1346.65 585.649 1347.52 585.732 1347.94C585.898 1348.6 586.063 1354.72 586.228 1366.3C586.311 1374.58 586.394 1379.42 586.477 1380.82C586.642 1382.23 587.056 1382.93 587.718 1382.93C589.29 1382.93 591.027 1383.26 592.93 1383.92C594.833 1384.5 595.867 1385.08 596.032 1385.66C596.363 1386.41 596.694 1386.78 597.025 1386.78C597.439 1386.78 597.646 1387.11 597.646 1387.77C597.646 1388.76 597.273 1390.09 596.529 1391.74C595.867 1393.31 595.164 1394.35 594.419 1394.85C593.592 1395.42 592.516 1395.71 591.192 1395.71C590.862 1395.71 589.703 1395.63 587.718 1395.47C586.642 1395.38 584.615 1395.26 581.637 1395.09C578.741 1394.93 576.838 1394.8 575.928 1394.72C571.874 1394.56 569.185 1394.14 567.862 1393.48C566.621 1392.74 565.835 1391.21 565.504 1388.89C565.421 1388.47 565.38 1387.94 565.38 1387.28C565.38 1386.28 565.917 1385.25 566.993 1384.17C568.151 1383.1 569.351 1382.56 570.592 1382.56C570.757 1382.56 571.006 1382.6 571.336 1382.68C571.75 1382.68 572.081 1382.68 572.329 1382.68L575.804 1383.06L575.928 1378.34C576.011 1373.87 576.052 1367.21 576.052 1358.36C576.052 1346.69 575.97 1340.78 575.804 1340.61C575.721 1340.61 575.556 1340.61 575.308 1340.61C575.059 1340.53 574.729 1340.49 574.315 1340.49C573.901 1340.41 573.529 1340.37 573.198 1340.37C571.378 1340.2 570.137 1339.99 569.475 1339.74C568.896 1339.5 568.11 1338.88 567.117 1337.88C566.042 1336.89 565.504 1336.02 565.504 1335.28C565.504 1334.62 566 1333.29 566.993 1331.31C567.903 1329.49 569.144 1328.49 570.716 1328.33ZM616.033 1357.74C616.033 1357.33 615.702 1356.75 615.04 1356C614.378 1355.26 614.047 1354.64 614.047 1354.14C614.047 1353.4 613.758 1352.44 613.179 1351.29C612.682 1350.46 612.434 1349.18 612.434 1347.44C612.434 1344.71 612.972 1341.94 614.047 1339.12C614.709 1337.64 616.364 1335.65 619.011 1333.17C621.659 1330.6 623.644 1329.2 624.968 1328.95C625.216 1328.87 625.961 1328.7 627.202 1328.45C628.443 1328.2 629.312 1328.04 629.808 1327.96C630.635 1327.71 633.159 1327.5 637.378 1327.33H639.115C641.597 1327.33 644.038 1327.91 646.437 1329.07C651.65 1331.64 654.256 1334.62 654.256 1338.01C654.256 1339.25 653.883 1340.53 653.139 1341.85C652.394 1343.1 651.567 1343.88 650.657 1344.21C650.491 1344.3 650.16 1344.34 649.664 1344.34C647.761 1344.34 645.858 1343.47 643.955 1341.73C642.135 1340.08 639.405 1339.25 635.765 1339.25C634.358 1339.25 632.828 1339.46 631.173 1339.87C629.187 1340.53 627.45 1341.52 625.961 1342.85C624.472 1344.17 623.727 1345.45 623.727 1346.69C623.727 1347.6 624.141 1348.97 624.968 1350.79C625.795 1352.53 626.623 1353.73 627.45 1354.39C628.112 1354.97 629.725 1355.71 632.29 1356.62C634.855 1357.53 636.882 1358.07 638.371 1358.24C643.748 1358.82 647.927 1360.47 650.905 1363.2C653.966 1365.93 655.497 1369.36 655.497 1373.5C655.497 1375.98 655.042 1378.34 654.132 1380.57C653.304 1382.72 652.353 1384.46 651.277 1385.79C650.284 1387.03 648.506 1388.72 645.941 1390.87C643.955 1392.45 640.977 1393.81 637.006 1394.97C633.117 1396.13 629.518 1396.71 626.209 1396.71C624.803 1396.71 623.603 1396.58 622.61 1396.33C619.301 1395.67 616.571 1394.47 614.42 1392.74C612.268 1391 611.193 1389.22 611.193 1387.4C611.193 1387.07 611.276 1386.57 611.441 1385.91C612.103 1384.17 613.179 1383.3 614.668 1383.3C615.826 1383.3 618.225 1383.68 621.866 1384.42C623.52 1384.83 625.092 1385.04 626.581 1385.04C627.657 1385.04 628.401 1384.96 628.815 1384.79C630.222 1384.38 631.297 1384.26 632.042 1384.42C632.538 1384.59 633.738 1384.42 635.641 1383.92C637.213 1383.59 638.909 1382.72 640.729 1381.32C642.549 1379.83 643.583 1378.51 643.831 1377.35C643.914 1376.93 644.038 1376.44 644.204 1375.86C644.369 1375.28 644.452 1374.87 644.452 1374.62C644.452 1374.04 644.245 1373.38 643.831 1372.63C642.756 1370.81 640.398 1369.65 636.758 1369.16C631.214 1368.33 628.029 1367.58 627.202 1366.92C626.954 1366.76 625.919 1366.34 624.099 1365.68C622.693 1365.27 620.997 1364.07 619.011 1362.08C617.026 1360.1 616.033 1358.65 616.033 1357.74ZM701.146 1347.19C700.153 1345.04 699.491 1343.96 699.16 1343.96C698.829 1343.96 698.54 1344.42 698.292 1345.33L696.182 1350.05C694.858 1353.19 694.196 1355.01 694.196 1355.51C694.196 1355.92 693.741 1356.95 692.831 1358.61C692.004 1360.18 691.59 1361.26 691.59 1361.83C691.59 1362.17 691.756 1362.33 692.087 1362.33C692.335 1362.33 692.542 1362.29 692.707 1362.21C693.286 1362.04 695.024 1361.83 697.919 1361.59C700.815 1361.26 702.925 1361.09 704.249 1361.09H704.745C705.407 1361.09 705.738 1361.01 705.738 1360.84C705.82 1360.59 705.738 1359.81 705.49 1358.48C704.993 1356.5 703.545 1352.73 701.146 1347.19ZM696.058 1329.07C696.389 1328.49 696.968 1328.2 697.795 1328.2C699.781 1328.2 702.015 1329.44 704.497 1331.93C706.069 1333.33 707.889 1336.19 709.957 1340.49C711.033 1342.64 712.15 1344.83 713.308 1347.07C714.466 1349.3 715.542 1351.45 716.534 1353.52C717.362 1355.59 718.355 1357.86 719.513 1360.35C720.506 1362.33 721.002 1363.7 721.002 1364.44C721.002 1365.1 721.209 1365.64 721.623 1366.05C722.036 1366.55 723.112 1369.82 724.849 1375.86C726.587 1381.07 727.455 1385.12 727.455 1388.02C727.455 1389.26 727.248 1390.58 726.835 1391.99C726.421 1393.48 725.511 1394.39 724.105 1394.72C723.525 1394.89 722.698 1394.97 721.623 1394.97C719.389 1394.97 717.527 1393.52 716.038 1390.63C714.714 1388.31 714.052 1386.74 714.052 1385.91C714.052 1385.08 713.473 1383.55 712.315 1381.32C711.239 1379.08 710.371 1377.64 709.709 1376.98C708.551 1375.9 706.937 1375.2 704.869 1374.87C702.883 1374.45 699.657 1374.16 695.189 1374H691.342C689.191 1374 687.826 1374.08 687.247 1374.24C686.75 1374.41 686.502 1374.74 686.502 1375.24C686.502 1376.06 686.295 1376.6 685.882 1376.85C685.303 1377.18 685.096 1377.68 685.261 1378.34C685.427 1379 685.261 1379.87 684.765 1380.95C684.599 1381.44 684.144 1382.85 683.4 1385.17C682.655 1387.48 682.117 1388.97 681.786 1389.63C681.29 1390.54 680.959 1391.49 680.794 1392.49C680.794 1392.9 680.008 1393.65 678.436 1394.72C677.195 1395.47 676.409 1395.84 676.078 1395.84C675.581 1395.84 674.961 1395.59 674.216 1395.09C670.742 1392.86 669.004 1390.21 669.004 1387.15C669.004 1386.82 669.087 1386.32 669.252 1385.66C669.501 1385 670.369 1382.19 671.858 1377.22C673.182 1372.84 674.258 1370.07 675.085 1368.91C675.83 1367.83 676.202 1367.01 676.202 1366.43C676.202 1366.01 676.616 1364.52 677.443 1361.96C678.27 1359.39 678.932 1357.53 679.429 1356.37C679.925 1355.46 680.38 1354.18 680.794 1352.53C681.786 1349.14 683.813 1344.83 686.875 1339.62C690.018 1334.41 692.376 1331.26 693.948 1330.19C694.941 1329.61 695.437 1329.44 695.437 1329.69C695.437 1329.94 695.562 1329.86 695.81 1329.44C695.892 1329.36 695.975 1329.24 696.058 1329.07ZM767.919 1329.07C768.25 1328.74 771.228 1328.58 776.854 1328.58C782.893 1328.58 787.899 1328.78 791.87 1329.2C795.841 1329.61 798.613 1330.15 800.185 1330.81C801.757 1331.47 802.543 1332.46 802.543 1333.79C802.543 1334.04 802.46 1334.49 802.294 1335.15C801.963 1336.48 800.805 1337.43 798.82 1338.01C796.834 1338.5 793.442 1338.75 788.643 1338.75H781.818C778.674 1338.75 777.102 1338.92 777.102 1339.25C777.102 1339.33 777.185 1339.54 777.35 1339.87C777.681 1340.78 778.053 1345.25 778.467 1353.27C778.964 1361.21 779.253 1368.54 779.336 1375.24V1379.21C779.336 1384.83 779.088 1388.43 778.591 1390.01C778.095 1391.49 776.854 1392.74 774.868 1393.73C773.379 1394.39 772.262 1394.72 771.518 1394.72C770.028 1394.72 768.787 1393.81 767.795 1391.99C767.298 1391 766.967 1389.88 766.802 1388.64C766.636 1387.4 766.554 1384.59 766.554 1380.2V1369.28V1362.46C766.554 1353.27 766.305 1348.27 765.809 1347.44C765.313 1346.69 764.899 1345.91 764.568 1345.08C764.237 1344.25 763.161 1343.47 761.341 1342.72C759.604 1341.98 757.618 1341.57 755.385 1341.48C752.82 1341.32 750.09 1340.9 747.194 1340.24C744.298 1339.58 742.519 1338.96 741.858 1338.38C741.361 1337.97 741.113 1337.43 741.113 1336.77C741.113 1335.36 741.94 1334.16 743.595 1333.17C746.325 1331.43 752.737 1330.27 762.831 1329.69C765.974 1329.53 767.67 1329.32 767.919 1329.07ZM820.976 1328.33C821.307 1328.33 821.721 1328.33 822.217 1328.33C822.714 1328.25 823.127 1328.2 823.458 1328.2C823.789 1328.12 824.037 1328.08 824.203 1328.08H825.568C827.967 1328.08 831.194 1328.33 835.248 1328.82C839.302 1329.32 841.701 1329.73 842.446 1330.07C844.183 1330.89 845.052 1332.17 845.052 1333.91C845.052 1334.66 844.928 1335.32 844.679 1335.9C844.183 1336.97 844.1 1337.51 844.431 1337.51L843.19 1338.26C842.776 1338.5 842.487 1338.67 842.321 1338.75C840.667 1339.66 839.26 1340.12 838.102 1340.12C837.357 1340.12 836.861 1340.28 836.613 1340.61C836.365 1340.94 836.158 1341.77 835.992 1343.1C835.91 1343.59 835.868 1344.34 835.868 1345.33C835.868 1346.65 835.91 1347.52 835.992 1347.94C836.158 1348.6 836.323 1354.72 836.489 1366.3C836.571 1374.58 836.654 1379.42 836.737 1380.82C836.902 1382.23 837.316 1382.93 837.978 1382.93C839.55 1382.93 841.287 1383.26 843.19 1383.92C845.093 1384.5 846.127 1385.08 846.293 1385.66C846.624 1386.41 846.954 1386.78 847.285 1386.78C847.699 1386.78 847.906 1387.11 847.906 1387.77C847.906 1388.76 847.534 1390.09 846.789 1391.74C846.127 1393.31 845.424 1394.35 844.679 1394.85C843.852 1395.42 842.776 1395.71 841.453 1395.71C841.122 1395.71 839.964 1395.63 837.978 1395.47C836.902 1395.38 834.875 1395.26 831.897 1395.09C829.001 1394.93 827.098 1394.8 826.188 1394.72C822.134 1394.56 819.446 1394.14 818.122 1393.48C816.881 1392.74 816.095 1391.21 815.764 1388.89C815.681 1388.47 815.64 1387.94 815.64 1387.28C815.64 1386.28 816.178 1385.25 817.253 1384.17C818.411 1383.1 819.611 1382.56 820.852 1382.56C821.018 1382.56 821.266 1382.6 821.597 1382.68C822.01 1382.68 822.341 1382.68 822.59 1382.68L826.064 1383.06L826.188 1378.34C826.271 1373.87 826.313 1367.21 826.313 1358.36C826.313 1346.69 826.23 1340.78 826.064 1340.61C825.982 1340.61 825.816 1340.61 825.568 1340.61C825.32 1340.53 824.989 1340.49 824.575 1340.49C824.161 1340.41 823.789 1340.37 823.458 1340.37C821.638 1340.2 820.397 1339.99 819.735 1339.74C819.156 1339.5 818.37 1338.88 817.377 1337.88C816.302 1336.89 815.764 1336.02 815.764 1335.28C815.764 1334.62 816.26 1333.29 817.253 1331.31C818.163 1329.49 819.404 1328.49 820.976 1328.33ZM900.917 1343.72C899.345 1342.39 897.525 1341.73 895.457 1341.73C893.967 1341.73 892.892 1342.14 892.23 1342.97C891.568 1343.63 891.072 1343.96 890.741 1343.96C889.996 1343.96 889.127 1344.63 888.135 1345.95C887.059 1347.36 886.149 1347.81 885.404 1347.32C884.66 1346.82 884.205 1346.03 884.039 1344.96C883.874 1343.88 883.543 1343.34 883.047 1343.34C882.385 1343.34 881.144 1344.21 879.324 1345.95C875.021 1350 872.87 1355.05 872.87 1361.09C872.87 1362.83 872.953 1364.15 873.119 1365.06C873.78 1369.86 875.476 1373.91 878.207 1377.22C881.02 1380.53 884.081 1382.19 887.39 1382.19C887.473 1382.19 887.68 1382.19 888.011 1382.19C888.342 1382.1 888.548 1382.06 888.631 1382.06C892.271 1381.48 895.084 1380.7 897.07 1379.71C899.138 1378.63 901.248 1376.85 903.399 1374.37C906.708 1370.56 908.363 1366.63 908.363 1362.58C908.363 1360.26 907.453 1356.83 905.633 1352.28C903.895 1347.73 902.323 1344.87 900.917 1343.72ZM885.653 1328.33C885.735 1328.08 886.356 1327.96 887.514 1327.96C891.899 1327.96 895.374 1328.66 897.939 1330.07C899.759 1331.06 901.579 1331.72 903.399 1332.05C905.219 1332.38 907.412 1333.91 909.976 1336.64C912.706 1339.37 914.072 1340.94 914.072 1341.36C914.072 1341.69 914.485 1342.85 915.313 1344.83C917.877 1350.38 919.242 1355.22 919.408 1359.35V1361.21C919.408 1363.7 919.242 1366.14 918.911 1368.54C918.581 1370.94 918.208 1372.3 917.795 1372.63C917.712 1372.71 917.546 1372.96 917.298 1373.38C917.133 1373.71 916.843 1374.24 916.429 1374.99C916.016 1375.73 915.644 1376.35 915.313 1376.85C914.403 1378.51 912.748 1380.7 910.349 1383.43C907.949 1386.08 906.46 1387.4 905.881 1387.4C905.467 1387.4 904.764 1387.81 903.771 1388.64C902.696 1389.55 901.786 1390.01 901.041 1390.01C900.048 1390.01 899.18 1390.25 898.435 1390.75C897.856 1391.16 896.863 1391.45 895.457 1391.62C894.298 1391.62 893.554 1391.74 893.223 1391.99C892.892 1392.16 891.609 1392.24 889.376 1392.24H886.894C883.005 1392.16 879.82 1391.49 877.338 1390.25C874.608 1388.68 872.374 1386.99 870.637 1385.17C868.982 1383.43 867.245 1381.15 865.424 1378.34C863.687 1375.53 862.818 1373.67 862.818 1372.76C862.818 1371.93 862.694 1371.39 862.446 1371.14C861.784 1370.48 861.453 1367.46 861.453 1362.08C861.453 1354.8 863.066 1348.64 866.293 1343.59C867.286 1342.02 869.106 1339.87 871.753 1337.14C874.484 1334.41 876.138 1333.04 876.717 1333.04C877.214 1333.04 877.793 1332.63 878.455 1331.8C879.199 1331.06 880.523 1330.4 882.426 1329.82C884.329 1329.16 885.404 1328.66 885.653 1328.33ZM975.649 1330.44C975.649 1329.86 976.311 1329.11 977.635 1328.2C978.959 1327.29 980.158 1326.84 981.234 1326.84C981.648 1326.84 981.937 1326.88 982.103 1326.96C982.847 1327.05 983.799 1327.79 984.957 1329.2C986.115 1330.52 986.901 1331.76 987.315 1332.92C988.639 1337.64 989.3 1340.99 989.3 1342.97C989.3 1343.14 989.259 1343.43 989.176 1343.84C989.176 1344.17 989.176 1344.42 989.176 1344.58C988.845 1346.65 988.845 1347.77 989.176 1347.94C989.342 1348.1 989.424 1349.22 989.424 1351.29C989.424 1359.06 988.969 1366.22 988.059 1372.76C987.894 1373.91 987.563 1376.97 987.067 1381.94C986.653 1387.48 985.536 1390.92 983.716 1392.24C983.137 1392.74 981.689 1393.15 979.372 1393.48C979.124 1393.48 978.835 1393.52 978.504 1393.6C978.173 1393.6 977.925 1393.6 977.759 1393.6C976.684 1393.6 975.649 1393.07 974.657 1391.99C973.664 1390.92 972.092 1388.85 969.941 1385.79C967.79 1382.64 966.259 1380.2 965.349 1378.46C964.853 1377.64 963.612 1375.4 961.626 1371.76C959.64 1368.04 957.986 1365.35 956.662 1363.7C955.421 1362.12 954.801 1361.13 954.801 1360.72C954.801 1360.39 953.808 1359.15 951.822 1356.99C949.754 1354.76 948.306 1353.02 947.479 1351.78C946.651 1350.46 946.031 1349.8 945.617 1349.8C945.369 1349.8 945.245 1350.09 945.245 1350.67C945.245 1350.83 945.328 1351.41 945.493 1352.4C945.907 1354.31 946.114 1359.89 946.114 1369.16C946.114 1378.67 945.907 1384.5 945.493 1386.65C945.079 1389.14 944.583 1390.79 944.004 1391.62C943.507 1392.36 942.349 1393.23 940.529 1394.22C939.784 1394.64 939.04 1394.85 938.295 1394.85C936.061 1394.85 934.82 1392.16 934.572 1386.78C933.91 1368.08 933.373 1357.57 932.959 1355.26C932.711 1353.52 932.587 1351.12 932.587 1348.06C932.587 1341.03 932.959 1336.68 933.704 1335.03L934.82 1332.42C935.317 1331.43 936.475 1330.48 938.295 1329.57C939.536 1329.07 940.653 1328.82 941.646 1328.82C944.045 1328.82 946.982 1330.73 950.457 1334.53C952.277 1336.44 953.725 1338.13 954.801 1339.62C955.959 1341.11 957.448 1342.81 959.268 1344.71C961.833 1347.44 963.115 1349.01 963.115 1349.42C963.115 1350 963.281 1350.29 963.612 1350.29C964.025 1350.29 965.142 1351.66 966.962 1354.39C968.783 1357.04 970.52 1359.89 972.175 1362.95C973.002 1364.61 973.912 1365.93 974.905 1366.92C975.153 1367.09 975.318 1367.21 975.401 1367.3C975.567 1367.38 975.691 1367.38 975.773 1367.3C975.856 1367.13 975.898 1366.92 975.898 1366.67C975.898 1366.43 975.898 1366.05 975.898 1365.56C975.898 1362.66 975.98 1360.35 976.146 1358.61C976.394 1354.47 976.518 1350 976.518 1345.21C976.518 1342.97 976.435 1340.74 976.27 1338.5C976.104 1336.19 975.939 1334.33 975.773 1332.92C975.691 1331.43 975.649 1330.6 975.649 1330.44ZM1070.53 1342.1C1069.04 1341.36 1066.43 1340.99 1062.71 1340.99C1061.8 1340.99 1061.34 1341.07 1061.34 1341.23C1061.34 1341.32 1061.34 1341.61 1061.34 1342.1C1061.34 1342.6 1061.3 1343.22 1061.22 1343.96C1061.22 1344.71 1061.22 1345.45 1061.22 1346.2C1061.22 1369.78 1061.43 1381.77 1061.84 1382.19C1062.09 1382.44 1063.29 1382.56 1065.44 1382.56C1070.49 1382.56 1073.88 1382.27 1075.61 1381.69C1076.86 1381.36 1077.68 1381.19 1078.1 1381.19C1078.59 1381.19 1080.5 1379.71 1083.81 1376.73C1087.11 1373.67 1089.1 1371.64 1089.76 1370.65C1090.51 1369.57 1091.21 1367.5 1091.87 1364.44C1092.2 1362.87 1092.37 1361.67 1092.37 1360.84C1092.37 1360.01 1092.16 1359.27 1091.75 1358.61C1091.17 1357.45 1090.88 1356.62 1090.88 1356.13C1090.88 1355.46 1089.89 1354.02 1087.9 1351.78C1085.92 1349.55 1084.63 1348.43 1084.05 1348.43C1083.72 1348.43 1083.23 1348.1 1082.56 1347.44C1082.15 1346.86 1081.03 1346.16 1079.21 1345.33C1077.39 1344.42 1076.19 1343.96 1075.61 1343.96C1075.12 1343.96 1074.87 1343.72 1074.87 1343.22C1074.87 1342.81 1074.33 1342.6 1073.26 1342.6C1072.02 1342.6 1071.11 1342.43 1070.53 1342.1ZM1087.28 1390.01C1086.95 1390.01 1086.41 1390.34 1085.67 1391C1084.92 1391.58 1084.38 1391.87 1084.05 1391.87C1083.31 1391.87 1082.44 1392.28 1081.45 1393.11C1080.7 1393.69 1079.3 1394.27 1077.23 1394.85C1075.16 1395.34 1073.59 1395.59 1072.51 1395.59C1072.1 1395.59 1071.85 1395.55 1071.77 1395.47C1071.35 1395.22 1071.02 1395.3 1070.77 1395.71C1070.53 1395.96 1069.53 1396.09 1067.8 1396.09H1066.06C1065.31 1396 1063.91 1395.88 1061.84 1395.71C1059.77 1395.55 1058.32 1395.42 1057.5 1395.34C1055.92 1395.26 1054.77 1395.18 1054.02 1395.09C1053.36 1395.01 1052.62 1394.89 1051.79 1394.72C1051.04 1394.47 1050.13 1394.27 1049.06 1394.1C1046.16 1393.77 1044.09 1393.15 1042.85 1392.24C1041.69 1391.33 1040.95 1389.96 1040.62 1388.14C1040.54 1387.65 1040.49 1387.07 1040.49 1386.41C1040.49 1385.41 1041.16 1384.34 1042.48 1383.18C1044.05 1381.69 1045.67 1380.95 1047.32 1380.95H1049.68L1049.55 1365.56L1049.31 1348.8C1049.31 1348.06 1048.89 1347.69 1048.06 1347.69C1047.24 1347.69 1046.7 1347.52 1046.45 1347.19C1046.2 1346.78 1045.17 1346.16 1043.35 1345.33C1041.53 1344.42 1040.33 1343.96 1039.75 1343.96C1039.25 1343.96 1038.3 1343.59 1036.9 1342.85C1035.57 1342.02 1034.74 1341.4 1034.41 1340.99C1033.83 1340.32 1033.54 1339.04 1033.54 1337.14C1033.54 1335.98 1033.67 1334.91 1033.92 1333.91C1034.33 1332.59 1034.83 1331.68 1035.41 1331.18C1036.07 1330.69 1037.27 1330.31 1039.01 1330.07C1040 1329.9 1041.16 1329.61 1042.48 1329.2C1043.47 1328.87 1046.16 1328.53 1050.55 1328.2L1056.75 1327.71C1056.83 1327.62 1057.37 1327.58 1058.36 1327.58C1060.27 1327.58 1062.79 1327.75 1065.94 1328.08C1069.16 1328.33 1071.15 1328.62 1071.89 1328.95C1073.38 1329.53 1074.58 1329.82 1075.49 1329.82C1076.73 1329.82 1080.7 1331.64 1087.4 1335.28C1090.55 1336.93 1092.58 1338.13 1093.49 1338.88C1094.4 1339.54 1095.8 1341.07 1097.7 1343.47C1102.09 1348.68 1104.32 1354.26 1104.41 1360.22V1360.84C1104.41 1367.54 1101.92 1374.2 1096.96 1380.82C1095.31 1383.06 1093.44 1385.17 1091.38 1387.15C1089.31 1389.05 1087.94 1390.01 1087.28 1390.01ZM1123.11 1333.54C1123.11 1332.46 1123.48 1331.47 1124.23 1330.56C1124.97 1329.65 1125.88 1329.2 1126.96 1329.2C1128.78 1329.2 1129.69 1330.02 1129.69 1331.68C1129.69 1333.5 1128.78 1336.1 1126.96 1339.5C1125.63 1342.06 1124.18 1344.21 1122.61 1345.95C1121.04 1347.6 1119.72 1348.43 1118.64 1348.43C1117.81 1348.43 1117.4 1347.89 1117.4 1346.82C1117.4 1345.83 1117.61 1345.21 1118.02 1344.96C1118.52 1344.63 1119.47 1342.85 1120.88 1339.62C1122.36 1336.31 1123.11 1334.28 1123.11 1333.54ZM1182.82 1329.57C1183.65 1328.99 1184.39 1328.7 1185.06 1328.7C1186.3 1328.7 1187.33 1329.98 1188.16 1332.55C1188.41 1333.46 1188.7 1334.28 1189.03 1335.03C1189.36 1335.69 1189.57 1336.19 1189.65 1336.52C1189.73 1336.77 1189.81 1337.26 1189.9 1338.01C1190.06 1338.75 1190.19 1339.87 1190.27 1341.36C1190.43 1344.25 1190.6 1345.83 1190.77 1346.07C1190.85 1346.24 1191.05 1350.25 1191.39 1358.11C1191.47 1359.77 1191.51 1361.83 1191.51 1364.32C1191.51 1365.64 1191.47 1366.76 1191.39 1367.67C1191.39 1368.58 1191.3 1369.49 1191.14 1370.4C1191.05 1371.23 1190.93 1371.85 1190.77 1372.26C1190.68 1372.67 1190.48 1373.46 1190.14 1374.62C1189.9 1375.78 1189.69 1376.69 1189.52 1377.35C1189.11 1379.75 1187.87 1382.31 1185.8 1385.04C1183.73 1387.69 1181.42 1389.84 1178.85 1391.49C1175.29 1393.73 1171.61 1394.85 1167.81 1394.85C1165.82 1394.85 1163.67 1394.6 1161.35 1394.1C1159.2 1393.69 1156.89 1392.28 1154.4 1389.88C1151.92 1387.48 1150.02 1384.75 1148.7 1381.69C1146.96 1377.8 1146.05 1375.65 1145.96 1375.24C1145.88 1374.49 1145.55 1373.38 1144.97 1371.89C1144.56 1370.73 1144.23 1369.57 1143.98 1368.41C1143.81 1367.17 1143.65 1365.56 1143.48 1363.57C1143.32 1361.5 1143.19 1359.97 1143.11 1358.98C1142.86 1356.5 1142.74 1354.31 1142.74 1352.4C1142.74 1350.33 1142.9 1347.56 1143.23 1344.09C1143.57 1340.53 1143.77 1338.17 1143.86 1337.01C1143.94 1334.95 1144.23 1333.5 1144.72 1332.67C1145.22 1331.84 1146.17 1331.26 1147.58 1330.93C1147.66 1330.93 1147.74 1330.93 1147.83 1330.93C1147.99 1330.85 1148.12 1330.81 1148.2 1330.81C1149.03 1330.81 1149.73 1331.18 1150.31 1331.93C1150.97 1332.59 1151.3 1333.37 1151.3 1334.28C1151.3 1335.44 1151.47 1336.19 1151.8 1336.52C1152.05 1336.77 1152.25 1337.8 1152.42 1339.62C1153.25 1354.93 1154.69 1365.02 1156.76 1369.9C1157.42 1371.47 1157.63 1372.42 1157.38 1372.76C1157.13 1373.17 1157.22 1373.38 1157.63 1373.38C1158.04 1373.38 1158.5 1374.08 1159 1375.49C1159.57 1377.39 1160.82 1379.17 1162.72 1380.82C1164.62 1382.48 1166.52 1383.47 1168.43 1383.8C1168.68 1383.88 1169.05 1383.92 1169.54 1383.92C1170.37 1383.92 1171.57 1383.18 1173.14 1381.69C1174.8 1380.04 1175.62 1378.96 1175.62 1378.46C1175.62 1378.05 1175.83 1377.84 1176.25 1377.84C1176.66 1377.84 1176.87 1377.43 1176.87 1376.6C1176.87 1375.69 1177.28 1374.29 1178.11 1372.38C1178.85 1370.23 1179.27 1366.05 1179.35 1359.85C1179.51 1352.65 1179.68 1348.51 1179.84 1347.44C1180.18 1345.21 1180.3 1344.01 1180.22 1343.84C1180.05 1342.85 1179.97 1341.94 1179.97 1341.11C1179.97 1338.88 1180.26 1336.52 1180.84 1334.04C1181.42 1331.55 1182.08 1330.07 1182.82 1329.57ZM1247.72 1330.44C1247.72 1329.86 1248.39 1329.11 1249.71 1328.2C1251.03 1327.29 1252.23 1326.84 1253.31 1326.84C1253.72 1326.84 1254.01 1326.88 1254.18 1326.96C1254.92 1327.05 1255.87 1327.79 1257.03 1329.2C1258.19 1330.52 1258.98 1331.76 1259.39 1332.92C1260.71 1337.64 1261.38 1340.99 1261.38 1342.97C1261.38 1343.14 1261.33 1343.43 1261.25 1343.84C1261.25 1344.17 1261.25 1344.42 1261.25 1344.58C1260.92 1346.65 1260.92 1347.77 1261.25 1347.94C1261.42 1348.1 1261.5 1349.22 1261.5 1351.29C1261.5 1359.06 1261.04 1366.22 1260.13 1372.76C1259.97 1373.91 1259.64 1376.97 1259.14 1381.94C1258.73 1387.48 1257.61 1390.92 1255.79 1392.24C1255.21 1392.74 1253.76 1393.15 1251.45 1393.48C1251.2 1393.48 1250.91 1393.52 1250.58 1393.6C1250.25 1393.6 1250 1393.6 1249.83 1393.6C1248.76 1393.6 1247.72 1393.07 1246.73 1391.99C1245.74 1390.92 1244.17 1388.85 1242.02 1385.79C1239.86 1382.64 1238.33 1380.2 1237.42 1378.46C1236.93 1377.64 1235.69 1375.4 1233.7 1371.76C1231.72 1368.04 1230.06 1365.35 1228.74 1363.7C1227.5 1362.12 1226.88 1361.13 1226.88 1360.72C1226.88 1360.39 1225.88 1359.15 1223.9 1356.99C1221.83 1354.76 1220.38 1353.02 1219.55 1351.78C1218.73 1350.46 1218.11 1349.8 1217.69 1349.8C1217.44 1349.8 1217.32 1350.09 1217.32 1350.67C1217.32 1350.83 1217.4 1351.41 1217.57 1352.4C1217.98 1354.31 1218.19 1359.89 1218.19 1369.16C1218.19 1378.67 1217.98 1384.5 1217.57 1386.65C1217.15 1389.14 1216.66 1390.79 1216.08 1391.62C1215.58 1392.36 1214.42 1393.23 1212.6 1394.22C1211.86 1394.64 1211.11 1394.85 1210.37 1394.85C1208.14 1394.85 1206.9 1392.16 1206.65 1386.78C1205.99 1368.08 1205.45 1357.57 1205.03 1355.26C1204.79 1353.52 1204.66 1351.12 1204.66 1348.06C1204.66 1341.03 1205.03 1336.68 1205.78 1335.03L1206.9 1332.42C1207.39 1331.43 1208.55 1330.48 1210.37 1329.57C1211.61 1329.07 1212.73 1328.82 1213.72 1328.82C1216.12 1328.82 1219.06 1330.73 1222.53 1334.53C1224.35 1336.44 1225.8 1338.13 1226.88 1339.62C1228.03 1341.11 1229.52 1342.81 1231.34 1344.71C1233.91 1347.44 1235.19 1349.01 1235.19 1349.42C1235.19 1350 1235.36 1350.29 1235.69 1350.29C1236.1 1350.29 1237.22 1351.66 1239.04 1354.39C1240.86 1357.04 1242.59 1359.89 1244.25 1362.95C1245.08 1364.61 1245.99 1365.93 1246.98 1366.92C1247.23 1367.09 1247.39 1367.21 1247.48 1367.3C1247.64 1367.38 1247.77 1367.38 1247.85 1367.3C1247.93 1367.13 1247.97 1366.92 1247.97 1366.67C1247.97 1366.43 1247.97 1366.05 1247.97 1365.56C1247.97 1362.66 1248.06 1360.35 1248.22 1358.61C1248.47 1354.47 1248.59 1350 1248.59 1345.21C1248.59 1342.97 1248.51 1340.74 1248.34 1338.5C1248.18 1336.19 1248.01 1334.33 1247.85 1332.92C1247.77 1331.43 1247.72 1330.6 1247.72 1330.44ZM1321.75 1330.44C1324.15 1329.2 1325.85 1328.37 1326.84 1327.96C1327.83 1327.46 1329.03 1327 1330.44 1326.59C1331.85 1326.18 1333.29 1325.97 1334.78 1325.97C1337.43 1325.97 1341.19 1326.51 1346.08 1327.58C1348.72 1328.25 1351.25 1329.82 1353.65 1332.3C1356.13 1334.7 1357.37 1336.97 1357.37 1339.12C1357.37 1341.36 1356.79 1343.22 1355.63 1344.71C1354.47 1346.2 1353.15 1346.94 1351.66 1346.94C1350.42 1346.94 1349.26 1346.32 1348.19 1345.08C1346.45 1342.85 1343.72 1341.52 1340 1341.11C1337.76 1340.7 1336.48 1340.45 1336.15 1340.37C1335.9 1340.28 1335.53 1340.24 1335.03 1340.24C1332.88 1340.24 1330.03 1341.07 1326.47 1342.72C1322.91 1344.3 1320.93 1345.74 1320.51 1347.07C1320.35 1347.48 1319.93 1348.18 1319.27 1349.18C1318.61 1350.17 1318.2 1350.96 1318.03 1351.53C1317.86 1352.44 1317.66 1353.11 1317.41 1353.52C1317.16 1354.02 1317.04 1355.55 1317.04 1358.11C1317.04 1360.76 1317.16 1363.28 1317.41 1365.68C1317.91 1370.07 1319.73 1374.16 1322.87 1377.97C1326.1 1381.69 1329.36 1383.55 1332.67 1383.55C1338.88 1383.39 1344.09 1382.48 1348.31 1380.82C1351.62 1379.5 1354.1 1378.84 1355.76 1378.84C1356.5 1378.84 1357 1379 1357.25 1379.33C1358.49 1381.32 1359.11 1383.35 1359.11 1385.41C1359.11 1385.83 1359.07 1386.12 1358.98 1386.28C1358.65 1387.28 1358.03 1388.35 1357.12 1389.51C1356.29 1390.67 1355.63 1391.25 1355.14 1391.25C1354.64 1391.25 1354.14 1391.58 1353.65 1392.24C1352.98 1393.07 1351.41 1393.89 1348.93 1394.72C1346.45 1395.47 1344.13 1395.88 1341.98 1395.96C1341.07 1396.13 1340.53 1396.33 1340.37 1396.58C1340.12 1396.83 1339.09 1396.96 1337.27 1396.96C1335.53 1396.96 1334.49 1397.12 1334.16 1397.45C1333.75 1397.87 1332.76 1398.07 1331.18 1398.07C1329.94 1398.07 1329.2 1397.91 1328.95 1397.58C1328.7 1397.16 1328 1396.96 1326.84 1396.96C1326.1 1396.96 1324.94 1396.58 1323.37 1395.84C1321.79 1395.09 1320.8 1394.43 1320.39 1393.85C1320.3 1393.77 1320.1 1393.65 1319.77 1393.48C1319.52 1393.23 1319.15 1392.94 1318.65 1392.61C1318.15 1392.28 1317.74 1391.99 1317.41 1391.74C1315.84 1390.58 1314.35 1388.93 1312.94 1386.78C1311.7 1384.63 1310.91 1383.55 1310.58 1383.55C1310.25 1383.55 1309.96 1382.85 1309.71 1381.44C1309.38 1379.87 1308.97 1379 1308.47 1378.84C1307.65 1378.51 1306.86 1375.4 1306.12 1369.53C1305.79 1367.21 1305.62 1364.69 1305.62 1361.96C1305.62 1354.6 1307.03 1348.14 1309.84 1342.6C1312.73 1336.97 1316.71 1332.92 1321.75 1330.44ZM1404.78 1347.19C1403.79 1345.04 1403.13 1343.96 1402.8 1343.96C1402.47 1343.96 1402.18 1344.42 1401.93 1345.33L1399.82 1350.05C1398.5 1353.19 1397.83 1355.01 1397.83 1355.51C1397.83 1355.92 1397.38 1356.95 1396.47 1358.61C1395.64 1360.18 1395.23 1361.26 1395.23 1361.83C1395.23 1362.17 1395.39 1362.33 1395.72 1362.33C1395.97 1362.33 1396.18 1362.29 1396.34 1362.21C1396.92 1362.04 1398.66 1361.83 1401.56 1361.59C1404.45 1361.26 1406.56 1361.09 1407.89 1361.09H1408.38C1409.04 1361.09 1409.38 1361.01 1409.38 1360.84C1409.46 1360.59 1409.38 1359.81 1409.13 1358.48C1408.63 1356.5 1407.18 1352.73 1404.78 1347.19ZM1399.7 1329.07C1400.03 1328.49 1400.61 1328.2 1401.43 1328.2C1403.42 1328.2 1405.65 1329.44 1408.13 1331.93C1409.71 1333.33 1411.53 1336.19 1413.59 1340.49C1414.67 1342.64 1415.79 1344.83 1416.95 1347.07C1418.1 1349.3 1419.18 1351.45 1420.17 1353.52C1421 1355.59 1421.99 1357.86 1423.15 1360.35C1424.14 1362.33 1424.64 1363.7 1424.64 1364.44C1424.64 1365.1 1424.85 1365.64 1425.26 1366.05C1425.67 1366.55 1426.75 1369.82 1428.49 1375.86C1430.22 1381.07 1431.09 1385.12 1431.09 1388.02C1431.09 1389.26 1430.89 1390.58 1430.47 1391.99C1430.06 1393.48 1429.15 1394.39 1427.74 1394.72C1427.16 1394.89 1426.34 1394.97 1425.26 1394.97C1423.03 1394.97 1421.16 1393.52 1419.68 1390.63C1418.35 1388.31 1417.69 1386.74 1417.69 1385.91C1417.69 1385.08 1417.11 1383.55 1415.95 1381.32C1414.88 1379.08 1414.01 1377.64 1413.35 1376.98C1412.19 1375.9 1410.57 1375.2 1408.51 1374.87C1406.52 1374.45 1403.29 1374.16 1398.83 1374H1394.98C1392.83 1374 1391.46 1374.08 1390.88 1374.24C1390.39 1374.41 1390.14 1374.74 1390.14 1375.24C1390.14 1376.06 1389.93 1376.6 1389.52 1376.85C1388.94 1377.18 1388.73 1377.68 1388.9 1378.34C1389.06 1379 1388.9 1379.87 1388.4 1380.95C1388.24 1381.44 1387.78 1382.85 1387.04 1385.17C1386.29 1387.48 1385.75 1388.97 1385.42 1389.63C1384.93 1390.54 1384.6 1391.49 1384.43 1392.49C1384.43 1392.9 1383.64 1393.65 1382.07 1394.72C1380.83 1395.47 1380.05 1395.84 1379.72 1395.84C1379.22 1395.84 1378.6 1395.59 1377.85 1395.09C1374.38 1392.86 1372.64 1390.21 1372.64 1387.15C1372.64 1386.82 1372.72 1386.32 1372.89 1385.66C1373.14 1385 1374.01 1382.19 1375.5 1377.22C1376.82 1372.84 1377.89 1370.07 1378.72 1368.91C1379.47 1367.83 1379.84 1367.01 1379.84 1366.43C1379.84 1366.01 1380.25 1364.52 1381.08 1361.96C1381.91 1359.39 1382.57 1357.53 1383.07 1356.37C1383.56 1355.46 1384.02 1354.18 1384.43 1352.53C1385.42 1349.14 1387.45 1344.83 1390.51 1339.62C1393.66 1334.41 1396.01 1331.26 1397.59 1330.19C1398.58 1329.61 1399.07 1329.44 1399.07 1329.69C1399.07 1329.94 1399.2 1329.86 1399.45 1329.44C1399.53 1329.36 1399.61 1329.24 1399.7 1329.07ZM1449.47 1357.74C1449.47 1357.33 1449.14 1356.75 1448.47 1356C1447.81 1355.26 1447.48 1354.64 1447.48 1354.14C1447.48 1353.4 1447.19 1352.44 1446.61 1351.29C1446.12 1350.46 1445.87 1349.18 1445.87 1347.44C1445.87 1344.71 1446.4 1341.94 1447.48 1339.12C1448.14 1337.64 1449.8 1335.65 1452.44 1333.17C1455.09 1330.6 1457.08 1329.2 1458.4 1328.95C1458.65 1328.87 1459.39 1328.7 1460.64 1328.45C1461.88 1328.2 1462.74 1328.04 1463.24 1327.96C1464.07 1327.71 1466.59 1327.5 1470.81 1327.33H1472.55C1475.03 1327.33 1477.47 1327.91 1479.87 1329.07C1485.08 1331.64 1487.69 1334.62 1487.69 1338.01C1487.69 1339.25 1487.32 1340.53 1486.57 1341.85C1485.83 1343.1 1485 1343.88 1484.09 1344.21C1483.92 1344.3 1483.59 1344.34 1483.1 1344.34C1481.19 1344.34 1479.29 1343.47 1477.39 1341.73C1475.57 1340.08 1472.84 1339.25 1469.2 1339.25C1467.79 1339.25 1466.26 1339.46 1464.61 1339.87C1462.62 1340.53 1460.88 1341.52 1459.39 1342.85C1457.9 1344.17 1457.16 1345.45 1457.16 1346.69C1457.16 1347.6 1457.57 1348.97 1458.4 1350.79C1459.23 1352.53 1460.06 1353.73 1460.88 1354.39C1461.55 1354.97 1463.16 1355.71 1465.72 1356.62C1468.29 1357.53 1470.31 1358.07 1471.8 1358.24C1477.18 1358.82 1481.36 1360.47 1484.34 1363.2C1487.4 1365.93 1488.93 1369.36 1488.93 1373.5C1488.93 1375.98 1488.47 1378.34 1487.56 1380.57C1486.74 1382.72 1485.79 1384.46 1484.71 1385.79C1483.72 1387.03 1481.94 1388.72 1479.37 1390.87C1477.39 1392.45 1474.41 1393.81 1470.44 1394.97C1466.55 1396.13 1462.95 1396.71 1459.64 1396.71C1458.24 1396.71 1457.04 1396.58 1456.04 1396.33C1452.73 1395.67 1450 1394.47 1447.85 1392.74C1445.7 1391 1444.63 1389.22 1444.63 1387.4C1444.63 1387.07 1444.71 1386.57 1444.87 1385.91C1445.54 1384.17 1446.61 1383.3 1448.1 1383.3C1449.26 1383.3 1451.66 1383.68 1455.3 1384.42C1456.95 1384.83 1458.53 1385.04 1460.01 1385.04C1461.09 1385.04 1461.83 1384.96 1462.25 1384.79C1463.65 1384.38 1464.73 1384.26 1465.48 1384.42C1465.97 1384.59 1467.17 1384.42 1469.07 1383.92C1470.65 1383.59 1472.34 1382.72 1474.16 1381.32C1475.98 1379.83 1477.02 1378.51 1477.26 1377.35C1477.35 1376.93 1477.47 1376.44 1477.64 1375.86C1477.8 1375.28 1477.89 1374.87 1477.89 1374.62C1477.89 1374.04 1477.68 1373.38 1477.26 1372.63C1476.19 1370.81 1473.83 1369.65 1470.19 1369.16C1464.65 1368.33 1461.46 1367.58 1460.64 1366.92C1460.39 1366.76 1459.35 1366.34 1457.53 1365.68C1456.13 1365.27 1454.43 1364.07 1452.44 1362.08C1450.46 1360.1 1449.47 1358.65 1449.47 1357.74ZM1525.89 1344.71C1526.06 1342.48 1525.81 1341.36 1525.15 1341.36C1524.65 1341.36 1523.53 1341.85 1521.8 1342.85C1520.14 1343.76 1518.9 1344.58 1518.07 1345.33C1517 1346.32 1515.96 1348.51 1514.97 1351.91C1513.98 1355.22 1513.48 1358.07 1513.48 1360.47C1513.48 1360.64 1513.48 1360.92 1513.48 1361.34C1513.57 1361.67 1513.61 1361.88 1513.61 1361.96C1514.27 1366.34 1515.18 1370.27 1516.34 1373.75C1517 1375.57 1518.36 1377.43 1520.43 1379.33C1522.5 1381.24 1524.36 1382.31 1526.02 1382.56C1526.1 1382.56 1526.26 1382.6 1526.51 1382.68C1526.76 1382.68 1526.97 1382.68 1527.13 1382.68C1528.71 1382.68 1530.44 1382.31 1532.35 1381.57C1534.33 1380.74 1535.86 1379.75 1536.94 1378.59C1538.43 1377.1 1539.46 1375.57 1540.04 1374C1540.7 1372.34 1541.2 1369.82 1541.53 1366.43C1542.19 1362.21 1542.6 1359.93 1542.77 1359.6C1543.18 1359.19 1543.18 1358.57 1542.77 1357.74C1542.27 1356.33 1541.74 1354.6 1541.16 1352.53C1539.83 1348.14 1538.43 1345.95 1536.94 1345.95C1535.86 1345.95 1534.5 1346.69 1532.84 1348.18L1530.36 1350.42L1528.13 1349.3C1527.05 1348.72 1526.39 1348.23 1526.14 1347.81C1525.98 1347.32 1525.89 1346.28 1525.89 1344.71ZM1527.75 1329.2C1528.75 1329.03 1529.62 1328.95 1530.36 1328.95C1533.5 1328.95 1536.28 1329.49 1538.67 1330.56C1540.25 1331.22 1542.36 1332.8 1545 1335.28C1547.65 1337.76 1549.84 1340.2 1551.58 1342.6C1552.74 1344.09 1553.77 1345.74 1554.68 1347.56C1555.59 1349.38 1556.05 1350.62 1556.05 1351.29C1556.05 1351.87 1556.17 1352.44 1556.42 1353.02C1556.5 1353.19 1556.55 1354.02 1556.55 1355.51C1556.55 1358.32 1556.38 1361.75 1556.05 1365.81C1555.72 1369.78 1555.39 1371.93 1555.06 1372.26C1554.56 1372.84 1554.44 1373.25 1554.68 1373.5C1554.77 1373.58 1554.81 1373.71 1554.81 1373.87C1554.81 1374.78 1553.94 1376.69 1552.2 1379.58C1550.46 1382.48 1548.81 1384.75 1547.24 1386.41C1544.76 1389.22 1543.51 1390.71 1543.51 1390.87C1543.51 1391.29 1544.51 1392.57 1546.49 1394.72C1548.4 1396.96 1549.64 1398.78 1550.22 1400.18L1551.58 1402.91C1551.75 1403.33 1550.8 1404.48 1548.73 1406.39C1546.66 1408.21 1545.33 1409.12 1544.76 1409.12C1543.93 1409.12 1542.89 1408.62 1541.65 1407.63C1540.49 1406.88 1538.59 1404.9 1535.94 1401.67C1533.3 1398.36 1531.97 1396.46 1531.97 1395.96C1531.97 1395.47 1530.98 1395.34 1528.99 1395.59C1527.26 1395.84 1526.02 1395.67 1525.27 1395.09C1524.61 1394.6 1523.99 1394.51 1523.41 1394.85C1522.83 1395.09 1521.88 1394.89 1520.56 1394.22C1520.47 1394.14 1519.69 1393.77 1518.2 1393.11C1516.71 1392.36 1515.51 1391.74 1514.6 1391.25C1513.77 1390.67 1513.15 1390.09 1512.74 1389.51C1511.91 1388.52 1511.37 1388.02 1511.12 1388.02C1510.21 1388.02 1508.81 1386.24 1506.91 1382.68C1505.58 1380.37 1504.92 1379.04 1504.92 1378.71C1504.92 1378.63 1504.8 1378.22 1504.55 1377.47C1504.38 1376.64 1504.38 1376.06 1504.55 1375.73C1504.71 1374.99 1504.63 1374.33 1504.3 1373.75C1503.89 1373 1503.43 1371.35 1502.93 1368.78C1502.52 1366.14 1502.31 1364.11 1502.31 1362.7C1502.31 1362.21 1502.35 1361.92 1502.44 1361.83C1502.6 1361.5 1502.69 1360.47 1502.69 1358.73C1502.69 1357.57 1502.98 1355.71 1503.55 1353.15C1504.13 1350.58 1504.71 1348.68 1505.29 1347.44C1506.04 1345.7 1506.7 1344.17 1507.28 1342.85C1507.94 1341.36 1509.01 1339.7 1510.5 1337.88C1512.08 1336.06 1513.57 1334.74 1514.97 1333.91C1518.03 1332.09 1522.29 1330.52 1527.75 1329.2ZM1610.14 1329.57C1610.97 1328.99 1611.72 1328.7 1612.38 1328.7C1613.62 1328.7 1614.65 1329.98 1615.48 1332.55C1615.73 1333.46 1616.02 1334.28 1616.35 1335.03C1616.68 1335.69 1616.89 1336.19 1616.97 1336.52C1617.05 1336.77 1617.13 1337.26 1617.22 1338.01C1617.38 1338.75 1617.51 1339.87 1617.59 1341.36C1617.76 1344.25 1617.92 1345.83 1618.09 1346.07C1618.17 1346.24 1618.38 1350.25 1618.71 1358.11C1618.79 1359.77 1618.83 1361.83 1618.83 1364.32C1618.83 1365.64 1618.79 1366.76 1618.71 1367.67C1618.71 1368.58 1618.62 1369.49 1618.46 1370.4C1618.38 1371.23 1618.25 1371.85 1618.09 1372.26C1618 1372.67 1617.8 1373.46 1617.47 1374.62C1617.22 1375.78 1617.01 1376.69 1616.85 1377.35C1616.43 1379.75 1615.19 1382.31 1613.12 1385.04C1611.05 1387.69 1608.74 1389.84 1606.17 1391.49C1602.61 1393.73 1598.93 1394.85 1595.13 1394.85C1593.14 1394.85 1590.99 1394.6 1588.67 1394.1C1586.52 1393.69 1584.21 1392.28 1581.72 1389.88C1579.24 1387.48 1577.34 1384.75 1576.02 1381.69C1574.28 1377.8 1573.37 1375.65 1573.29 1375.24C1573.2 1374.49 1572.87 1373.38 1572.29 1371.89C1571.88 1370.73 1571.55 1369.57 1571.3 1368.41C1571.13 1367.17 1570.97 1365.56 1570.8 1363.57C1570.64 1361.5 1570.51 1359.97 1570.43 1358.98C1570.18 1356.5 1570.06 1354.31 1570.06 1352.4C1570.06 1350.33 1570.22 1347.56 1570.56 1344.09C1570.89 1340.53 1571.09 1338.17 1571.18 1337.01C1571.26 1334.95 1571.55 1333.5 1572.04 1332.67C1572.54 1331.84 1573.49 1331.26 1574.9 1330.93C1574.98 1330.93 1575.06 1330.93 1575.15 1330.93C1575.31 1330.85 1575.44 1330.81 1575.52 1330.81C1576.35 1330.81 1577.05 1331.18 1577.63 1331.93C1578.29 1332.59 1578.62 1333.37 1578.62 1334.28C1578.62 1335.44 1578.79 1336.19 1579.12 1336.52C1579.37 1336.77 1579.57 1337.8 1579.74 1339.62C1580.57 1354.93 1582.01 1365.02 1584.08 1369.9C1584.74 1371.47 1584.95 1372.42 1584.7 1372.76C1584.45 1373.17 1584.54 1373.38 1584.95 1373.38C1585.36 1373.38 1585.82 1374.08 1586.32 1375.49C1586.9 1377.39 1588.14 1379.17 1590.04 1380.82C1591.94 1382.48 1593.85 1383.47 1595.75 1383.8C1596 1383.88 1596.37 1383.92 1596.86 1383.92C1597.69 1383.92 1598.89 1383.18 1600.46 1381.69C1602.12 1380.04 1602.95 1378.96 1602.95 1378.46C1602.95 1378.05 1603.15 1377.84 1603.57 1377.84C1603.98 1377.84 1604.19 1377.43 1604.19 1376.6C1604.19 1375.69 1604.6 1374.29 1605.43 1372.38C1606.17 1370.23 1606.59 1366.05 1606.67 1359.85C1606.83 1352.65 1607 1348.51 1607.17 1347.44C1607.5 1345.21 1607.62 1344.01 1607.54 1343.84C1607.37 1342.85 1607.29 1341.94 1607.29 1341.11C1607.29 1338.88 1607.58 1336.52 1608.16 1334.04C1608.74 1331.55 1609.4 1330.07 1610.14 1329.57ZM1646.25 1329.07C1651.22 1328.49 1655.97 1328.2 1660.53 1328.2C1665.9 1328.2 1669.42 1328.62 1671.07 1329.44C1672.15 1329.94 1672.81 1330.44 1673.06 1330.93C1673.31 1331.35 1673.43 1332.3 1673.43 1333.79C1673.6 1335.86 1673.39 1336.89 1672.81 1336.89C1672.4 1336.89 1672.19 1337.1 1672.19 1337.51C1672.19 1338.75 1670.66 1339.66 1667.6 1340.24C1664.62 1340.74 1659.45 1341.07 1652.09 1341.23C1647.37 1341.4 1644.97 1341.52 1644.89 1341.61C1644.56 1341.94 1644.19 1345.08 1643.77 1351.04L1643.52 1355.38H1646.87H1647.12C1648.94 1355.38 1650.89 1355.88 1652.96 1356.87C1655.02 1357.78 1656.35 1358.82 1656.93 1359.97C1657.01 1360.06 1657.05 1360.22 1657.05 1360.47C1657.05 1361.55 1656.1 1362.99 1654.2 1364.81C1652.29 1366.63 1650.72 1367.58 1649.48 1367.67C1647.58 1367.92 1646.42 1368.08 1646.01 1368.16C1645.51 1368.33 1645.18 1368.45 1645.01 1368.54C1644.93 1368.62 1644.81 1368.87 1644.64 1369.28C1644.56 1369.69 1644.52 1370.36 1644.52 1371.27C1644.52 1371.51 1644.52 1372.05 1644.52 1372.88C1644.6 1373.71 1644.64 1374.41 1644.64 1374.99C1644.81 1379.29 1645.05 1381.61 1645.39 1381.94C1645.63 1382.19 1648.16 1382.31 1652.96 1382.31H1657.42H1660.9C1666.36 1382.31 1669.5 1382.52 1670.33 1382.93C1671.57 1383.59 1672.73 1385.66 1673.8 1389.14C1673.89 1389.3 1673.93 1389.51 1673.93 1389.76C1673.93 1390.42 1673.27 1391.41 1671.94 1392.74C1669.79 1395.05 1667.06 1396.21 1663.75 1396.21C1663.01 1396.21 1662.47 1396.17 1662.14 1396.09C1658.66 1395.59 1651.42 1395.18 1640.42 1394.85C1637.28 1394.68 1635.66 1394.56 1635.58 1394.47C1634.34 1392.98 1633.55 1391.7 1633.22 1390.63C1632.98 1389.55 1632.85 1387.48 1632.85 1384.42V1380.7V1377.97C1632.85 1373.33 1632.69 1370.77 1632.35 1370.27C1632.02 1369.86 1631.86 1366.92 1631.86 1361.46C1631.86 1347.81 1632.31 1339.95 1633.22 1337.88C1633.55 1336.89 1633.51 1336.06 1633.1 1335.4C1632.6 1334.66 1632.64 1334.28 1633.22 1334.28C1633.64 1334.28 1633.84 1333.95 1633.84 1333.29C1633.84 1331.39 1637.98 1329.98 1646.25 1329.07ZM1731.94 1329.07C1736.9 1328.49 1741.66 1328.2 1746.21 1328.2C1751.59 1328.2 1755.1 1328.62 1756.76 1329.44C1757.83 1329.94 1758.49 1330.44 1758.74 1330.93C1758.99 1331.35 1759.11 1332.3 1759.11 1333.79C1759.28 1335.86 1759.07 1336.89 1758.49 1336.89C1758.08 1336.89 1757.87 1337.1 1757.87 1337.51C1757.87 1338.75 1756.34 1339.66 1753.28 1340.24C1750.3 1340.74 1745.13 1341.07 1737.77 1341.23C1733.05 1341.4 1730.65 1341.52 1730.57 1341.61C1730.24 1341.94 1729.87 1345.08 1729.45 1351.04L1729.21 1355.38H1732.56H1732.8C1734.62 1355.38 1736.57 1355.88 1738.64 1356.87C1740.71 1357.78 1742.03 1358.82 1742.61 1359.97C1742.69 1360.06 1742.73 1360.22 1742.73 1360.47C1742.73 1361.55 1741.78 1362.99 1739.88 1364.81C1737.98 1366.63 1736.4 1367.58 1735.16 1367.67C1733.26 1367.92 1732.1 1368.08 1731.69 1368.16C1731.19 1368.33 1730.86 1368.45 1730.7 1368.54C1730.61 1368.62 1730.49 1368.87 1730.32 1369.28C1730.24 1369.69 1730.2 1370.36 1730.2 1371.27C1730.2 1371.51 1730.2 1372.05 1730.2 1372.88C1730.28 1373.71 1730.32 1374.41 1730.32 1374.99C1730.49 1379.29 1730.74 1381.61 1731.07 1381.94C1731.32 1382.19 1733.84 1382.31 1738.64 1382.31H1743.11H1746.58C1752.04 1382.31 1755.18 1382.52 1756.01 1382.93C1757.25 1383.59 1758.41 1385.66 1759.49 1389.14C1759.57 1389.3 1759.61 1389.51 1759.61 1389.76C1759.61 1390.42 1758.95 1391.41 1757.62 1392.74C1755.47 1395.05 1752.74 1396.21 1749.43 1396.21C1748.69 1396.21 1748.15 1396.17 1747.82 1396.09C1744.35 1395.59 1737.11 1395.18 1726.1 1394.85C1722.96 1394.68 1721.35 1394.56 1721.26 1394.47C1720.02 1392.98 1719.24 1391.7 1718.91 1390.63C1718.66 1389.55 1718.53 1387.48 1718.53 1384.42V1380.7V1377.97C1718.53 1373.33 1718.37 1370.77 1718.04 1370.27C1717.71 1369.86 1717.54 1366.92 1717.54 1361.46C1717.54 1347.81 1718 1339.95 1718.91 1337.88C1719.24 1336.89 1719.2 1336.06 1718.78 1335.4C1718.29 1334.66 1718.33 1334.28 1718.91 1334.28C1719.32 1334.28 1719.53 1333.95 1719.53 1333.29C1719.53 1331.39 1723.66 1329.98 1731.94 1329.07ZM1777.41 1357.74C1777.41 1357.33 1777.08 1356.75 1776.42 1356C1775.76 1355.26 1775.42 1354.64 1775.42 1354.14C1775.42 1353.4 1775.13 1352.44 1774.56 1351.29C1774.06 1350.46 1773.81 1349.18 1773.81 1347.44C1773.81 1344.71 1774.35 1341.94 1775.42 1339.12C1776.09 1337.64 1777.74 1335.65 1780.39 1333.17C1783.04 1330.6 1785.02 1329.2 1786.35 1328.95C1786.59 1328.87 1787.34 1328.7 1788.58 1328.45C1789.82 1328.2 1790.69 1328.04 1791.19 1327.96C1792.01 1327.71 1794.54 1327.5 1798.76 1327.33H1800.49C1802.97 1327.33 1805.42 1327.91 1807.81 1329.07C1813.03 1331.64 1815.63 1334.62 1815.63 1338.01C1815.63 1339.25 1815.26 1340.53 1814.52 1341.85C1813.77 1343.1 1812.94 1343.88 1812.03 1344.21C1811.87 1344.3 1811.54 1344.34 1811.04 1344.34C1809.14 1344.34 1807.24 1343.47 1805.33 1341.73C1803.51 1340.08 1800.78 1339.25 1797.14 1339.25C1795.74 1339.25 1794.2 1339.46 1792.55 1339.87C1790.56 1340.53 1788.83 1341.52 1787.34 1342.85C1785.85 1344.17 1785.1 1345.45 1785.1 1346.69C1785.1 1347.6 1785.52 1348.97 1786.35 1350.79C1787.17 1352.53 1788 1353.73 1788.83 1354.39C1789.49 1354.97 1791.1 1355.71 1793.67 1356.62C1796.23 1357.53 1798.26 1358.07 1799.75 1358.24C1805.13 1358.82 1809.3 1360.47 1812.28 1363.2C1815.34 1365.93 1816.87 1369.36 1816.87 1373.5C1816.87 1375.98 1816.42 1378.34 1815.51 1380.57C1814.68 1382.72 1813.73 1384.46 1812.65 1385.79C1811.66 1387.03 1809.88 1388.72 1807.32 1390.87C1805.33 1392.45 1802.35 1393.81 1798.38 1394.97C1794.49 1396.13 1790.9 1396.71 1787.59 1396.71C1786.18 1396.71 1784.98 1396.58 1783.99 1396.33C1780.68 1395.67 1777.95 1394.47 1775.8 1392.74C1773.65 1391 1772.57 1389.22 1772.57 1387.4C1772.57 1387.07 1772.65 1386.57 1772.82 1385.91C1773.48 1384.17 1774.56 1383.3 1776.04 1383.3C1777.2 1383.3 1779.6 1383.68 1783.24 1384.42C1784.9 1384.83 1786.47 1385.04 1787.96 1385.04C1789.03 1385.04 1789.78 1384.96 1790.19 1384.79C1791.6 1384.38 1792.67 1384.26 1793.42 1384.42C1793.92 1384.59 1795.12 1384.42 1797.02 1383.92C1798.59 1383.59 1800.29 1382.72 1802.11 1381.32C1803.93 1379.83 1804.96 1378.51 1805.21 1377.35C1805.29 1376.93 1805.42 1376.44 1805.58 1375.86C1805.75 1375.28 1805.83 1374.87 1805.83 1374.62C1805.83 1374.04 1805.62 1373.38 1805.21 1372.63C1804.13 1370.81 1801.78 1369.65 1798.13 1369.16C1792.59 1368.33 1789.41 1367.58 1788.58 1366.92C1788.33 1366.76 1787.3 1366.34 1785.48 1365.68C1784.07 1365.27 1782.37 1364.07 1780.39 1362.08C1778.4 1360.1 1777.41 1358.65 1777.41 1357.74ZM1857.19 1329.07C1857.52 1328.74 1860.5 1328.58 1866.12 1328.58C1872.16 1328.58 1877.17 1328.78 1881.14 1329.2C1885.11 1329.61 1887.88 1330.15 1889.45 1330.81C1891.02 1331.47 1891.81 1332.46 1891.81 1333.79C1891.81 1334.04 1891.73 1334.49 1891.56 1335.15C1891.23 1336.48 1890.07 1337.43 1888.09 1338.01C1886.1 1338.5 1882.71 1338.75 1877.91 1338.75H1871.09C1867.94 1338.75 1866.37 1338.92 1866.37 1339.25C1866.37 1339.33 1866.45 1339.54 1866.62 1339.87C1866.95 1340.78 1867.32 1345.25 1867.74 1353.27C1868.23 1361.21 1868.52 1368.54 1868.6 1375.24V1379.21C1868.6 1384.83 1868.36 1388.43 1867.86 1390.01C1867.36 1391.49 1866.12 1392.74 1864.14 1393.73C1862.65 1394.39 1861.53 1394.72 1860.79 1394.72C1859.3 1394.72 1858.06 1393.81 1857.06 1391.99C1856.57 1391 1856.24 1389.88 1856.07 1388.64C1855.9 1387.4 1855.82 1384.59 1855.82 1380.2V1369.28V1362.46C1855.82 1353.27 1855.57 1348.27 1855.08 1347.44C1854.58 1346.69 1854.17 1345.91 1853.84 1345.08C1853.51 1344.25 1852.43 1343.47 1850.61 1342.72C1848.87 1341.98 1846.89 1341.57 1844.65 1341.48C1842.09 1341.32 1839.36 1340.9 1836.46 1340.24C1833.57 1339.58 1831.79 1338.96 1831.13 1338.38C1830.63 1337.97 1830.38 1337.43 1830.38 1336.77C1830.38 1335.36 1831.21 1334.16 1832.86 1333.17C1835.59 1331.43 1842.01 1330.27 1852.1 1329.69C1855.24 1329.53 1856.94 1329.32 1857.19 1329.07ZM1971.05 1341.98C1970.64 1341.65 1969.73 1341.36 1968.32 1341.11C1967 1340.86 1965.34 1340.61 1963.36 1340.37C1961.46 1340.12 1960.17 1339.91 1959.51 1339.74L1956.91 1339.25V1348.93C1956.91 1355.46 1956.99 1358.73 1957.15 1358.73C1957.24 1358.73 1957.44 1358.77 1957.77 1358.86C1958.19 1358.86 1958.73 1358.9 1959.39 1358.98C1960.05 1358.98 1960.63 1358.98 1961.13 1358.98C1964.02 1359.15 1965.76 1359.31 1966.34 1359.48C1966.59 1359.56 1966.88 1359.6 1967.21 1359.6C1968.12 1359.6 1969.4 1358.82 1971.05 1357.24C1972.87 1355.59 1974.07 1354.18 1974.65 1353.02C1975.31 1351.78 1975.81 1350 1976.14 1347.69L1976.51 1344.09L1974.16 1343.22C1972.34 1342.56 1971.3 1342.14 1971.05 1341.98ZM1984.08 1377.47C1984.08 1377.8 1984.46 1378.51 1985.2 1379.58C1985.95 1380.66 1986.32 1381.32 1986.32 1381.57C1986.32 1382.06 1987.35 1383.39 1989.42 1385.54C1991.49 1387.61 1992.77 1388.64 1993.27 1388.64C1993.85 1388.64 1994.3 1389.22 1994.63 1390.38C1994.72 1390.63 1994.76 1390.96 1994.76 1391.37C1994.76 1392.28 1994.22 1393.15 1993.14 1393.98C1991.9 1395.05 1990.87 1395.67 1990.04 1395.84C1989.88 1395.84 1989.5 1395.84 1988.92 1395.84C1988.34 1395.84 1987.93 1395.88 1987.68 1395.96H1987.43C1985.78 1395.96 1983.75 1395.18 1981.35 1393.6C1979.04 1391.95 1977.84 1390.58 1977.75 1389.51C1977.75 1388.93 1977.55 1388.64 1977.13 1388.64C1976.64 1388.64 1976.39 1388.43 1976.39 1388.02C1976.39 1387.52 1975.98 1386.86 1975.15 1386.03C1974.24 1384.96 1973.45 1383.76 1972.79 1382.44C1972.05 1380.86 1970.97 1379 1969.56 1376.85C1968.24 1374.62 1967.33 1373.29 1966.83 1372.88C1966.26 1372.47 1964.31 1372.09 1961 1371.76L1956.16 1371.39L1956.04 1381.07C1955.87 1387.77 1955.58 1391.62 1955.17 1392.61C1954.01 1395.01 1952.19 1396.21 1949.71 1396.21C1949.29 1396.21 1948.96 1396.17 1948.72 1396.09C1947.64 1395.84 1946.85 1395.42 1946.36 1394.85C1945.94 1394.18 1945.57 1392.86 1945.24 1390.87C1945.08 1390.13 1944.99 1387.36 1944.99 1382.56C1944.99 1367.92 1945.45 1356.95 1946.36 1349.67C1946.61 1347.52 1946.73 1345.83 1946.73 1344.58C1946.73 1342.52 1946.44 1341.19 1945.86 1340.61C1945.53 1340.28 1944.5 1340.03 1942.76 1339.87C1940.52 1339.7 1938.66 1338.75 1937.17 1337.01C1936.68 1336.35 1936.39 1335.86 1936.31 1335.53C1936.31 1335.19 1936.47 1334.57 1936.8 1333.66C1937.55 1331.76 1938.7 1330.52 1940.28 1329.94C1941.85 1329.28 1944.91 1328.87 1949.46 1328.7C1950.7 1328.62 1952.02 1328.58 1953.43 1328.58C1954.84 1328.49 1955.91 1328.41 1956.66 1328.33H1957.65C1957.82 1328.25 1958.02 1328.2 1958.27 1328.2C1959.51 1328.2 1961.91 1328.45 1965.47 1328.95C1969.03 1329.36 1971.38 1329.69 1972.54 1329.94C1973.04 1330.11 1973.54 1330.27 1974.03 1330.44C1974.61 1330.52 1975.11 1330.6 1975.52 1330.69C1976.02 1330.77 1976.31 1330.81 1976.39 1330.81C1977.47 1330.98 1979 1331.68 1980.98 1332.92C1983.05 1334.16 1984.08 1335.03 1984.08 1335.53C1984.08 1335.94 1984.54 1336.73 1985.45 1337.88C1986.44 1339.04 1986.94 1339.87 1986.94 1340.37C1986.94 1341.69 1987.15 1342.68 1987.56 1343.34C1987.97 1343.84 1988.18 1344.54 1988.18 1345.45C1988.18 1346.61 1987.97 1348.23 1987.56 1350.29C1986.98 1353.93 1986.36 1356.08 1985.7 1356.75C1985.2 1357.24 1984.79 1357.99 1984.46 1358.98C1984.13 1359.89 1982.93 1361.46 1980.86 1363.7C1978.79 1365.93 1977.75 1367.13 1977.75 1367.3C1977.75 1367.54 1978.33 1368.66 1979.49 1370.65C1980.73 1372.55 1981.52 1373.67 1981.85 1374C1982.51 1374.66 1982.84 1375.2 1982.84 1375.61C1982.84 1376.19 1983.05 1376.48 1983.46 1376.48C1983.88 1376.48 1984.08 1376.81 1984.08 1377.47ZM2022.43 1329.07C2027.4 1328.49 2032.15 1328.2 2036.7 1328.2C2042.08 1328.2 2045.6 1328.62 2047.25 1329.44C2048.33 1329.94 2048.99 1330.44 2049.24 1330.93C2049.49 1331.35 2049.61 1332.3 2049.61 1333.79C2049.78 1335.86 2049.57 1336.89 2048.99 1336.89C2048.58 1336.89 2048.37 1337.1 2048.37 1337.51C2048.37 1338.75 2046.84 1339.66 2043.78 1340.24C2040.8 1340.74 2035.63 1341.07 2028.26 1341.23C2023.55 1341.4 2021.15 1341.52 2021.07 1341.61C2020.74 1341.94 2020.36 1345.08 2019.95 1351.04L2019.7 1355.38H2023.05H2023.3C2025.12 1355.38 2027.06 1355.88 2029.13 1356.87C2031.2 1357.78 2032.53 1358.82 2033.1 1359.97C2033.19 1360.06 2033.23 1360.22 2033.23 1360.47C2033.23 1361.55 2032.28 1362.99 2030.37 1364.81C2028.47 1366.63 2026.9 1367.58 2025.66 1367.67C2023.76 1367.92 2022.6 1368.08 2022.18 1368.16C2021.69 1368.33 2021.36 1368.45 2021.19 1368.54C2021.11 1368.62 2020.98 1368.87 2020.82 1369.28C2020.74 1369.69 2020.69 1370.36 2020.69 1371.27C2020.69 1371.51 2020.69 1372.05 2020.69 1372.88C2020.78 1373.71 2020.82 1374.41 2020.82 1374.99C2020.98 1379.29 2021.23 1381.61 2021.56 1381.94C2021.81 1382.19 2024.33 1382.31 2029.13 1382.31H2033.6H2037.08C2042.54 1382.31 2045.68 1382.52 2046.51 1382.93C2047.75 1383.59 2048.91 1385.66 2049.98 1389.14C2050.06 1389.3 2050.11 1389.51 2050.11 1389.76C2050.11 1390.42 2049.44 1391.41 2048.12 1392.74C2045.97 1395.05 2043.24 1396.21 2039.93 1396.21C2039.19 1396.21 2038.65 1396.17 2038.32 1396.09C2034.84 1395.59 2027.6 1395.18 2016.6 1394.85C2013.46 1394.68 2011.84 1394.56 2011.76 1394.47C2010.52 1392.98 2009.73 1391.7 2009.4 1390.63C2009.15 1389.55 2009.03 1387.48 2009.03 1384.42V1380.7V1377.97C2009.03 1373.33 2008.86 1370.77 2008.53 1370.27C2008.2 1369.86 2008.04 1366.92 2008.04 1361.46C2008.04 1347.81 2008.49 1339.95 2009.4 1337.88C2009.73 1336.89 2009.69 1336.06 2009.28 1335.4C2008.78 1334.66 2008.82 1334.28 2009.4 1334.28C2009.82 1334.28 2010.02 1333.95 2010.02 1333.29C2010.02 1331.39 2014.16 1329.98 2022.43 1329.07ZM2079.2 1330.44C2081.6 1329.2 2083.29 1328.37 2084.29 1327.96C2085.28 1327.46 2086.48 1327 2087.89 1326.59C2089.29 1326.18 2090.74 1325.97 2092.23 1325.97C2094.88 1325.97 2098.64 1326.51 2103.52 1327.58C2106.17 1328.25 2108.69 1329.82 2111.09 1332.3C2113.57 1334.7 2114.82 1336.97 2114.82 1339.12C2114.82 1341.36 2114.24 1343.22 2113.08 1344.71C2111.92 1346.2 2110.6 1346.94 2109.11 1346.94C2107.87 1346.94 2106.71 1346.32 2105.63 1345.08C2103.89 1342.85 2101.16 1341.52 2097.44 1341.11C2095.21 1340.7 2093.93 1340.45 2093.59 1340.37C2093.35 1340.28 2092.97 1340.24 2092.48 1340.24C2090.33 1340.24 2087.47 1341.07 2083.91 1342.72C2080.36 1344.3 2078.37 1345.74 2077.96 1347.07C2077.79 1347.48 2077.38 1348.18 2076.72 1349.18C2076.06 1350.17 2075.64 1350.96 2075.48 1351.53C2075.31 1352.44 2075.1 1353.11 2074.86 1353.52C2074.61 1354.02 2074.48 1355.55 2074.48 1358.11C2074.48 1360.76 2074.61 1363.28 2074.86 1365.68C2075.35 1370.07 2077.17 1374.16 2080.32 1377.97C2083.54 1381.69 2086.81 1383.55 2090.12 1383.55C2096.32 1383.39 2101.54 1382.48 2105.76 1380.82C2109.07 1379.5 2111.55 1378.84 2113.2 1378.84C2113.95 1378.84 2114.44 1379 2114.69 1379.33C2115.93 1381.32 2116.55 1383.35 2116.55 1385.41C2116.55 1385.83 2116.51 1386.12 2116.43 1386.28C2116.1 1387.28 2115.48 1388.35 2114.57 1389.51C2113.74 1390.67 2113.08 1391.25 2112.58 1391.25C2112.09 1391.25 2111.59 1391.58 2111.09 1392.24C2110.43 1393.07 2108.86 1393.89 2106.38 1394.72C2103.89 1395.47 2101.58 1395.88 2099.43 1395.96C2098.52 1396.13 2097.98 1396.33 2097.81 1396.58C2097.57 1396.83 2096.53 1396.96 2094.71 1396.96C2092.97 1396.96 2091.94 1397.12 2091.61 1397.45C2091.2 1397.87 2090.2 1398.07 2088.63 1398.07C2087.39 1398.07 2086.64 1397.91 2086.4 1397.58C2086.15 1397.16 2085.45 1396.96 2084.29 1396.96C2083.54 1396.96 2082.38 1396.58 2080.81 1395.84C2079.24 1395.09 2078.25 1394.43 2077.83 1393.85C2077.75 1393.77 2077.54 1393.65 2077.21 1393.48C2076.97 1393.23 2076.59 1392.94 2076.1 1392.61C2075.6 1392.28 2075.19 1391.99 2074.86 1391.74C2073.28 1390.58 2071.79 1388.93 2070.39 1386.78C2069.15 1384.63 2068.36 1383.55 2068.03 1383.55C2067.7 1383.55 2067.41 1382.85 2067.16 1381.44C2066.83 1379.87 2066.42 1379 2065.92 1378.84C2065.09 1378.51 2064.31 1375.4 2063.56 1369.53C2063.23 1367.21 2063.07 1364.69 2063.07 1361.96C2063.07 1354.6 2064.47 1348.14 2067.29 1342.6C2070.18 1336.97 2074.15 1332.92 2079.2 1330.44ZM2169.43 1343.72C2167.86 1342.39 2166.04 1341.73 2163.97 1341.73C2162.48 1341.73 2161.4 1342.14 2160.74 1342.97C2160.08 1343.63 2159.58 1343.96 2159.25 1343.96C2158.51 1343.96 2157.64 1344.63 2156.65 1345.95C2155.57 1347.36 2154.66 1347.81 2153.91 1347.32C2153.17 1346.82 2152.72 1346.03 2152.55 1344.96C2152.38 1343.88 2152.05 1343.34 2151.56 1343.34C2150.9 1343.34 2149.65 1344.21 2147.83 1345.95C2143.53 1350 2141.38 1355.05 2141.38 1361.09C2141.38 1362.83 2141.46 1364.15 2141.63 1365.06C2142.29 1369.86 2143.99 1373.91 2146.72 1377.22C2149.53 1380.53 2152.59 1382.19 2155.9 1382.19C2155.98 1382.19 2156.19 1382.19 2156.52 1382.19C2156.85 1382.1 2157.06 1382.06 2157.14 1382.06C2160.78 1381.48 2163.59 1380.7 2165.58 1379.71C2167.65 1378.63 2169.76 1376.85 2171.91 1374.37C2175.22 1370.56 2176.87 1366.63 2176.87 1362.58C2176.87 1360.26 2175.96 1356.83 2174.14 1352.28C2172.41 1347.73 2170.83 1344.87 2169.43 1343.72ZM2154.16 1328.33C2154.25 1328.08 2154.87 1327.96 2156.02 1327.96C2160.41 1327.96 2163.88 1328.66 2166.45 1330.07C2168.27 1331.06 2170.09 1331.72 2171.91 1332.05C2173.73 1332.38 2175.92 1333.91 2178.49 1336.64C2181.22 1339.37 2182.58 1340.94 2182.58 1341.36C2182.58 1341.69 2183 1342.85 2183.82 1344.83C2186.39 1350.38 2187.75 1355.22 2187.92 1359.35V1361.21C2187.92 1363.7 2187.75 1366.14 2187.42 1368.54C2187.09 1370.94 2186.72 1372.3 2186.31 1372.63C2186.22 1372.71 2186.06 1372.96 2185.81 1373.38C2185.64 1373.71 2185.35 1374.24 2184.94 1374.99C2184.53 1375.73 2184.15 1376.35 2183.82 1376.85C2182.91 1378.51 2181.26 1380.7 2178.86 1383.43C2176.46 1386.08 2174.97 1387.4 2174.39 1387.4C2173.98 1387.4 2173.27 1387.81 2172.28 1388.64C2171.21 1389.55 2170.3 1390.01 2169.55 1390.01C2168.56 1390.01 2167.69 1390.25 2166.95 1390.75C2166.37 1391.16 2165.37 1391.45 2163.97 1391.62C2162.81 1391.62 2162.06 1391.74 2161.73 1391.99C2161.4 1392.16 2160.12 1392.24 2157.89 1392.24H2155.4C2151.52 1392.16 2148.33 1391.49 2145.85 1390.25C2143.12 1388.68 2140.88 1386.99 2139.15 1385.17C2137.49 1383.43 2135.75 1381.15 2133.93 1378.34C2132.2 1375.53 2131.33 1373.67 2131.33 1372.76C2131.33 1371.93 2131.2 1371.39 2130.96 1371.14C2130.29 1370.48 2129.96 1367.46 2129.96 1362.08C2129.96 1354.8 2131.58 1348.64 2134.8 1343.59C2135.8 1342.02 2137.62 1339.87 2140.26 1337.14C2142.99 1334.41 2144.65 1333.04 2145.23 1333.04C2145.72 1333.04 2146.3 1332.63 2146.97 1331.8C2147.71 1331.06 2149.03 1330.4 2150.94 1329.82C2152.84 1329.16 2153.91 1328.66 2154.16 1328.33ZM2241.93 1341.48C2241.93 1341.32 2242.67 1340.41 2244.16 1338.75C2245.65 1337.1 2246.39 1336.1 2246.39 1335.77C2246.39 1335.19 2246.6 1334.91 2247.01 1334.91C2247.43 1334.91 2247.63 1334.62 2247.63 1334.04C2247.63 1333.37 2247.8 1333.04 2248.13 1333.04C2248.54 1333.04 2248.96 1332.55 2249.37 1331.55C2249.79 1330.48 2250.7 1329.65 2252.1 1329.07C2253.43 1328.49 2254.09 1328.08 2254.09 1327.83C2254.09 1327.5 2254.46 1327.25 2255.2 1327.09C2255.37 1327 2255.66 1326.96 2256.07 1326.96C2257.23 1326.96 2258.39 1327.46 2259.55 1328.45C2260.79 1329.36 2261.58 1330.44 2261.91 1331.68C2262.82 1335.07 2263.48 1338.83 2263.89 1342.97C2264.39 1347.6 2264.84 1357.24 2265.26 1371.89C2265.42 1378.84 2265.71 1383.18 2266.13 1384.92C2266.21 1385.25 2266.25 1385.79 2266.25 1386.53C2266.25 1388.02 2265.92 1389.39 2265.26 1390.63C2264.59 1391.87 2263.85 1392.49 2263.02 1392.49C2262.61 1392.49 2262.4 1392.65 2262.4 1392.98C2262.4 1393.31 2262.03 1393.48 2261.29 1393.48C2259.96 1393.48 2259.01 1393.19 2258.43 1392.61C2257.93 1392.12 2257.31 1391.87 2256.57 1391.87C2256.16 1391.87 2255.7 1391.45 2255.2 1390.63C2254.79 1389.72 2254.34 1388.6 2253.84 1387.28C2253.43 1385.95 2253.22 1385.25 2253.22 1385.17C2252.72 1384.09 2252.39 1380.7 2252.23 1374.99C2251.73 1356.13 2251.48 1346.65 2251.48 1346.57C2251.48 1346.16 2251.44 1345.83 2251.36 1345.58C2251.36 1345.25 2251.32 1344.96 2251.23 1344.71C2251.23 1344.46 2251.19 1344.3 2251.11 1344.21C2251.03 1344.13 2250.94 1344.13 2250.86 1344.21C2250.61 1344.38 2250.49 1344.63 2250.49 1344.96C2250.57 1345.29 2250.61 1345.62 2250.61 1345.95C2250.61 1346.28 2250.49 1346.45 2250.24 1346.45C2249.83 1346.45 2249.62 1346.61 2249.62 1346.94C2249.7 1347.19 2249.58 1347.81 2249.25 1348.8C2248.92 1349.88 2248.42 1351.04 2247.76 1352.28C2247.1 1353.52 2246.6 1354.14 2246.27 1354.14C2246.1 1354.14 2246.02 1354.39 2246.02 1354.89C2246.02 1355.38 2245.4 1356.25 2244.16 1357.49C2243 1358.65 2242.13 1359.23 2241.55 1359.23C2240.89 1359.23 2240.56 1359.44 2240.56 1359.85C2240.56 1360.35 2240.27 1360.59 2239.69 1360.59C2238.86 1360.59 2238 1360.92 2237.09 1361.59C2236.34 1362.08 2235.1 1362.33 2233.36 1362.33C2231.38 1362.33 2229.35 1362.08 2227.28 1361.59C2225.3 1361.01 2224.06 1360.35 2223.56 1359.6C2223.15 1358.94 2222.81 1358.73 2222.57 1358.98C2222.4 1359.15 2221.86 1358.73 2220.95 1357.74C2220.04 1356.58 2219.42 1356 2219.09 1356C2218.6 1356 2218.14 1355.55 2217.73 1354.64C2217.31 1353.89 2216.61 1352.9 2215.62 1351.66C2214.71 1350.33 2214.13 1349.51 2213.88 1349.18C2213.47 1348.6 2213.22 1348.31 2213.13 1348.31C2212.97 1348.31 2212.89 1348.8 2212.89 1349.8V1352.53C2212.89 1354.35 2212.97 1355.84 2213.13 1356.99C2213.3 1358.07 2213.38 1358.86 2213.38 1359.35C2213.38 1359.44 2213.3 1360.64 2213.13 1362.95C2212.97 1365.43 2212.89 1368.62 2212.89 1372.51V1376.6V1379.83C2212.89 1387.28 2211.89 1391.7 2209.91 1393.11C2208.34 1394.18 2207.05 1394.72 2206.06 1394.72C2205.4 1394.72 2204.74 1394.47 2204.08 1393.98C2203.08 1393.23 2202.54 1391.45 2202.46 1388.64C2202.21 1384.92 2201.8 1380.78 2201.22 1376.23C2201.06 1375.24 2200.97 1371.43 2200.97 1364.81C2200.97 1348.18 2201.22 1338.88 2201.72 1336.89C2202.46 1334.49 2203.62 1332.42 2205.19 1330.69C2206.85 1328.95 2208.42 1328.08 2209.91 1328.08C2210.65 1328.08 2211.27 1328.33 2211.77 1328.82C2212.6 1329.49 2213.13 1329.82 2213.38 1329.82C2213.71 1329.82 2214.25 1330.31 2215 1331.31C2215.74 1332.22 2216.15 1332.88 2216.24 1333.29C2216.24 1333.62 2217.19 1334.82 2219.09 1336.89C2220 1337.8 2221.16 1339.21 2222.57 1341.11C2224.06 1343.01 2225.21 1344.38 2226.04 1345.21C2226.79 1345.95 2227.16 1346.53 2227.16 1346.94C2227.16 1347.36 2227.94 1348.18 2229.52 1349.42C2231.09 1350.58 2232.54 1351.16 2233.86 1351.16C2235.27 1351.16 2236.55 1350.58 2237.71 1349.42C2238.53 1348.6 2238.95 1347.94 2238.95 1347.44C2238.95 1347.03 2239.44 1345.95 2240.44 1344.21C2241.43 1342.48 2241.93 1341.57 2241.93 1341.48ZM2320.09 1341.48C2320.09 1341.32 2320.84 1340.41 2322.33 1338.75C2323.82 1337.1 2324.56 1336.1 2324.56 1335.77C2324.56 1335.19 2324.77 1334.91 2325.18 1334.91C2325.6 1334.91 2325.8 1334.62 2325.8 1334.04C2325.8 1333.37 2325.97 1333.04 2326.3 1333.04C2326.71 1333.04 2327.13 1332.55 2327.54 1331.55C2327.95 1330.48 2328.86 1329.65 2330.27 1329.07C2331.59 1328.49 2332.26 1328.08 2332.26 1327.83C2332.26 1327.5 2332.63 1327.25 2333.37 1327.09C2333.54 1327 2333.83 1326.96 2334.24 1326.96C2335.4 1326.96 2336.56 1327.46 2337.72 1328.45C2338.96 1329.36 2339.74 1330.44 2340.07 1331.68C2340.98 1335.07 2341.65 1338.83 2342.06 1342.97C2342.56 1347.6 2343.01 1357.24 2343.43 1371.89C2343.59 1378.84 2343.88 1383.18 2344.29 1384.92C2344.38 1385.25 2344.42 1385.79 2344.42 1386.53C2344.42 1388.02 2344.09 1389.39 2343.43 1390.63C2342.76 1391.87 2342.02 1392.49 2341.19 1392.49C2340.78 1392.49 2340.57 1392.65 2340.57 1392.98C2340.57 1393.31 2340.2 1393.48 2339.45 1393.48C2338.13 1393.48 2337.18 1393.19 2336.6 1392.61C2336.1 1392.12 2335.48 1391.87 2334.74 1391.87C2334.32 1391.87 2333.87 1391.45 2333.37 1390.63C2332.96 1389.72 2332.5 1388.6 2332.01 1387.28C2331.59 1385.95 2331.39 1385.25 2331.39 1385.17C2330.89 1384.09 2330.56 1380.7 2330.39 1374.99C2329.9 1356.13 2329.65 1346.65 2329.65 1346.57C2329.65 1346.16 2329.61 1345.83 2329.53 1345.58C2329.53 1345.25 2329.48 1344.96 2329.4 1344.71C2329.4 1344.46 2329.36 1344.3 2329.28 1344.21C2329.2 1344.13 2329.11 1344.13 2329.03 1344.21C2328.78 1344.38 2328.66 1344.63 2328.66 1344.96C2328.74 1345.29 2328.78 1345.62 2328.78 1345.95C2328.78 1346.28 2328.66 1346.45 2328.41 1346.45C2328 1346.45 2327.79 1346.61 2327.79 1346.94C2327.87 1347.19 2327.75 1347.81 2327.42 1348.8C2327.09 1349.88 2326.59 1351.04 2325.93 1352.28C2325.27 1353.52 2324.77 1354.14 2324.44 1354.14C2324.27 1354.14 2324.19 1354.39 2324.19 1354.89C2324.19 1355.38 2323.57 1356.25 2322.33 1357.49C2321.17 1358.65 2320.3 1359.23 2319.72 1359.23C2319.06 1359.23 2318.73 1359.44 2318.73 1359.85C2318.73 1360.35 2318.44 1360.59 2317.86 1360.59C2317.03 1360.59 2316.16 1360.92 2315.25 1361.59C2314.51 1362.08 2313.27 1362.33 2311.53 1362.33C2309.55 1362.33 2307.52 1362.08 2305.45 1361.59C2303.47 1361.01 2302.22 1360.35 2301.73 1359.6C2301.31 1358.94 2300.98 1358.73 2300.73 1358.98C2300.57 1359.15 2300.03 1358.73 2299.12 1357.74C2298.21 1356.58 2297.59 1356 2297.26 1356C2296.76 1356 2296.31 1355.55 2295.89 1354.64C2295.48 1353.89 2294.78 1352.9 2293.79 1351.66C2292.88 1350.33 2292.3 1349.51 2292.05 1349.18C2291.63 1348.6 2291.39 1348.31 2291.3 1348.31C2291.14 1348.31 2291.06 1348.8 2291.06 1349.8V1352.53C2291.06 1354.35 2291.14 1355.84 2291.3 1356.99C2291.47 1358.07 2291.55 1358.86 2291.55 1359.35C2291.55 1359.44 2291.47 1360.64 2291.3 1362.95C2291.14 1365.43 2291.06 1368.62 2291.06 1372.51V1376.6V1379.83C2291.06 1387.28 2290.06 1391.7 2288.08 1393.11C2286.5 1394.18 2285.22 1394.72 2284.23 1394.72C2283.57 1394.72 2282.91 1394.47 2282.24 1393.98C2281.25 1393.23 2280.71 1391.45 2280.63 1388.64C2280.38 1384.92 2279.97 1380.78 2279.39 1376.23C2279.22 1375.24 2279.14 1371.43 2279.14 1364.81C2279.14 1348.18 2279.39 1338.88 2279.89 1336.89C2280.63 1334.49 2281.79 1332.42 2283.36 1330.69C2285.02 1328.95 2286.59 1328.08 2288.08 1328.08C2288.82 1328.08 2289.44 1328.33 2289.94 1328.82C2290.77 1329.49 2291.3 1329.82 2291.55 1329.82C2291.88 1329.82 2292.42 1330.31 2293.16 1331.31C2293.91 1332.22 2294.32 1332.88 2294.41 1333.29C2294.41 1333.62 2295.36 1334.82 2297.26 1336.89C2298.17 1337.8 2299.33 1339.21 2300.73 1341.11C2302.22 1343.01 2303.38 1344.38 2304.21 1345.21C2304.95 1345.95 2305.33 1346.53 2305.33 1346.94C2305.33 1347.36 2306.11 1348.18 2307.68 1349.42C2309.26 1350.58 2310.7 1351.16 2312.03 1351.16C2313.43 1351.16 2314.72 1350.58 2315.88 1349.42C2316.7 1348.6 2317.12 1347.94 2317.12 1347.44C2317.12 1347.03 2317.61 1345.95 2318.61 1344.21C2319.6 1342.48 2320.09 1341.57 2320.09 1341.48ZM2389.95 1347.19C2388.96 1345.04 2388.29 1343.96 2387.96 1343.96C2387.63 1343.96 2387.34 1344.42 2387.09 1345.33L2384.98 1350.05C2383.66 1353.19 2383 1355.01 2383 1355.51C2383 1355.92 2382.54 1356.95 2381.63 1358.61C2380.81 1360.18 2380.39 1361.26 2380.39 1361.83C2380.39 1362.17 2380.56 1362.33 2380.89 1362.33C2381.14 1362.33 2381.34 1362.29 2381.51 1362.21C2382.09 1362.04 2383.83 1361.83 2386.72 1361.59C2389.62 1361.26 2391.73 1361.09 2393.05 1361.09H2393.55C2394.21 1361.09 2394.54 1361.01 2394.54 1360.84C2394.62 1360.59 2394.54 1359.81 2394.29 1358.48C2393.8 1356.5 2392.35 1352.73 2389.95 1347.19ZM2384.86 1329.07C2385.19 1328.49 2385.77 1328.2 2386.6 1328.2C2388.58 1328.2 2390.82 1329.44 2393.3 1331.93C2394.87 1333.33 2396.69 1336.19 2398.76 1340.49C2399.83 1342.64 2400.95 1344.83 2402.11 1347.07C2403.27 1349.3 2404.34 1351.45 2405.34 1353.52C2406.16 1355.59 2407.16 1357.86 2408.32 1360.35C2409.31 1362.33 2409.8 1363.7 2409.8 1364.44C2409.8 1365.1 2410.01 1365.64 2410.42 1366.05C2410.84 1366.55 2411.91 1369.82 2413.65 1375.86C2415.39 1381.07 2416.26 1385.12 2416.26 1388.02C2416.26 1389.26 2416.05 1390.58 2415.64 1391.99C2415.22 1393.48 2414.31 1394.39 2412.91 1394.72C2412.33 1394.89 2411.5 1394.97 2410.42 1394.97C2408.19 1394.97 2406.33 1393.52 2404.84 1390.63C2403.52 1388.31 2402.85 1386.74 2402.85 1385.91C2402.85 1385.08 2402.28 1383.55 2401.12 1381.32C2400.04 1379.08 2399.17 1377.64 2398.51 1376.98C2397.35 1375.9 2395.74 1375.2 2393.67 1374.87C2391.69 1374.45 2388.46 1374.16 2383.99 1374H2380.14C2377.99 1374 2376.63 1374.08 2376.05 1374.24C2375.55 1374.41 2375.3 1374.74 2375.3 1375.24C2375.3 1376.06 2375.1 1376.6 2374.68 1376.85C2374.1 1377.18 2373.9 1377.68 2374.06 1378.34C2374.23 1379 2374.06 1379.87 2373.57 1380.95C2373.4 1381.44 2372.95 1382.85 2372.2 1385.17C2371.46 1387.48 2370.92 1388.97 2370.59 1389.63C2370.09 1390.54 2369.76 1391.49 2369.6 1392.49C2369.6 1392.9 2368.81 1393.65 2367.24 1394.72C2366 1395.47 2365.21 1395.84 2364.88 1395.84C2364.38 1395.84 2363.76 1395.59 2363.02 1395.09C2359.54 1392.86 2357.81 1390.21 2357.81 1387.15C2357.81 1386.82 2357.89 1386.32 2358.05 1385.66C2358.3 1385 2359.17 1382.19 2360.66 1377.22C2361.98 1372.84 2363.06 1370.07 2363.89 1368.91C2364.63 1367.83 2365 1367.01 2365 1366.43C2365 1366.01 2365.42 1364.52 2366.25 1361.96C2367.07 1359.39 2367.73 1357.53 2368.23 1356.37C2368.73 1355.46 2369.18 1354.18 2369.6 1352.53C2370.59 1349.14 2372.62 1344.83 2375.68 1339.62C2378.82 1334.41 2381.18 1331.26 2382.75 1330.19C2383.74 1329.61 2384.24 1329.44 2384.24 1329.69C2384.24 1329.94 2384.36 1329.86 2384.61 1329.44C2384.69 1329.36 2384.78 1329.24 2384.86 1329.07ZM2472.61 1330.44C2472.61 1329.86 2473.27 1329.11 2474.59 1328.2C2475.92 1327.29 2477.11 1326.84 2478.19 1326.84C2478.6 1326.84 2478.89 1326.88 2479.06 1326.96C2479.8 1327.05 2480.75 1327.79 2481.91 1329.2C2483.07 1330.52 2483.86 1331.76 2484.27 1332.92C2485.59 1337.64 2486.26 1340.99 2486.26 1342.97C2486.26 1343.14 2486.22 1343.43 2486.13 1343.84C2486.13 1344.17 2486.13 1344.42 2486.13 1344.58C2485.8 1346.65 2485.8 1347.77 2486.13 1347.94C2486.3 1348.1 2486.38 1349.22 2486.38 1351.29C2486.38 1359.06 2485.93 1366.22 2485.02 1372.76C2484.85 1373.91 2484.52 1376.97 2484.02 1381.94C2483.61 1387.48 2482.49 1390.92 2480.67 1392.24C2480.09 1392.74 2478.65 1393.15 2476.33 1393.48C2476.08 1393.48 2475.79 1393.52 2475.46 1393.6C2475.13 1393.6 2474.88 1393.6 2474.72 1393.6C2473.64 1393.6 2472.61 1393.07 2471.61 1391.99C2470.62 1390.92 2469.05 1388.85 2466.9 1385.79C2464.75 1382.64 2463.22 1380.2 2462.31 1378.46C2461.81 1377.64 2460.57 1375.4 2458.58 1371.76C2456.6 1368.04 2454.94 1365.35 2453.62 1363.7C2452.38 1362.12 2451.76 1361.13 2451.76 1360.72C2451.76 1360.39 2450.76 1359.15 2448.78 1356.99C2446.71 1354.76 2445.26 1353.02 2444.44 1351.78C2443.61 1350.46 2442.99 1349.8 2442.57 1349.8C2442.33 1349.8 2442.2 1350.09 2442.2 1350.67C2442.2 1350.83 2442.28 1351.41 2442.45 1352.4C2442.86 1354.31 2443.07 1359.89 2443.07 1369.16C2443.07 1378.67 2442.86 1384.5 2442.45 1386.65C2442.04 1389.14 2441.54 1390.79 2440.96 1391.62C2440.46 1392.36 2439.31 1393.23 2437.49 1394.22C2436.74 1394.64 2436 1394.85 2435.25 1394.85C2433.02 1394.85 2431.78 1392.16 2431.53 1386.78C2430.87 1368.08 2430.33 1357.57 2429.92 1355.26C2429.67 1353.52 2429.54 1351.12 2429.54 1348.06C2429.54 1341.03 2429.92 1336.68 2430.66 1335.03L2431.78 1332.42C2432.27 1331.43 2433.43 1330.48 2435.25 1329.57C2436.49 1329.07 2437.61 1328.82 2438.6 1328.82C2441 1328.82 2443.94 1330.73 2447.41 1334.53C2449.23 1336.44 2450.68 1338.13 2451.76 1339.62C2452.92 1341.11 2454.4 1342.81 2456.22 1344.71C2458.79 1347.44 2460.07 1349.01 2460.07 1349.42C2460.07 1350 2460.24 1350.29 2460.57 1350.29C2460.98 1350.29 2462.1 1351.66 2463.92 1354.39C2465.74 1357.04 2467.48 1359.89 2469.13 1362.95C2469.96 1364.61 2470.87 1365.93 2471.86 1366.92C2472.11 1367.09 2472.27 1367.21 2472.36 1367.3C2472.52 1367.38 2472.65 1367.38 2472.73 1367.3C2472.81 1367.13 2472.85 1366.92 2472.85 1366.67C2472.85 1366.43 2472.85 1366.05 2472.85 1365.56C2472.85 1362.66 2472.94 1360.35 2473.1 1358.61C2473.35 1354.47 2473.47 1350 2473.47 1345.21C2473.47 1342.97 2473.39 1340.74 2473.23 1338.5C2473.06 1336.19 2472.9 1334.33 2472.73 1332.92C2472.65 1331.43 2472.61 1330.6 2472.61 1330.44ZM2536.46 1342.1C2534.97 1341.36 2532.36 1340.99 2528.64 1340.99C2527.73 1340.99 2527.27 1341.07 2527.27 1341.23C2527.27 1341.32 2527.27 1341.61 2527.27 1342.1C2527.27 1342.6 2527.23 1343.22 2527.15 1343.96C2527.15 1344.71 2527.15 1345.45 2527.15 1346.2C2527.15 1369.78 2527.36 1381.77 2527.77 1382.19C2528.02 1382.44 2529.22 1382.56 2531.37 1382.56C2536.42 1382.56 2539.81 1382.27 2541.55 1381.69C2542.79 1381.36 2543.61 1381.19 2544.03 1381.19C2544.52 1381.19 2546.43 1379.71 2549.74 1376.73C2553.05 1373.67 2555.03 1371.64 2555.69 1370.65C2556.44 1369.57 2557.14 1367.5 2557.8 1364.44C2558.13 1362.87 2558.3 1361.67 2558.3 1360.84C2558.3 1360.01 2558.09 1359.27 2557.68 1358.61C2557.1 1357.45 2556.81 1356.62 2556.81 1356.13C2556.81 1355.46 2555.82 1354.02 2553.83 1351.78C2551.85 1349.55 2550.56 1348.43 2549.99 1348.43C2549.65 1348.43 2549.16 1348.1 2548.5 1347.44C2548.08 1346.86 2546.97 1346.16 2545.15 1345.33C2543.32 1344.42 2542.13 1343.96 2541.55 1343.96C2541.05 1343.96 2540.8 1343.72 2540.8 1343.22C2540.8 1342.81 2540.26 1342.6 2539.19 1342.6C2537.95 1342.6 2537.04 1342.43 2536.46 1342.1ZM2553.21 1390.01C2552.88 1390.01 2552.34 1390.34 2551.6 1391C2550.85 1391.58 2550.32 1391.87 2549.99 1391.87C2549.24 1391.87 2548.37 1392.28 2547.38 1393.11C2546.63 1393.69 2545.23 1394.27 2543.16 1394.85C2541.09 1395.34 2539.52 1395.59 2538.44 1395.59C2538.03 1395.59 2537.78 1395.55 2537.7 1395.47C2537.29 1395.22 2536.95 1395.3 2536.71 1395.71C2536.46 1395.96 2535.47 1396.09 2533.73 1396.09H2531.99C2531.25 1396 2529.84 1395.88 2527.77 1395.71C2525.7 1395.55 2524.25 1395.42 2523.43 1395.34C2521.86 1395.26 2520.7 1395.18 2519.95 1395.09C2519.29 1395.01 2518.55 1394.89 2517.72 1394.72C2516.97 1394.47 2516.06 1394.27 2514.99 1394.1C2512.09 1393.77 2510.02 1393.15 2508.78 1392.24C2507.63 1391.33 2506.88 1389.96 2506.55 1388.14C2506.47 1387.65 2506.43 1387.07 2506.43 1386.41C2506.43 1385.41 2507.09 1384.34 2508.41 1383.18C2509.98 1381.69 2511.6 1380.95 2513.25 1380.95H2515.61L2515.49 1365.56L2515.24 1348.8C2515.24 1348.06 2514.82 1347.69 2514 1347.69C2513.17 1347.69 2512.63 1347.52 2512.38 1347.19C2512.13 1346.78 2511.1 1346.16 2509.28 1345.33C2507.46 1344.42 2506.26 1343.96 2505.68 1343.96C2505.18 1343.96 2504.23 1343.59 2502.83 1342.85C2501.5 1342.02 2500.68 1341.4 2500.35 1340.99C2499.77 1340.32 2499.48 1339.04 2499.48 1337.14C2499.48 1335.98 2499.6 1334.91 2499.85 1333.91C2500.26 1332.59 2500.76 1331.68 2501.34 1331.18C2502 1330.69 2503.2 1330.31 2504.94 1330.07C2505.93 1329.9 2507.09 1329.61 2508.41 1329.2C2509.4 1328.87 2512.09 1328.53 2516.48 1328.2L2522.68 1327.71C2522.77 1327.62 2523.3 1327.58 2524.3 1327.58C2526.2 1327.58 2528.72 1327.75 2531.87 1328.08C2535.09 1328.33 2537.08 1328.62 2537.82 1328.95C2539.31 1329.53 2540.51 1329.82 2541.42 1329.82C2542.66 1329.82 2546.63 1331.64 2553.34 1335.28C2556.48 1336.93 2558.51 1338.13 2559.42 1338.88C2560.33 1339.54 2561.73 1341.07 2563.64 1343.47C2568.02 1348.68 2570.25 1354.26 2570.34 1360.22V1360.84C2570.34 1367.54 2567.86 1374.2 2562.89 1380.82C2561.24 1383.06 2559.38 1385.17 2557.31 1387.15C2555.24 1389.05 2553.87 1390.01 2553.21 1390.01ZM2638.56 1408H2589.04V1319.39H2638.56V1329.2H2600.21V1356.87H2636.32V1366.55H2600.21V1398.2H2638.56V1408ZM2633.22 1292.09C2632.48 1293.25 2631.4 1294.66 2629.99 1296.31C2628.59 1297.96 2627.02 1299.7 2625.28 1301.52C2623.62 1303.26 2621.93 1304.96 2620.19 1306.61C2618.54 1308.18 2616.96 1309.55 2615.47 1310.71H2608.28V1309.22C2609.52 1307.64 2610.84 1305.78 2612.25 1303.63C2613.74 1301.48 2615.18 1299.29 2616.59 1297.05C2618 1294.74 2619.16 1292.67 2620.07 1290.85H2633.22V1292.09Z" fill="white"/>
<path d="M1746.38 783.652C1746.38 764.455 1746.38 754.859 1749.55 746.307C1758.77 721.452 1783.07 711.811 1807.42 701.71C1834.79 690.354 1848.47 684.679 1862.03 683.679C1877.43 682.546 1892.85 685.567 1906.01 692.292C1923.46 701.205 1935.62 718.147 1948.08 731.925C2005.6 795.552 2034.36 827.372 2044.88 862.456C2053.38 890.766 2053.38 920.376 2044.88 948.685C2029.53 999.857 1981.04 1042.76 1945.14 1082.46C1926.78 1102.77 1917.6 1112.92 1906.01 1118.85C1892.85 1125.57 1877.43 1128.6 1862.03 1127.46C1848.47 1126.46 1834.79 1120.79 1807.42 1109.43C1783.07 1099.33 1758.77 1089.69 1749.55 1064.83C1746.38 1056.28 1746.38 1046.69 1746.38 1027.49V783.652Z" stroke="#F2F2F2" stroke-width="30.34"/>
<path d="M1136.62 783.658C1136.62 759.491 1135.88 737.767 1114.42 720.774C1106.62 714.594 1096.27 710.301 1075.58 701.716C1048.21 690.365 1034.52 684.69 1020.96 683.691C980.275 680.692 958.385 705.981 934.923 731.936C877.4 795.564 848.638 827.378 838.114 862.462C829.621 890.778 829.621 920.387 838.114 948.697C853.464 999.869 901.959 1042.76 937.854 1082.47C960.481 1107.5 982.096 1130.33 1020.96 1127.47C1034.52 1126.47 1048.21 1120.79 1075.58 1109.44C1096.27 1100.86 1106.62 1096.57 1114.42 1090.38C1135.88 1073.39 1136.62 1051.67 1136.62 1027.5V783.658Z" stroke="#F2F2F2" stroke-width="30.34"/>
<path d="M1868.33 683.446V572.384C1868.33 357.701 1677.23 183.665 1441.5 183.665C1205.77 183.665 1014.67 357.701 1014.67 572.384V683.446" stroke="#F2F2F2" stroke-width="30.34" stroke-linecap="square" stroke-linejoin="round"/>
<g clip-path="url(#clip0_618_718)">
<path d="M1795.44 181.047L1895.9 227.94C1913.95 236.362 1926.84 252.96 1930.56 272.549L1951.56 383.128" stroke="#C16D36" stroke-width="15" stroke-linecap="round" stroke-linejoin="round"/>
<path d="M1887.51 165.838L1941.66 207.472C1949.74 213.687 1956.16 221.803 1960.36 231.102L1991.16 299.306" stroke="#C16D36" stroke-opacity="0.75" stroke-width="13" stroke-linecap="round" stroke-linejoin="round"/>
</g>
<defs>
<clipPath id="clip0_618_718">
<rect width="1777" height="1029.31" fill="white" transform="translate(553 144)"/>
</clipPath>
</defs>
</svg>
