<svg width="1966" height="915" viewBox="0 0 1966 915" fill="none" xmlns="http://www.w3.org/2000/svg">
<path d="M753.436 856.738C753.436 856.658 753.372 856.546 753.244 856.402C753.116 856.258 753.052 856.138 753.052 856.042C753.052 855.898 752.996 855.714 752.884 855.49C752.788 855.33 752.74 855.082 752.74 854.746C752.74 854.218 752.844 853.682 753.052 853.138C753.18 852.85 753.5 852.466 754.012 851.986C754.524 851.49 754.908 851.218 755.164 851.17C755.212 851.154 755.356 851.122 755.596 851.074C755.836 851.026 756.004 850.994 756.1 850.978C756.26 850.93 756.748 850.89 757.564 850.858H757.9C758.38 850.858 758.852 850.97 759.316 851.194C760.324 851.69 760.828 852.266 760.828 852.922C760.828 853.162 760.756 853.41 760.612 853.666C760.468 853.906 760.308 854.058 760.132 854.122C760.1 854.138 760.036 854.146 759.94 854.146C759.572 854.146 759.204 853.978 758.836 853.642C758.484 853.322 757.956 853.162 757.252 853.162C756.98 853.162 756.684 853.202 756.364 853.282C755.98 853.41 755.644 853.602 755.356 853.858C755.068 854.114 754.924 854.362 754.924 854.602C754.924 854.778 755.004 855.042 755.164 855.394C755.324 855.73 755.484 855.962 755.644 856.09C755.772 856.202 756.084 856.346 756.58 856.522C757.076 856.698 757.468 856.802 757.756 856.834C758.796 856.946 759.604 857.266 760.18 857.794C760.772 858.322 761.068 858.986 761.068 859.786C761.068 860.266 760.98 860.722 760.804 861.154C760.644 861.57 760.46 861.906 760.252 862.162C760.06 862.402 759.716 862.73 759.22 863.146C758.836 863.45 758.26 863.714 757.492 863.938C756.74 864.162 756.044 864.274 755.404 864.274C755.132 864.274 754.9 864.25 754.708 864.202C754.068 864.074 753.54 863.842 753.124 863.506C752.708 863.17 752.5 862.826 752.5 862.474C752.5 862.41 752.516 862.314 752.548 862.186C752.676 861.85 752.884 861.682 753.172 861.682C753.396 861.682 753.86 861.754 754.564 861.898C754.884 861.978 755.188 862.018 755.476 862.018C755.684 862.018 755.828 862.002 755.908 861.97C756.18 861.89 756.388 861.866 756.532 861.898C756.628 861.93 756.86 861.898 757.228 861.802C757.532 861.738 757.86 861.57 758.212 861.298C758.564 861.01 758.764 860.754 758.812 860.53C758.828 860.45 758.852 860.354 758.884 860.242C758.916 860.13 758.932 860.05 758.932 860.002C758.932 859.89 758.892 859.762 758.812 859.618C758.604 859.266 758.148 859.042 757.444 858.946C756.372 858.786 755.756 858.642 755.596 858.514C755.548 858.482 755.348 858.402 754.996 858.274C754.724 858.194 754.396 857.962 754.012 857.578C753.628 857.194 753.436 856.914 753.436 856.738ZM766.368 851.194C767.328 851.082 768.248 851.026 769.128 851.026C770.168 851.026 770.848 851.106 771.168 851.266C771.376 851.362 771.504 851.458 771.552 851.554C771.6 851.634 771.624 851.818 771.624 852.106C771.656 852.506 771.616 852.706 771.504 852.706C771.424 852.706 771.384 852.746 771.384 852.826C771.384 853.066 771.088 853.242 770.496 853.354C769.92 853.45 768.92 853.514 767.496 853.546C766.584 853.578 766.12 853.602 766.104 853.618C766.04 853.682 765.968 854.29 765.888 855.442L765.84 856.282H766.488H766.536C766.888 856.282 767.264 856.378 767.664 856.57C768.064 856.746 768.32 856.946 768.432 857.17C768.448 857.186 768.456 857.218 768.456 857.266C768.456 857.474 768.272 857.754 767.904 858.106C767.536 858.458 767.232 858.642 766.992 858.658C766.624 858.706 766.4 858.738 766.32 858.754C766.224 858.786 766.16 858.81 766.128 858.826C766.112 858.842 766.088 858.89 766.056 858.97C766.04 859.05 766.032 859.178 766.032 859.354C766.032 859.402 766.032 859.506 766.032 859.666C766.048 859.826 766.056 859.962 766.056 860.074C766.088 860.906 766.136 861.354 766.2 861.418C766.248 861.466 766.736 861.49 767.664 861.49H768.528H769.2C770.256 861.49 770.864 861.53 771.024 861.61C771.264 861.738 771.488 862.138 771.696 862.81C771.712 862.842 771.72 862.882 771.72 862.93C771.72 863.058 771.592 863.25 771.336 863.506C770.92 863.954 770.392 864.178 769.752 864.178C769.608 864.178 769.504 864.17 769.44 864.154C768.768 864.058 767.368 863.978 765.24 863.914C764.632 863.882 764.32 863.858 764.304 863.842C764.064 863.554 763.912 863.306 763.848 863.098C763.8 862.89 763.776 862.49 763.776 861.898V861.178V860.65C763.776 859.754 763.744 859.258 763.68 859.162C763.616 859.082 763.584 858.514 763.584 857.458C763.584 854.818 763.672 853.298 763.848 852.898C763.912 852.706 763.904 852.546 763.824 852.418C763.728 852.274 763.736 852.202 763.848 852.202C763.928 852.202 763.968 852.138 763.968 852.01C763.968 851.642 764.768 851.37 766.368 851.194ZM777.346 851.458C777.81 851.218 778.138 851.058 778.33 850.978C778.522 850.882 778.754 850.794 779.026 850.714C779.298 850.634 779.578 850.594 779.866 850.594C780.378 850.594 781.106 850.698 782.05 850.906C782.562 851.034 783.05 851.338 783.514 851.818C783.994 852.282 784.234 852.722 784.234 853.138C784.234 853.57 784.122 853.93 783.898 854.218C783.674 854.506 783.418 854.65 783.13 854.65C782.89 854.65 782.666 854.53 782.458 854.29C782.122 853.858 781.594 853.602 780.874 853.522C780.442 853.442 780.194 853.394 780.13 853.378C780.082 853.362 780.01 853.354 779.914 853.354C779.498 853.354 778.946 853.514 778.258 853.834C777.57 854.138 777.186 854.418 777.106 854.674C777.074 854.754 776.994 854.89 776.866 855.082C776.738 855.274 776.658 855.426 776.626 855.538C776.594 855.714 776.554 855.842 776.506 855.922C776.458 856.018 776.434 856.314 776.434 856.81C776.434 857.322 776.458 857.81 776.506 858.274C776.602 859.122 776.954 859.914 777.562 860.65C778.186 861.37 778.818 861.73 779.458 861.73C780.658 861.698 781.666 861.522 782.482 861.202C783.122 860.946 783.602 860.818 783.922 860.818C784.066 860.818 784.162 860.85 784.21 860.914C784.45 861.298 784.57 861.69 784.57 862.09C784.57 862.17 784.562 862.226 784.546 862.258C784.482 862.45 784.362 862.658 784.186 862.882C784.026 863.106 783.898 863.218 783.802 863.218C783.706 863.218 783.61 863.282 783.514 863.41C783.386 863.57 783.082 863.73 782.602 863.89C782.122 864.034 781.674 864.114 781.258 864.13C781.082 864.162 780.978 864.202 780.946 864.25C780.898 864.298 780.698 864.322 780.346 864.322C780.01 864.322 779.81 864.354 779.746 864.418C779.666 864.498 779.474 864.538 779.17 864.538C778.93 864.538 778.786 864.506 778.738 864.442C778.69 864.362 778.554 864.322 778.33 864.322C778.186 864.322 777.962 864.25 777.658 864.106C777.354 863.962 777.162 863.834 777.082 863.722C777.066 863.706 777.026 863.682 776.962 863.65C776.914 863.602 776.842 863.546 776.746 863.482C776.65 863.418 776.57 863.362 776.506 863.314C776.202 863.09 775.914 862.77 775.642 862.354C775.402 861.938 775.25 861.73 775.186 861.73C775.122 861.73 775.066 861.594 775.018 861.322C774.954 861.018 774.874 860.85 774.778 860.818C774.618 860.754 774.466 860.154 774.322 859.018C774.258 858.57 774.226 858.082 774.226 857.554C774.226 856.13 774.498 854.882 775.042 853.81C775.602 852.722 776.37 851.938 777.346 851.458ZM794.796 854.026C794.492 853.77 794.14 853.642 793.74 853.642C793.452 853.642 793.244 853.722 793.116 853.882C792.988 854.01 792.892 854.074 792.828 854.074C792.684 854.074 792.516 854.202 792.324 854.458C792.116 854.73 791.94 854.818 791.796 854.722C791.652 854.626 791.564 854.474 791.532 854.266C791.5 854.058 791.436 853.954 791.34 853.954C791.212 853.954 790.972 854.122 790.62 854.458C789.788 855.242 789.372 856.218 789.372 857.386C789.372 857.722 789.388 857.978 789.42 858.154C789.548 859.082 789.876 859.866 790.404 860.506C790.948 861.146 791.54 861.466 792.18 861.466C792.196 861.466 792.236 861.466 792.3 861.466C792.364 861.45 792.404 861.442 792.42 861.442C793.124 861.33 793.668 861.178 794.052 860.986C794.452 860.778 794.86 860.434 795.276 859.954C795.916 859.218 796.236 858.458 796.236 857.674C796.236 857.226 796.06 856.562 795.708 855.682C795.372 854.802 795.068 854.25 794.796 854.026ZM791.844 851.05C791.86 851.002 791.98 850.978 792.204 850.978C793.052 850.978 793.724 851.114 794.22 851.386C794.572 851.578 794.924 851.706 795.276 851.77C795.628 851.834 796.052 852.13 796.548 852.658C797.076 853.186 797.34 853.49 797.34 853.57C797.34 853.634 797.42 853.858 797.58 854.242C798.076 855.314 798.34 856.25 798.372 857.05V857.41C798.372 857.89 798.34 858.362 798.276 858.826C798.212 859.29 798.14 859.554 798.06 859.618C798.044 859.634 798.012 859.682 797.964 859.762C797.932 859.826 797.876 859.93 797.796 860.074C797.716 860.218 797.644 860.338 797.58 860.434C797.404 860.754 797.084 861.178 796.62 861.706C796.156 862.218 795.868 862.474 795.756 862.474C795.676 862.474 795.54 862.554 795.348 862.714C795.14 862.89 794.964 862.978 794.82 862.978C794.628 862.978 794.46 863.026 794.316 863.122C794.204 863.202 794.012 863.258 793.74 863.29C793.516 863.29 793.372 863.314 793.308 863.362C793.244 863.394 792.996 863.41 792.564 863.41H792.084C791.332 863.394 790.716 863.266 790.236 863.026C789.708 862.722 789.276 862.394 788.94 862.042C788.62 861.706 788.284 861.266 787.932 860.722C787.596 860.178 787.428 859.818 787.428 859.642C787.428 859.482 787.404 859.378 787.356 859.33C787.228 859.202 787.164 858.618 787.164 857.578C787.164 856.17 787.476 854.978 788.1 854.002C788.292 853.698 788.644 853.282 789.156 852.754C789.684 852.226 790.004 851.962 790.116 851.962C790.212 851.962 790.324 851.882 790.452 851.722C790.596 851.578 790.852 851.45 791.22 851.338C791.588 851.21 791.796 851.114 791.844 851.05ZM808.72 851.29C808.88 851.178 809.024 851.122 809.152 851.122C809.392 851.122 809.592 851.37 809.752 851.866C809.8 852.042 809.856 852.202 809.92 852.346C809.984 852.474 810.024 852.57 810.04 852.634C810.056 852.682 810.072 852.778 810.088 852.922C810.12 853.066 810.144 853.282 810.16 853.57C810.192 854.13 810.224 854.434 810.256 854.482C810.272 854.514 810.312 855.29 810.376 856.81C810.392 857.13 810.4 857.53 810.4 858.01C810.4 858.266 810.392 858.482 810.376 858.658C810.376 858.834 810.36 859.01 810.328 859.186C810.312 859.346 810.288 859.466 810.256 859.546C810.24 859.626 810.2 859.778 810.136 860.002C810.088 860.226 810.048 860.402 810.016 860.53C809.936 860.994 809.696 861.49 809.296 862.018C808.896 862.53 808.448 862.946 807.952 863.266C807.264 863.698 806.552 863.914 805.816 863.914C805.432 863.914 805.016 863.866 804.568 863.77C804.152 863.69 803.704 863.418 803.224 862.954C802.744 862.49 802.376 861.962 802.12 861.37C801.784 860.618 801.608 860.202 801.592 860.122C801.576 859.978 801.512 859.762 801.4 859.474C801.32 859.25 801.256 859.026 801.208 858.802C801.176 858.562 801.144 858.25 801.112 857.866C801.08 857.466 801.056 857.17 801.04 856.978C800.992 856.498 800.968 856.074 800.968 855.706C800.968 855.306 801 854.77 801.064 854.098C801.128 853.41 801.168 852.954 801.184 852.73C801.2 852.33 801.256 852.05 801.352 851.89C801.448 851.73 801.632 851.618 801.904 851.554C801.92 851.554 801.936 851.554 801.952 851.554C801.984 851.538 802.008 851.53 802.024 851.53C802.184 851.53 802.32 851.602 802.432 851.746C802.56 851.874 802.624 852.026 802.624 852.202C802.624 852.426 802.656 852.57 802.72 852.634C802.768 852.682 802.808 852.882 802.84 853.234C803 856.194 803.28 858.146 803.68 859.09C803.808 859.394 803.848 859.578 803.8 859.642C803.752 859.722 803.768 859.762 803.848 859.762C803.928 859.762 804.016 859.898 804.112 860.17C804.224 860.538 804.464 860.882 804.832 861.202C805.2 861.522 805.568 861.714 805.936 861.778C805.984 861.794 806.056 861.802 806.152 861.802C806.312 861.802 806.544 861.658 806.848 861.37C807.168 861.05 807.328 860.842 807.328 860.746C807.328 860.666 807.368 860.626 807.448 860.626C807.528 860.626 807.568 860.546 807.568 860.386C807.568 860.21 807.648 859.938 807.808 859.57C807.952 859.154 808.032 858.346 808.048 857.146C808.08 855.754 808.112 854.954 808.144 854.746C808.208 854.314 808.232 854.082 808.216 854.05C808.184 853.858 808.168 853.682 808.168 853.522C808.168 853.09 808.224 852.634 808.336 852.154C808.448 851.674 808.576 851.386 808.72 851.29ZM815.704 851.194C816.664 851.082 817.584 851.026 818.464 851.026C819.504 851.026 820.184 851.106 820.504 851.266C820.712 851.362 820.84 851.458 820.888 851.554C820.936 851.634 820.96 851.818 820.96 852.106C820.992 852.506 820.952 852.706 820.84 852.706C820.76 852.706 820.72 852.746 820.72 852.826C820.72 853.066 820.424 853.242 819.832 853.354C819.256 853.45 818.256 853.514 816.832 853.546C815.92 853.578 815.456 853.602 815.44 853.618C815.376 853.682 815.304 854.29 815.224 855.442L815.176 856.282H815.824H815.872C816.224 856.282 816.6 856.378 817 856.57C817.4 856.746 817.656 856.946 817.768 857.17C817.784 857.186 817.792 857.218 817.792 857.266C817.792 857.474 817.608 857.754 817.24 858.106C816.872 858.458 816.568 858.642 816.328 858.658C815.96 858.706 815.736 858.738 815.656 858.754C815.56 858.786 815.496 858.81 815.464 858.826C815.448 858.842 815.424 858.89 815.392 858.97C815.376 859.05 815.368 859.178 815.368 859.354C815.368 859.402 815.368 859.506 815.368 859.666C815.384 859.826 815.392 859.962 815.392 860.074C815.424 860.906 815.472 861.354 815.536 861.418C815.584 861.466 816.072 861.49 817 861.49H817.864H818.536C819.592 861.49 820.2 861.53 820.36 861.61C820.6 861.738 820.824 862.138 821.032 862.81C821.048 862.842 821.056 862.882 821.056 862.93C821.056 863.058 820.928 863.25 820.672 863.506C820.256 863.954 819.728 864.178 819.088 864.178C818.944 864.178 818.84 864.17 818.776 864.154C818.104 864.058 816.704 863.978 814.576 863.914C813.968 863.882 813.656 863.858 813.64 863.842C813.4 863.554 813.248 863.306 813.184 863.098C813.136 862.89 813.112 862.49 813.112 861.898V861.178V860.65C813.112 859.754 813.08 859.258 813.016 859.162C812.952 859.082 812.92 858.514 812.92 857.458C812.92 854.818 813.008 853.298 813.184 852.898C813.248 852.706 813.24 852.546 813.16 852.418C813.064 852.274 813.072 852.202 813.184 852.202C813.264 852.202 813.304 852.138 813.304 852.01C813.304 851.642 814.104 851.37 815.704 851.194ZM830.33 853.69C830.25 853.626 830.074 853.57 829.802 853.522C829.546 853.474 829.226 853.426 828.842 853.378C828.474 853.33 828.226 853.29 828.098 853.258L827.594 853.162V855.034C827.594 856.298 827.61 856.93 827.642 856.93C827.658 856.93 827.698 856.938 827.762 856.954C827.842 856.954 827.946 856.962 828.074 856.978C828.202 856.978 828.314 856.978 828.41 856.978C828.97 857.01 829.306 857.042 829.418 857.074C829.466 857.09 829.522 857.098 829.586 857.098C829.762 857.098 830.01 856.946 830.33 856.642C830.682 856.322 830.914 856.05 831.026 855.826C831.154 855.586 831.25 855.242 831.314 854.794L831.386 854.098L830.93 853.93C830.578 853.802 830.378 853.722 830.33 853.69ZM832.85 860.554C832.85 860.618 832.922 860.754 833.066 860.962C833.21 861.17 833.282 861.298 833.282 861.346C833.282 861.442 833.482 861.698 833.882 862.114C834.282 862.514 834.53 862.714 834.626 862.714C834.738 862.714 834.826 862.826 834.89 863.05C834.906 863.098 834.914 863.162 834.914 863.242C834.914 863.418 834.81 863.586 834.602 863.746C834.362 863.954 834.162 864.074 834.002 864.106C833.97 864.106 833.898 864.106 833.786 864.106C833.674 864.106 833.594 864.114 833.546 864.13H833.498C833.178 864.13 832.786 863.978 832.322 863.674C831.874 863.354 831.642 863.09 831.626 862.882C831.626 862.77 831.586 862.714 831.506 862.714C831.41 862.714 831.362 862.674 831.362 862.594C831.362 862.498 831.282 862.37 831.122 862.21C830.946 862.002 830.794 861.77 830.666 861.514C830.522 861.21 830.314 860.85 830.042 860.434C829.786 860.002 829.61 859.746 829.514 859.666C829.402 859.586 829.026 859.514 828.386 859.45L827.45 859.378L827.426 861.25C827.394 862.546 827.338 863.29 827.258 863.482C827.034 863.946 826.682 864.178 826.202 864.178C826.122 864.178 826.058 864.17 826.01 864.154C825.802 864.106 825.65 864.026 825.554 863.914C825.474 863.786 825.402 863.53 825.338 863.146C825.306 863.002 825.29 862.466 825.29 861.538C825.29 858.706 825.378 856.586 825.554 855.178C825.602 854.762 825.626 854.434 825.626 854.194C825.626 853.794 825.57 853.538 825.458 853.426C825.394 853.362 825.194 853.314 824.858 853.282C824.426 853.25 824.066 853.066 823.778 852.73C823.682 852.602 823.626 852.506 823.61 852.442C823.61 852.378 823.642 852.258 823.706 852.082C823.85 851.714 824.074 851.474 824.378 851.362C824.682 851.234 825.274 851.154 826.154 851.122C826.394 851.106 826.65 851.098 826.922 851.098C827.194 851.082 827.402 851.066 827.546 851.05H827.738C827.77 851.034 827.81 851.026 827.858 851.026C828.098 851.026 828.562 851.074 829.25 851.17C829.938 851.25 830.394 851.314 830.618 851.362C830.714 851.394 830.81 851.426 830.906 851.458C831.018 851.474 831.114 851.49 831.194 851.506C831.29 851.522 831.346 851.53 831.362 851.53C831.57 851.562 831.866 851.698 832.25 851.938C832.65 852.178 832.85 852.346 832.85 852.442C832.85 852.522 832.938 852.674 833.114 852.898C833.306 853.122 833.402 853.282 833.402 853.378C833.402 853.634 833.442 853.826 833.522 853.954C833.602 854.05 833.642 854.186 833.642 854.362C833.642 854.586 833.602 854.898 833.522 855.298C833.41 856.002 833.29 856.418 833.162 856.546C833.066 856.642 832.986 856.786 832.922 856.978C832.858 857.154 832.626 857.458 832.226 857.89C831.826 858.322 831.626 858.554 831.626 858.586C831.626 858.634 831.738 858.85 831.962 859.234C832.202 859.602 832.354 859.818 832.418 859.882C832.546 860.01 832.61 860.114 832.61 860.194C832.61 860.306 832.65 860.362 832.73 860.362C832.81 860.362 832.85 860.426 832.85 860.554ZM848.762 851.194C848.826 851.13 849.402 851.098 850.49 851.098C851.658 851.098 852.626 851.138 853.394 851.218C854.162 851.298 854.698 851.402 855.002 851.53C855.306 851.658 855.458 851.85 855.458 852.106C855.458 852.154 855.442 852.242 855.41 852.37C855.346 852.626 855.122 852.81 854.738 852.922C854.354 853.018 853.698 853.066 852.77 853.066H851.45C850.842 853.066 850.538 853.098 850.538 853.162C850.538 853.178 850.554 853.218 850.586 853.282C850.65 853.458 850.722 854.322 850.802 855.874C850.898 857.41 850.954 858.826 850.97 860.122V860.89C850.97 861.978 850.922 862.674 850.826 862.978C850.73 863.266 850.49 863.506 850.106 863.698C849.818 863.826 849.602 863.89 849.458 863.89C849.17 863.89 848.93 863.714 848.738 863.362C848.642 863.17 848.578 862.954 848.546 862.714C848.514 862.474 848.498 861.93 848.498 861.082V858.97V857.65C848.498 855.874 848.45 854.906 848.354 854.746C848.258 854.602 848.178 854.45 848.114 854.29C848.05 854.13 847.842 853.978 847.49 853.834C847.154 853.69 846.77 853.61 846.338 853.594C845.842 853.562 845.314 853.482 844.754 853.354C844.194 853.226 843.85 853.106 843.722 852.994C843.626 852.914 843.578 852.81 843.578 852.682C843.578 852.41 843.738 852.178 844.058 851.986C844.586 851.65 845.826 851.426 847.778 851.314C848.386 851.282 848.714 851.242 848.762 851.194ZM865.647 854.026C865.343 853.77 864.991 853.642 864.591 853.642C864.303 853.642 864.095 853.722 863.967 853.882C863.839 854.01 863.743 854.074 863.679 854.074C863.535 854.074 863.367 854.202 863.175 854.458C862.967 854.73 862.791 854.818 862.647 854.722C862.503 854.626 862.415 854.474 862.383 854.266C862.351 854.058 862.287 853.954 862.191 853.954C862.063 853.954 861.823 854.122 861.471 854.458C860.639 855.242 860.223 856.218 860.223 857.386C860.223 857.722 860.239 857.978 860.271 858.154C860.399 859.082 860.727 859.866 861.255 860.506C861.799 861.146 862.391 861.466 863.031 861.466C863.047 861.466 863.087 861.466 863.151 861.466C863.215 861.45 863.255 861.442 863.271 861.442C863.975 861.33 864.519 861.178 864.903 860.986C865.303 860.778 865.711 860.434 866.127 859.954C866.767 859.218 867.087 858.458 867.087 857.674C867.087 857.226 866.911 856.562 866.559 855.682C866.223 854.802 865.919 854.25 865.647 854.026ZM862.695 851.05C862.711 851.002 862.831 850.978 863.055 850.978C863.903 850.978 864.575 851.114 865.071 851.386C865.423 851.578 865.775 851.706 866.127 851.77C866.479 851.834 866.903 852.13 867.399 852.658C867.927 853.186 868.191 853.49 868.191 853.57C868.191 853.634 868.271 853.858 868.431 854.242C868.927 855.314 869.191 856.25 869.223 857.05V857.41C869.223 857.89 869.191 858.362 869.127 858.826C869.063 859.29 868.991 859.554 868.911 859.618C868.895 859.634 868.863 859.682 868.815 859.762C868.783 859.826 868.727 859.93 868.647 860.074C868.567 860.218 868.495 860.338 868.431 860.434C868.255 860.754 867.935 861.178 867.471 861.706C867.007 862.218 866.719 862.474 866.607 862.474C866.527 862.474 866.391 862.554 866.199 862.714C865.991 862.89 865.815 862.978 865.671 862.978C865.479 862.978 865.311 863.026 865.167 863.122C865.055 863.202 864.863 863.258 864.591 863.29C864.367 863.29 864.223 863.314 864.159 863.362C864.095 863.394 863.847 863.41 863.415 863.41H862.935C862.183 863.394 861.567 863.266 861.087 863.026C860.559 862.722 860.127 862.394 859.791 862.042C859.471 861.706 859.135 861.266 858.783 860.722C858.447 860.178 858.279 859.818 858.279 859.642C858.279 859.482 858.255 859.378 858.207 859.33C858.079 859.202 858.015 858.618 858.015 857.578C858.015 856.17 858.327 854.978 858.951 854.002C859.143 853.698 859.495 853.282 860.007 852.754C860.535 852.226 860.855 851.962 860.967 851.962C861.063 851.962 861.175 851.882 861.303 851.722C861.447 851.578 861.703 851.45 862.071 851.338C862.439 851.21 862.647 851.114 862.695 851.05ZM880.1 851.458C880.1 851.346 880.228 851.202 880.484 851.026C880.74 850.85 880.972 850.762 881.18 850.762C881.26 850.762 881.316 850.77 881.348 850.786C881.492 850.802 881.676 850.946 881.9 851.218C882.124 851.474 882.276 851.714 882.356 851.938C882.612 852.85 882.74 853.498 882.74 853.882C882.74 853.914 882.732 853.97 882.716 854.05C882.716 854.114 882.716 854.162 882.716 854.194C882.652 854.594 882.652 854.81 882.716 854.842C882.748 854.874 882.764 855.09 882.764 855.49C882.764 856.994 882.676 858.378 882.5 859.642C882.468 859.866 882.404 860.458 882.308 861.418C882.228 862.49 882.012 863.154 881.66 863.41C881.548 863.506 881.268 863.586 880.82 863.65C880.772 863.65 880.716 863.658 880.652 863.674C880.588 863.674 880.54 863.674 880.508 863.674C880.3 863.674 880.1 863.57 879.908 863.362C879.716 863.154 879.412 862.754 878.996 862.162C878.58 861.554 878.284 861.082 878.108 860.746C878.012 860.586 877.772 860.154 877.388 859.45C877.004 858.73 876.684 858.21 876.428 857.89C876.188 857.586 876.068 857.394 876.068 857.314C876.068 857.25 875.876 857.01 875.492 856.594C875.092 856.162 874.812 855.826 874.652 855.586C874.492 855.33 874.372 855.202 874.292 855.202C874.244 855.202 874.22 855.258 874.22 855.37C874.22 855.402 874.236 855.514 874.268 855.706C874.348 856.074 874.388 857.154 874.388 858.946C874.388 860.786 874.348 861.914 874.268 862.33C874.188 862.81 874.092 863.13 873.98 863.29C873.884 863.434 873.66 863.602 873.308 863.794C873.164 863.874 873.02 863.914 872.876 863.914C872.444 863.914 872.204 863.394 872.156 862.354C872.028 858.738 871.924 856.706 871.844 856.258C871.796 855.922 871.772 855.458 871.772 854.866C871.772 853.506 871.844 852.666 871.988 852.346L872.204 851.842C872.3 851.65 872.524 851.466 872.876 851.29C873.116 851.194 873.332 851.146 873.524 851.146C873.988 851.146 874.556 851.514 875.228 852.25C875.58 852.618 875.86 852.946 876.068 853.234C876.292 853.522 876.58 853.85 876.932 854.218C877.428 854.746 877.676 855.05 877.676 855.13C877.676 855.242 877.708 855.298 877.772 855.298C877.852 855.298 878.068 855.562 878.42 856.09C878.772 856.602 879.108 857.154 879.428 857.746C879.588 858.066 879.764 858.322 879.956 858.514C880.004 858.546 880.036 858.57 880.052 858.586C880.084 858.602 880.108 858.602 880.124 858.586C880.14 858.554 880.148 858.514 880.148 858.466C880.148 858.418 880.148 858.346 880.148 858.25C880.148 857.69 880.164 857.242 880.196 856.906C880.244 856.106 880.268 855.242 880.268 854.314C880.268 853.882 880.252 853.45 880.22 853.018C880.188 852.57 880.156 852.21 880.124 851.938C880.108 851.65 880.1 851.49 880.1 851.458ZM896.505 851.194C896.569 851.13 897.145 851.098 898.233 851.098C899.401 851.098 900.369 851.138 901.137 851.218C901.905 851.298 902.441 851.402 902.745 851.53C903.049 851.658 903.201 851.85 903.201 852.106C903.201 852.154 903.185 852.242 903.153 852.37C903.089 852.626 902.865 852.81 902.481 852.922C902.097 853.018 901.441 853.066 900.513 853.066H899.193C898.585 853.066 898.281 853.098 898.281 853.162C898.281 853.178 898.297 853.218 898.329 853.282C898.393 853.458 898.465 854.322 898.545 855.874C898.641 857.41 898.697 858.826 898.713 860.122V860.89C898.713 861.978 898.665 862.674 898.569 862.978C898.473 863.266 898.233 863.506 897.849 863.698C897.561 863.826 897.345 863.89 897.201 863.89C896.913 863.89 896.673 863.714 896.481 863.362C896.385 863.17 896.321 862.954 896.289 862.714C896.257 862.474 896.241 861.93 896.241 861.082V858.97V857.65C896.241 855.874 896.193 854.906 896.097 854.746C896.001 854.602 895.921 854.45 895.857 854.29C895.793 854.13 895.585 853.978 895.233 853.834C894.897 853.69 894.513 853.61 894.081 853.594C893.585 853.562 893.057 853.482 892.497 853.354C891.937 853.226 891.593 853.106 891.465 852.994C891.369 852.914 891.321 852.81 891.321 852.682C891.321 852.41 891.481 852.178 891.801 851.986C892.329 851.65 893.569 851.426 895.521 851.314C896.129 851.282 896.457 851.242 896.505 851.194ZM908.469 851.194C909.429 851.082 910.349 851.026 911.229 851.026C912.269 851.026 912.949 851.106 913.269 851.266C913.477 851.362 913.605 851.458 913.653 851.554C913.701 851.634 913.725 851.818 913.725 852.106C913.757 852.506 913.717 852.706 913.605 852.706C913.525 852.706 913.485 852.746 913.485 852.826C913.485 853.066 913.189 853.242 912.597 853.354C912.021 853.45 911.021 853.514 909.597 853.546C908.685 853.578 908.221 853.602 908.205 853.618C908.141 853.682 908.069 854.29 907.989 855.442L907.941 856.282H908.589H908.637C908.989 856.282 909.365 856.378 909.765 856.57C910.165 856.746 910.421 856.946 910.533 857.17C910.549 857.186 910.557 857.218 910.557 857.266C910.557 857.474 910.373 857.754 910.005 858.106C909.637 858.458 909.333 858.642 909.093 858.658C908.725 858.706 908.501 858.738 908.421 858.754C908.325 858.786 908.261 858.81 908.229 858.826C908.213 858.842 908.189 858.89 908.157 858.97C908.141 859.05 908.133 859.178 908.133 859.354C908.133 859.402 908.133 859.506 908.133 859.666C908.149 859.826 908.157 859.962 908.157 860.074C908.189 860.906 908.237 861.354 908.301 861.418C908.349 861.466 908.837 861.49 909.765 861.49H910.629H911.301C912.357 861.49 912.965 861.53 913.125 861.61C913.365 861.738 913.589 862.138 913.797 862.81C913.813 862.842 913.821 862.882 913.821 862.93C913.821 863.058 913.693 863.25 913.437 863.506C913.021 863.954 912.493 864.178 911.853 864.178C911.709 864.178 911.605 864.17 911.541 864.154C910.869 864.058 909.469 863.978 907.341 863.914C906.733 863.882 906.421 863.858 906.405 863.842C906.165 863.554 906.013 863.306 905.949 863.098C905.901 862.89 905.877 862.49 905.877 861.898V861.178V860.65C905.877 859.754 905.845 859.258 905.781 859.162C905.717 859.082 905.685 858.514 905.685 857.458C905.685 854.818 905.773 853.298 905.949 852.898C906.013 852.706 906.005 852.546 905.925 852.418C905.829 852.274 905.837 852.202 905.949 852.202C906.029 852.202 906.069 852.138 906.069 852.01C906.069 851.642 906.869 851.37 908.469 851.194ZM916.952 851.482C917.192 851.226 917.4 851.098 917.576 851.098C917.704 851.098 917.872 851.178 918.08 851.338C918.48 851.626 918.68 852.594 918.68 854.242C918.68 855.73 918.696 856.722 918.728 857.218C918.856 859.17 918.92 860.498 918.92 861.202C918.92 861.33 919 861.41 919.16 861.442C919.32 861.458 919.856 861.474 920.768 861.49C922.64 861.522 923.736 861.546 924.056 861.562C924.392 861.578 924.592 861.642 924.656 861.754C924.704 861.834 924.728 861.93 924.728 862.042C924.728 862.378 924.504 862.754 924.056 863.17C923.688 863.506 923.216 863.722 922.64 863.818C922.24 863.898 921.96 863.938 921.8 863.938C921.736 863.938 921.696 863.93 921.68 863.914C921.52 863.802 920.688 863.73 919.184 863.698C918.56 863.666 918.208 863.626 918.128 863.578C918.048 863.53 917.832 863.474 917.48 863.41C917.144 863.346 916.944 863.218 916.88 863.026C916.816 862.818 916.736 862.674 916.64 862.594C916.56 862.53 916.504 862.17 916.472 861.514C916.44 860.874 916.408 860.53 916.376 860.482C916.376 860.466 916.344 859.538 916.28 857.698C916.28 857.506 916.272 857.266 916.256 856.978C916.256 856.674 916.256 856.466 916.256 856.354C916.256 855.474 916.312 854.666 916.424 853.93C916.536 853.338 916.592 852.85 916.592 852.466V852.25C916.592 851.978 916.712 851.722 916.952 851.482ZM930.079 851.194C931.039 851.082 931.959 851.026 932.839 851.026C933.879 851.026 934.559 851.106 934.879 851.266C935.087 851.362 935.215 851.458 935.263 851.554C935.311 851.634 935.335 851.818 935.335 852.106C935.367 852.506 935.327 852.706 935.215 852.706C935.135 852.706 935.095 852.746 935.095 852.826C935.095 853.066 934.799 853.242 934.207 853.354C933.631 853.45 932.631 853.514 931.207 853.546C930.295 853.578 929.831 853.602 929.815 853.618C929.751 853.682 929.679 854.29 929.599 855.442L929.551 856.282H930.199H930.247C930.599 856.282 930.975 856.378 931.375 856.57C931.775 856.746 932.031 856.946 932.143 857.17C932.159 857.186 932.167 857.218 932.167 857.266C932.167 857.474 931.983 857.754 931.615 858.106C931.247 858.458 930.943 858.642 930.703 858.658C930.335 858.706 930.111 858.738 930.031 858.754C929.935 858.786 929.871 858.81 929.839 858.826C929.823 858.842 929.799 858.89 929.767 858.97C929.751 859.05 929.743 859.178 929.743 859.354C929.743 859.402 929.743 859.506 929.743 859.666C929.759 859.826 929.767 859.962 929.767 860.074C929.799 860.906 929.847 861.354 929.911 861.418C929.959 861.466 930.447 861.49 931.375 861.49H932.239H932.911C933.967 861.49 934.575 861.53 934.735 861.61C934.975 861.738 935.199 862.138 935.407 862.81C935.423 862.842 935.431 862.882 935.431 862.93C935.431 863.058 935.303 863.25 935.047 863.506C934.631 863.954 934.103 864.178 933.463 864.178C933.319 864.178 933.215 864.17 933.151 864.154C932.479 864.058 931.079 863.978 928.951 863.914C928.343 863.882 928.031 863.858 928.015 863.842C927.775 863.554 927.623 863.306 927.559 863.098C927.511 862.89 927.487 862.49 927.487 861.898V861.178V860.65C927.487 859.754 927.455 859.258 927.391 859.162C927.327 859.082 927.295 858.514 927.295 857.458C927.295 854.818 927.383 853.298 927.559 852.898C927.623 852.706 927.615 852.546 927.535 852.418C927.439 852.274 927.447 852.202 927.559 852.202C927.639 852.202 927.679 852.138 927.679 852.01C927.679 851.642 928.479 851.37 930.079 851.194ZM941.921 853.33C941.777 853.33 941.593 853.282 941.369 853.186L941.057 853.09L941.081 854.986C941.097 856.09 941.145 856.706 941.225 856.834C941.289 856.962 941.553 857.05 942.017 857.098C942.033 857.098 942.057 857.098 942.089 857.098C942.137 857.098 942.193 857.106 942.257 857.122C942.337 857.122 942.393 857.122 942.425 857.122C943.113 857.122 943.713 856.874 944.225 856.378C944.561 856.074 944.729 855.826 944.729 855.634C944.729 855.618 944.721 855.578 944.705 855.514C944.705 855.45 944.705 855.394 944.705 855.346C944.673 855.042 944.553 854.754 944.345 854.482C944.137 854.21 943.905 854.042 943.649 853.978C943.601 853.962 943.329 853.85 942.833 853.642C942.353 853.434 942.049 853.33 941.921 853.33ZM938.753 851.098C938.945 851.05 939.449 851.026 940.265 851.026H940.985C942.169 851.058 943.033 851.178 943.577 851.386C944.313 851.642 944.817 851.85 945.089 852.01C945.361 852.154 945.649 852.378 945.953 852.682C946.737 853.466 947.129 854.354 947.129 855.346C947.129 855.874 947.065 856.274 946.937 856.546C946.809 856.818 946.513 857.17 946.049 857.602C944.833 858.738 943.481 859.33 941.993 859.378L941.081 859.426C941.065 859.442 941.041 860.026 941.009 861.178C940.993 861.93 940.969 862.426 940.937 862.666C940.905 862.906 940.825 863.114 940.697 863.29C940.505 863.546 940.289 863.674 940.049 863.674C939.793 863.674 939.545 863.562 939.305 863.338C939.065 863.13 938.937 862.834 938.921 862.45C938.921 862.37 938.913 862.218 938.897 861.994C938.881 861.754 938.865 861.586 938.849 861.49C938.817 860.978 938.801 860.114 938.801 858.898C938.801 856.034 938.841 854.482 938.921 854.242C938.969 854.098 938.993 853.954 938.993 853.81C938.993 853.442 938.809 853.162 938.441 852.97C938.249 852.874 938.121 852.786 938.057 852.706C938.009 852.61 937.977 852.418 937.961 852.13V851.89C937.961 851.634 938.009 851.458 938.105 851.362C938.217 851.266 938.433 851.178 938.753 851.098ZM950.23 851.314C950.31 851.218 950.438 851.17 950.614 851.17C950.918 851.17 951.23 851.274 951.55 851.482C951.71 851.578 951.814 851.69 951.862 851.818C951.91 851.93 951.974 852.194 952.054 852.61C952.15 853.282 952.198 854.266 952.198 855.562L952.222 857.626L952.63 857.506C952.758 857.458 953.278 857.402 954.19 857.338C955.678 857.242 956.55 857.002 956.806 856.618C957.094 856.218 957.27 855.218 957.334 853.618C957.35 852.994 957.406 852.546 957.502 852.274C957.614 851.986 957.798 851.778 958.054 851.65C958.182 851.586 958.294 851.554 958.39 851.554C958.486 851.554 958.638 851.61 958.846 851.722C959.118 851.882 959.302 852.122 959.398 852.442C959.494 852.762 959.558 853.346 959.59 854.194C959.702 857.89 959.758 860.002 959.758 860.53C959.758 861.41 959.742 862.002 959.71 862.306C959.646 862.802 959.486 863.202 959.23 863.506C958.974 863.794 958.734 863.938 958.51 863.938C958.318 863.938 958.094 863.834 957.838 863.626C957.422 863.322 957.214 862.506 957.214 861.178V860.794L957.238 859.57L956.854 859.594C956.79 859.594 956.686 859.602 956.542 859.618C956.414 859.618 956.326 859.626 956.278 859.642C956.134 859.642 956.062 859.682 956.062 859.762C956.062 859.842 955.902 859.882 955.582 859.882C955.134 859.882 954.582 859.938 953.926 860.05C953.27 860.146 952.846 860.25 952.654 860.362L952.294 860.578L952.318 861.802C952.318 862.618 952.23 863.162 952.054 863.434C951.878 863.706 951.758 863.842 951.694 863.842C951.63 863.842 951.526 863.898 951.382 864.01C951.254 864.138 951.07 864.13 950.83 863.986C950.574 863.826 950.414 863.706 950.35 863.626C950.27 863.546 950.142 863.01 949.966 862.018C949.806 861.058 949.71 859.21 949.678 856.474C949.678 856.122 949.67 855.698 949.654 855.202C949.654 854.69 949.654 854.346 949.654 854.17C949.654 853.162 949.686 852.514 949.75 852.226C949.83 851.922 949.99 851.618 950.23 851.314ZM969.968 854.026C969.664 853.77 969.312 853.642 968.912 853.642C968.624 853.642 968.416 853.722 968.288 853.882C968.16 854.01 968.064 854.074 968 854.074C967.856 854.074 967.688 854.202 967.496 854.458C967.288 854.73 967.112 854.818 966.968 854.722C966.824 854.626 966.736 854.474 966.704 854.266C966.672 854.058 966.608 853.954 966.512 853.954C966.384 853.954 966.144 854.122 965.792 854.458C964.96 855.242 964.544 856.218 964.544 857.386C964.544 857.722 964.56 857.978 964.592 858.154C964.72 859.082 965.048 859.866 965.576 860.506C966.12 861.146 966.712 861.466 967.352 861.466C967.368 861.466 967.408 861.466 967.472 861.466C967.536 861.45 967.576 861.442 967.592 861.442C968.296 861.33 968.84 861.178 969.224 860.986C969.624 860.778 970.032 860.434 970.448 859.954C971.088 859.218 971.408 858.458 971.408 857.674C971.408 857.226 971.232 856.562 970.88 855.682C970.544 854.802 970.24 854.25 969.968 854.026ZM967.016 851.05C967.032 851.002 967.152 850.978 967.376 850.978C968.224 850.978 968.896 851.114 969.392 851.386C969.744 851.578 970.096 851.706 970.448 851.77C970.8 851.834 971.224 852.13 971.72 852.658C972.248 853.186 972.512 853.49 972.512 853.57C972.512 853.634 972.592 853.858 972.752 854.242C973.248 855.314 973.512 856.25 973.544 857.05V857.41C973.544 857.89 973.512 858.362 973.448 858.826C973.384 859.29 973.312 859.554 973.232 859.618C973.216 859.634 973.184 859.682 973.136 859.762C973.104 859.826 973.048 859.93 972.968 860.074C972.888 860.218 972.816 860.338 972.752 860.434C972.576 860.754 972.256 861.178 971.792 861.706C971.328 862.218 971.04 862.474 970.928 862.474C970.848 862.474 970.712 862.554 970.52 862.714C970.312 862.89 970.136 862.978 969.992 862.978C969.8 862.978 969.632 863.026 969.488 863.122C969.376 863.202 969.184 863.258 968.912 863.29C968.688 863.29 968.544 863.314 968.48 863.362C968.416 863.394 968.168 863.41 967.736 863.41H967.256C966.504 863.394 965.888 863.266 965.408 863.026C964.88 862.722 964.448 862.394 964.112 862.042C963.792 861.706 963.456 861.266 963.104 860.722C962.768 860.178 962.6 859.818 962.6 859.642C962.6 859.482 962.576 859.378 962.528 859.33C962.4 859.202 962.336 858.618 962.336 857.578C962.336 856.17 962.648 854.978 963.272 854.002C963.464 853.698 963.816 853.282 964.328 852.754C964.856 852.226 965.176 851.962 965.288 851.962C965.384 851.962 965.496 851.882 965.624 851.722C965.768 851.578 966.024 851.45 966.392 851.338C966.76 851.21 966.968 851.114 967.016 851.05ZM984.42 851.458C984.42 851.346 984.548 851.202 984.804 851.026C985.06 850.85 985.292 850.762 985.5 850.762C985.58 850.762 985.636 850.77 985.668 850.786C985.812 850.802 985.996 850.946 986.22 851.218C986.444 851.474 986.596 851.714 986.676 851.938C986.932 852.85 987.06 853.498 987.06 853.882C987.06 853.914 987.052 853.97 987.036 854.05C987.036 854.114 987.036 854.162 987.036 854.194C986.972 854.594 986.972 854.81 987.036 854.842C987.068 854.874 987.084 855.09 987.084 855.49C987.084 856.994 986.996 858.378 986.82 859.642C986.788 859.866 986.724 860.458 986.628 861.418C986.548 862.49 986.332 863.154 985.98 863.41C985.868 863.506 985.588 863.586 985.14 863.65C985.092 863.65 985.036 863.658 984.972 863.674C984.908 863.674 984.86 863.674 984.828 863.674C984.62 863.674 984.42 863.57 984.228 863.362C984.036 863.154 983.732 862.754 983.316 862.162C982.9 861.554 982.604 861.082 982.428 860.746C982.332 860.586 982.092 860.154 981.708 859.45C981.324 858.73 981.004 858.21 980.748 857.89C980.508 857.586 980.388 857.394 980.388 857.314C980.388 857.25 980.196 857.01 979.812 856.594C979.412 856.162 979.132 855.826 978.972 855.586C978.812 855.33 978.692 855.202 978.612 855.202C978.564 855.202 978.54 855.258 978.54 855.37C978.54 855.402 978.556 855.514 978.588 855.706C978.668 856.074 978.708 857.154 978.708 858.946C978.708 860.786 978.668 861.914 978.588 862.33C978.508 862.81 978.412 863.13 978.3 863.29C978.204 863.434 977.98 863.602 977.628 863.794C977.484 863.874 977.34 863.914 977.196 863.914C976.764 863.914 976.524 863.394 976.476 862.354C976.348 858.738 976.244 856.706 976.164 856.258C976.116 855.922 976.092 855.458 976.092 854.866C976.092 853.506 976.164 852.666 976.308 852.346L976.524 851.842C976.62 851.65 976.844 851.466 977.196 851.29C977.436 851.194 977.652 851.146 977.844 851.146C978.308 851.146 978.876 851.514 979.548 852.25C979.9 852.618 980.18 852.946 980.388 853.234C980.612 853.522 980.9 853.85 981.252 854.218C981.748 854.746 981.996 855.05 981.996 855.13C981.996 855.242 982.028 855.298 982.092 855.298C982.172 855.298 982.388 855.562 982.74 856.09C983.092 856.602 983.428 857.154 983.748 857.746C983.908 858.066 984.084 858.322 984.276 858.514C984.324 858.546 984.356 858.57 984.372 858.586C984.404 858.602 984.428 858.602 984.444 858.586C984.46 858.554 984.468 858.514 984.468 858.466C984.468 858.418 984.468 858.346 984.468 858.25C984.468 857.69 984.484 857.242 984.516 856.906C984.564 856.106 984.588 855.242 984.588 854.314C984.588 853.882 984.572 853.45 984.54 853.018C984.508 852.57 984.476 852.21 984.444 851.938C984.428 851.65 984.42 851.49 984.42 851.458ZM992.329 851.194C993.289 851.082 994.209 851.026 995.089 851.026C996.129 851.026 996.809 851.106 997.129 851.266C997.337 851.362 997.465 851.458 997.513 851.554C997.561 851.634 997.585 851.818 997.585 852.106C997.617 852.506 997.577 852.706 997.465 852.706C997.385 852.706 997.345 852.746 997.345 852.826C997.345 853.066 997.049 853.242 996.457 853.354C995.881 853.45 994.881 853.514 993.457 853.546C992.545 853.578 992.081 853.602 992.065 853.618C992.001 853.682 991.929 854.29 991.849 855.442L991.801 856.282H992.449H992.497C992.849 856.282 993.225 856.378 993.625 856.57C994.025 856.746 994.281 856.946 994.393 857.17C994.409 857.186 994.417 857.218 994.417 857.266C994.417 857.474 994.233 857.754 993.865 858.106C993.497 858.458 993.193 858.642 992.953 858.658C992.585 858.706 992.361 858.738 992.281 858.754C992.185 858.786 992.121 858.81 992.089 858.826C992.073 858.842 992.049 858.89 992.017 858.97C992.001 859.05 991.993 859.178 991.993 859.354C991.993 859.402 991.993 859.506 991.993 859.666C992.009 859.826 992.017 859.962 992.017 860.074C992.049 860.906 992.097 861.354 992.161 861.418C992.209 861.466 992.697 861.49 993.625 861.49H994.489H995.161C996.217 861.49 996.825 861.53 996.985 861.61C997.225 861.738 997.449 862.138 997.657 862.81C997.673 862.842 997.681 862.882 997.681 862.93C997.681 863.058 997.553 863.25 997.297 863.506C996.881 863.954 996.353 864.178 995.713 864.178C995.569 864.178 995.465 864.17 995.401 864.154C994.729 864.058 993.329 863.978 991.201 863.914C990.593 863.882 990.281 863.858 990.265 863.842C990.025 863.554 989.873 863.306 989.809 863.098C989.761 862.89 989.737 862.49 989.737 861.898V861.178V860.65C989.737 859.754 989.705 859.258 989.641 859.162C989.577 859.082 989.545 858.514 989.545 857.458C989.545 854.818 989.633 853.298 989.809 852.898C989.873 852.706 989.865 852.546 989.785 852.418C989.689 852.274 989.697 852.202 989.809 852.202C989.889 852.202 989.929 852.138 989.929 852.01C989.929 851.642 990.729 851.37 992.329 851.194ZM1010.17 853.33C1010.03 853.33 1009.84 853.282 1009.62 853.186L1009.31 853.09L1009.33 854.986C1009.35 856.09 1009.4 856.706 1009.48 856.834C1009.54 856.962 1009.8 857.05 1010.27 857.098C1010.28 857.098 1010.31 857.098 1010.34 857.098C1010.39 857.098 1010.44 857.106 1010.51 857.122C1010.59 857.122 1010.64 857.122 1010.68 857.122C1011.36 857.122 1011.96 856.874 1012.48 856.378C1012.81 856.074 1012.98 855.826 1012.98 855.634C1012.98 855.618 1012.97 855.578 1012.96 855.514C1012.96 855.45 1012.96 855.394 1012.96 855.346C1012.92 855.042 1012.8 854.754 1012.6 854.482C1012.39 854.21 1012.16 854.042 1011.9 853.978C1011.85 853.962 1011.58 853.85 1011.08 853.642C1010.6 853.434 1010.3 853.33 1010.17 853.33ZM1007 851.098C1007.2 851.05 1007.7 851.026 1008.52 851.026H1009.24C1010.42 851.058 1011.28 851.178 1011.83 851.386C1012.56 851.642 1013.07 851.85 1013.34 852.01C1013.61 852.154 1013.9 852.378 1014.2 852.682C1014.99 853.466 1015.38 854.354 1015.38 855.346C1015.38 855.874 1015.32 856.274 1015.19 856.546C1015.06 856.818 1014.76 857.17 1014.3 857.602C1013.08 858.738 1011.73 859.33 1010.24 859.378L1009.33 859.426C1009.32 859.442 1009.29 860.026 1009.26 861.178C1009.24 861.93 1009.22 862.426 1009.19 862.666C1009.16 862.906 1009.08 863.114 1008.95 863.29C1008.76 863.546 1008.54 863.674 1008.3 863.674C1008.04 863.674 1007.8 863.562 1007.56 863.338C1007.32 863.13 1007.19 862.834 1007.17 862.45C1007.17 862.37 1007.16 862.218 1007.15 861.994C1007.13 861.754 1007.12 861.586 1007.1 861.49C1007.07 860.978 1007.05 860.114 1007.05 858.898C1007.05 856.034 1007.09 854.482 1007.17 854.242C1007.22 854.098 1007.24 853.954 1007.24 853.81C1007.24 853.442 1007.06 853.162 1006.69 852.97C1006.5 852.874 1006.37 852.786 1006.31 852.706C1006.26 852.61 1006.23 852.418 1006.21 852.13V851.89C1006.21 851.634 1006.26 851.458 1006.36 851.362C1006.47 851.266 1006.68 851.178 1007 851.098ZM1020.69 851.194C1021.65 851.082 1022.57 851.026 1023.45 851.026C1024.49 851.026 1025.17 851.106 1025.49 851.266C1025.7 851.362 1025.82 851.458 1025.87 851.554C1025.92 851.634 1025.94 851.818 1025.94 852.106C1025.98 852.506 1025.94 852.706 1025.82 852.706C1025.74 852.706 1025.7 852.746 1025.7 852.826C1025.7 853.066 1025.41 853.242 1024.82 853.354C1024.24 853.45 1023.24 853.514 1021.82 853.546C1020.9 853.578 1020.44 853.602 1020.42 853.618C1020.36 853.682 1020.29 854.29 1020.21 855.442L1020.16 856.282H1020.81H1020.86C1021.21 856.282 1021.58 856.378 1021.98 856.57C1022.38 856.746 1022.64 856.946 1022.75 857.17C1022.77 857.186 1022.78 857.218 1022.78 857.266C1022.78 857.474 1022.59 857.754 1022.22 858.106C1021.86 858.458 1021.55 858.642 1021.31 858.658C1020.94 858.706 1020.72 858.738 1020.64 858.754C1020.54 858.786 1020.48 858.81 1020.45 858.826C1020.43 858.842 1020.41 858.89 1020.38 858.97C1020.36 859.05 1020.35 859.178 1020.35 859.354C1020.35 859.402 1020.35 859.506 1020.35 859.666C1020.37 859.826 1020.38 859.962 1020.38 860.074C1020.41 860.906 1020.46 861.354 1020.52 861.418C1020.57 861.466 1021.06 861.49 1021.98 861.49H1022.85H1023.52C1024.58 861.49 1025.18 861.53 1025.34 861.61C1025.58 861.738 1025.81 862.138 1026.02 862.81C1026.03 862.842 1026.04 862.882 1026.04 862.93C1026.04 863.058 1025.91 863.25 1025.66 863.506C1025.24 863.954 1024.71 864.178 1024.07 864.178C1023.93 864.178 1023.82 864.17 1023.76 864.154C1023.09 864.058 1021.69 863.978 1019.56 863.914C1018.95 863.882 1018.64 863.858 1018.62 863.842C1018.38 863.554 1018.23 863.306 1018.17 863.098C1018.12 862.89 1018.1 862.49 1018.1 861.898V861.178V860.65C1018.1 859.754 1018.06 859.258 1018 859.162C1017.94 859.082 1017.9 858.514 1017.9 857.458C1017.9 854.818 1017.99 853.298 1018.17 852.898C1018.23 852.706 1018.22 852.546 1018.14 852.418C1018.05 852.274 1018.06 852.202 1018.17 852.202C1018.25 852.202 1018.29 852.138 1018.29 852.01C1018.29 851.642 1019.09 851.37 1020.69 851.194ZM1036.3 851.29C1036.46 851.178 1036.6 851.122 1036.73 851.122C1036.97 851.122 1037.17 851.37 1037.33 851.866C1037.38 852.042 1037.43 852.202 1037.5 852.346C1037.56 852.474 1037.6 852.57 1037.62 852.634C1037.63 852.682 1037.65 852.778 1037.67 852.922C1037.7 853.066 1037.72 853.282 1037.74 853.57C1037.77 854.13 1037.8 854.434 1037.83 854.482C1037.85 854.514 1037.89 855.29 1037.95 856.81C1037.97 857.13 1037.98 857.53 1037.98 858.01C1037.98 858.266 1037.97 858.482 1037.95 858.658C1037.95 858.834 1037.94 859.01 1037.91 859.186C1037.89 859.346 1037.87 859.466 1037.83 859.546C1037.82 859.626 1037.78 859.778 1037.71 860.002C1037.67 860.226 1037.63 860.402 1037.59 860.53C1037.51 860.994 1037.27 861.49 1036.87 862.018C1036.47 862.53 1036.03 862.946 1035.53 863.266C1034.84 863.698 1034.13 863.914 1033.39 863.914C1033.01 863.914 1032.59 863.866 1032.15 863.77C1031.73 863.69 1031.28 863.418 1030.8 862.954C1030.32 862.49 1029.95 861.962 1029.7 861.37C1029.36 860.618 1029.19 860.202 1029.17 860.122C1029.15 859.978 1029.09 859.762 1028.98 859.474C1028.9 859.25 1028.83 859.026 1028.79 858.802C1028.75 858.562 1028.72 858.25 1028.69 857.866C1028.66 857.466 1028.63 857.17 1028.62 856.978C1028.57 856.498 1028.55 856.074 1028.55 855.706C1028.55 855.306 1028.58 854.77 1028.64 854.098C1028.71 853.41 1028.75 852.954 1028.76 852.73C1028.78 852.33 1028.83 852.05 1028.93 851.89C1029.03 851.73 1029.21 851.618 1029.48 851.554C1029.5 851.554 1029.51 851.554 1029.53 851.554C1029.56 851.538 1029.59 851.53 1029.6 851.53C1029.76 851.53 1029.9 851.602 1030.01 851.746C1030.14 851.874 1030.2 852.026 1030.2 852.202C1030.2 852.426 1030.23 852.57 1030.3 852.634C1030.35 852.682 1030.39 852.882 1030.42 853.234C1030.58 856.194 1030.86 858.146 1031.26 859.09C1031.39 859.394 1031.43 859.578 1031.38 859.642C1031.33 859.722 1031.35 859.762 1031.43 859.762C1031.51 859.762 1031.59 859.898 1031.69 860.17C1031.8 860.538 1032.04 860.882 1032.41 861.202C1032.78 861.522 1033.15 861.714 1033.51 861.778C1033.56 861.794 1033.63 861.802 1033.73 861.802C1033.89 861.802 1034.12 861.658 1034.43 861.37C1034.75 861.05 1034.91 860.842 1034.91 860.746C1034.91 860.666 1034.95 860.626 1035.03 860.626C1035.11 860.626 1035.15 860.546 1035.15 860.386C1035.15 860.21 1035.23 859.938 1035.39 859.57C1035.53 859.154 1035.61 858.346 1035.63 857.146C1035.66 855.754 1035.69 854.954 1035.72 854.746C1035.79 854.314 1035.81 854.082 1035.79 854.05C1035.76 853.858 1035.75 853.682 1035.75 853.522C1035.75 853.09 1035.8 852.634 1035.91 852.154C1036.03 851.674 1036.15 851.386 1036.3 851.29ZM1045.78 851.194C1045.84 851.13 1046.42 851.098 1047.51 851.098C1048.67 851.098 1049.64 851.138 1050.41 851.218C1051.18 851.298 1051.71 851.402 1052.02 851.53C1052.32 851.658 1052.47 851.85 1052.47 852.106C1052.47 852.154 1052.46 852.242 1052.43 852.37C1052.36 852.626 1052.14 852.81 1051.75 852.922C1051.37 853.018 1050.71 853.066 1049.79 853.066H1048.47C1047.86 853.066 1047.55 853.098 1047.55 853.162C1047.55 853.178 1047.57 853.218 1047.6 853.282C1047.67 853.458 1047.74 854.322 1047.82 855.874C1047.91 857.41 1047.97 858.826 1047.99 860.122V860.89C1047.99 861.978 1047.94 862.674 1047.84 862.978C1047.75 863.266 1047.51 863.506 1047.12 863.698C1046.83 863.826 1046.62 863.89 1046.47 863.89C1046.19 863.89 1045.95 863.714 1045.75 863.362C1045.66 863.17 1045.59 862.954 1045.56 862.714C1045.53 862.474 1045.51 861.93 1045.51 861.082V858.97V857.65C1045.51 855.874 1045.47 854.906 1045.37 854.746C1045.27 854.602 1045.19 854.45 1045.13 854.29C1045.07 854.13 1044.86 853.978 1044.51 853.834C1044.17 853.69 1043.79 853.61 1043.35 853.594C1042.86 853.562 1042.33 853.482 1041.77 853.354C1041.21 853.226 1040.87 853.106 1040.74 852.994C1040.64 852.914 1040.59 852.81 1040.59 852.682C1040.59 852.41 1040.75 852.178 1041.07 851.986C1041.6 851.65 1042.84 851.426 1044.79 851.314C1045.4 851.282 1045.73 851.242 1045.78 851.194ZM1063.74 851.194C1064.7 851.082 1065.62 851.026 1066.5 851.026C1067.54 851.026 1068.22 851.106 1068.54 851.266C1068.75 851.362 1068.88 851.458 1068.93 851.554C1068.97 851.634 1069 851.818 1069 852.106C1069.03 852.506 1068.99 852.706 1068.88 852.706C1068.8 852.706 1068.76 852.746 1068.76 852.826C1068.76 853.066 1068.46 853.242 1067.87 853.354C1067.29 853.45 1066.29 853.514 1064.87 853.546C1063.96 853.578 1063.49 853.602 1063.48 853.618C1063.41 853.682 1063.34 854.29 1063.26 855.442L1063.21 856.282H1063.86H1063.91C1064.26 856.282 1064.64 856.378 1065.04 856.57C1065.44 856.746 1065.69 856.946 1065.81 857.17C1065.82 857.186 1065.83 857.218 1065.83 857.266C1065.83 857.474 1065.65 857.754 1065.28 858.106C1064.91 858.458 1064.61 858.642 1064.37 858.658C1064 858.706 1063.77 858.738 1063.69 858.754C1063.6 858.786 1063.53 858.81 1063.5 858.826C1063.49 858.842 1063.46 858.89 1063.43 858.97C1063.41 859.05 1063.41 859.178 1063.41 859.354C1063.41 859.402 1063.41 859.506 1063.41 859.666C1063.42 859.826 1063.43 859.962 1063.43 860.074C1063.46 860.906 1063.51 861.354 1063.57 861.418C1063.62 861.466 1064.11 861.49 1065.04 861.49H1065.9H1066.57C1067.63 861.49 1068.24 861.53 1068.4 861.61C1068.64 861.738 1068.86 862.138 1069.07 862.81C1069.09 862.842 1069.09 862.882 1069.09 862.93C1069.09 863.058 1068.97 863.25 1068.71 863.506C1068.29 863.954 1067.77 864.178 1067.13 864.178C1066.98 864.178 1066.88 864.17 1066.81 864.154C1066.14 864.058 1064.74 863.978 1062.61 863.914C1062.01 863.882 1061.69 863.858 1061.68 863.842C1061.44 863.554 1061.29 863.306 1061.22 863.098C1061.17 862.89 1061.15 862.49 1061.15 861.898V861.178V860.65C1061.15 859.754 1061.12 859.258 1061.05 859.162C1060.99 859.082 1060.96 858.514 1060.96 857.458C1060.96 854.818 1061.05 853.298 1061.22 852.898C1061.29 852.706 1061.28 852.546 1061.2 852.418C1061.1 852.274 1061.11 852.202 1061.22 852.202C1061.3 852.202 1061.34 852.138 1061.34 852.01C1061.34 851.642 1062.14 851.37 1063.74 851.194ZM1076.81 851.194C1076.87 851.13 1077.45 851.098 1078.54 851.098C1079.71 851.098 1080.67 851.138 1081.44 851.218C1082.21 851.298 1082.75 851.402 1083.05 851.53C1083.35 851.658 1083.51 851.85 1083.51 852.106C1083.51 852.154 1083.49 852.242 1083.46 852.37C1083.39 852.626 1083.17 852.81 1082.79 852.922C1082.4 853.018 1081.75 853.066 1080.82 853.066H1079.5C1078.89 853.066 1078.59 853.098 1078.59 853.162C1078.59 853.178 1078.6 853.218 1078.63 853.282C1078.7 853.458 1078.77 854.322 1078.85 855.874C1078.95 857.41 1079 858.826 1079.02 860.122V860.89C1079.02 861.978 1078.97 862.674 1078.87 862.978C1078.78 863.266 1078.54 863.506 1078.15 863.698C1077.87 863.826 1077.65 863.89 1077.51 863.89C1077.22 863.89 1076.98 863.714 1076.79 863.362C1076.69 863.17 1076.63 862.954 1076.59 862.714C1076.56 862.474 1076.55 861.93 1076.55 861.082V858.97V857.65C1076.55 855.874 1076.5 854.906 1076.4 854.746C1076.31 854.602 1076.23 854.45 1076.16 854.29C1076.1 854.13 1075.89 853.978 1075.54 853.834C1075.2 853.69 1074.82 853.61 1074.39 853.594C1073.89 853.562 1073.36 853.482 1072.8 853.354C1072.24 853.226 1071.9 853.106 1071.77 852.994C1071.67 852.914 1071.63 852.81 1071.63 852.682C1071.63 852.41 1071.79 852.178 1072.11 851.986C1072.63 851.65 1073.87 851.426 1075.83 851.314C1076.43 851.282 1076.76 851.242 1076.81 851.194ZM1092.83 853.69C1092.75 853.626 1092.57 853.57 1092.3 853.522C1092.05 853.474 1091.73 853.426 1091.34 853.378C1090.97 853.33 1090.73 853.29 1090.6 853.258L1090.09 853.162V855.034C1090.09 856.298 1090.11 856.93 1090.14 856.93C1090.16 856.93 1090.2 856.938 1090.26 856.954C1090.34 856.954 1090.45 856.962 1090.57 856.978C1090.7 856.978 1090.81 856.978 1090.91 856.978C1091.47 857.01 1091.81 857.042 1091.92 857.074C1091.97 857.09 1092.02 857.098 1092.09 857.098C1092.26 857.098 1092.51 856.946 1092.83 856.642C1093.18 856.322 1093.41 856.05 1093.53 855.826C1093.65 855.586 1093.75 855.242 1093.81 854.794L1093.89 854.098L1093.43 853.93C1093.08 853.802 1092.88 853.722 1092.83 853.69ZM1095.35 860.554C1095.35 860.618 1095.42 860.754 1095.57 860.962C1095.71 861.17 1095.78 861.298 1095.78 861.346C1095.78 861.442 1095.98 861.698 1096.38 862.114C1096.78 862.514 1097.03 862.714 1097.13 862.714C1097.24 862.714 1097.33 862.826 1097.39 863.05C1097.41 863.098 1097.41 863.162 1097.41 863.242C1097.41 863.418 1097.31 863.586 1097.1 863.746C1096.86 863.954 1096.66 864.074 1096.5 864.106C1096.47 864.106 1096.4 864.106 1096.29 864.106C1096.17 864.106 1096.09 864.114 1096.05 864.13H1096C1095.68 864.13 1095.29 863.978 1094.82 863.674C1094.37 863.354 1094.14 863.09 1094.13 862.882C1094.13 862.77 1094.09 862.714 1094.01 862.714C1093.91 862.714 1093.86 862.674 1093.86 862.594C1093.86 862.498 1093.78 862.37 1093.62 862.21C1093.45 862.002 1093.29 861.77 1093.17 861.514C1093.02 861.21 1092.81 860.85 1092.54 860.434C1092.29 860.002 1092.11 859.746 1092.01 859.666C1091.9 859.586 1091.53 859.514 1090.89 859.45L1089.95 859.378L1089.93 861.25C1089.89 862.546 1089.84 863.29 1089.76 863.482C1089.53 863.946 1089.18 864.178 1088.7 864.178C1088.62 864.178 1088.56 864.17 1088.51 864.154C1088.3 864.106 1088.15 864.026 1088.05 863.914C1087.97 863.786 1087.9 863.53 1087.84 863.146C1087.81 863.002 1087.79 862.466 1087.79 861.538C1087.79 858.706 1087.88 856.586 1088.05 855.178C1088.1 854.762 1088.13 854.434 1088.13 854.194C1088.13 853.794 1088.07 853.538 1087.96 853.426C1087.89 853.362 1087.69 853.314 1087.36 853.282C1086.93 853.25 1086.57 853.066 1086.28 852.73C1086.18 852.602 1086.13 852.506 1086.11 852.442C1086.11 852.378 1086.14 852.258 1086.21 852.082C1086.35 851.714 1086.57 851.474 1086.88 851.362C1087.18 851.234 1087.77 851.154 1088.65 851.122C1088.89 851.106 1089.15 851.098 1089.42 851.098C1089.69 851.082 1089.9 851.066 1090.05 851.05H1090.24C1090.27 851.034 1090.31 851.026 1090.36 851.026C1090.6 851.026 1091.06 851.074 1091.75 851.17C1092.44 851.25 1092.89 851.314 1093.12 851.362C1093.21 851.394 1093.31 851.426 1093.41 851.458C1093.52 851.474 1093.61 851.49 1093.69 851.506C1093.79 851.522 1093.85 851.53 1093.86 851.53C1094.07 851.562 1094.37 851.698 1094.75 851.938C1095.15 852.178 1095.35 852.346 1095.35 852.442C1095.35 852.522 1095.44 852.674 1095.61 852.898C1095.81 853.122 1095.9 853.282 1095.9 853.378C1095.9 853.634 1095.94 853.826 1096.02 853.954C1096.1 854.05 1096.14 854.186 1096.14 854.362C1096.14 854.586 1096.1 854.898 1096.02 855.298C1095.91 856.002 1095.79 856.418 1095.66 856.546C1095.57 856.642 1095.49 856.786 1095.42 856.978C1095.36 857.154 1095.13 857.458 1094.73 857.89C1094.33 858.322 1094.13 858.554 1094.13 858.586C1094.13 858.634 1094.24 858.85 1094.46 859.234C1094.7 859.602 1094.85 859.818 1094.92 859.882C1095.05 860.01 1095.11 860.114 1095.11 860.194C1095.11 860.306 1095.15 860.362 1095.23 860.362C1095.31 860.362 1095.35 860.426 1095.35 860.554ZM1102.77 851.194C1103.73 851.082 1104.65 851.026 1105.53 851.026C1106.57 851.026 1107.25 851.106 1107.57 851.266C1107.77 851.362 1107.9 851.458 1107.95 851.554C1108 851.634 1108.02 851.818 1108.02 852.106C1108.05 852.506 1108.01 852.706 1107.9 852.706C1107.82 852.706 1107.78 852.746 1107.78 852.826C1107.78 853.066 1107.49 853.242 1106.89 853.354C1106.32 853.45 1105.32 853.514 1103.89 853.546C1102.98 853.578 1102.52 853.602 1102.5 853.618C1102.44 853.682 1102.37 854.29 1102.29 855.442L1102.24 856.282H1102.89H1102.93C1103.29 856.282 1103.66 856.378 1104.06 856.57C1104.46 856.746 1104.72 856.946 1104.83 857.17C1104.85 857.186 1104.85 857.218 1104.85 857.266C1104.85 857.474 1104.67 857.754 1104.3 858.106C1103.93 858.458 1103.63 858.642 1103.39 858.658C1103.02 858.706 1102.8 858.738 1102.72 858.754C1102.62 858.786 1102.56 858.81 1102.53 858.826C1102.51 858.842 1102.49 858.89 1102.45 858.97C1102.44 859.05 1102.43 859.178 1102.43 859.354C1102.43 859.402 1102.43 859.506 1102.43 859.666C1102.45 859.826 1102.45 859.962 1102.45 860.074C1102.49 860.906 1102.53 861.354 1102.6 861.418C1102.65 861.466 1103.13 861.49 1104.06 861.49H1104.93H1105.6C1106.65 861.49 1107.26 861.53 1107.42 861.61C1107.66 861.738 1107.89 862.138 1108.09 862.81C1108.11 862.842 1108.12 862.882 1108.12 862.93C1108.12 863.058 1107.99 863.25 1107.73 863.506C1107.32 863.954 1106.79 864.178 1106.15 864.178C1106.01 864.178 1105.9 864.17 1105.84 864.154C1105.17 864.058 1103.77 863.978 1101.64 863.914C1101.03 863.882 1100.72 863.858 1100.7 863.842C1100.46 863.554 1100.31 863.306 1100.25 863.098C1100.2 862.89 1100.17 862.49 1100.17 861.898V861.178V860.65C1100.17 859.754 1100.14 859.258 1100.08 859.162C1100.01 859.082 1099.98 858.514 1099.98 857.458C1099.98 854.818 1100.07 853.298 1100.25 852.898C1100.31 852.706 1100.3 852.546 1100.22 852.418C1100.13 852.274 1100.13 852.202 1100.25 852.202C1100.33 852.202 1100.37 852.138 1100.37 852.01C1100.37 851.642 1101.17 851.37 1102.77 851.194ZM1123.78 853.714C1123.49 853.57 1122.98 853.498 1122.26 853.498C1122.09 853.498 1122 853.514 1122 853.546C1122 853.562 1122 853.618 1122 853.714C1122 853.81 1121.99 853.93 1121.98 854.074C1121.98 854.218 1121.98 854.362 1121.98 854.506C1121.98 859.066 1122.02 861.386 1122.1 861.466C1122.14 861.514 1122.38 861.538 1122.79 861.538C1123.77 861.538 1124.42 861.482 1124.76 861.37C1125 861.306 1125.16 861.274 1125.24 861.274C1125.34 861.274 1125.7 860.986 1126.34 860.41C1126.98 859.818 1127.37 859.426 1127.5 859.234C1127.64 859.026 1127.78 858.626 1127.9 858.034C1127.97 857.73 1128 857.498 1128 857.338C1128 857.178 1127.96 857.034 1127.88 856.906C1127.77 856.682 1127.71 856.522 1127.71 856.426C1127.71 856.298 1127.52 856.018 1127.14 855.586C1126.75 855.154 1126.5 854.938 1126.39 854.938C1126.33 854.938 1126.23 854.874 1126.1 854.746C1126.02 854.634 1125.81 854.498 1125.46 854.338C1125.1 854.162 1124.87 854.074 1124.76 854.074C1124.66 854.074 1124.62 854.026 1124.62 853.93C1124.62 853.85 1124.51 853.81 1124.3 853.81C1124.06 853.81 1123.89 853.778 1123.78 853.714ZM1127.02 862.978C1126.95 862.978 1126.85 863.042 1126.7 863.17C1126.56 863.282 1126.46 863.338 1126.39 863.338C1126.25 863.338 1126.08 863.418 1125.89 863.578C1125.74 863.69 1125.47 863.802 1125.07 863.914C1124.67 864.01 1124.37 864.058 1124.16 864.058C1124.08 864.058 1124.03 864.05 1124.02 864.034C1123.94 863.986 1123.87 864.002 1123.82 864.082C1123.78 864.13 1123.58 864.154 1123.25 864.154H1122.91C1122.77 864.138 1122.5 864.114 1122.1 864.082C1121.7 864.05 1121.42 864.026 1121.26 864.01C1120.95 863.994 1120.73 863.978 1120.58 863.962C1120.46 863.946 1120.31 863.922 1120.15 863.89C1120.01 863.842 1119.83 863.802 1119.62 863.77C1119.06 863.706 1118.66 863.586 1118.42 863.41C1118.2 863.234 1118.06 862.97 1117.99 862.618C1117.98 862.522 1117.97 862.41 1117.97 862.282C1117.97 862.09 1118.1 861.882 1118.35 861.658C1118.66 861.37 1118.97 861.226 1119.29 861.226H1119.74L1119.72 858.25L1119.67 855.01C1119.67 854.866 1119.59 854.794 1119.43 854.794C1119.27 854.794 1119.17 854.762 1119.12 854.698C1119.07 854.618 1118.87 854.498 1118.52 854.338C1118.17 854.162 1117.94 854.074 1117.82 854.074C1117.73 854.074 1117.54 854.002 1117.27 853.858C1117.02 853.698 1116.86 853.578 1116.79 853.498C1116.68 853.37 1116.62 853.122 1116.62 852.754C1116.62 852.53 1116.65 852.322 1116.7 852.13C1116.78 851.874 1116.87 851.698 1116.98 851.602C1117.11 851.506 1117.34 851.434 1117.68 851.386C1117.87 851.354 1118.1 851.298 1118.35 851.218C1118.54 851.154 1119.06 851.09 1119.91 851.026L1121.11 850.93C1121.13 850.914 1121.23 850.906 1121.42 850.906C1121.79 850.906 1122.28 850.938 1122.89 851.002C1123.51 851.05 1123.9 851.106 1124.04 851.17C1124.33 851.282 1124.56 851.338 1124.74 851.338C1124.98 851.338 1125.74 851.69 1127.04 852.394C1127.65 852.714 1128.04 852.946 1128.22 853.09C1128.39 853.218 1128.66 853.514 1129.03 853.978C1129.88 854.986 1130.31 856.066 1130.33 857.218V857.338C1130.33 858.634 1129.85 859.922 1128.89 861.202C1128.57 861.634 1128.21 862.042 1127.81 862.426C1127.41 862.794 1127.14 862.978 1127.02 862.978ZM1135.63 851.194C1136.59 851.082 1137.51 851.026 1138.39 851.026C1139.43 851.026 1140.11 851.106 1140.43 851.266C1140.63 851.362 1140.76 851.458 1140.81 851.554C1140.86 851.634 1140.88 851.818 1140.88 852.106C1140.91 852.506 1140.87 852.706 1140.76 852.706C1140.68 852.706 1140.64 852.746 1140.64 852.826C1140.64 853.066 1140.35 853.242 1139.75 853.354C1139.18 853.45 1138.18 853.514 1136.75 853.546C1135.84 853.578 1135.38 853.602 1135.36 853.618C1135.3 853.682 1135.23 854.29 1135.15 855.442L1135.1 856.282H1135.75H1135.79C1136.15 856.282 1136.52 856.378 1136.92 856.57C1137.32 856.746 1137.58 856.946 1137.69 857.17C1137.71 857.186 1137.71 857.218 1137.71 857.266C1137.71 857.474 1137.53 857.754 1137.16 858.106C1136.79 858.458 1136.49 858.642 1136.25 858.658C1135.88 858.706 1135.66 858.738 1135.58 858.754C1135.48 858.786 1135.42 858.81 1135.39 858.826C1135.37 858.842 1135.35 858.89 1135.31 858.97C1135.3 859.05 1135.29 859.178 1135.29 859.354C1135.29 859.402 1135.29 859.506 1135.29 859.666C1135.31 859.826 1135.31 859.962 1135.31 860.074C1135.35 860.906 1135.39 861.354 1135.46 861.418C1135.51 861.466 1135.99 861.49 1136.92 861.49H1137.79H1138.46C1139.51 861.49 1140.12 861.53 1140.28 861.61C1140.52 861.738 1140.75 862.138 1140.95 862.81C1140.97 862.842 1140.98 862.882 1140.98 862.93C1140.98 863.058 1140.85 863.25 1140.59 863.506C1140.18 863.954 1139.65 864.178 1139.01 864.178C1138.87 864.178 1138.76 864.17 1138.7 864.154C1138.03 864.058 1136.63 863.978 1134.5 863.914C1133.89 863.882 1133.58 863.858 1133.56 863.842C1133.32 863.554 1133.17 863.306 1133.11 863.098C1133.06 862.89 1133.03 862.49 1133.03 861.898V861.178V860.65C1133.03 859.754 1133 859.258 1132.94 859.162C1132.87 859.082 1132.84 858.514 1132.84 857.458C1132.84 854.818 1132.93 853.298 1133.11 852.898C1133.17 852.706 1133.16 852.546 1133.08 852.418C1132.99 852.274 1132.99 852.202 1133.11 852.202C1133.19 852.202 1133.23 852.138 1133.23 852.01C1133.23 851.642 1134.03 851.37 1135.63 851.194ZM1151.33 853.594C1151.33 853.562 1151.48 853.386 1151.76 853.066C1152.05 852.746 1152.2 852.554 1152.2 852.49C1152.2 852.378 1152.24 852.322 1152.32 852.322C1152.4 852.322 1152.44 852.266 1152.44 852.154C1152.44 852.026 1152.47 851.962 1152.53 851.962C1152.61 851.962 1152.69 851.866 1152.77 851.674C1152.85 851.466 1153.03 851.306 1153.3 851.194C1153.56 851.082 1153.68 851.002 1153.68 850.954C1153.68 850.89 1153.76 850.842 1153.9 850.81C1153.93 850.794 1153.99 850.786 1154.07 850.786C1154.29 850.786 1154.52 850.882 1154.74 851.074C1154.98 851.25 1155.13 851.458 1155.2 851.698C1155.37 852.354 1155.5 853.082 1155.58 853.882C1155.68 854.778 1155.76 856.642 1155.84 859.474C1155.88 860.818 1155.93 861.658 1156.01 861.994C1156.03 862.058 1156.04 862.162 1156.04 862.306C1156.04 862.594 1155.97 862.858 1155.84 863.098C1155.72 863.338 1155.57 863.458 1155.41 863.458C1155.33 863.458 1155.29 863.49 1155.29 863.554C1155.29 863.618 1155.22 863.65 1155.08 863.65C1154.82 863.65 1154.64 863.594 1154.52 863.482C1154.43 863.386 1154.31 863.338 1154.16 863.338C1154.08 863.338 1154 863.258 1153.9 863.098C1153.82 862.922 1153.73 862.706 1153.64 862.45C1153.56 862.194 1153.52 862.058 1153.52 862.042C1153.42 861.834 1153.36 861.178 1153.32 860.074C1153.23 856.426 1153.18 854.594 1153.18 854.578C1153.18 854.498 1153.17 854.434 1153.16 854.386C1153.16 854.322 1153.15 854.266 1153.13 854.218C1153.13 854.17 1153.12 854.138 1153.11 854.122C1153.09 854.106 1153.08 854.106 1153.06 854.122C1153.01 854.154 1152.99 854.202 1152.99 854.266C1153 854.33 1153.01 854.394 1153.01 854.458C1153.01 854.522 1152.99 854.554 1152.94 854.554C1152.86 854.554 1152.82 854.586 1152.82 854.65C1152.84 854.698 1152.81 854.818 1152.75 855.01C1152.68 855.218 1152.59 855.442 1152.46 855.682C1152.33 855.922 1152.24 856.042 1152.17 856.042C1152.14 856.042 1152.12 856.09 1152.12 856.186C1152.12 856.282 1152 856.45 1151.76 856.69C1151.54 856.914 1151.37 857.026 1151.26 857.026C1151.13 857.026 1151.07 857.066 1151.07 857.146C1151.07 857.242 1151.01 857.29 1150.9 857.29C1150.74 857.29 1150.57 857.354 1150.4 857.482C1150.25 857.578 1150.01 857.626 1149.68 857.626C1149.29 857.626 1148.9 857.578 1148.5 857.482C1148.12 857.37 1147.88 857.242 1147.78 857.098C1147.7 856.97 1147.64 856.93 1147.59 856.978C1147.56 857.01 1147.45 856.93 1147.28 856.738C1147.1 856.514 1146.98 856.402 1146.92 856.402C1146.82 856.402 1146.73 856.314 1146.65 856.138C1146.57 855.994 1146.44 855.802 1146.24 855.562C1146.07 855.306 1145.96 855.146 1145.91 855.082C1145.83 854.97 1145.78 854.914 1145.76 854.914C1145.73 854.914 1145.72 855.01 1145.72 855.202V855.73C1145.72 856.082 1145.73 856.37 1145.76 856.594C1145.8 856.802 1145.81 856.954 1145.81 857.05C1145.81 857.066 1145.8 857.298 1145.76 857.746C1145.73 858.226 1145.72 858.842 1145.72 859.594V860.386V861.01C1145.72 862.45 1145.52 863.306 1145.14 863.578C1144.84 863.786 1144.59 863.89 1144.4 863.89C1144.27 863.89 1144.14 863.842 1144.01 863.746C1143.82 863.602 1143.72 863.258 1143.7 862.714C1143.65 861.994 1143.57 861.194 1143.46 860.314C1143.43 860.122 1143.41 859.386 1143.41 858.106C1143.41 854.89 1143.46 853.09 1143.56 852.706C1143.7 852.242 1143.92 851.842 1144.23 851.506C1144.55 851.17 1144.85 851.002 1145.14 851.002C1145.28 851.002 1145.4 851.05 1145.5 851.146C1145.66 851.274 1145.76 851.338 1145.81 851.338C1145.88 851.338 1145.98 851.434 1146.12 851.626C1146.27 851.802 1146.35 851.93 1146.36 852.01C1146.36 852.074 1146.55 852.306 1146.92 852.706C1147.09 852.882 1147.32 853.154 1147.59 853.522C1147.88 853.89 1148.1 854.154 1148.26 854.314C1148.4 854.458 1148.48 854.57 1148.48 854.65C1148.48 854.73 1148.63 854.89 1148.93 855.13C1149.24 855.354 1149.52 855.466 1149.77 855.466C1150.04 855.466 1150.29 855.354 1150.52 855.13C1150.68 854.97 1150.76 854.842 1150.76 854.746C1150.76 854.666 1150.85 854.458 1151.04 854.122C1151.24 853.786 1151.33 853.61 1151.33 853.594ZM1164.84 854.698C1164.65 854.282 1164.52 854.074 1164.46 854.074C1164.39 854.074 1164.34 854.162 1164.29 854.338L1163.88 855.25C1163.63 855.858 1163.5 856.21 1163.5 856.306C1163.5 856.386 1163.41 856.586 1163.23 856.906C1163.07 857.21 1162.99 857.418 1162.99 857.53C1162.99 857.594 1163.03 857.626 1163.09 857.626C1163.14 857.626 1163.18 857.618 1163.21 857.602C1163.32 857.57 1163.66 857.53 1164.22 857.482C1164.78 857.418 1165.19 857.386 1165.44 857.386H1165.54C1165.67 857.386 1165.73 857.37 1165.73 857.338C1165.75 857.29 1165.73 857.138 1165.68 856.882C1165.59 856.498 1165.31 855.77 1164.84 854.698ZM1163.86 851.194C1163.92 851.082 1164.03 851.026 1164.19 851.026C1164.58 851.026 1165.01 851.266 1165.49 851.746C1165.79 852.018 1166.15 852.57 1166.55 853.402C1166.75 853.818 1166.97 854.242 1167.19 854.674C1167.42 855.106 1167.63 855.522 1167.82 855.922C1167.98 856.322 1168.17 856.762 1168.39 857.242C1168.59 857.626 1168.68 857.89 1168.68 858.034C1168.68 858.162 1168.72 858.266 1168.8 858.346C1168.88 858.442 1169.09 859.074 1169.43 860.242C1169.76 861.25 1169.93 862.034 1169.93 862.594C1169.93 862.834 1169.89 863.09 1169.81 863.362C1169.73 863.65 1169.55 863.826 1169.28 863.89C1169.17 863.922 1169.01 863.938 1168.8 863.938C1168.37 863.938 1168.01 863.658 1167.72 863.098C1167.47 862.65 1167.34 862.346 1167.34 862.186C1167.34 862.026 1167.23 861.73 1167 861.298C1166.79 860.866 1166.63 860.586 1166.5 860.458C1166.27 860.25 1165.96 860.114 1165.56 860.05C1165.18 859.97 1164.55 859.914 1163.69 859.882H1162.95C1162.53 859.882 1162.27 859.898 1162.15 859.93C1162.06 859.962 1162.01 860.026 1162.01 860.122C1162.01 860.282 1161.97 860.386 1161.89 860.434C1161.78 860.498 1161.74 860.594 1161.77 860.722C1161.8 860.85 1161.77 861.018 1161.67 861.226C1161.64 861.322 1161.55 861.594 1161.41 862.042C1161.27 862.49 1161.16 862.778 1161.1 862.906C1161 863.082 1160.94 863.266 1160.91 863.458C1160.91 863.538 1160.75 863.682 1160.45 863.89C1160.21 864.034 1160.06 864.106 1159.99 864.106C1159.9 864.106 1159.78 864.058 1159.63 863.962C1158.96 863.53 1158.63 863.018 1158.63 862.426C1158.63 862.362 1158.64 862.266 1158.67 862.138C1158.72 862.01 1158.89 861.466 1159.18 860.506C1159.43 859.658 1159.64 859.122 1159.8 858.898C1159.95 858.69 1160.02 858.53 1160.02 858.418C1160.02 858.338 1160.1 858.05 1160.26 857.554C1160.42 857.058 1160.55 856.698 1160.64 856.474C1160.74 856.298 1160.83 856.05 1160.91 855.73C1161.1 855.074 1161.49 854.242 1162.08 853.234C1162.69 852.226 1163.15 851.618 1163.45 851.41C1163.64 851.298 1163.74 851.266 1163.74 851.314C1163.74 851.362 1163.76 851.346 1163.81 851.266C1163.83 851.25 1163.84 851.226 1163.86 851.194ZM1180.83 851.458C1180.83 851.346 1180.95 851.202 1181.21 851.026C1181.47 850.85 1181.7 850.762 1181.91 850.762C1181.99 850.762 1182.04 850.77 1182.07 850.786C1182.22 850.802 1182.4 850.946 1182.63 851.218C1182.85 851.474 1183 851.714 1183.08 851.938C1183.34 852.85 1183.47 853.498 1183.47 853.882C1183.47 853.914 1183.46 853.97 1183.44 854.05C1183.44 854.114 1183.44 854.162 1183.44 854.194C1183.38 854.594 1183.38 854.81 1183.44 854.842C1183.47 854.874 1183.49 855.09 1183.49 855.49C1183.49 856.994 1183.4 858.378 1183.23 859.642C1183.19 859.866 1183.13 860.458 1183.03 861.418C1182.95 862.49 1182.74 863.154 1182.39 863.41C1182.27 863.506 1181.99 863.586 1181.55 863.65C1181.5 863.65 1181.44 863.658 1181.38 863.674C1181.31 863.674 1181.27 863.674 1181.23 863.674C1181.03 863.674 1180.83 863.57 1180.63 863.362C1180.44 863.154 1180.14 862.754 1179.72 862.162C1179.31 861.554 1179.01 861.082 1178.83 860.746C1178.74 860.586 1178.5 860.154 1178.11 859.45C1177.73 858.73 1177.41 858.21 1177.15 857.89C1176.91 857.586 1176.79 857.394 1176.79 857.314C1176.79 857.25 1176.6 857.01 1176.22 856.594C1175.82 856.162 1175.54 855.826 1175.38 855.586C1175.22 855.33 1175.1 855.202 1175.02 855.202C1174.97 855.202 1174.95 855.258 1174.95 855.37C1174.95 855.402 1174.96 855.514 1174.99 855.706C1175.07 856.074 1175.11 857.154 1175.11 858.946C1175.11 860.786 1175.07 861.914 1174.99 862.33C1174.91 862.81 1174.82 863.13 1174.71 863.29C1174.61 863.434 1174.39 863.602 1174.03 863.794C1173.89 863.874 1173.75 863.914 1173.6 863.914C1173.17 863.914 1172.93 863.394 1172.88 862.354C1172.75 858.738 1172.65 856.706 1172.57 856.258C1172.52 855.922 1172.5 855.458 1172.5 854.866C1172.5 853.506 1172.57 852.666 1172.71 852.346L1172.93 851.842C1173.03 851.65 1173.25 851.466 1173.6 851.29C1173.84 851.194 1174.06 851.146 1174.25 851.146C1174.71 851.146 1175.28 851.514 1175.95 852.25C1176.31 852.618 1176.59 852.946 1176.79 853.234C1177.02 853.522 1177.31 853.85 1177.66 854.218C1178.15 854.746 1178.4 855.05 1178.4 855.13C1178.4 855.242 1178.43 855.298 1178.5 855.298C1178.58 855.298 1178.79 855.562 1179.15 856.09C1179.5 856.602 1179.83 857.154 1180.15 857.746C1180.31 858.066 1180.49 858.322 1180.68 858.514C1180.73 858.546 1180.76 858.57 1180.78 858.586C1180.81 858.602 1180.83 858.602 1180.85 858.586C1180.87 858.554 1180.87 858.514 1180.87 858.466C1180.87 858.418 1180.87 858.346 1180.87 858.25C1180.87 857.69 1180.89 857.242 1180.92 856.906C1180.97 856.106 1180.99 855.242 1180.99 854.314C1180.99 853.882 1180.98 853.45 1180.95 853.018C1180.91 852.57 1180.88 852.21 1180.85 851.938C1180.83 851.65 1180.83 851.49 1180.83 851.458ZM1193.17 853.714C1192.89 853.57 1192.38 853.498 1191.66 853.498C1191.49 853.498 1191.4 853.514 1191.4 853.546C1191.4 853.562 1191.4 853.618 1191.4 853.714C1191.4 853.81 1191.39 853.93 1191.37 854.074C1191.37 854.218 1191.37 854.362 1191.37 854.506C1191.37 859.066 1191.41 861.386 1191.49 861.466C1191.54 861.514 1191.77 861.538 1192.19 861.538C1193.17 861.538 1193.82 861.482 1194.16 861.37C1194.4 861.306 1194.56 861.274 1194.64 861.274C1194.73 861.274 1195.1 860.986 1195.74 860.41C1196.38 859.818 1196.77 859.426 1196.89 859.234C1197.04 859.026 1197.17 858.626 1197.3 858.034C1197.37 857.73 1197.4 857.498 1197.4 857.338C1197.4 857.178 1197.36 857.034 1197.28 856.906C1197.17 856.682 1197.11 856.522 1197.11 856.426C1197.11 856.298 1196.92 856.018 1196.53 855.586C1196.15 855.154 1195.9 854.938 1195.79 854.938C1195.73 854.938 1195.63 854.874 1195.5 854.746C1195.42 854.634 1195.21 854.498 1194.85 854.338C1194.5 854.162 1194.27 854.074 1194.16 854.074C1194.06 854.074 1194.01 854.026 1194.01 853.93C1194.01 853.85 1193.91 853.81 1193.7 853.81C1193.46 853.81 1193.29 853.778 1193.17 853.714ZM1196.41 862.978C1196.35 862.978 1196.25 863.042 1196.1 863.17C1195.96 863.282 1195.85 863.338 1195.79 863.338C1195.65 863.338 1195.48 863.418 1195.29 863.578C1195.14 863.69 1194.87 863.802 1194.47 863.914C1194.07 864.01 1193.77 864.058 1193.56 864.058C1193.48 864.058 1193.43 864.05 1193.41 864.034C1193.33 863.986 1193.27 864.002 1193.22 864.082C1193.17 864.13 1192.98 864.154 1192.65 864.154H1192.31C1192.17 864.138 1191.89 864.114 1191.49 864.082C1191.09 864.05 1190.81 864.026 1190.65 864.01C1190.35 863.994 1190.13 863.978 1189.98 863.962C1189.85 863.946 1189.71 863.922 1189.55 863.89C1189.41 863.842 1189.23 863.802 1189.02 863.77C1188.46 863.706 1188.06 863.586 1187.82 863.41C1187.6 863.234 1187.45 862.97 1187.39 862.618C1187.37 862.522 1187.37 862.41 1187.37 862.282C1187.37 862.09 1187.49 861.882 1187.75 861.658C1188.05 861.37 1188.37 861.226 1188.69 861.226H1189.14L1189.12 858.25L1189.07 855.01C1189.07 854.866 1188.99 854.794 1188.83 854.794C1188.67 854.794 1188.57 854.762 1188.52 854.698C1188.47 854.618 1188.27 854.498 1187.92 854.338C1187.57 854.162 1187.33 854.074 1187.22 854.074C1187.13 854.074 1186.94 854.002 1186.67 853.858C1186.41 853.698 1186.25 853.578 1186.19 853.498C1186.08 853.37 1186.02 853.122 1186.02 852.754C1186.02 852.53 1186.05 852.322 1186.09 852.13C1186.17 851.874 1186.27 851.698 1186.38 851.602C1186.51 851.506 1186.74 851.434 1187.08 851.386C1187.27 851.354 1187.49 851.298 1187.75 851.218C1187.94 851.154 1188.46 851.09 1189.31 851.026L1190.51 850.93C1190.53 850.914 1190.63 850.906 1190.82 850.906C1191.19 850.906 1191.68 850.938 1192.29 851.002C1192.91 851.05 1193.29 851.106 1193.44 851.17C1193.73 851.282 1193.96 851.338 1194.13 851.338C1194.37 851.338 1195.14 851.69 1196.44 852.394C1197.05 852.714 1197.44 852.946 1197.61 853.09C1197.79 853.218 1198.06 853.514 1198.43 853.978C1199.28 854.986 1199.71 856.066 1199.73 857.218V857.338C1199.73 858.634 1199.25 859.922 1198.29 861.202C1197.97 861.634 1197.61 862.042 1197.21 862.426C1196.81 862.794 1196.54 862.978 1196.41 862.978ZM1212.92 866.458H1203.34V849.322H1212.92V851.218H1205.5V856.57H1212.49V858.442H1205.5V864.562H1212.92V866.458ZM1211.89 844.042C1211.74 844.266 1211.54 844.538 1211.26 844.858C1210.99 845.178 1210.69 845.514 1210.35 845.866C1210.03 846.202 1209.7 846.53 1209.37 846.85C1209.05 847.154 1208.74 847.418 1208.46 847.642H1207.06V847.354C1207.3 847.05 1207.56 846.69 1207.83 846.274C1208.12 845.858 1208.4 845.434 1208.67 845.002C1208.94 844.554 1209.17 844.154 1209.34 843.802H1211.89V844.042Z" fill="white"/>
<path d="M831.778 598.026C671.314 583.657 591.082 576.472 544.513 536.034C497.944 495.595 503.223 437.696 513.782 321.897C524.342 206.099 529.621 148.198 582.752 116.688C635.881 85.178 716.114 92.3629 876.577 106.732L1168.34 132.86C1328.81 147.23 1409.04 154.415 1455.61 194.853C1502.18 235.291 1496.9 293.192 1486.34 408.99C1475.78 524.789 1470.5 582.688 1417.37 614.199C1364.24 645.709 1284.01 638.524 1123.55 624.154L831.778 598.026Z" stroke="#F2F2F2" stroke-width="10" stroke-linecap="round"/>
<path d="M1340.47 395.908L1340.5 395.569" stroke="#F2F2F2" stroke-width="10" stroke-linecap="round" stroke-linejoin="round"/>
<path d="M656.229 372.75L663.123 297.167" stroke="#F2F2F2" stroke-width="10" stroke-linecap="round" stroke-linejoin="round"/>
<path d="M449.255 149.777L463.947 90.8427C468.763 71.5216 482.589 55.6899 501.105 48.2927L558.511 25.3589" stroke="#C16D36" stroke-width="5" stroke-linecap="round" stroke-linejoin="round"/>
<path d="M428.159 93.0635L445.504 58.3278C450.059 49.207 456.797 41.3486 465.121 35.4492L500.253 10.5519" stroke="#C16D36" stroke-opacity="0.75" stroke-width="3" stroke-linecap="round" stroke-linejoin="round"/>
<path d="M1525.78 605.764L1498.84 660.203C1490.01 678.05 1473.13 690.565 1453.46 693.839L1392.48 703.988" stroke="#C16D36" stroke-width="5" stroke-linecap="round" stroke-linejoin="round"/>
<path d="M1534.28 665.674L1509.92 695.906C1503.52 703.844 1495.26 710.082 1485.87 714.069L1446.23 730.892" stroke="#C16D36" stroke-opacity="0.75" stroke-width="3" stroke-linecap="round" stroke-linejoin="round"/>
</svg>
