<svg width="400" height="219" viewBox="0 0 400 219" fill="none" xmlns="http://www.w3.org/2000/svg">
<path d="M0.804219 205.256C0.804219 203.976 1.23622 202.992 2.10022 202.304C2.96422 201.6 4.20422 201.248 5.82022 201.248C7.45222 201.248 8.66822 201.416 9.46822 201.752V205.208C8.49222 204.792 7.38022 204.584 6.13222 204.584C5.49222 204.584 5.06022 204.688 4.83622 204.896C4.61222 205.088 4.50022 205.368 4.50022 205.736V206.096C4.50022 206.544 4.57222 206.88 4.71622 207.104C4.87622 207.312 5.21222 207.552 5.72422 207.824L8.46022 209.36C9.77222 210.08 10.4282 211.16 10.4282 212.6V214.088C10.4282 215.384 9.94822 216.384 8.98822 217.088C8.02822 217.776 6.67622 218.12 4.93222 218.12C3.20422 218.12 1.90022 217.936 1.02022 217.568V214.088C2.10822 214.552 3.34022 214.784 4.71622 214.784C6.09222 214.784 6.78022 214.392 6.78022 213.608V213.248C6.78022 212.88 6.70022 212.608 6.54022 212.432C6.39622 212.24 6.11622 212.032 5.70022 211.808L3.13222 210.416C1.58022 209.552 0.804219 208.336 0.804219 206.768V205.256ZM11.9511 201.368H20.3751V204.488H15.5511V208.016H19.7271V211.136H15.5511V214.88H20.3751V218H11.9511V201.368ZM21.8127 205.304C21.8127 204.024 22.2527 203.032 23.1327 202.328C24.0287 201.608 25.3727 201.248 27.1647 201.248C28.3487 201.248 29.3567 201.36 30.1887 201.584V204.896C29.2927 204.624 28.4047 204.488 27.5247 204.488C26.6607 204.488 26.1007 204.592 25.8447 204.8C25.5887 204.992 25.4607 205.28 25.4607 205.664V213.728C25.4607 214.496 26.0607 214.88 27.2607 214.88C28.4767 214.88 29.4767 214.76 30.2607 214.52V217.76C29.3967 218 28.3487 218.12 27.1167 218.12C25.3247 218.12 23.9887 217.768 23.1087 217.064C22.2447 216.36 21.8127 215.368 21.8127 214.088V205.304ZM38.1593 205.616C38.1593 204.816 37.6793 204.416 36.7193 204.416C35.7753 204.416 35.3033 204.816 35.3033 205.616V213.752C35.3033 214.552 35.7753 214.952 36.7193 214.952C37.6793 214.952 38.1593 214.552 38.1593 213.752V205.616ZM31.7033 205.424C31.7033 204.112 32.1273 203.072 32.9753 202.304C33.8233 201.52 35.0713 201.128 36.7193 201.128C38.3673 201.128 39.6153 201.52 40.4633 202.304C41.3273 203.072 41.7593 204.112 41.7593 205.424V213.944C41.7593 215.256 41.3273 216.304 40.4633 217.088C39.6153 217.856 38.3673 218.24 36.7193 218.24C35.0713 218.24 33.8233 217.856 32.9753 217.088C32.1273 216.304 31.7033 215.256 31.7033 213.944V205.424ZM49.9255 201.368H53.5255V213.944C53.5255 215.256 53.1015 216.304 52.2535 217.088C51.4215 217.856 50.1815 218.24 48.5335 218.24C46.9015 218.24 45.6615 217.856 44.8135 217.088C43.9815 216.32 43.5655 215.272 43.5655 213.944V201.368H47.1655V213.752C47.1655 214.552 47.6215 214.952 48.5335 214.952C49.4615 214.952 49.9255 214.552 49.9255 213.752V201.368ZM55.5683 201.368H63.9923V204.488H59.1683V208.016H63.3443V211.136H59.1683V214.88H63.9923V218H55.5683V201.368ZM69.2698 212V218H65.6698V201.368H71.0938C72.4058 201.368 73.4298 201.68 74.1658 202.304C74.9018 202.928 75.2698 203.84 75.2698 205.04V208.112C75.2698 210.032 74.6138 211.232 73.3018 211.712L75.9178 218H71.9578L69.7258 212H69.2698ZM69.2698 204.44V209.144H70.6858C71.0538 209.144 71.3098 209.064 71.4538 208.904C71.5978 208.744 71.6698 208.464 71.6698 208.064V205.352C71.6698 205 71.5898 204.76 71.4298 204.632C71.2698 204.504 71.0218 204.44 70.6858 204.44H69.2698ZM90.3891 201.368V204.488H87.3891V218H83.7411V204.488H80.7411V201.368H90.3891ZM97.8077 205.616C97.8077 204.816 97.3277 204.416 96.3677 204.416C95.4237 204.416 94.9517 204.816 94.9517 205.616V213.752C94.9517 214.552 95.4237 214.952 96.3677 214.952C97.3277 214.952 97.8077 214.552 97.8077 213.752V205.616ZM91.3517 205.424C91.3517 204.112 91.7757 203.072 92.6237 202.304C93.4717 201.52 94.7197 201.128 96.3677 201.128C98.0157 201.128 99.2637 201.52 100.112 202.304C100.976 203.072 101.408 204.112 101.408 205.424V213.944C101.408 215.256 100.976 216.304 100.112 217.088C99.2637 217.856 98.0157 218.24 96.3677 218.24C94.7197 218.24 93.4717 217.856 92.6237 217.088C91.7757 216.304 91.3517 215.256 91.3517 213.944V205.424ZM110.39 201.368H113.942V218H110.486C108.118 211.952 106.75 208.304 106.382 207.056C106.718 208.32 106.886 210.496 106.886 213.584V218H103.334V201.368H106.886L109.07 206.936C109.998 209.32 110.622 211.128 110.942 212.36C110.574 210.808 110.39 208.536 110.39 205.544V201.368ZM129.248 201.368V204.488H126.248V218H122.6V204.488H119.6V201.368H129.248ZM130.451 201.368H138.875V204.488H134.051V208.016H138.227V211.136H134.051V214.88H138.875V218H130.451V201.368ZM140.553 201.368H144.201V214.976H148.641V218H140.553V201.368ZM149.834 201.368H158.258V204.488H153.434V208.016H157.61V211.136H153.434V214.88H158.258V218H149.834V201.368ZM165.935 205.496C165.935 204.824 165.591 204.488 164.903 204.488H163.559V210.08H164.903C165.591 210.08 165.935 209.744 165.935 209.072V205.496ZM159.935 201.368H165.359C166.655 201.368 167.671 201.68 168.407 202.304C169.159 202.928 169.535 203.848 169.535 205.064V209.504C169.535 210.72 169.159 211.64 168.407 212.264C167.671 212.888 166.655 213.2 165.359 213.2H163.559V218H159.935V201.368ZM178.169 201.368H181.817V218H178.169V211.424H174.857V218H171.209V201.368H174.857V208.208H178.169V201.368ZM190.198 205.616C190.198 204.816 189.718 204.416 188.758 204.416C187.814 204.416 187.342 204.816 187.342 205.616V213.752C187.342 214.552 187.814 214.952 188.758 214.952C189.718 214.952 190.198 214.552 190.198 213.752V205.616ZM183.742 205.424C183.742 204.112 184.166 203.072 185.014 202.304C185.862 201.52 187.11 201.128 188.758 201.128C190.406 201.128 191.654 201.52 192.502 202.304C193.366 203.072 193.798 204.112 193.798 205.424V213.944C193.798 215.256 193.366 216.304 192.502 217.088C191.654 217.856 190.406 218.24 188.758 218.24C187.11 218.24 185.862 217.856 185.014 217.088C184.166 216.304 183.742 215.256 183.742 213.944V205.424ZM202.781 201.368H206.333V218H202.877C200.509 211.952 199.141 208.304 198.773 207.056C199.109 208.32 199.277 210.496 199.277 213.584V218H195.725V201.368H199.277L201.461 206.936C202.389 209.32 203.013 211.128 203.333 212.36C202.965 210.808 202.781 208.536 202.781 205.544V201.368ZM208.498 201.368H216.922V204.488H212.098V208.016H216.274V211.136H212.098V214.88H216.922V218H208.498V201.368ZM229.053 205.496C229.053 204.824 228.709 204.488 228.021 204.488H226.677V210.08H228.021C228.709 210.08 229.053 209.744 229.053 209.072V205.496ZM223.053 201.368H228.477C229.773 201.368 230.789 201.68 231.525 202.304C232.277 202.928 232.653 203.848 232.653 205.064V209.504C232.653 210.72 232.277 211.64 231.525 212.264C230.789 212.888 229.773 213.2 228.477 213.2H226.677V218H223.053V201.368ZM234.326 201.368H242.75V204.488H237.926V208.016H242.102V211.136H237.926V214.88H242.75V218H234.326V201.368ZM250.668 201.368H254.268V213.944C254.268 215.256 253.844 216.304 252.996 217.088C252.164 217.856 250.924 218.24 249.276 218.24C247.644 218.24 246.404 217.856 245.556 217.088C244.724 216.32 244.308 215.272 244.308 213.944V201.368H247.908V213.752C247.908 214.552 248.364 214.952 249.276 214.952C250.204 214.952 250.668 214.552 250.668 213.752V201.368ZM264.998 201.368V204.488H261.998V218H258.35V204.488H255.35V201.368H264.998ZM270.654 201.368H279.078V204.488H274.254V208.016H278.43V211.136H274.254V214.88H279.078V218H270.654V201.368ZM289.444 201.368V204.488H286.444V218H282.796V204.488H279.796V201.368H289.444ZM294.246 212V218H290.646V201.368H296.07C297.382 201.368 298.406 201.68 299.142 202.304C299.878 202.928 300.246 203.84 300.246 205.04V208.112C300.246 210.032 299.59 211.232 298.278 211.712L300.894 218H296.934L294.702 212H294.246ZM294.246 204.44V209.144H295.662C296.03 209.144 296.286 209.064 296.43 208.904C296.574 208.744 296.646 208.464 296.646 208.064V205.352C296.646 205 296.566 204.76 296.406 204.632C296.246 204.504 295.998 204.44 295.662 204.44H294.246ZM302.225 201.368H310.649V204.488H305.825V208.016H310.001V211.136H305.825V214.88H310.649V218H302.225V201.368ZM323.091 205.208C323.091 204.92 323.019 204.704 322.875 204.56C322.747 204.4 322.491 204.32 322.107 204.32H320.379V214.904H322.107C322.763 214.904 323.091 214.536 323.091 213.8V205.208ZM316.779 201.368H322.611C323.907 201.368 324.907 201.68 325.611 202.304C326.331 202.928 326.691 203.848 326.691 205.064V214.088C326.691 216.696 325.403 218 322.827 218H316.779V201.368ZM328.615 201.368H337.039V204.488H332.215V208.016H336.391V211.136H332.215V214.88H337.039V218H328.615V201.368ZM352.133 201.368V218H348.653V212.216C348.653 210.552 348.805 208.912 349.109 207.296L346.805 213.776H344.021L341.717 207.296C342.021 208.784 342.173 210.424 342.173 212.216V218H338.717V201.368H342.413L345.413 209.864L348.413 201.368H352.133ZM361.407 218L360.711 214.16H357.423L356.775 218H353.343L356.607 201.368H361.623L364.839 218H361.407ZM357.927 211.112H360.183L359.031 204.68L357.927 211.112ZM373.101 201.368H376.653V218H373.197C370.829 211.952 369.461 208.304 369.093 207.056C369.429 208.32 369.597 210.496 369.597 213.584V218H366.045V201.368H369.597L371.781 206.936C372.709 209.32 373.333 211.128 373.653 212.36C373.285 210.808 373.101 208.536 373.101 205.544V201.368ZM385.13 205.208C385.13 204.92 385.058 204.704 384.914 204.56C384.786 204.4 384.53 204.32 384.146 204.32H382.418V214.904H384.146C384.802 214.904 385.13 214.536 385.13 213.8V205.208ZM378.818 201.368H384.65C385.946 201.368 386.946 201.68 387.65 202.304C388.37 202.928 388.73 203.848 388.73 205.064V214.088C388.73 216.696 387.442 218 384.866 218H378.818V201.368ZM390.654 201.368H399.078V204.488H394.254V208.016H398.43V211.136H394.254V214.88H399.078V218H390.654V201.368ZM394.878 197.672H397.518L395.718 200.432H393.822L394.878 197.672Z" fill="white"/>
<path d="M164.355 141.173C126.475 137.781 107.535 136.085 96.5421 126.539C85.5486 116.993 86.795 103.325 89.2877 75.9887C91.7803 48.6528 93.0267 34.9844 105.569 27.546C118.111 20.1076 137.051 21.8037 174.931 25.1958L243.807 31.3638C281.687 34.7559 300.627 36.452 311.621 45.9981C322.614 55.5441 321.368 69.2125 318.875 96.5484C316.382 123.885 315.136 137.553 302.594 144.991C290.051 152.43 271.111 150.733 233.232 147.341L164.355 141.173Z" stroke="#F2F2F2" stroke-width="10" stroke-linecap="round"/>
<path d="M284.439 93.4603L284.447 93.3801" stroke="#F2F2F2" stroke-width="10" stroke-linecap="round" stroke-linejoin="round"/>
<path d="M122.914 87.9934L124.542 70.1508" stroke="#F2F2F2" stroke-width="10" stroke-linecap="round" stroke-linejoin="round"/>
<path d="M74.055 35.3573V35.3573C77.3698 22.0603 86.8847 11.1647 99.6278 6.07383L99.8466 5.98643" stroke="#C16D36" stroke-width="5" stroke-linecap="round" stroke-linejoin="round"/>
<path d="M69.0751 21.9692V21.9692C72.8386 14.4327 78.4062 7.93931 85.2846 3.06465L86.094 2.49103" stroke="#C16D36" stroke-opacity="0.75" stroke-width="3" stroke-linecap="round" stroke-linejoin="round"/>
<path d="M328.185 143V143C322.108 155.283 310.486 163.896 296.95 166.149L296.718 166.187" stroke="#C16D36" stroke-width="5" stroke-linecap="round" stroke-linejoin="round"/>
<path d="M330.192 157.143V157.143C324.906 163.702 318.081 168.857 310.32 172.151L309.407 172.538" stroke="#C16D36" stroke-opacity="0.75" stroke-width="3" stroke-linecap="round" stroke-linejoin="round"/>
</svg>
