<svg width="2882" height="1622" viewBox="0 0 2882 1622" fill="none" xmlns="http://www.w3.org/2000/svg">
<rect x="0.00878906" width="2882" height="1621.12" fill="black"/>
<path d="M255.61 1377.74C255.61 1377.33 255.279 1376.75 254.617 1376C253.955 1375.26 253.624 1374.64 253.624 1374.14C253.624 1373.4 253.334 1372.44 252.755 1371.29C252.259 1370.46 252.011 1369.18 252.011 1367.44C252.011 1364.71 252.548 1361.94 253.624 1359.12C254.286 1357.64 255.94 1355.65 258.588 1353.17C261.235 1350.6 263.221 1349.2 264.545 1348.95C264.793 1348.87 265.538 1348.7 266.779 1348.45C268.02 1348.2 268.888 1348.04 269.385 1347.96C270.212 1347.71 272.735 1347.5 276.955 1347.33H278.692C281.174 1347.33 283.615 1347.91 286.014 1349.07C291.226 1351.64 293.832 1354.62 293.832 1358.01C293.832 1359.25 293.46 1360.53 292.715 1361.85C291.971 1363.1 291.144 1363.88 290.233 1364.21C290.068 1364.3 289.737 1364.34 289.241 1364.34C287.338 1364.34 285.435 1363.47 283.532 1361.73C281.712 1360.08 278.982 1359.25 275.341 1359.25C273.935 1359.25 272.404 1359.46 270.75 1359.87C268.764 1360.53 267.027 1361.52 265.538 1362.85C264.048 1364.17 263.304 1365.45 263.304 1366.69C263.304 1367.6 263.717 1368.97 264.545 1370.79C265.372 1372.53 266.199 1373.73 267.027 1374.39C267.689 1374.97 269.302 1375.71 271.867 1376.62C274.431 1377.53 276.458 1378.07 277.948 1378.24C283.325 1378.82 287.503 1380.47 290.482 1383.2C293.543 1385.93 295.073 1389.36 295.073 1393.5C295.073 1395.98 294.618 1398.34 293.708 1400.57C292.881 1402.72 291.929 1404.46 290.854 1405.79C289.861 1407.03 288.082 1408.72 285.518 1410.87C283.532 1412.45 280.554 1413.81 276.582 1414.97C272.694 1416.13 269.095 1416.71 265.786 1416.71C264.379 1416.71 263.18 1416.58 262.187 1416.33C258.878 1415.67 256.147 1414.47 253.996 1412.74C251.845 1411 250.77 1409.22 250.77 1407.4C250.77 1407.07 250.852 1406.57 251.018 1405.91C251.68 1404.17 252.755 1403.3 254.244 1403.3C255.403 1403.3 257.802 1403.68 261.442 1404.42C263.097 1404.83 264.669 1405.04 266.158 1405.04C267.234 1405.04 267.978 1404.96 268.392 1404.79C269.798 1404.38 270.874 1404.26 271.618 1404.42C272.115 1404.59 273.314 1404.42 275.217 1403.92C276.789 1403.59 278.485 1402.72 280.305 1401.32C282.126 1399.83 283.16 1398.51 283.408 1397.35C283.491 1396.93 283.615 1396.44 283.78 1395.86C283.946 1395.28 284.028 1394.87 284.028 1394.62C284.028 1394.04 283.822 1393.38 283.408 1392.63C282.332 1390.81 279.975 1389.65 276.334 1389.16C270.791 1388.33 267.606 1387.58 266.779 1386.92C266.53 1386.76 265.496 1386.34 263.676 1385.68C262.27 1385.27 260.574 1384.07 258.588 1382.08C256.602 1380.1 255.61 1378.65 255.61 1377.74ZM322.48 1349.07C327.444 1348.49 332.201 1348.2 336.752 1348.2C342.129 1348.2 345.645 1348.62 347.3 1349.44C348.376 1349.94 349.037 1350.44 349.286 1350.93C349.534 1351.35 349.658 1352.3 349.658 1353.79C349.823 1355.86 349.617 1356.89 349.037 1356.89C348.624 1356.89 348.417 1357.1 348.417 1357.51C348.417 1358.75 346.886 1359.66 343.825 1360.24C340.847 1360.74 335.676 1361.07 328.313 1361.23C323.597 1361.4 321.198 1361.52 321.115 1361.61C320.784 1361.94 320.412 1365.08 319.998 1371.04L319.75 1375.38H323.101H323.349C325.169 1375.38 327.113 1375.88 329.181 1376.87C331.25 1377.78 332.574 1378.82 333.153 1379.97C333.235 1380.06 333.277 1380.22 333.277 1380.47C333.277 1381.55 332.325 1382.99 330.422 1384.81C328.52 1386.63 326.948 1387.58 325.707 1387.67C323.804 1387.92 322.646 1388.08 322.232 1388.16C321.735 1388.33 321.405 1388.45 321.239 1388.54C321.156 1388.62 321.032 1388.87 320.867 1389.28C320.784 1389.69 320.743 1390.36 320.743 1391.27C320.743 1391.51 320.743 1392.05 320.743 1392.88C320.825 1393.71 320.867 1394.41 320.867 1394.99C321.032 1399.29 321.28 1401.61 321.611 1401.94C321.86 1402.19 324.383 1402.31 329.181 1402.31H333.649H337.124C342.584 1402.31 345.728 1402.52 346.555 1402.93C347.796 1403.59 348.955 1405.66 350.03 1409.14C350.113 1409.3 350.154 1409.51 350.154 1409.76C350.154 1410.42 349.492 1411.41 348.169 1412.74C346.018 1415.05 343.287 1416.21 339.978 1416.21C339.234 1416.21 338.696 1416.17 338.365 1416.09C334.89 1415.59 327.651 1415.18 316.647 1414.85C313.503 1414.68 311.89 1414.56 311.807 1414.47C310.566 1412.98 309.78 1411.7 309.45 1410.63C309.201 1409.55 309.077 1407.48 309.077 1404.42V1400.7V1397.97C309.077 1393.33 308.912 1390.77 308.581 1390.27C308.25 1389.86 308.084 1386.92 308.084 1381.46C308.084 1367.81 308.539 1359.95 309.45 1357.88C309.78 1356.89 309.739 1356.06 309.325 1355.4C308.829 1354.66 308.87 1354.28 309.45 1354.28C309.863 1354.28 310.07 1353.95 310.07 1353.29C310.07 1351.39 314.207 1349.98 322.48 1349.07ZM379.247 1350.44C381.646 1349.2 383.342 1348.37 384.335 1347.96C385.328 1347.46 386.528 1347 387.934 1346.59C389.341 1346.18 390.788 1345.97 392.278 1345.97C394.925 1345.97 398.689 1346.51 403.571 1347.58C406.218 1348.25 408.742 1349.82 411.141 1352.3C413.623 1354.7 414.864 1356.97 414.864 1359.12C414.864 1361.36 414.285 1363.22 413.126 1364.71C411.968 1366.2 410.644 1366.94 409.155 1366.94C407.914 1366.94 406.756 1366.32 405.68 1365.08C403.943 1362.85 401.213 1361.52 397.49 1361.11C395.256 1360.7 393.974 1360.45 393.643 1360.37C393.394 1360.28 393.022 1360.24 392.526 1360.24C390.375 1360.24 387.52 1361.07 383.963 1362.72C380.405 1364.3 378.42 1365.74 378.006 1367.07C377.841 1367.48 377.427 1368.18 376.765 1369.18C376.103 1370.17 375.69 1370.96 375.524 1371.53C375.359 1372.44 375.152 1373.11 374.904 1373.52C374.655 1374.02 374.531 1375.55 374.531 1378.11C374.531 1380.76 374.655 1383.28 374.904 1385.68C375.4 1390.07 377.22 1394.16 380.364 1397.97C383.591 1401.69 386.859 1403.55 390.168 1403.55C396.373 1403.39 401.585 1402.48 405.804 1400.82C409.114 1399.5 411.596 1398.84 413.25 1398.84C413.995 1398.84 414.491 1399 414.74 1399.33C415.981 1401.32 416.601 1403.35 416.601 1405.41C416.601 1405.83 416.56 1406.12 416.477 1406.28C416.146 1407.28 415.526 1408.35 414.616 1409.51C413.788 1410.67 413.126 1411.25 412.63 1411.25C412.134 1411.25 411.637 1411.58 411.141 1412.24C410.479 1413.07 408.907 1413.89 406.425 1414.72C403.943 1415.47 401.626 1415.88 399.475 1415.96C398.565 1416.13 398.028 1416.33 397.862 1416.58C397.614 1416.83 396.58 1416.96 394.76 1416.96C393.022 1416.96 391.988 1417.12 391.657 1417.45C391.243 1417.87 390.251 1418.07 388.679 1418.07C387.438 1418.07 386.693 1417.91 386.445 1417.58C386.197 1417.16 385.493 1416.96 384.335 1416.96C383.591 1416.96 382.432 1416.58 380.86 1415.84C379.288 1415.09 378.296 1414.43 377.882 1413.85C377.799 1413.77 377.592 1413.65 377.261 1413.48C377.013 1413.23 376.641 1412.94 376.145 1412.61C375.648 1412.28 375.235 1411.99 374.904 1411.74C373.332 1410.58 371.842 1408.93 370.436 1406.78C369.195 1404.63 368.409 1403.55 368.078 1403.55C367.747 1403.55 367.458 1402.85 367.209 1401.44C366.878 1399.87 366.465 1399 365.968 1398.84C365.141 1398.51 364.355 1395.4 363.61 1389.53C363.28 1387.21 363.114 1384.69 363.114 1381.96C363.114 1374.6 364.521 1368.14 367.333 1362.6C370.229 1356.97 374.2 1352.92 379.247 1350.44ZM469.476 1363.72C467.904 1362.39 466.083 1361.73 464.015 1361.73C462.526 1361.73 461.45 1362.14 460.789 1362.97C460.127 1363.63 459.63 1363.96 459.299 1363.96C458.555 1363.96 457.686 1364.63 456.693 1365.95C455.618 1367.36 454.708 1367.81 453.963 1367.32C453.218 1366.82 452.763 1366.03 452.598 1364.96C452.432 1363.88 452.102 1363.34 451.605 1363.34C450.943 1363.34 449.702 1364.21 447.882 1365.95C443.58 1370 441.429 1375.05 441.429 1381.09C441.429 1382.83 441.512 1384.15 441.677 1385.06C442.339 1389.86 444.035 1393.91 446.765 1397.22C449.578 1400.53 452.639 1402.19 455.949 1402.19C456.031 1402.19 456.238 1402.19 456.569 1402.19C456.9 1402.1 457.107 1402.06 457.19 1402.06C460.83 1401.48 463.643 1400.7 465.628 1399.71C467.697 1398.63 469.806 1396.85 471.958 1394.37C475.267 1390.56 476.922 1386.63 476.922 1382.58C476.922 1380.26 476.011 1376.83 474.191 1372.28C472.454 1367.73 470.882 1364.87 469.476 1363.72ZM454.211 1348.33C454.294 1348.08 454.914 1347.96 456.073 1347.96C460.458 1347.96 463.932 1348.66 466.497 1350.07C468.317 1351.06 470.137 1351.72 471.958 1352.05C473.778 1352.38 475.97 1353.91 478.535 1356.64C481.265 1359.37 482.63 1360.94 482.63 1361.36C482.63 1361.69 483.044 1362.85 483.871 1364.83C486.436 1370.38 487.801 1375.22 487.966 1379.35V1381.21C487.966 1383.7 487.801 1386.14 487.47 1388.54C487.139 1390.94 486.767 1392.3 486.353 1392.63C486.27 1392.71 486.105 1392.96 485.857 1393.38C485.691 1393.71 485.402 1394.24 484.988 1394.99C484.574 1395.73 484.202 1396.35 483.871 1396.85C482.961 1398.51 481.306 1400.7 478.907 1403.43C476.508 1406.08 475.019 1407.4 474.44 1407.4C474.026 1407.4 473.323 1407.81 472.33 1408.64C471.254 1409.55 470.344 1410.01 469.6 1410.01C468.607 1410.01 467.738 1410.25 466.994 1410.75C466.414 1411.16 465.422 1411.45 464.015 1411.62C462.857 1411.62 462.112 1411.74 461.781 1411.99C461.45 1412.16 460.168 1412.24 457.934 1412.24H455.452C451.564 1412.16 448.379 1411.49 445.897 1410.25C443.166 1408.68 440.933 1406.99 439.195 1405.17C437.54 1403.43 435.803 1401.15 433.983 1398.34C432.246 1395.53 431.377 1393.67 431.377 1392.76C431.377 1391.93 431.253 1391.39 431.005 1391.14C430.343 1390.48 430.012 1387.46 430.012 1382.08C430.012 1374.8 431.625 1368.64 434.852 1363.59C435.844 1362.02 437.665 1359.87 440.312 1357.14C443.042 1354.41 444.697 1353.04 445.276 1353.04C445.772 1353.04 446.352 1352.63 447.013 1351.8C447.758 1351.06 449.082 1350.4 450.985 1349.82C452.888 1349.16 453.963 1348.66 454.211 1348.33ZM541.478 1349.57C542.305 1348.99 543.05 1348.7 543.712 1348.7C544.953 1348.7 545.987 1349.98 546.814 1352.55C547.062 1353.46 547.352 1354.28 547.683 1355.03C548.014 1355.69 548.221 1356.19 548.303 1356.52C548.386 1356.77 548.469 1357.26 548.551 1358.01C548.717 1358.75 548.841 1359.87 548.924 1361.36C549.089 1364.25 549.255 1365.83 549.42 1366.07C549.503 1366.24 549.71 1370.25 550.041 1378.11C550.123 1379.77 550.165 1381.83 550.165 1384.32C550.165 1385.64 550.123 1386.76 550.041 1387.67C550.041 1388.58 549.958 1389.49 549.792 1390.4C549.71 1391.23 549.586 1391.85 549.42 1392.26C549.337 1392.67 549.131 1393.46 548.8 1394.62C548.551 1395.78 548.345 1396.69 548.179 1397.35C547.766 1399.75 546.525 1402.31 544.456 1405.04C542.388 1407.69 540.071 1409.84 537.507 1411.49C533.949 1413.73 530.267 1414.85 526.462 1414.85C524.476 1414.85 522.325 1414.6 520.008 1414.1C517.857 1413.69 515.541 1412.28 513.059 1409.88C510.577 1407.48 508.674 1404.75 507.35 1401.69C505.613 1397.8 504.703 1395.65 504.62 1395.24C504.537 1394.49 504.206 1393.38 503.627 1391.89C503.214 1390.73 502.883 1389.57 502.634 1388.41C502.469 1387.17 502.304 1385.56 502.138 1383.57C501.973 1381.5 501.849 1379.97 501.766 1378.98C501.518 1376.5 501.393 1374.31 501.393 1372.4C501.393 1370.33 501.559 1367.56 501.89 1364.09C502.221 1360.53 502.428 1358.17 502.51 1357.01C502.593 1354.95 502.883 1353.5 503.379 1352.67C503.875 1351.84 504.827 1351.26 506.233 1350.93C506.316 1350.93 506.399 1350.93 506.482 1350.93C506.647 1350.85 506.771 1350.81 506.854 1350.81C507.681 1350.81 508.384 1351.18 508.964 1351.93C509.625 1352.59 509.956 1353.37 509.956 1354.28C509.956 1355.44 510.122 1356.19 510.453 1356.52C510.701 1356.77 510.908 1357.8 511.073 1359.62C511.901 1374.93 513.348 1385.02 515.417 1389.9C516.079 1391.47 516.285 1392.42 516.037 1392.76C515.789 1393.17 515.872 1393.38 516.285 1393.38C516.699 1393.38 517.154 1394.08 517.651 1395.49C518.23 1397.39 519.471 1399.17 521.374 1400.82C523.276 1402.48 525.179 1403.47 527.082 1403.8C527.33 1403.88 527.703 1403.92 528.199 1403.92C529.026 1403.92 530.226 1403.18 531.798 1401.69C533.453 1400.04 534.28 1398.96 534.28 1398.46C534.28 1398.05 534.487 1397.84 534.9 1397.84C535.314 1397.84 535.521 1397.43 535.521 1396.6C535.521 1395.69 535.935 1394.29 536.762 1392.38C537.507 1390.23 537.92 1386.05 538.003 1379.85C538.168 1372.65 538.334 1368.51 538.499 1367.44C538.83 1365.21 538.954 1364.01 538.872 1363.84C538.706 1362.85 538.623 1361.94 538.623 1361.11C538.623 1358.88 538.913 1356.52 539.492 1354.04C540.071 1351.55 540.733 1350.07 541.478 1349.57ZM577.588 1349.07C582.552 1348.49 587.309 1348.2 591.859 1348.2C597.237 1348.2 600.753 1348.62 602.408 1349.44C603.484 1349.94 604.145 1350.44 604.394 1350.93C604.642 1351.35 604.766 1352.3 604.766 1353.79C604.931 1355.86 604.725 1356.89 604.145 1356.89C603.732 1356.89 603.525 1357.1 603.525 1357.51C603.525 1358.75 601.994 1359.66 598.933 1360.24C595.955 1360.74 590.784 1361.07 583.421 1361.23C578.705 1361.4 576.306 1361.52 576.223 1361.61C575.892 1361.94 575.52 1365.08 575.106 1371.04L574.858 1375.38H578.208H578.457C580.277 1375.38 582.221 1375.88 584.289 1376.87C586.358 1377.78 587.681 1378.82 588.261 1379.97C588.343 1380.06 588.385 1380.22 588.385 1380.47C588.385 1381.55 587.433 1382.99 585.53 1384.81C583.628 1386.63 582.056 1387.58 580.815 1387.67C578.912 1387.92 577.753 1388.08 577.34 1388.16C576.843 1388.33 576.512 1388.45 576.347 1388.54C576.264 1388.62 576.14 1388.87 575.975 1389.28C575.892 1389.69 575.851 1390.36 575.851 1391.27C575.851 1391.51 575.851 1392.05 575.851 1392.88C575.933 1393.71 575.975 1394.41 575.975 1394.99C576.14 1399.29 576.388 1401.61 576.719 1401.94C576.967 1402.19 579.491 1402.31 584.289 1402.31H588.757H592.232C597.692 1402.31 600.836 1402.52 601.663 1402.93C602.904 1403.59 604.063 1405.66 605.138 1409.14C605.221 1409.3 605.262 1409.51 605.262 1409.76C605.262 1410.42 604.6 1411.41 603.277 1412.74C601.126 1415.05 598.395 1416.21 595.086 1416.21C594.341 1416.21 593.804 1416.17 593.473 1416.09C589.998 1415.59 582.759 1415.18 571.755 1414.85C568.611 1414.68 566.998 1414.56 566.915 1414.47C565.674 1412.98 564.888 1411.7 564.557 1410.63C564.309 1409.55 564.185 1407.48 564.185 1404.42V1400.7V1397.97C564.185 1393.33 564.02 1390.77 563.689 1390.27C563.358 1389.86 563.192 1386.92 563.192 1381.46C563.192 1367.81 563.647 1359.95 564.557 1357.88C564.888 1356.89 564.847 1356.06 564.433 1355.4C563.937 1354.66 563.978 1354.28 564.557 1354.28C564.971 1354.28 565.178 1353.95 565.178 1353.29C565.178 1351.39 569.315 1349.98 577.588 1349.07ZM653.218 1361.98C652.805 1361.65 651.894 1361.36 650.488 1361.11C649.164 1360.86 647.51 1360.61 645.524 1360.37C643.621 1360.12 642.339 1359.91 641.677 1359.74L639.071 1359.25V1368.93C639.071 1375.46 639.154 1378.73 639.319 1378.73C639.402 1378.73 639.609 1378.77 639.94 1378.86C640.353 1378.86 640.891 1378.9 641.553 1378.98C642.215 1378.98 642.794 1378.98 643.29 1378.98C646.186 1379.15 647.923 1379.31 648.502 1379.48C648.751 1379.56 649.04 1379.6 649.371 1379.6C650.281 1379.6 651.564 1378.82 653.218 1377.24C655.038 1375.59 656.238 1374.18 656.817 1373.02C657.479 1371.78 657.975 1370 658.306 1367.69L658.679 1364.09L656.321 1363.22C654.501 1362.56 653.466 1362.14 653.218 1361.98ZM666.249 1397.47C666.249 1397.8 666.621 1398.51 667.366 1399.58C668.11 1400.66 668.483 1401.32 668.483 1401.57C668.483 1402.06 669.517 1403.39 671.585 1405.54C673.653 1407.61 674.936 1408.64 675.432 1408.64C676.011 1408.64 676.466 1409.22 676.797 1410.38C676.88 1410.63 676.921 1410.96 676.921 1411.37C676.921 1412.28 676.384 1413.15 675.308 1413.98C674.067 1415.05 673.033 1415.67 672.206 1415.84C672.04 1415.84 671.668 1415.84 671.089 1415.84C670.509 1415.84 670.096 1415.88 669.848 1415.96H669.599C667.945 1415.96 665.918 1415.18 663.519 1413.6C661.202 1411.95 660.002 1410.58 659.92 1409.51C659.92 1408.93 659.713 1408.64 659.299 1408.64C658.803 1408.64 658.555 1408.43 658.555 1408.02C658.555 1407.52 658.141 1406.86 657.314 1406.03C656.403 1404.96 655.617 1403.76 654.956 1402.44C654.211 1400.86 653.135 1399 651.729 1396.85C650.405 1394.62 649.495 1393.29 648.999 1392.88C648.42 1392.47 646.475 1392.09 643.166 1391.76L638.326 1391.39L638.202 1401.07C638.037 1407.77 637.747 1411.62 637.333 1412.61C636.175 1415.01 634.355 1416.21 631.873 1416.21C631.459 1416.21 631.128 1416.17 630.88 1416.09C629.805 1415.84 629.019 1415.42 628.522 1414.85C628.109 1414.18 627.736 1412.86 627.405 1410.87C627.24 1410.13 627.157 1407.36 627.157 1402.56C627.157 1387.92 627.612 1376.95 628.522 1369.67C628.771 1367.52 628.895 1365.83 628.895 1364.58C628.895 1362.52 628.605 1361.19 628.026 1360.61C627.695 1360.28 626.661 1360.03 624.923 1359.87C622.69 1359.7 620.828 1358.75 619.339 1357.01C618.843 1356.35 618.553 1355.86 618.47 1355.53C618.47 1355.19 618.636 1354.57 618.967 1353.66C619.711 1351.76 620.869 1350.52 622.441 1349.94C624.013 1349.28 627.074 1348.87 631.625 1348.7C632.866 1348.62 634.19 1348.58 635.596 1348.58C637.002 1348.49 638.078 1348.41 638.823 1348.33H639.815C639.981 1348.25 640.188 1348.2 640.436 1348.2C641.677 1348.2 644.076 1348.45 647.634 1348.95C651.191 1349.36 653.549 1349.69 654.707 1349.94C655.204 1350.11 655.7 1350.27 656.197 1350.44C656.776 1350.52 657.272 1350.6 657.686 1350.69C658.182 1350.77 658.472 1350.81 658.555 1350.81C659.63 1350.98 661.161 1351.68 663.146 1352.92C665.215 1354.16 666.249 1355.03 666.249 1355.53C666.249 1355.94 666.704 1356.73 667.614 1357.88C668.607 1359.04 669.103 1359.87 669.103 1360.37C669.103 1361.69 669.31 1362.68 669.724 1363.34C670.137 1363.84 670.344 1364.54 670.344 1365.45C670.344 1366.61 670.137 1368.23 669.724 1370.29C669.144 1373.93 668.524 1376.08 667.862 1376.75C667.366 1377.24 666.952 1377.99 666.621 1378.98C666.29 1379.89 665.09 1381.46 663.022 1383.7C660.954 1385.93 659.92 1387.13 659.92 1387.3C659.92 1387.54 660.499 1388.66 661.657 1390.65C662.898 1392.55 663.684 1393.67 664.015 1394C664.677 1394.66 665.008 1395.2 665.008 1395.61C665.008 1396.19 665.215 1396.48 665.628 1396.48C666.042 1396.48 666.249 1396.81 666.249 1397.47ZM748.528 1349.07C748.859 1348.74 751.837 1348.58 757.463 1348.58C763.503 1348.58 768.508 1348.78 772.479 1349.2C776.45 1349.61 779.222 1350.15 780.794 1350.81C782.366 1351.47 783.152 1352.46 783.152 1353.79C783.152 1354.04 783.069 1354.49 782.904 1355.15C782.573 1356.48 781.414 1357.43 779.429 1358.01C777.443 1358.5 774.051 1358.75 769.253 1358.75H762.427C759.283 1358.75 757.711 1358.92 757.711 1359.25C757.711 1359.33 757.794 1359.54 757.96 1359.87C758.291 1360.78 758.663 1365.25 759.076 1373.27C759.573 1381.21 759.862 1388.54 759.945 1395.24V1399.21C759.945 1404.83 759.697 1408.43 759.201 1410.01C758.704 1411.49 757.463 1412.74 755.478 1413.73C753.988 1414.39 752.871 1414.72 752.127 1414.72C750.638 1414.72 749.397 1413.81 748.404 1411.99C747.907 1411 747.577 1409.88 747.411 1408.64C747.246 1407.4 747.163 1404.59 747.163 1400.2V1389.28V1382.46C747.163 1373.27 746.915 1368.27 746.418 1367.44C745.922 1366.69 745.508 1365.91 745.177 1365.08C744.846 1364.25 743.771 1363.47 741.951 1362.72C740.213 1361.98 738.228 1361.57 735.994 1361.48C733.429 1361.32 730.699 1360.9 727.803 1360.24C724.908 1359.58 723.129 1358.96 722.467 1358.38C721.971 1357.97 721.722 1357.43 721.722 1356.77C721.722 1355.36 722.55 1354.16 724.204 1353.17C726.935 1351.43 733.346 1350.27 743.44 1349.69C746.584 1349.53 748.28 1349.32 748.528 1349.07ZM835.837 1363.72C834.265 1362.39 832.445 1361.73 830.377 1361.73C828.888 1361.73 827.812 1362.14 827.15 1362.97C826.488 1363.63 825.992 1363.96 825.661 1363.96C824.916 1363.96 824.048 1364.63 823.055 1365.95C821.979 1367.36 821.069 1367.81 820.325 1367.32C819.58 1366.82 819.125 1366.03 818.96 1364.96C818.794 1363.88 818.463 1363.34 817.967 1363.34C817.305 1363.34 816.064 1364.21 814.244 1365.95C809.942 1370 807.791 1375.05 807.791 1381.09C807.791 1382.83 807.873 1384.15 808.039 1385.06C808.701 1389.86 810.397 1393.91 813.127 1397.22C815.94 1400.53 819.001 1402.19 822.31 1402.19C822.393 1402.19 822.6 1402.19 822.931 1402.19C823.262 1402.1 823.469 1402.06 823.551 1402.06C827.192 1401.48 830.005 1400.7 831.99 1399.71C834.058 1398.63 836.168 1396.85 838.319 1394.37C841.629 1390.56 843.283 1386.63 843.283 1382.58C843.283 1380.26 842.373 1376.83 840.553 1372.28C838.816 1367.73 837.244 1364.87 835.837 1363.72ZM820.573 1348.33C820.656 1348.08 821.276 1347.96 822.434 1347.96C826.819 1347.96 830.294 1348.66 832.859 1350.07C834.679 1351.06 836.499 1351.72 838.319 1352.05C840.139 1352.38 842.332 1353.91 844.897 1356.64C847.627 1359.37 848.992 1360.94 848.992 1361.36C848.992 1361.69 849.405 1362.85 850.233 1364.83C852.798 1370.38 854.163 1375.22 854.328 1379.35V1381.21C854.328 1383.7 854.163 1386.14 853.832 1388.54C853.501 1390.94 853.128 1392.3 852.715 1392.63C852.632 1392.71 852.467 1392.96 852.218 1393.38C852.053 1393.71 851.763 1394.24 851.35 1394.99C850.936 1395.73 850.564 1396.35 850.233 1396.85C849.323 1398.51 847.668 1400.7 845.269 1403.43C842.87 1406.08 841.38 1407.4 840.801 1407.4C840.388 1407.4 839.684 1407.81 838.692 1408.64C837.616 1409.55 836.706 1410.01 835.961 1410.01C834.969 1410.01 834.1 1410.25 833.355 1410.75C832.776 1411.16 831.783 1411.45 830.377 1411.62C829.219 1411.62 828.474 1411.74 828.143 1411.99C827.812 1412.16 826.53 1412.24 824.296 1412.24H821.814C817.925 1412.16 814.74 1411.49 812.258 1410.25C809.528 1408.68 807.294 1406.99 805.557 1405.17C803.902 1403.43 802.165 1401.15 800.345 1398.34C798.607 1395.53 797.738 1393.67 797.738 1392.76C797.738 1391.93 797.614 1391.39 797.366 1391.14C796.704 1390.48 796.373 1387.46 796.373 1382.08C796.373 1374.8 797.987 1368.64 801.213 1363.59C802.206 1362.02 804.026 1359.87 806.674 1357.14C809.404 1354.41 811.059 1353.04 811.638 1353.04C812.134 1353.04 812.713 1352.63 813.375 1351.8C814.12 1351.06 815.443 1350.4 817.346 1349.82C819.249 1349.16 820.325 1348.66 820.573 1348.33ZM910.57 1350.44C910.57 1349.86 911.231 1349.11 912.555 1348.2C913.879 1347.29 915.079 1346.84 916.154 1346.84C916.568 1346.84 916.857 1346.88 917.023 1346.96C917.767 1347.05 918.719 1347.79 919.877 1349.2C921.035 1350.52 921.821 1351.76 922.235 1352.92C923.559 1357.64 924.221 1360.99 924.221 1362.97C924.221 1363.14 924.179 1363.43 924.097 1363.84C924.097 1364.17 924.097 1364.42 924.097 1364.58C923.766 1366.65 923.766 1367.77 924.097 1367.94C924.262 1368.1 924.345 1369.22 924.345 1371.29C924.345 1379.06 923.89 1386.22 922.98 1392.76C922.814 1393.91 922.483 1396.97 921.987 1401.94C921.573 1407.48 920.456 1410.92 918.636 1412.24C918.057 1412.74 916.609 1413.15 914.293 1413.48C914.044 1413.48 913.755 1413.52 913.424 1413.6C913.093 1413.6 912.845 1413.6 912.679 1413.6C911.604 1413.6 910.57 1413.07 909.577 1411.99C908.584 1410.92 907.012 1408.85 904.861 1405.79C902.71 1402.64 901.179 1400.2 900.269 1398.46C899.773 1397.64 898.532 1395.4 896.546 1391.76C894.561 1388.04 892.906 1385.35 891.582 1383.7C890.341 1382.12 889.721 1381.13 889.721 1380.72C889.721 1380.39 888.728 1379.15 886.742 1376.99C884.674 1374.76 883.226 1373.02 882.399 1371.78C881.572 1370.46 880.951 1369.8 880.537 1369.8C880.289 1369.8 880.165 1370.09 880.165 1370.67C880.165 1370.83 880.248 1371.41 880.413 1372.4C880.827 1374.31 881.034 1379.89 881.034 1389.16C881.034 1398.67 880.827 1404.5 880.413 1406.65C880 1409.14 879.503 1410.79 878.924 1411.62C878.428 1412.36 877.269 1413.23 875.449 1414.22C874.705 1414.64 873.96 1414.85 873.216 1414.85C870.982 1414.85 869.741 1412.16 869.493 1406.78C868.831 1388.08 868.293 1377.57 867.879 1375.26C867.631 1373.52 867.507 1371.12 867.507 1368.06C867.507 1361.03 867.879 1356.68 868.624 1355.03L869.741 1352.42C870.237 1351.43 871.395 1350.48 873.216 1349.57C874.457 1349.07 875.573 1348.82 876.566 1348.82C878.965 1348.82 881.903 1350.73 885.377 1354.53C887.197 1356.44 888.645 1358.13 889.721 1359.62C890.879 1361.11 892.368 1362.81 894.188 1364.71C896.753 1367.44 898.036 1369.01 898.036 1369.42C898.036 1370 898.201 1370.29 898.532 1370.29C898.946 1370.29 900.062 1371.66 901.883 1374.39C903.703 1377.04 905.44 1379.89 907.095 1382.95C907.922 1384.61 908.832 1385.93 909.825 1386.92C910.073 1387.09 910.239 1387.21 910.321 1387.3C910.487 1387.38 910.611 1387.38 910.694 1387.3C910.776 1387.13 910.818 1386.92 910.818 1386.67C910.818 1386.43 910.818 1386.05 910.818 1385.56C910.818 1382.66 910.901 1380.35 911.066 1378.61C911.314 1374.47 911.438 1370 911.438 1365.21C911.438 1362.97 911.356 1360.74 911.19 1358.5C911.025 1356.19 910.859 1354.33 910.694 1352.92C910.611 1351.43 910.57 1350.6 910.57 1350.44ZM995.395 1349.07C995.726 1348.74 998.704 1348.58 1004.33 1348.58C1010.37 1348.58 1015.37 1348.78 1019.35 1349.2C1023.32 1349.61 1026.09 1350.15 1027.66 1350.81C1029.23 1351.47 1030.02 1352.46 1030.02 1353.79C1030.02 1354.04 1029.94 1354.49 1029.77 1355.15C1029.44 1356.48 1028.28 1357.43 1026.3 1358.01C1024.31 1358.5 1020.92 1358.75 1016.12 1358.75H1009.29C1006.15 1358.75 1004.58 1358.92 1004.58 1359.25C1004.58 1359.33 1004.66 1359.54 1004.83 1359.87C1005.16 1360.78 1005.53 1365.25 1005.94 1373.27C1006.44 1381.21 1006.73 1388.54 1006.81 1395.24V1399.21C1006.81 1404.83 1006.56 1408.43 1006.07 1410.01C1005.57 1411.49 1004.33 1412.74 1002.34 1413.73C1000.86 1414.39 999.738 1414.72 998.994 1414.72C997.505 1414.72 996.264 1413.81 995.271 1411.99C994.774 1411 994.443 1409.88 994.278 1408.64C994.113 1407.4 994.03 1404.59 994.03 1400.2V1389.28V1382.46C994.03 1373.27 993.782 1368.27 993.285 1367.44C992.789 1366.69 992.375 1365.91 992.044 1365.08C991.713 1364.25 990.638 1363.47 988.818 1362.72C987.08 1361.98 985.095 1361.57 982.861 1361.48C980.296 1361.32 977.566 1360.9 974.67 1360.24C971.775 1359.58 969.996 1358.96 969.334 1358.38C968.837 1357.97 968.589 1357.43 968.589 1356.77C968.589 1355.36 969.417 1354.16 971.071 1353.17C973.801 1351.43 980.213 1350.27 990.307 1349.69C993.451 1349.53 995.147 1349.32 995.395 1349.07ZM1057.26 1349.07C1062.23 1348.49 1066.98 1348.2 1071.54 1348.2C1076.91 1348.2 1080.43 1348.62 1082.08 1349.44C1083.16 1349.94 1083.82 1350.44 1084.07 1350.93C1084.32 1351.35 1084.44 1352.3 1084.44 1353.79C1084.61 1355.86 1084.4 1356.89 1083.82 1356.89C1083.41 1356.89 1083.2 1357.1 1083.2 1357.51C1083.2 1358.75 1081.67 1359.66 1078.61 1360.24C1075.63 1360.74 1070.46 1361.07 1063.1 1361.23C1058.38 1361.4 1055.98 1361.52 1055.9 1361.61C1055.57 1361.94 1055.2 1365.08 1054.78 1371.04L1054.53 1375.38H1057.88H1058.13C1059.95 1375.38 1061.9 1375.88 1063.96 1376.87C1066.03 1377.78 1067.36 1378.82 1067.94 1379.97C1068.02 1380.06 1068.06 1380.22 1068.06 1380.47C1068.06 1381.55 1067.11 1382.99 1065.21 1384.81C1063.3 1386.63 1061.73 1387.58 1060.49 1387.67C1058.59 1387.92 1057.43 1388.08 1057.02 1388.16C1056.52 1388.33 1056.19 1388.45 1056.02 1388.54C1055.94 1388.62 1055.82 1388.87 1055.65 1389.28C1055.57 1389.69 1055.53 1390.36 1055.53 1391.27C1055.53 1391.51 1055.53 1392.05 1055.53 1392.88C1055.61 1393.71 1055.65 1394.41 1055.65 1394.99C1055.82 1399.29 1056.06 1401.61 1056.39 1401.94C1056.64 1402.19 1059.17 1402.31 1063.96 1402.31H1068.43H1071.91C1077.37 1402.31 1080.51 1402.52 1081.34 1402.93C1082.58 1403.59 1083.74 1405.66 1084.81 1409.14C1084.9 1409.3 1084.94 1409.51 1084.94 1409.76C1084.94 1410.42 1084.28 1411.41 1082.95 1412.74C1080.8 1415.05 1078.07 1416.21 1074.76 1416.21C1074.02 1416.21 1073.48 1416.17 1073.15 1416.09C1069.67 1415.59 1062.43 1415.18 1051.43 1414.85C1048.29 1414.68 1046.67 1414.56 1046.59 1414.47C1045.35 1412.98 1044.56 1411.7 1044.23 1410.63C1043.98 1409.55 1043.86 1407.48 1043.86 1404.42V1400.7V1397.97C1043.86 1393.33 1043.7 1390.77 1043.36 1390.27C1043.03 1389.86 1042.87 1386.92 1042.87 1381.46C1042.87 1367.81 1043.32 1359.95 1044.23 1357.88C1044.56 1356.89 1044.52 1356.06 1044.11 1355.4C1043.61 1354.66 1043.65 1354.28 1044.23 1354.28C1044.65 1354.28 1044.85 1353.95 1044.85 1353.29C1044.85 1351.39 1048.99 1349.98 1057.26 1349.07ZM1101.12 1350.56C1102.37 1349.24 1103.44 1348.58 1104.35 1348.58C1105.01 1348.58 1105.88 1348.99 1106.96 1349.82C1109.03 1351.31 1110.06 1356.31 1110.06 1364.83C1110.06 1372.53 1110.14 1377.66 1110.31 1380.22C1110.97 1390.31 1111.3 1397.18 1111.3 1400.82C1111.3 1401.48 1111.71 1401.9 1112.54 1402.06C1113.37 1402.15 1116.14 1402.23 1120.86 1402.31C1130.54 1402.48 1136.2 1402.6 1137.86 1402.68C1139.6 1402.77 1140.63 1403.1 1140.96 1403.68C1141.21 1404.09 1141.33 1404.59 1141.33 1405.17C1141.33 1406.9 1140.17 1408.85 1137.86 1411C1135.95 1412.74 1133.51 1413.85 1130.54 1414.35C1128.47 1414.76 1127.02 1414.97 1126.19 1414.97C1125.86 1414.97 1125.65 1414.93 1125.57 1414.85C1124.74 1414.27 1120.44 1413.89 1112.67 1413.73C1109.44 1413.56 1107.62 1413.36 1107.21 1413.11C1106.79 1412.86 1105.67 1412.57 1103.85 1412.24C1102.12 1411.91 1101.08 1411.25 1100.75 1410.25C1100.42 1409.18 1100.01 1408.43 1099.51 1408.02C1099.1 1407.69 1098.81 1405.83 1098.64 1402.44C1098.48 1399.13 1098.31 1397.35 1098.15 1397.1C1098.15 1397.02 1097.98 1392.22 1097.65 1382.7C1097.65 1381.71 1097.61 1380.47 1097.53 1378.98C1097.53 1377.41 1097.53 1376.33 1097.53 1375.75C1097.53 1371.2 1097.81 1367.03 1098.39 1363.22C1098.97 1360.16 1099.26 1357.64 1099.26 1355.65V1354.53C1099.26 1353.13 1099.88 1351.8 1101.12 1350.56ZM1169 1349.07C1173.97 1348.49 1178.72 1348.2 1183.27 1348.2C1188.65 1348.2 1192.17 1348.62 1193.82 1349.44C1194.9 1349.94 1195.56 1350.44 1195.81 1350.93C1196.06 1351.35 1196.18 1352.3 1196.18 1353.79C1196.35 1355.86 1196.14 1356.89 1195.56 1356.89C1195.15 1356.89 1194.94 1357.1 1194.94 1357.51C1194.94 1358.75 1193.41 1359.66 1190.35 1360.24C1187.37 1360.74 1182.2 1361.07 1174.83 1361.23C1170.12 1361.4 1167.72 1361.52 1167.64 1361.61C1167.31 1361.94 1166.93 1365.08 1166.52 1371.04L1166.27 1375.38H1169.62H1169.87C1171.69 1375.38 1173.64 1375.88 1175.7 1376.87C1177.77 1377.78 1179.1 1378.82 1179.67 1379.97C1179.76 1380.06 1179.8 1380.22 1179.8 1380.47C1179.8 1381.55 1178.85 1382.99 1176.94 1384.81C1175.04 1386.63 1173.47 1387.58 1172.23 1387.67C1170.33 1387.92 1169.17 1388.08 1168.75 1388.16C1168.26 1388.33 1167.93 1388.45 1167.76 1388.54C1167.68 1388.62 1167.55 1388.87 1167.39 1389.28C1167.31 1389.69 1167.26 1390.36 1167.26 1391.27C1167.26 1391.51 1167.26 1392.05 1167.26 1392.88C1167.35 1393.71 1167.39 1394.41 1167.39 1394.99C1167.55 1399.29 1167.8 1401.61 1168.13 1401.94C1168.38 1402.19 1170.9 1402.31 1175.7 1402.31H1180.17H1183.65C1189.11 1402.31 1192.25 1402.52 1193.08 1402.93C1194.32 1403.59 1195.48 1405.66 1196.55 1409.14C1196.63 1409.3 1196.68 1409.51 1196.68 1409.76C1196.68 1410.42 1196.01 1411.41 1194.69 1412.74C1192.54 1415.05 1189.81 1416.21 1186.5 1416.21C1185.76 1416.21 1185.22 1416.17 1184.89 1416.09C1181.41 1415.59 1174.17 1415.18 1163.17 1414.85C1160.03 1414.68 1158.41 1414.56 1158.33 1414.47C1157.09 1412.98 1156.3 1411.7 1155.97 1410.63C1155.72 1409.55 1155.6 1407.48 1155.6 1404.42V1400.7V1397.97C1155.6 1393.33 1155.43 1390.77 1155.1 1390.27C1154.77 1389.86 1154.61 1386.92 1154.61 1381.46C1154.61 1367.81 1155.06 1359.95 1155.97 1357.88C1156.3 1356.89 1156.26 1356.06 1155.85 1355.4C1155.35 1354.66 1155.39 1354.28 1155.97 1354.28C1156.39 1354.28 1156.59 1353.95 1156.59 1353.29C1156.59 1351.39 1160.73 1349.98 1169 1349.07ZM1230.24 1360.12C1229.49 1360.12 1228.54 1359.87 1227.38 1359.37L1225.77 1358.88L1225.89 1368.68C1225.98 1374.39 1226.22 1377.57 1226.64 1378.24C1226.97 1378.9 1228.33 1379.35 1230.73 1379.6C1230.82 1379.6 1230.94 1379.6 1231.11 1379.6C1231.35 1379.6 1231.64 1379.64 1231.97 1379.73C1232.39 1379.73 1232.68 1379.73 1232.84 1379.73C1236.4 1379.73 1239.5 1378.44 1242.15 1375.88C1243.89 1374.31 1244.76 1373.02 1244.76 1372.03C1244.76 1371.95 1244.72 1371.74 1244.63 1371.41C1244.63 1371.08 1244.63 1370.79 1244.63 1370.54C1244.47 1368.97 1243.85 1367.48 1242.77 1366.07C1241.7 1364.67 1240.5 1363.8 1239.17 1363.47C1238.92 1363.39 1237.52 1362.81 1234.95 1361.73C1232.47 1360.66 1230.9 1360.12 1230.24 1360.12ZM1213.86 1348.58C1214.85 1348.33 1217.45 1348.2 1221.67 1348.2H1225.4C1231.52 1348.37 1235.99 1348.99 1238.8 1350.07C1242.61 1351.39 1245.21 1352.46 1246.62 1353.29C1248.02 1354.04 1249.51 1355.19 1251.09 1356.77C1255.14 1360.82 1257.17 1365.41 1257.17 1370.54C1257.17 1373.27 1256.84 1375.34 1256.17 1376.75C1255.51 1378.15 1253.98 1379.97 1251.58 1382.21C1245.29 1388.08 1238.3 1391.14 1230.61 1391.39L1225.89 1391.64C1225.81 1391.72 1225.69 1394.74 1225.52 1400.7C1225.44 1404.59 1225.31 1407.15 1225.15 1408.39C1224.98 1409.63 1224.57 1410.71 1223.91 1411.62C1222.91 1412.94 1221.8 1413.6 1220.56 1413.6C1219.23 1413.6 1217.95 1413.03 1216.71 1411.87C1215.47 1410.79 1214.81 1409.26 1214.72 1407.28C1214.72 1406.86 1214.68 1406.08 1214.6 1404.92C1214.52 1403.68 1214.43 1402.81 1214.35 1402.31C1214.19 1399.66 1214.1 1395.2 1214.1 1388.91C1214.1 1374.1 1214.31 1366.07 1214.72 1364.83C1214.97 1364.09 1215.1 1363.34 1215.1 1362.6C1215.1 1360.7 1214.15 1359.25 1212.24 1358.26C1211.25 1357.76 1210.59 1357.3 1210.26 1356.89C1210.01 1356.39 1209.84 1355.4 1209.76 1353.91V1352.67C1209.76 1351.35 1210.01 1350.44 1210.5 1349.94C1211.08 1349.44 1212.2 1348.99 1213.86 1348.58ZM1273.2 1349.69C1273.62 1349.2 1274.28 1348.95 1275.19 1348.95C1276.76 1348.95 1278.37 1349.49 1280.03 1350.56C1280.85 1351.06 1281.39 1351.64 1281.64 1352.3C1281.89 1352.88 1282.22 1354.24 1282.63 1356.39C1283.13 1359.87 1283.38 1364.96 1283.38 1371.66L1283.5 1382.33L1285.61 1381.71C1286.27 1381.46 1288.96 1381.17 1293.68 1380.84C1301.37 1380.35 1305.88 1379.1 1307.2 1377.12C1308.69 1375.05 1309.6 1369.88 1309.94 1361.61C1310.02 1358.38 1310.31 1356.06 1310.8 1354.66C1311.38 1353.17 1312.33 1352.09 1313.66 1351.43C1314.32 1351.1 1314.9 1350.93 1315.4 1350.93C1315.89 1350.93 1316.68 1351.22 1317.75 1351.8C1319.16 1352.63 1320.11 1353.87 1320.61 1355.53C1321.1 1357.18 1321.44 1360.2 1321.6 1364.58C1322.18 1383.7 1322.47 1394.62 1322.47 1397.35C1322.47 1401.9 1322.39 1404.96 1322.22 1406.53C1321.89 1409.1 1321.06 1411.16 1319.74 1412.74C1318.42 1414.22 1317.17 1414.97 1316.02 1414.97C1315.02 1414.97 1313.86 1414.43 1312.54 1413.36C1310.39 1411.78 1309.31 1407.56 1309.31 1400.7V1398.71L1309.44 1392.38L1307.45 1392.51C1307.12 1392.51 1306.58 1392.55 1305.84 1392.63C1305.18 1392.63 1304.72 1392.67 1304.47 1392.76C1303.73 1392.76 1303.36 1392.96 1303.36 1393.38C1303.36 1393.79 1302.53 1394 1300.88 1394C1298.56 1394 1295.71 1394.29 1292.31 1394.87C1288.92 1395.36 1286.73 1395.9 1285.74 1396.48L1283.87 1397.6L1284 1403.92C1284 1408.14 1283.54 1410.96 1282.63 1412.36C1281.72 1413.77 1281.1 1414.47 1280.77 1414.47C1280.44 1414.47 1279.9 1414.76 1279.16 1415.34C1278.5 1416 1277.55 1415.96 1276.3 1415.22C1274.98 1414.39 1274.15 1413.77 1273.82 1413.36C1273.41 1412.94 1272.75 1410.17 1271.84 1405.04C1271.01 1400.08 1270.51 1390.52 1270.35 1376.37C1270.35 1374.55 1270.31 1372.36 1270.22 1369.8C1270.22 1367.15 1270.22 1365.37 1270.22 1364.46C1270.22 1359.25 1270.39 1355.9 1270.72 1354.41C1271.13 1352.84 1271.96 1351.26 1273.2 1349.69ZM1375.26 1363.72C1373.69 1362.39 1371.87 1361.73 1369.8 1361.73C1368.31 1361.73 1367.24 1362.14 1366.57 1362.97C1365.91 1363.63 1365.41 1363.96 1365.08 1363.96C1364.34 1363.96 1363.47 1364.63 1362.48 1365.95C1361.4 1367.36 1360.49 1367.81 1359.75 1367.32C1359 1366.82 1358.55 1366.03 1358.38 1364.96C1358.22 1363.88 1357.89 1363.34 1357.39 1363.34C1356.73 1363.34 1355.49 1364.21 1353.67 1365.95C1349.36 1370 1347.21 1375.05 1347.21 1381.09C1347.21 1382.83 1347.3 1384.15 1347.46 1385.06C1348.12 1389.86 1349.82 1393.91 1352.55 1397.22C1355.36 1400.53 1358.42 1402.19 1361.73 1402.19C1361.82 1402.19 1362.02 1402.19 1362.35 1402.19C1362.68 1402.1 1362.89 1402.06 1362.97 1402.06C1366.61 1401.48 1369.43 1400.7 1371.41 1399.71C1373.48 1398.63 1375.59 1396.85 1377.74 1394.37C1381.05 1390.56 1382.71 1386.63 1382.71 1382.58C1382.71 1380.26 1381.8 1376.83 1379.98 1372.28C1378.24 1367.73 1376.67 1364.87 1375.26 1363.72ZM1360 1348.33C1360.08 1348.08 1360.7 1347.96 1361.86 1347.96C1366.24 1347.96 1369.72 1348.66 1372.28 1350.07C1374.1 1351.06 1375.92 1351.72 1377.74 1352.05C1379.56 1352.38 1381.75 1353.91 1384.32 1356.64C1387.05 1359.37 1388.41 1360.94 1388.41 1361.36C1388.41 1361.69 1388.83 1362.85 1389.66 1364.83C1392.22 1370.38 1393.59 1375.22 1393.75 1379.35V1381.21C1393.75 1383.7 1393.59 1386.14 1393.25 1388.54C1392.92 1390.94 1392.55 1392.3 1392.14 1392.63C1392.06 1392.71 1391.89 1392.96 1391.64 1393.38C1391.48 1393.71 1391.19 1394.24 1390.77 1394.99C1390.36 1395.73 1389.99 1396.35 1389.66 1396.85C1388.75 1398.51 1387.09 1400.7 1384.69 1403.43C1382.29 1406.08 1380.8 1407.4 1380.22 1407.4C1379.81 1407.4 1379.11 1407.81 1378.11 1408.64C1377.04 1409.55 1376.13 1410.01 1375.38 1410.01C1374.39 1410.01 1373.52 1410.25 1372.78 1410.75C1372.2 1411.16 1371.21 1411.45 1369.8 1411.62C1368.64 1411.62 1367.9 1411.74 1367.57 1411.99C1367.24 1412.16 1365.95 1412.24 1363.72 1412.24H1361.24C1357.35 1412.16 1354.16 1411.49 1351.68 1410.25C1348.95 1408.68 1346.72 1406.99 1344.98 1405.17C1343.33 1403.43 1341.59 1401.15 1339.77 1398.34C1338.03 1395.53 1337.16 1393.67 1337.16 1392.76C1337.16 1391.93 1337.04 1391.39 1336.79 1391.14C1336.13 1390.48 1335.8 1387.46 1335.8 1382.08C1335.8 1374.8 1337.41 1368.64 1340.64 1363.59C1341.63 1362.02 1343.45 1359.87 1346.1 1357.14C1348.83 1354.41 1350.48 1353.04 1351.06 1353.04C1351.56 1353.04 1352.14 1352.63 1352.8 1351.8C1353.54 1351.06 1354.87 1350.4 1356.77 1349.82C1358.67 1349.16 1359.75 1348.66 1360 1348.33ZM1449.99 1350.44C1449.99 1349.86 1450.65 1349.11 1451.98 1348.2C1453.3 1347.29 1454.5 1346.84 1455.58 1346.84C1455.99 1346.84 1456.28 1346.88 1456.45 1346.96C1457.19 1347.05 1458.14 1347.79 1459.3 1349.2C1460.46 1350.52 1461.24 1351.76 1461.66 1352.92C1462.98 1357.64 1463.64 1360.99 1463.64 1362.97C1463.64 1363.14 1463.6 1363.43 1463.52 1363.84C1463.52 1364.17 1463.52 1364.42 1463.52 1364.58C1463.19 1366.65 1463.19 1367.77 1463.52 1367.94C1463.68 1368.1 1463.77 1369.22 1463.77 1371.29C1463.77 1379.06 1463.31 1386.22 1462.4 1392.76C1462.24 1393.91 1461.91 1396.97 1461.41 1401.94C1461 1407.48 1459.88 1410.92 1458.06 1412.24C1457.48 1412.74 1456.03 1413.15 1453.72 1413.48C1453.47 1413.48 1453.18 1413.52 1452.85 1413.6C1452.52 1413.6 1452.27 1413.6 1452.1 1413.6C1451.03 1413.6 1449.99 1413.07 1449 1411.99C1448.01 1410.92 1446.44 1408.85 1444.28 1405.79C1442.13 1402.64 1440.6 1400.2 1439.69 1398.46C1439.2 1397.64 1437.95 1395.4 1435.97 1391.76C1433.98 1388.04 1432.33 1385.35 1431.01 1383.7C1429.76 1382.12 1429.14 1381.13 1429.14 1380.72C1429.14 1380.39 1428.15 1379.15 1426.17 1376.99C1424.1 1374.76 1422.65 1373.02 1421.82 1371.78C1420.99 1370.46 1420.37 1369.8 1419.96 1369.8C1419.71 1369.8 1419.59 1370.09 1419.59 1370.67C1419.59 1370.83 1419.67 1371.41 1419.84 1372.4C1420.25 1374.31 1420.46 1379.89 1420.46 1389.16C1420.46 1398.67 1420.25 1404.5 1419.84 1406.65C1419.42 1409.14 1418.93 1410.79 1418.35 1411.62C1417.85 1412.36 1416.69 1413.23 1414.87 1414.22C1414.13 1414.64 1413.38 1414.85 1412.64 1414.85C1410.4 1414.85 1409.16 1412.16 1408.92 1406.78C1408.25 1388.08 1407.72 1377.57 1407.3 1375.26C1407.05 1373.52 1406.93 1371.12 1406.93 1368.06C1406.93 1361.03 1407.3 1356.68 1408.05 1355.03L1409.16 1352.42C1409.66 1351.43 1410.82 1350.48 1412.64 1349.57C1413.88 1349.07 1415 1348.82 1415.99 1348.82C1418.39 1348.82 1421.33 1350.73 1424.8 1354.53C1426.62 1356.44 1428.07 1358.13 1429.14 1359.62C1430.3 1361.11 1431.79 1362.81 1433.61 1364.71C1436.18 1367.44 1437.46 1369.01 1437.46 1369.42C1437.46 1370 1437.62 1370.29 1437.95 1370.29C1438.37 1370.29 1439.49 1371.66 1441.31 1374.39C1443.13 1377.04 1444.86 1379.89 1446.52 1382.95C1447.35 1384.61 1448.26 1385.93 1449.25 1386.92C1449.5 1387.09 1449.66 1387.21 1449.74 1387.3C1449.91 1387.38 1450.03 1387.38 1450.12 1387.3C1450.2 1387.13 1450.24 1386.92 1450.24 1386.67C1450.24 1386.43 1450.24 1386.05 1450.24 1385.56C1450.24 1382.66 1450.32 1380.35 1450.49 1378.61C1450.74 1374.47 1450.86 1370 1450.86 1365.21C1450.86 1362.97 1450.78 1360.74 1450.61 1358.5C1450.45 1356.19 1450.28 1354.33 1450.12 1352.92C1450.03 1351.43 1449.99 1350.6 1449.99 1350.44ZM1490.89 1349.07C1495.85 1348.49 1500.61 1348.2 1505.16 1348.2C1510.54 1348.2 1514.05 1348.62 1515.71 1349.44C1516.78 1349.94 1517.44 1350.44 1517.69 1350.93C1517.94 1351.35 1518.06 1352.3 1518.06 1353.79C1518.23 1355.86 1518.02 1356.89 1517.44 1356.89C1517.03 1356.89 1516.82 1357.1 1516.82 1357.51C1516.82 1358.75 1515.29 1359.66 1512.23 1360.24C1509.25 1360.74 1504.08 1361.07 1496.72 1361.23C1492 1361.4 1489.6 1361.52 1489.52 1361.61C1489.19 1361.94 1488.82 1365.08 1488.4 1371.04L1488.16 1375.38H1491.51H1491.76C1493.58 1375.38 1495.52 1375.88 1497.59 1376.87C1499.66 1377.78 1500.98 1378.82 1501.56 1379.97C1501.64 1380.06 1501.68 1380.22 1501.68 1380.47C1501.68 1381.55 1500.73 1382.99 1498.83 1384.81C1496.93 1386.63 1495.35 1387.58 1494.11 1387.67C1492.21 1387.92 1491.05 1388.08 1490.64 1388.16C1490.14 1388.33 1489.81 1388.45 1489.65 1388.54C1489.56 1388.62 1489.44 1388.87 1489.27 1389.28C1489.19 1389.69 1489.15 1390.36 1489.15 1391.27C1489.15 1391.51 1489.15 1392.05 1489.15 1392.88C1489.23 1393.71 1489.27 1394.41 1489.27 1394.99C1489.44 1399.29 1489.69 1401.61 1490.02 1401.94C1490.27 1402.19 1492.79 1402.31 1497.59 1402.31H1502.06H1505.53C1510.99 1402.31 1514.13 1402.52 1514.96 1402.93C1516.2 1403.59 1517.36 1405.66 1518.44 1409.14C1518.52 1409.3 1518.56 1409.51 1518.56 1409.76C1518.56 1410.42 1517.9 1411.41 1516.58 1412.74C1514.42 1415.05 1511.69 1416.21 1508.38 1416.21C1507.64 1416.21 1507.1 1416.17 1506.77 1416.09C1503.3 1415.59 1496.06 1415.18 1485.05 1414.85C1481.91 1414.68 1480.3 1414.56 1480.21 1414.47C1478.97 1412.98 1478.19 1411.7 1477.86 1410.63C1477.61 1409.55 1477.48 1407.48 1477.48 1404.42V1400.7V1397.97C1477.48 1393.33 1477.32 1390.77 1476.99 1390.27C1476.66 1389.86 1476.49 1386.92 1476.49 1381.46C1476.49 1367.81 1476.95 1359.95 1477.86 1357.88C1478.19 1356.89 1478.15 1356.06 1477.73 1355.4C1477.24 1354.66 1477.28 1354.28 1477.86 1354.28C1478.27 1354.28 1478.48 1353.95 1478.48 1353.29C1478.48 1351.39 1482.61 1349.98 1490.89 1349.07ZM1583.15 1360.12C1582.4 1360.12 1581.45 1359.87 1580.29 1359.37L1578.68 1358.88L1578.8 1368.68C1578.89 1374.39 1579.13 1377.57 1579.55 1378.24C1579.88 1378.9 1581.24 1379.35 1583.64 1379.6C1583.73 1379.6 1583.85 1379.6 1584.01 1379.6C1584.26 1379.6 1584.55 1379.64 1584.88 1379.73C1585.3 1379.73 1585.59 1379.73 1585.75 1379.73C1589.31 1379.73 1592.41 1378.44 1595.06 1375.88C1596.8 1374.31 1597.67 1373.02 1597.67 1372.03C1597.67 1371.95 1597.62 1371.74 1597.54 1371.41C1597.54 1371.08 1597.54 1370.79 1597.54 1370.54C1597.38 1368.97 1596.76 1367.48 1595.68 1366.07C1594.6 1364.67 1593.41 1363.8 1592.08 1363.47C1591.83 1363.39 1590.43 1362.81 1587.86 1361.73C1585.38 1360.66 1583.81 1360.12 1583.15 1360.12ZM1566.76 1348.58C1567.76 1348.33 1570.36 1348.2 1574.58 1348.2H1578.31C1584.43 1348.37 1588.9 1348.99 1591.71 1350.07C1595.51 1351.39 1598.12 1352.46 1599.53 1353.29C1600.93 1354.04 1602.42 1355.19 1603.99 1356.77C1608.05 1360.82 1610.08 1365.41 1610.08 1370.54C1610.08 1373.27 1609.74 1375.34 1609.08 1376.75C1608.42 1378.15 1606.89 1379.97 1604.49 1382.21C1598.2 1388.08 1591.21 1391.14 1583.52 1391.39L1578.8 1391.64C1578.72 1391.72 1578.6 1394.74 1578.43 1400.7C1578.35 1404.59 1578.22 1407.15 1578.06 1408.39C1577.89 1409.63 1577.48 1410.71 1576.82 1411.62C1575.82 1412.94 1574.71 1413.6 1573.47 1413.6C1572.14 1413.6 1570.86 1413.03 1569.62 1411.87C1568.38 1410.79 1567.72 1409.26 1567.63 1407.28C1567.63 1406.86 1567.59 1406.08 1567.51 1404.92C1567.43 1403.68 1567.34 1402.81 1567.26 1402.31C1567.1 1399.66 1567.01 1395.2 1567.01 1388.91C1567.01 1374.1 1567.22 1366.07 1567.63 1364.83C1567.88 1364.09 1568.01 1363.34 1568.01 1362.6C1568.01 1360.7 1567.05 1359.25 1565.15 1358.26C1564.16 1357.76 1563.5 1357.3 1563.17 1356.89C1562.92 1356.39 1562.75 1355.4 1562.67 1353.91V1352.67C1562.67 1351.35 1562.92 1350.44 1563.41 1349.94C1563.99 1349.44 1565.11 1348.99 1566.76 1348.58ZM1637.53 1349.07C1642.49 1348.49 1647.25 1348.2 1651.8 1348.2C1657.18 1348.2 1660.69 1348.62 1662.35 1349.44C1663.42 1349.94 1664.09 1350.44 1664.33 1350.93C1664.58 1351.35 1664.71 1352.3 1664.71 1353.79C1664.87 1355.86 1664.66 1356.89 1664.09 1356.89C1663.67 1356.89 1663.46 1357.1 1663.46 1357.51C1663.46 1358.75 1661.93 1359.66 1658.87 1360.24C1655.89 1360.74 1650.72 1361.07 1643.36 1361.23C1638.64 1361.4 1636.25 1361.52 1636.16 1361.61C1635.83 1361.94 1635.46 1365.08 1635.05 1371.04L1634.8 1375.38H1638.15H1638.4C1640.22 1375.38 1642.16 1375.88 1644.23 1376.87C1646.3 1377.78 1647.62 1378.82 1648.2 1379.97C1648.28 1380.06 1648.32 1380.22 1648.32 1380.47C1648.32 1381.55 1647.37 1382.99 1645.47 1384.81C1643.57 1386.63 1642 1387.58 1640.75 1387.67C1638.85 1387.92 1637.69 1388.08 1637.28 1388.16C1636.78 1388.33 1636.45 1388.45 1636.29 1388.54C1636.2 1388.62 1636.08 1388.87 1635.91 1389.28C1635.83 1389.69 1635.79 1390.36 1635.79 1391.27C1635.79 1391.51 1635.79 1392.05 1635.79 1392.88C1635.87 1393.71 1635.91 1394.41 1635.91 1394.99C1636.08 1399.29 1636.33 1401.61 1636.66 1401.94C1636.91 1402.19 1639.43 1402.31 1644.23 1402.31H1648.7H1652.17C1657.63 1402.31 1660.78 1402.52 1661.6 1402.93C1662.84 1403.59 1664 1405.66 1665.08 1409.14C1665.16 1409.3 1665.2 1409.51 1665.2 1409.76C1665.2 1410.42 1664.54 1411.41 1663.22 1412.74C1661.07 1415.05 1658.34 1416.21 1655.03 1416.21C1654.28 1416.21 1653.74 1416.17 1653.41 1416.09C1649.94 1415.59 1642.7 1415.18 1631.7 1414.85C1628.55 1414.68 1626.94 1414.56 1626.86 1414.47C1625.61 1412.98 1624.83 1411.7 1624.5 1410.63C1624.25 1409.55 1624.13 1407.48 1624.13 1404.42V1400.7V1397.97C1624.13 1393.33 1623.96 1390.77 1623.63 1390.27C1623.3 1389.86 1623.13 1386.92 1623.13 1381.46C1623.13 1367.81 1623.59 1359.95 1624.5 1357.88C1624.83 1356.89 1624.79 1356.06 1624.37 1355.4C1623.88 1354.66 1623.92 1354.28 1624.5 1354.28C1624.91 1354.28 1625.12 1353.95 1625.12 1353.29C1625.12 1351.39 1629.25 1349.98 1637.53 1349.07ZM1718.25 1349.57C1719.07 1348.99 1719.82 1348.7 1720.48 1348.7C1721.72 1348.7 1722.76 1349.98 1723.58 1352.55C1723.83 1353.46 1724.12 1354.28 1724.45 1355.03C1724.78 1355.69 1724.99 1356.19 1725.07 1356.52C1725.15 1356.77 1725.24 1357.26 1725.32 1358.01C1725.49 1358.75 1725.61 1359.87 1725.69 1361.36C1725.86 1364.25 1726.02 1365.83 1726.19 1366.07C1726.27 1366.24 1726.48 1370.25 1726.81 1378.11C1726.89 1379.77 1726.93 1381.83 1726.93 1384.32C1726.93 1385.64 1726.89 1386.76 1726.81 1387.67C1726.81 1388.58 1726.73 1389.49 1726.56 1390.4C1726.48 1391.23 1726.35 1391.85 1726.19 1392.26C1726.11 1392.67 1725.9 1393.46 1725.57 1394.62C1725.32 1395.78 1725.11 1396.69 1724.95 1397.35C1724.53 1399.75 1723.29 1402.31 1721.22 1405.04C1719.16 1407.69 1716.84 1409.84 1714.28 1411.49C1710.72 1413.73 1707.04 1414.85 1703.23 1414.85C1701.24 1414.85 1699.09 1414.6 1696.78 1414.1C1694.63 1413.69 1692.31 1412.28 1689.83 1409.88C1687.35 1407.48 1685.44 1404.75 1684.12 1401.69C1682.38 1397.8 1681.47 1395.65 1681.39 1395.24C1681.31 1394.49 1680.98 1393.38 1680.4 1391.89C1679.98 1390.73 1679.65 1389.57 1679.4 1388.41C1679.24 1387.17 1679.07 1385.56 1678.91 1383.57C1678.74 1381.5 1678.62 1379.97 1678.53 1378.98C1678.29 1376.5 1678.16 1374.31 1678.16 1372.4C1678.16 1370.33 1678.33 1367.56 1678.66 1364.09C1678.99 1360.53 1679.2 1358.17 1679.28 1357.01C1679.36 1354.95 1679.65 1353.5 1680.15 1352.67C1680.64 1351.84 1681.6 1351.26 1683 1350.93C1683.08 1350.93 1683.17 1350.93 1683.25 1350.93C1683.42 1350.85 1683.54 1350.81 1683.62 1350.81C1684.45 1350.81 1685.15 1351.18 1685.73 1351.93C1686.39 1352.59 1686.72 1353.37 1686.72 1354.28C1686.72 1355.44 1686.89 1356.19 1687.22 1356.52C1687.47 1356.77 1687.68 1357.8 1687.84 1359.62C1688.67 1374.93 1690.12 1385.02 1692.19 1389.9C1692.85 1391.47 1693.05 1392.42 1692.81 1392.76C1692.56 1393.17 1692.64 1393.38 1693.05 1393.38C1693.47 1393.38 1693.92 1394.08 1694.42 1395.49C1695 1397.39 1696.24 1399.17 1698.14 1400.82C1700.05 1402.48 1701.95 1403.47 1703.85 1403.8C1704.1 1403.88 1704.47 1403.92 1704.97 1403.92C1705.8 1403.92 1706.99 1403.18 1708.57 1401.69C1710.22 1400.04 1711.05 1398.96 1711.05 1398.46C1711.05 1398.05 1711.26 1397.84 1711.67 1397.84C1712.08 1397.84 1712.29 1397.43 1712.29 1396.6C1712.29 1395.69 1712.7 1394.29 1713.53 1392.38C1714.28 1390.23 1714.69 1386.05 1714.77 1379.85C1714.94 1372.65 1715.1 1368.51 1715.27 1367.44C1715.6 1365.21 1715.72 1364.01 1715.64 1363.84C1715.47 1362.85 1715.39 1361.94 1715.39 1361.11C1715.39 1358.88 1715.68 1356.52 1716.26 1354.04C1716.84 1351.55 1717.5 1350.07 1718.25 1349.57ZM1767.26 1349.07C1767.59 1348.74 1770.57 1348.58 1776.2 1348.58C1782.24 1348.58 1787.24 1348.78 1791.21 1349.2C1795.19 1349.61 1797.96 1350.15 1799.53 1350.81C1801.1 1351.47 1801.89 1352.46 1801.89 1353.79C1801.89 1354.04 1801.8 1354.49 1801.64 1355.15C1801.31 1356.48 1800.15 1357.43 1798.16 1358.01C1796.18 1358.5 1792.79 1358.75 1787.99 1358.75H1781.16C1778.02 1358.75 1776.45 1358.92 1776.45 1359.25C1776.45 1359.33 1776.53 1359.54 1776.69 1359.87C1777.03 1360.78 1777.4 1365.25 1777.81 1373.27C1778.31 1381.21 1778.6 1388.54 1778.68 1395.24V1399.21C1778.68 1404.83 1778.43 1408.43 1777.94 1410.01C1777.44 1411.49 1776.2 1412.74 1774.21 1413.73C1772.72 1414.39 1771.61 1414.72 1770.86 1414.72C1769.37 1414.72 1768.13 1413.81 1767.14 1411.99C1766.64 1411 1766.31 1409.88 1766.15 1408.64C1765.98 1407.4 1765.9 1404.59 1765.9 1400.2V1389.28V1382.46C1765.9 1373.27 1765.65 1368.27 1765.15 1367.44C1764.66 1366.69 1764.24 1365.91 1763.91 1365.08C1763.58 1364.25 1762.51 1363.47 1760.69 1362.72C1758.95 1361.98 1756.96 1361.57 1754.73 1361.48C1752.16 1361.32 1749.43 1360.9 1746.54 1360.24C1743.64 1359.58 1741.86 1358.96 1741.2 1358.38C1740.71 1357.97 1740.46 1357.43 1740.46 1356.77C1740.46 1355.36 1741.28 1354.16 1742.94 1353.17C1745.67 1351.43 1752.08 1350.27 1762.17 1349.69C1765.32 1349.53 1767.01 1349.32 1767.26 1349.07ZM1860.16 1349.07C1865.12 1348.49 1869.88 1348.2 1874.43 1348.2C1879.81 1348.2 1883.32 1348.62 1884.98 1349.44C1886.05 1349.94 1886.71 1350.44 1886.96 1350.93C1887.21 1351.35 1887.33 1352.3 1887.33 1353.79C1887.5 1355.86 1887.29 1356.89 1886.71 1356.89C1886.3 1356.89 1886.09 1357.1 1886.09 1357.51C1886.09 1358.75 1884.56 1359.66 1881.5 1360.24C1878.52 1360.74 1873.35 1361.07 1865.99 1361.23C1861.27 1361.4 1858.87 1361.52 1858.79 1361.61C1858.46 1361.94 1858.09 1365.08 1857.67 1371.04L1857.43 1375.38H1860.78H1861.03C1862.85 1375.38 1864.79 1375.88 1866.86 1376.87C1868.93 1377.78 1870.25 1378.82 1870.83 1379.97C1870.91 1380.06 1870.95 1380.22 1870.95 1380.47C1870.95 1381.55 1870 1382.99 1868.1 1384.81C1866.2 1386.63 1864.62 1387.58 1863.38 1387.67C1861.48 1387.92 1860.32 1388.08 1859.91 1388.16C1859.41 1388.33 1859.08 1388.45 1858.92 1388.54C1858.83 1388.62 1858.71 1388.87 1858.54 1389.28C1858.46 1389.69 1858.42 1390.36 1858.42 1391.27C1858.42 1391.51 1858.42 1392.05 1858.42 1392.88C1858.5 1393.71 1858.54 1394.41 1858.54 1394.99C1858.71 1399.29 1858.96 1401.61 1859.29 1401.94C1859.54 1402.19 1862.06 1402.31 1866.86 1402.31H1871.33H1874.8C1880.26 1402.31 1883.4 1402.52 1884.23 1402.93C1885.47 1403.59 1886.63 1405.66 1887.71 1409.14C1887.79 1409.3 1887.83 1409.51 1887.83 1409.76C1887.83 1410.42 1887.17 1411.41 1885.85 1412.74C1883.69 1415.05 1880.96 1416.21 1877.65 1416.21C1876.91 1416.21 1876.37 1416.17 1876.04 1416.09C1872.57 1415.59 1865.33 1415.18 1854.32 1414.85C1851.18 1414.68 1849.57 1414.56 1849.48 1414.47C1848.24 1412.98 1847.46 1411.7 1847.13 1410.63C1846.88 1409.55 1846.75 1407.48 1846.75 1404.42V1400.7V1397.97C1846.75 1393.33 1846.59 1390.77 1846.26 1390.27C1845.93 1389.86 1845.76 1386.92 1845.76 1381.46C1845.76 1367.81 1846.22 1359.95 1847.13 1357.88C1847.46 1356.89 1847.42 1356.06 1847 1355.4C1846.51 1354.66 1846.55 1354.28 1847.13 1354.28C1847.54 1354.28 1847.75 1353.95 1847.75 1353.29C1847.75 1351.39 1851.88 1349.98 1860.16 1349.07ZM1927.72 1349.07C1928.05 1348.74 1931.03 1348.58 1936.66 1348.58C1942.7 1348.58 1947.7 1348.78 1951.67 1349.2C1955.64 1349.61 1958.41 1350.15 1959.99 1350.81C1961.56 1351.47 1962.34 1352.46 1962.34 1353.79C1962.34 1354.04 1962.26 1354.49 1962.1 1355.15C1961.77 1356.48 1960.61 1357.43 1958.62 1358.01C1956.64 1358.5 1953.24 1358.75 1948.45 1358.75H1941.62C1938.48 1358.75 1936.9 1358.92 1936.9 1359.25C1936.9 1359.33 1936.99 1359.54 1937.15 1359.87C1937.48 1360.78 1937.86 1365.25 1938.27 1373.27C1938.77 1381.21 1939.05 1388.54 1939.14 1395.24V1399.21C1939.14 1404.83 1938.89 1408.43 1938.39 1410.01C1937.9 1411.49 1936.66 1412.74 1934.67 1413.73C1933.18 1414.39 1932.06 1414.72 1931.32 1414.72C1929.83 1414.72 1928.59 1413.81 1927.6 1411.99C1927.1 1411 1926.77 1409.88 1926.6 1408.64C1926.44 1407.4 1926.36 1404.59 1926.36 1400.2V1389.28V1382.46C1926.36 1373.27 1926.11 1368.27 1925.61 1367.44C1925.11 1366.69 1924.7 1365.91 1924.37 1365.08C1924.04 1364.25 1922.96 1363.47 1921.14 1362.72C1919.41 1361.98 1917.42 1361.57 1915.19 1361.48C1912.62 1361.32 1909.89 1360.9 1907 1360.24C1904.1 1359.58 1902.32 1358.96 1901.66 1358.38C1901.16 1357.97 1900.91 1357.43 1900.91 1356.77C1900.91 1355.36 1901.74 1354.16 1903.4 1353.17C1906.13 1351.43 1912.54 1350.27 1922.63 1349.69C1925.78 1349.53 1927.47 1349.32 1927.72 1349.07ZM2010.56 1361.98C2010.15 1361.65 2009.24 1361.36 2007.83 1361.11C2006.51 1360.86 2004.85 1360.61 2002.87 1360.37C2000.96 1360.12 1999.68 1359.91 1999.02 1359.74L1996.41 1359.25V1368.93C1996.41 1375.46 1996.5 1378.73 1996.66 1378.73C1996.75 1378.73 1996.95 1378.77 1997.28 1378.86C1997.7 1378.86 1998.23 1378.9 1998.9 1378.98C1999.56 1378.98 2000.14 1378.98 2000.63 1378.98C2003.53 1379.15 2005.27 1379.31 2005.85 1379.48C2006.09 1379.56 2006.38 1379.6 2006.71 1379.6C2007.62 1379.6 2008.91 1378.82 2010.56 1377.24C2012.38 1375.59 2013.58 1374.18 2014.16 1373.02C2014.82 1371.78 2015.32 1370 2015.65 1367.69L2016.02 1364.09L2013.66 1363.22C2011.84 1362.56 2010.81 1362.14 2010.56 1361.98ZM2023.59 1397.47C2023.59 1397.8 2023.96 1398.51 2024.71 1399.58C2025.45 1400.66 2025.83 1401.32 2025.83 1401.57C2025.83 1402.06 2026.86 1403.39 2028.93 1405.54C2031 1407.61 2032.28 1408.64 2032.78 1408.64C2033.36 1408.64 2033.81 1409.22 2034.14 1410.38C2034.22 1410.63 2034.27 1410.96 2034.27 1411.37C2034.27 1412.28 2033.73 1413.15 2032.65 1413.98C2031.41 1415.05 2030.38 1415.67 2029.55 1415.84C2029.38 1415.84 2029.01 1415.84 2028.43 1415.84C2027.85 1415.84 2027.44 1415.88 2027.19 1415.96H2026.94C2025.29 1415.96 2023.26 1415.18 2020.86 1413.6C2018.55 1411.95 2017.35 1410.58 2017.26 1409.51C2017.26 1408.93 2017.06 1408.64 2016.64 1408.64C2016.15 1408.64 2015.9 1408.43 2015.9 1408.02C2015.9 1407.52 2015.48 1406.86 2014.66 1406.03C2013.75 1404.96 2012.96 1403.76 2012.3 1402.44C2011.55 1400.86 2010.48 1399 2009.07 1396.85C2007.75 1394.62 2006.84 1393.29 2006.34 1392.88C2005.76 1392.47 2003.82 1392.09 2000.51 1391.76L1995.67 1391.39L1995.55 1401.07C1995.38 1407.77 1995.09 1411.62 1994.68 1412.61C1993.52 1415.01 1991.7 1416.21 1989.22 1416.21C1988.8 1416.21 1988.47 1416.17 1988.22 1416.09C1987.15 1415.84 1986.36 1415.42 1985.87 1414.85C1985.45 1414.18 1985.08 1412.86 1984.75 1410.87C1984.58 1410.13 1984.5 1407.36 1984.5 1402.56C1984.5 1387.92 1984.96 1376.95 1985.87 1369.67C1986.11 1367.52 1986.24 1365.83 1986.24 1364.58C1986.24 1362.52 1985.95 1361.19 1985.37 1360.61C1985.04 1360.28 1984 1360.03 1982.27 1359.87C1980.03 1359.7 1978.17 1358.75 1976.68 1357.01C1976.19 1356.35 1975.9 1355.86 1975.81 1355.53C1975.81 1355.19 1975.98 1354.57 1976.31 1353.66C1977.05 1351.76 1978.21 1350.52 1979.79 1349.94C1981.36 1349.28 1984.42 1348.87 1988.97 1348.7C1990.21 1348.62 1991.53 1348.58 1992.94 1348.58C1994.35 1348.49 1995.42 1348.41 1996.17 1348.33H1997.16C1997.32 1348.25 1997.53 1348.2 1997.78 1348.2C1999.02 1348.2 2001.42 1348.45 2004.98 1348.95C2008.54 1349.36 2010.89 1349.69 2012.05 1349.94C2012.55 1350.11 2013.04 1350.27 2013.54 1350.44C2014.12 1350.52 2014.62 1350.6 2015.03 1350.69C2015.53 1350.77 2015.82 1350.81 2015.9 1350.81C2016.97 1350.98 2018.5 1351.68 2020.49 1352.92C2022.56 1354.16 2023.59 1355.03 2023.59 1355.53C2023.59 1355.94 2024.05 1356.73 2024.96 1357.88C2025.95 1359.04 2026.45 1359.87 2026.45 1360.37C2026.45 1361.69 2026.65 1362.68 2027.07 1363.34C2027.48 1363.84 2027.69 1364.54 2027.69 1365.45C2027.69 1366.61 2027.48 1368.23 2027.07 1370.29C2026.49 1373.93 2025.87 1376.08 2025.21 1376.75C2024.71 1377.24 2024.3 1377.99 2023.96 1378.98C2023.63 1379.89 2022.43 1381.46 2020.37 1383.7C2018.3 1385.93 2017.26 1387.13 2017.26 1387.3C2017.26 1387.54 2017.84 1388.66 2019 1390.65C2020.24 1392.55 2021.03 1393.67 2021.36 1394C2022.02 1394.66 2022.35 1395.2 2022.35 1395.61C2022.35 1396.19 2022.56 1396.48 2022.97 1396.48C2023.39 1396.48 2023.59 1396.81 2023.59 1397.47ZM2061.94 1349.07C2066.9 1348.49 2071.66 1348.2 2076.21 1348.2C2081.59 1348.2 2085.11 1348.62 2086.76 1349.44C2087.84 1349.94 2088.5 1350.44 2088.75 1350.93C2088.99 1351.35 2089.12 1352.3 2089.12 1353.79C2089.28 1355.86 2089.08 1356.89 2088.5 1356.89C2088.08 1356.89 2087.88 1357.1 2087.88 1357.51C2087.88 1358.75 2086.35 1359.66 2083.29 1360.24C2080.31 1360.74 2075.14 1361.07 2067.77 1361.23C2063.06 1361.4 2060.66 1361.52 2060.58 1361.61C2060.24 1361.94 2059.87 1365.08 2059.46 1371.04L2059.21 1375.38H2062.56H2062.81C2064.63 1375.38 2066.57 1375.88 2068.64 1376.87C2070.71 1377.78 2072.03 1378.82 2072.61 1379.97C2072.7 1380.06 2072.74 1380.22 2072.74 1380.47C2072.74 1381.55 2071.79 1382.99 2069.88 1384.81C2067.98 1386.63 2066.41 1387.58 2065.17 1387.67C2063.26 1387.92 2062.11 1388.08 2061.69 1388.16C2061.2 1388.33 2060.86 1388.45 2060.7 1388.54C2060.62 1388.62 2060.49 1388.87 2060.33 1389.28C2060.24 1389.69 2060.2 1390.36 2060.2 1391.27C2060.2 1391.51 2060.2 1392.05 2060.2 1392.88C2060.29 1393.71 2060.33 1394.41 2060.33 1394.99C2060.49 1399.29 2060.74 1401.61 2061.07 1401.94C2061.32 1402.19 2063.84 1402.31 2068.64 1402.31H2073.11H2076.58C2082.04 1402.31 2085.19 1402.52 2086.02 1402.93C2087.26 1403.59 2088.42 1405.66 2089.49 1409.14C2089.57 1409.3 2089.61 1409.51 2089.61 1409.76C2089.61 1410.42 2088.95 1411.41 2087.63 1412.74C2085.48 1415.05 2082.75 1416.21 2079.44 1416.21C2078.69 1416.21 2078.16 1416.17 2077.83 1416.09C2074.35 1415.59 2067.11 1415.18 2056.11 1414.85C2052.96 1414.68 2051.35 1414.56 2051.27 1414.47C2050.03 1412.98 2049.24 1411.7 2048.91 1410.63C2048.66 1409.55 2048.54 1407.48 2048.54 1404.42V1400.7V1397.97C2048.54 1393.33 2048.37 1390.77 2048.04 1390.27C2047.71 1389.86 2047.54 1386.92 2047.54 1381.46C2047.54 1367.81 2048 1359.95 2048.91 1357.88C2049.24 1356.89 2049.2 1356.06 2048.79 1355.4C2048.29 1354.66 2048.33 1354.28 2048.91 1354.28C2049.32 1354.28 2049.53 1353.95 2049.53 1353.29C2049.53 1351.39 2053.67 1349.98 2061.94 1349.07ZM2170.58 1362.1C2169.09 1361.36 2166.49 1360.99 2162.76 1360.99C2161.85 1360.99 2161.4 1361.07 2161.4 1361.23C2161.4 1361.32 2161.4 1361.61 2161.4 1362.1C2161.4 1362.6 2161.36 1363.22 2161.27 1363.96C2161.27 1364.71 2161.27 1365.45 2161.27 1366.2C2161.27 1389.78 2161.48 1401.77 2161.89 1402.19C2162.14 1402.44 2163.34 1402.56 2165.49 1402.56C2170.54 1402.56 2173.93 1402.27 2175.67 1401.69C2176.91 1401.36 2177.74 1401.19 2178.15 1401.19C2178.65 1401.19 2180.55 1399.71 2183.86 1396.73C2187.17 1393.67 2189.15 1391.64 2189.82 1390.65C2190.56 1389.57 2191.26 1387.5 2191.93 1384.44C2192.26 1382.87 2192.42 1381.67 2192.42 1380.84C2192.42 1380.01 2192.22 1379.27 2191.8 1378.61C2191.22 1377.45 2190.93 1376.62 2190.93 1376.13C2190.93 1375.46 2189.94 1374.02 2187.96 1371.78C2185.97 1369.55 2184.69 1368.43 2184.11 1368.43C2183.78 1368.43 2183.28 1368.1 2182.62 1367.44C2182.21 1366.86 2181.09 1366.16 2179.27 1365.33C2177.45 1364.42 2176.25 1363.96 2175.67 1363.96C2175.17 1363.96 2174.92 1363.72 2174.92 1363.22C2174.92 1362.81 2174.39 1362.6 2173.31 1362.6C2172.07 1362.6 2171.16 1362.43 2170.58 1362.1ZM2187.33 1410.01C2187 1410.01 2186.47 1410.34 2185.72 1411C2184.98 1411.58 2184.44 1411.87 2184.11 1411.87C2183.36 1411.87 2182.49 1412.28 2181.5 1413.11C2180.76 1413.69 2179.35 1414.27 2177.28 1414.85C2175.21 1415.34 2173.64 1415.59 2172.57 1415.59C2172.15 1415.59 2171.91 1415.55 2171.82 1415.47C2171.41 1415.22 2171.08 1415.3 2170.83 1415.71C2170.58 1415.96 2169.59 1416.09 2167.85 1416.09H2166.11C2165.37 1416 2163.96 1415.88 2161.89 1415.71C2159.83 1415.55 2158.38 1415.42 2157.55 1415.34C2155.98 1415.26 2154.82 1415.18 2154.08 1415.09C2153.41 1415.01 2152.67 1414.89 2151.84 1414.72C2151.1 1414.47 2150.19 1414.27 2149.11 1414.1C2146.22 1413.77 2144.15 1413.15 2142.91 1412.24C2141.75 1411.33 2141 1409.96 2140.67 1408.14C2140.59 1407.65 2140.55 1407.07 2140.55 1406.41C2140.55 1405.41 2141.21 1404.34 2142.53 1403.18C2144.11 1401.69 2145.72 1400.95 2147.37 1400.95H2149.73L2149.61 1385.56L2149.36 1368.8C2149.36 1368.06 2148.95 1367.69 2148.12 1367.69C2147.29 1367.69 2146.75 1367.52 2146.51 1367.19C2146.26 1366.78 2145.22 1366.16 2143.4 1365.33C2141.58 1364.42 2140.38 1363.96 2139.8 1363.96C2139.31 1363.96 2138.36 1363.59 2136.95 1362.85C2135.63 1362.02 2134.8 1361.4 2134.47 1360.99C2133.89 1360.32 2133.6 1359.04 2133.6 1357.14C2133.6 1355.98 2133.72 1354.91 2133.97 1353.91C2134.39 1352.59 2134.88 1351.68 2135.46 1351.18C2136.12 1350.69 2137.32 1350.31 2139.06 1350.07C2140.05 1349.9 2141.21 1349.61 2142.53 1349.2C2143.53 1348.87 2146.22 1348.53 2150.6 1348.2L2156.81 1347.71C2156.89 1347.62 2157.43 1347.58 2158.42 1347.58C2160.32 1347.58 2162.85 1347.75 2165.99 1348.08C2169.22 1348.33 2171.2 1348.62 2171.95 1348.95C2173.44 1349.53 2174.64 1349.82 2175.55 1349.82C2176.79 1349.82 2180.76 1351.64 2187.46 1355.28C2190.6 1356.93 2192.63 1358.13 2193.54 1358.88C2194.45 1359.54 2195.86 1361.07 2197.76 1363.47C2202.14 1368.68 2204.38 1374.26 2204.46 1380.22V1380.84C2204.46 1387.54 2201.98 1394.2 2197.01 1400.82C2195.36 1403.06 2193.5 1405.17 2191.43 1407.15C2189.36 1409.05 2188 1410.01 2187.33 1410.01ZM2231.85 1349.07C2236.81 1348.49 2241.57 1348.2 2246.12 1348.2C2251.5 1348.2 2255.02 1348.62 2256.67 1349.44C2257.75 1349.94 2258.41 1350.44 2258.66 1350.93C2258.9 1351.35 2259.03 1352.3 2259.03 1353.79C2259.19 1355.86 2258.99 1356.89 2258.41 1356.89C2257.99 1356.89 2257.79 1357.1 2257.79 1357.51C2257.79 1358.75 2256.26 1359.66 2253.2 1360.24C2250.22 1360.74 2245.05 1361.07 2237.68 1361.23C2232.97 1361.4 2230.57 1361.52 2230.49 1361.61C2230.15 1361.94 2229.78 1365.08 2229.37 1371.04L2229.12 1375.38H2232.47H2232.72C2234.54 1375.38 2236.48 1375.88 2238.55 1376.87C2240.62 1377.78 2241.94 1378.82 2242.52 1379.97C2242.61 1380.06 2242.65 1380.22 2242.65 1380.47C2242.65 1381.55 2241.7 1382.99 2239.79 1384.81C2237.89 1386.63 2236.32 1387.58 2235.08 1387.67C2233.17 1387.92 2232.02 1388.08 2231.6 1388.16C2231.11 1388.33 2230.78 1388.45 2230.61 1388.54C2230.53 1388.62 2230.4 1388.87 2230.24 1389.28C2230.15 1389.69 2230.11 1390.36 2230.11 1391.27C2230.11 1391.51 2230.11 1392.05 2230.11 1392.88C2230.2 1393.71 2230.24 1394.41 2230.24 1394.99C2230.4 1399.29 2230.65 1401.61 2230.98 1401.94C2231.23 1402.19 2233.75 1402.31 2238.55 1402.31H2243.02H2246.49C2251.96 1402.31 2255.1 1402.52 2255.93 1402.93C2257.17 1403.59 2258.33 1405.66 2259.4 1409.14C2259.48 1409.3 2259.53 1409.51 2259.53 1409.76C2259.53 1410.42 2258.86 1411.41 2257.54 1412.74C2255.39 1415.05 2252.66 1416.21 2249.35 1416.21C2248.6 1416.21 2248.07 1416.17 2247.74 1416.09C2244.26 1415.59 2237.02 1415.18 2226.02 1414.85C2222.87 1414.68 2221.26 1414.56 2221.18 1414.47C2219.94 1412.98 2219.15 1411.7 2218.82 1410.63C2218.57 1409.55 2218.45 1407.48 2218.45 1404.42V1400.7V1397.97C2218.45 1393.33 2218.28 1390.77 2217.95 1390.27C2217.62 1389.86 2217.46 1386.92 2217.46 1381.46C2217.46 1367.81 2217.91 1359.95 2218.82 1357.88C2219.15 1356.89 2219.11 1356.06 2218.7 1355.4C2218.2 1354.66 2218.24 1354.28 2218.82 1354.28C2219.23 1354.28 2219.44 1353.95 2219.44 1353.29C2219.44 1351.39 2223.58 1349.98 2231.85 1349.07ZM2313.07 1361.48C2313.07 1361.32 2313.81 1360.41 2315.3 1358.75C2316.79 1357.1 2317.53 1356.1 2317.53 1355.77C2317.53 1355.19 2317.74 1354.91 2318.15 1354.91C2318.57 1354.91 2318.77 1354.62 2318.77 1354.04C2318.77 1353.37 2318.94 1353.04 2319.27 1353.04C2319.68 1353.04 2320.1 1352.55 2320.51 1351.55C2320.93 1350.48 2321.84 1349.65 2323.24 1349.07C2324.57 1348.49 2325.23 1348.08 2325.23 1347.83C2325.23 1347.5 2325.6 1347.25 2326.34 1347.09C2326.51 1347 2326.8 1346.96 2327.21 1346.96C2328.37 1346.96 2329.53 1347.46 2330.69 1348.45C2331.93 1349.36 2332.71 1350.44 2333.05 1351.68C2333.96 1355.07 2334.62 1358.83 2335.03 1362.97C2335.53 1367.6 2335.98 1377.24 2336.4 1391.89C2336.56 1398.84 2336.85 1403.18 2337.26 1404.92C2337.35 1405.25 2337.39 1405.79 2337.39 1406.53C2337.39 1408.02 2337.06 1409.38 2336.4 1410.63C2335.73 1411.87 2334.99 1412.49 2334.16 1412.49C2333.75 1412.49 2333.54 1412.65 2333.54 1412.98C2333.54 1413.31 2333.17 1413.48 2332.43 1413.48C2331.1 1413.48 2330.15 1413.19 2329.57 1412.61C2329.07 1412.12 2328.45 1411.87 2327.71 1411.87C2327.3 1411.87 2326.84 1411.45 2326.34 1410.63C2325.93 1409.72 2325.48 1408.6 2324.98 1407.28C2324.57 1405.95 2324.36 1405.25 2324.36 1405.17C2323.86 1404.09 2323.53 1400.7 2323.37 1394.99C2322.87 1376.13 2322.62 1366.65 2322.62 1366.57C2322.62 1366.16 2322.58 1365.83 2322.5 1365.58C2322.5 1365.25 2322.46 1364.96 2322.37 1364.71C2322.37 1364.46 2322.33 1364.3 2322.25 1364.21C2322.17 1364.13 2322.08 1364.13 2322 1364.21C2321.75 1364.38 2321.63 1364.63 2321.63 1364.96C2321.71 1365.29 2321.75 1365.62 2321.75 1365.95C2321.75 1366.28 2321.63 1366.45 2321.38 1366.45C2320.97 1366.45 2320.76 1366.61 2320.76 1366.94C2320.84 1367.19 2320.72 1367.81 2320.39 1368.8C2320.06 1369.88 2319.56 1371.04 2318.9 1372.28C2318.24 1373.52 2317.74 1374.14 2317.41 1374.14C2317.24 1374.14 2317.16 1374.39 2317.16 1374.89C2317.16 1375.38 2316.54 1376.25 2315.3 1377.49C2314.14 1378.65 2313.27 1379.23 2312.69 1379.23C2312.03 1379.23 2311.7 1379.44 2311.7 1379.85C2311.7 1380.35 2311.41 1380.59 2310.83 1380.59C2310 1380.59 2309.14 1380.92 2308.23 1381.59C2307.48 1382.08 2306.24 1382.33 2304.5 1382.33C2302.52 1382.33 2300.49 1382.08 2298.42 1381.59C2296.44 1381.01 2295.2 1380.35 2294.7 1379.6C2294.28 1378.94 2293.95 1378.73 2293.71 1378.98C2293.54 1379.15 2293 1378.73 2292.09 1377.74C2291.18 1376.58 2290.56 1376 2290.23 1376C2289.73 1376 2289.28 1375.55 2288.87 1374.64C2288.45 1373.89 2287.75 1372.9 2286.76 1371.66C2285.85 1370.33 2285.27 1369.51 2285.02 1369.18C2284.61 1368.6 2284.36 1368.31 2284.27 1368.31C2284.11 1368.31 2284.03 1368.8 2284.03 1369.8V1372.53C2284.03 1374.35 2284.11 1375.84 2284.27 1376.99C2284.44 1378.07 2284.52 1378.86 2284.52 1379.35C2284.52 1379.44 2284.44 1380.64 2284.27 1382.95C2284.11 1385.43 2284.03 1388.62 2284.03 1392.51V1396.6V1399.83C2284.03 1407.28 2283.03 1411.7 2281.05 1413.11C2279.48 1414.18 2278.19 1414.72 2277.2 1414.72C2276.54 1414.72 2275.88 1414.47 2275.21 1413.98C2274.22 1413.23 2273.68 1411.45 2273.6 1408.64C2273.35 1404.92 2272.94 1400.78 2272.36 1396.23C2272.2 1395.24 2272.11 1391.43 2272.11 1384.81C2272.11 1368.18 2272.36 1358.88 2272.86 1356.89C2273.6 1354.49 2274.76 1352.42 2276.33 1350.69C2277.99 1348.95 2279.56 1348.08 2281.05 1348.08C2281.79 1348.08 2282.41 1348.33 2282.91 1348.82C2283.74 1349.49 2284.27 1349.82 2284.52 1349.82C2284.85 1349.82 2285.39 1350.31 2286.14 1351.31C2286.88 1352.22 2287.29 1352.88 2287.38 1353.29C2287.38 1353.62 2288.33 1354.82 2290.23 1356.89C2291.14 1357.8 2292.3 1359.21 2293.71 1361.11C2295.2 1363.01 2296.35 1364.38 2297.18 1365.21C2297.93 1365.95 2298.3 1366.53 2298.3 1366.94C2298.3 1367.36 2299.08 1368.18 2300.66 1369.42C2302.23 1370.58 2303.68 1371.16 2305 1371.16C2306.41 1371.16 2307.69 1370.58 2308.85 1369.42C2309.67 1368.6 2310.09 1367.94 2310.09 1367.44C2310.09 1367.03 2310.58 1365.95 2311.58 1364.21C2312.57 1362.48 2313.07 1361.57 2313.07 1361.48ZM2382.92 1367.19C2381.93 1365.04 2381.26 1363.96 2380.93 1363.96C2380.6 1363.96 2380.31 1364.42 2380.06 1365.33L2377.96 1370.05C2376.63 1373.19 2375.97 1375.01 2375.97 1375.51C2375.97 1375.92 2375.51 1376.95 2374.6 1378.61C2373.78 1380.18 2373.36 1381.26 2373.36 1381.83C2373.36 1382.17 2373.53 1382.33 2373.86 1382.33C2374.11 1382.33 2374.31 1382.29 2374.48 1382.21C2375.06 1382.04 2376.8 1381.83 2379.69 1381.59C2382.59 1381.26 2384.7 1381.09 2386.02 1381.09H2386.52C2387.18 1381.09 2387.51 1381.01 2387.51 1380.84C2387.59 1380.59 2387.51 1379.81 2387.26 1378.48C2386.77 1376.5 2385.32 1372.73 2382.92 1367.19ZM2377.83 1349.07C2378.16 1348.49 2378.74 1348.2 2379.57 1348.2C2381.55 1348.2 2383.79 1349.44 2386.27 1351.93C2387.84 1353.33 2389.66 1356.19 2391.73 1360.49C2392.81 1362.64 2393.92 1364.83 2395.08 1367.07C2396.24 1369.3 2397.31 1371.45 2398.31 1373.52C2399.13 1375.59 2400.13 1377.86 2401.29 1380.35C2402.28 1382.33 2402.78 1383.7 2402.78 1384.44C2402.78 1385.1 2402.98 1385.64 2403.4 1386.05C2403.81 1386.55 2404.88 1389.82 2406.62 1395.86C2408.36 1401.07 2409.23 1405.12 2409.23 1408.02C2409.23 1409.26 2409.02 1410.58 2408.61 1411.99C2408.19 1413.48 2407.28 1414.39 2405.88 1414.72C2405.3 1414.89 2404.47 1414.97 2403.4 1414.97C2401.16 1414.97 2399.3 1413.52 2397.81 1410.63C2396.49 1408.31 2395.83 1406.74 2395.83 1405.91C2395.83 1405.08 2395.25 1403.55 2394.09 1401.32C2393.01 1399.08 2392.14 1397.64 2391.48 1396.97C2390.32 1395.9 2388.71 1395.2 2386.64 1394.87C2384.66 1394.45 2381.43 1394.16 2376.96 1394H2373.12C2370.96 1394 2369.6 1394.08 2369.02 1394.24C2368.52 1394.41 2368.28 1394.74 2368.28 1395.24C2368.28 1396.06 2368.07 1396.6 2367.65 1396.85C2367.08 1397.18 2366.87 1397.68 2367.03 1398.34C2367.2 1399 2367.03 1399.87 2366.54 1400.95C2366.37 1401.44 2365.92 1402.85 2365.17 1405.17C2364.43 1407.48 2363.89 1408.97 2363.56 1409.63C2363.06 1410.54 2362.73 1411.49 2362.57 1412.49C2362.57 1412.9 2361.78 1413.65 2360.21 1414.72C2358.97 1415.47 2358.18 1415.84 2357.85 1415.84C2357.35 1415.84 2356.73 1415.59 2355.99 1415.09C2352.51 1412.86 2350.78 1410.21 2350.78 1407.15C2350.78 1406.82 2350.86 1406.32 2351.03 1405.66C2351.27 1405 2352.14 1402.19 2353.63 1397.22C2354.96 1392.84 2356.03 1390.07 2356.86 1388.91C2357.6 1387.83 2357.97 1387.01 2357.97 1386.43C2357.97 1386.01 2358.39 1384.52 2359.22 1381.96C2360.04 1379.39 2360.71 1377.53 2361.2 1376.37C2361.7 1375.46 2362.15 1374.18 2362.57 1372.53C2363.56 1369.14 2365.59 1364.83 2368.65 1359.62C2371.79 1354.41 2374.15 1351.26 2375.72 1350.19C2376.71 1349.61 2377.21 1349.44 2377.21 1349.69C2377.21 1349.94 2377.33 1349.86 2377.58 1349.44C2377.67 1349.36 2377.75 1349.24 2377.83 1349.07ZM2465.58 1350.44C2465.58 1349.86 2466.24 1349.11 2467.56 1348.2C2468.89 1347.29 2470.09 1346.84 2471.16 1346.84C2471.57 1346.84 2471.86 1346.88 2472.03 1346.96C2472.77 1347.05 2473.73 1347.79 2474.88 1349.2C2476.04 1350.52 2476.83 1351.76 2477.24 1352.92C2478.57 1357.64 2479.23 1360.99 2479.23 1362.97C2479.23 1363.14 2479.19 1363.43 2479.1 1363.84C2479.1 1364.17 2479.1 1364.42 2479.1 1364.58C2478.77 1366.65 2478.77 1367.77 2479.1 1367.94C2479.27 1368.1 2479.35 1369.22 2479.35 1371.29C2479.35 1379.06 2478.9 1386.22 2477.99 1392.76C2477.82 1393.91 2477.49 1396.97 2476.99 1401.94C2476.58 1407.48 2475.46 1410.92 2473.64 1412.24C2473.06 1412.74 2471.62 1413.15 2469.3 1413.48C2469.05 1413.48 2468.76 1413.52 2468.43 1413.6C2468.1 1413.6 2467.85 1413.6 2467.69 1413.6C2466.61 1413.6 2465.58 1413.07 2464.58 1411.99C2463.59 1410.92 2462.02 1408.85 2459.87 1405.79C2457.72 1402.64 2456.19 1400.2 2455.28 1398.46C2454.78 1397.64 2453.54 1395.4 2451.55 1391.76C2449.57 1388.04 2447.91 1385.35 2446.59 1383.7C2445.35 1382.12 2444.73 1381.13 2444.73 1380.72C2444.73 1380.39 2443.73 1379.15 2441.75 1376.99C2439.68 1374.76 2438.23 1373.02 2437.41 1371.78C2436.58 1370.46 2435.96 1369.8 2435.54 1369.8C2435.3 1369.8 2435.17 1370.09 2435.17 1370.67C2435.17 1370.83 2435.25 1371.41 2435.42 1372.4C2435.83 1374.31 2436.04 1379.89 2436.04 1389.16C2436.04 1398.67 2435.83 1404.5 2435.42 1406.65C2435.01 1409.14 2434.51 1410.79 2433.93 1411.62C2433.43 1412.36 2432.28 1413.23 2430.46 1414.22C2429.71 1414.64 2428.97 1414.85 2428.22 1414.85C2425.99 1414.85 2424.75 1412.16 2424.5 1406.78C2423.84 1388.08 2423.3 1377.57 2422.89 1375.26C2422.64 1373.52 2422.51 1371.12 2422.51 1368.06C2422.51 1361.03 2422.89 1356.68 2423.63 1355.03L2424.75 1352.42C2425.24 1351.43 2426.4 1350.48 2428.22 1349.57C2429.46 1349.07 2430.58 1348.82 2431.57 1348.82C2433.97 1348.82 2436.91 1350.73 2440.38 1354.53C2442.2 1356.44 2443.65 1358.13 2444.73 1359.62C2445.89 1361.11 2447.38 1362.81 2449.2 1364.71C2451.76 1367.44 2453.04 1369.01 2453.04 1369.42C2453.04 1370 2453.21 1370.29 2453.54 1370.29C2453.95 1370.29 2455.07 1371.66 2456.89 1374.39C2458.71 1377.04 2460.45 1379.89 2462.1 1382.95C2462.93 1384.61 2463.84 1385.93 2464.83 1386.92C2465.08 1387.09 2465.25 1387.21 2465.33 1387.3C2465.49 1387.38 2465.62 1387.38 2465.7 1387.3C2465.78 1387.13 2465.82 1386.92 2465.82 1386.67C2465.82 1386.43 2465.82 1386.05 2465.82 1385.56C2465.82 1382.66 2465.91 1380.35 2466.07 1378.61C2466.32 1374.47 2466.45 1370 2466.45 1365.21C2466.45 1362.97 2466.36 1360.74 2466.2 1358.5C2466.03 1356.19 2465.87 1354.33 2465.7 1352.92C2465.62 1351.43 2465.58 1350.6 2465.58 1350.44ZM2529.43 1362.1C2527.94 1361.36 2525.33 1360.99 2521.61 1360.99C2520.7 1360.99 2520.25 1361.07 2520.25 1361.23C2520.25 1361.32 2520.25 1361.61 2520.25 1362.1C2520.25 1362.6 2520.2 1363.22 2520.12 1363.96C2520.12 1364.71 2520.12 1365.45 2520.12 1366.2C2520.12 1389.78 2520.33 1401.77 2520.74 1402.19C2520.99 1402.44 2522.19 1402.56 2524.34 1402.56C2529.39 1402.56 2532.78 1402.27 2534.52 1401.69C2535.76 1401.36 2536.59 1401.19 2537 1401.19C2537.5 1401.19 2539.4 1399.71 2542.71 1396.73C2546.02 1393.67 2548 1391.64 2548.66 1390.65C2549.41 1389.57 2550.11 1387.5 2550.77 1384.44C2551.1 1382.87 2551.27 1381.67 2551.27 1380.84C2551.27 1380.01 2551.06 1379.27 2550.65 1378.61C2550.07 1377.45 2549.78 1376.62 2549.78 1376.13C2549.78 1375.46 2548.79 1374.02 2546.8 1371.78C2544.82 1369.55 2543.53 1368.43 2542.96 1368.43C2542.62 1368.43 2542.13 1368.1 2541.47 1367.44C2541.05 1366.86 2539.94 1366.16 2538.12 1365.33C2536.3 1364.42 2535.1 1363.96 2534.52 1363.96C2534.02 1363.96 2533.77 1363.72 2533.77 1363.22C2533.77 1362.81 2533.23 1362.6 2532.16 1362.6C2530.92 1362.6 2530.01 1362.43 2529.43 1362.1ZM2546.18 1410.01C2545.85 1410.01 2545.31 1410.34 2544.57 1411C2543.82 1411.58 2543.29 1411.87 2542.96 1411.87C2542.21 1411.87 2541.34 1412.28 2540.35 1413.11C2539.61 1413.69 2538.2 1414.27 2536.13 1414.85C2534.06 1415.34 2532.49 1415.59 2531.41 1415.59C2531 1415.59 2530.75 1415.55 2530.67 1415.47C2530.26 1415.22 2529.93 1415.3 2529.68 1415.71C2529.43 1415.96 2528.44 1416.09 2526.7 1416.09H2524.96C2524.22 1416 2522.81 1415.88 2520.74 1415.71C2518.67 1415.55 2517.23 1415.42 2516.4 1415.34C2514.83 1415.26 2513.67 1415.18 2512.92 1415.09C2512.26 1415.01 2511.52 1414.89 2510.69 1414.72C2509.95 1414.47 2509.04 1414.27 2507.96 1414.1C2505.06 1413.77 2503 1413.15 2501.75 1412.24C2500.6 1411.33 2499.85 1409.96 2499.52 1408.14C2499.44 1407.65 2499.4 1407.07 2499.4 1406.41C2499.4 1405.41 2500.06 1404.34 2501.38 1403.18C2502.95 1401.69 2504.57 1400.95 2506.22 1400.95H2508.58L2508.46 1385.56L2508.21 1368.8C2508.21 1368.06 2507.79 1367.69 2506.97 1367.69C2506.14 1367.69 2505.6 1367.52 2505.35 1367.19C2505.11 1366.78 2504.07 1366.16 2502.25 1365.33C2500.43 1364.42 2499.23 1363.96 2498.65 1363.96C2498.16 1363.96 2497.2 1363.59 2495.8 1362.85C2494.47 1362.02 2493.65 1361.4 2493.32 1360.99C2492.74 1360.32 2492.45 1359.04 2492.45 1357.14C2492.45 1355.98 2492.57 1354.91 2492.82 1353.91C2493.23 1352.59 2493.73 1351.68 2494.31 1351.18C2494.97 1350.69 2496.17 1350.31 2497.91 1350.07C2498.9 1349.9 2500.06 1349.61 2501.38 1349.2C2502.38 1348.87 2505.06 1348.53 2509.45 1348.2L2515.65 1347.71C2515.74 1347.62 2516.27 1347.58 2517.27 1347.58C2519.17 1347.58 2521.69 1347.75 2524.84 1348.08C2528.06 1348.33 2530.05 1348.62 2530.79 1348.95C2532.28 1349.53 2533.48 1349.82 2534.39 1349.82C2535.63 1349.82 2539.61 1351.64 2546.31 1355.28C2549.45 1356.93 2551.48 1358.13 2552.39 1358.88C2553.3 1359.54 2554.7 1361.07 2556.61 1363.47C2560.99 1368.68 2563.23 1374.26 2563.31 1380.22V1380.84C2563.31 1387.54 2560.83 1394.2 2555.86 1400.82C2554.21 1403.06 2552.35 1405.17 2550.28 1407.15C2548.21 1409.05 2546.84 1410.01 2546.18 1410.01ZM2631.53 1428H2582.01V1339.39H2631.53V1349.2H2593.18V1376.87H2629.29V1386.55H2593.18V1418.2H2631.53V1428ZM2626.19 1312.09C2625.45 1313.25 2624.37 1314.66 2622.96 1316.31C2621.56 1317.96 2619.99 1319.7 2618.25 1321.52C2616.59 1323.26 2614.9 1324.96 2613.16 1326.61C2611.51 1328.18 2609.93 1329.55 2608.44 1330.71H2601.25V1329.22C2602.49 1327.64 2603.81 1325.78 2605.22 1323.63C2606.71 1321.48 2608.16 1319.29 2609.56 1317.05C2610.97 1314.74 2612.13 1312.67 2613.04 1310.85H2626.19V1312.09Z" fill="white"/>
<path d="M1212.23 1014.59C969.505 992.85 848.144 981.982 777.703 920.815C707.261 859.647 715.247 772.067 731.219 596.907C747.191 421.749 755.177 334.167 835.543 286.504C915.908 238.842 1037.27 249.71 1279.99 271.445L1721.32 310.967C1964.04 332.703 2085.4 343.57 2155.85 404.738C2226.29 465.906 2218.3 553.488 2202.33 728.646C2186.36 903.806 2178.37 991.386 2098.01 1039.05C2017.63 1086.71 1896.28 1075.84 1653.56 1054.11L1212.23 1014.59Z" stroke="#F2F2F2" stroke-width="30.3368" stroke-linecap="round"/>
<path d="M1981.68 708.858L1981.72 708.346" stroke="#F2F2F2" stroke-width="30.3368" stroke-linecap="round" stroke-linejoin="round"/>
<path d="M946.684 673.828L957.113 559.5" stroke="#F2F2F2" stroke-width="30.3368" stroke-linecap="round" stroke-linejoin="round"/>
<path d="M633.614 336.556L644.17 294.213C658.781 235.599 700.724 187.571 756.896 165.13L798.877 148.359" stroke="#C16D36" stroke-width="15.1684" stroke-linecap="round" stroke-linejoin="round"/>
<path d="M601.705 250.77L617.39 219.36C631.207 191.69 651.648 167.85 676.901 149.953L710.755 125.961" stroke="#C16D36" stroke-opacity="0.75" stroke-width="9.10105" stroke-linecap="round" stroke-linejoin="round"/>
<path d="M2261.98 1026.29L2242.63 1065.4C2215.84 1119.55 2164.61 1157.51 2104.95 1167.44L2060.35 1174.87" stroke="#C16D36" stroke-width="15.1684" stroke-linecap="round" stroke-linejoin="round"/>
<path d="M2274.84 1116.91L2252.81 1144.25C2233.41 1168.33 2208.35 1187.26 2179.85 1199.35L2141.66 1215.56" stroke="#C16D36" stroke-opacity="0.75" stroke-width="9.10105" stroke-linecap="round" stroke-linejoin="round"/>
</svg>
