<svg width="23" height="21" viewBox="0 0 23 21" fill="none" xmlns="http://www.w3.org/2000/svg">
<g opacity="0.5">
<path d="M12.5 14.375V11.125" stroke="#F2F2F2" stroke-width="0.8125" stroke-linecap="round" stroke-linejoin="round"/>
<path opacity="0.3" d="M17.375 9.5H14.125" stroke="#F2F2F2" stroke-width="0.8125" stroke-linecap="round" stroke-linejoin="round"/>
<path opacity="0.3" d="M7.625 9.5H10.875" stroke="#F2F2F2" stroke-width="0.8125" stroke-linecap="round" stroke-linejoin="round"/>
<path opacity="0.3" d="M12.5 4.62492V8.14575" stroke="#F2F2F2" stroke-width="0.8125" stroke-linecap="round" stroke-linejoin="round"/>
<path d="M14.125 12.75L13.2015 13.8072C12.8708 14.1857 12.7055 14.375 12.5 14.375C12.2945 14.375 12.1292 14.1857 11.7985 13.8072L10.875 12.75" stroke="#F2F2F2" stroke-width="0.8125" stroke-linecap="round" stroke-linejoin="round"/>
<path opacity="0.3" d="M10.875 6.25L11.7985 5.19278C12.1292 4.81426 12.2945 4.625 12.5 4.625C12.7055 4.625 12.8708 4.81426 13.2015 5.19278L14.125 6.25" stroke="#F2F2F2" stroke-width="0.8125" stroke-linecap="round" stroke-linejoin="round"/>
<path opacity="0.3" d="M9.25 11.125L8.19278 10.2015C7.81426 9.87077 7.625 9.70545 7.625 9.5C7.625 9.29455 7.81426 9.12923 8.19278 8.79854L9.25 7.875" stroke="#F2F2F2" stroke-width="0.8125" stroke-linecap="round" stroke-linejoin="round"/>
<path opacity="0.3" d="M15.75 7.875L16.8072 8.79854C17.1857 9.12923 17.375 9.29455 17.375 9.5C17.375 9.70545 17.1857 9.87077 16.8072 10.2015L15.75 11.125" stroke="#F2F2F2" stroke-width="0.8125" stroke-linecap="round" stroke-linejoin="round"/>
<g opacity="0.15" filter="url(#filter0_d_885_2180)">
<path d="M3.86603 11C3.33013 10.0718 3.33013 8.9282 3.86603 8L6.88397 2.77276C7.41987 1.84456 8.41025 1.27276 9.48205 1.27276H15.5179C16.5897 1.27276 17.5801 1.84456 18.116 2.77276L21.134 8C21.6699 8.9282 21.6699 10.0718 21.134 11L18.116 16.2272C17.5801 17.1554 16.5897 17.7272 15.5179 17.7272H9.48205C8.41025 17.7272 7.41987 17.1554 6.88397 16.2272L3.86603 11Z" fill="#8C8686"/>
<path d="M8.70605 1.37598C8.90661 1.32224 9.11382 1.28936 9.3252 1.27832V1.27734L9.35156 1.77637C9.39486 1.77411 9.43873 1.77246 9.48242 1.77246H9.78418V1.27246H12.1982V1.77246H14.0088V1.27246H15.2158V1.77246H15.5176C15.5613 1.77246 15.6051 1.77411 15.6484 1.77637L15.6738 1.27832C16.0997 1.30042 16.509 1.41217 16.8789 1.60059L16.6533 2.04492C16.8861 2.16359 17.1 2.31881 17.2861 2.50488L17.6387 2.15234C17.7855 2.2992 17.9179 2.46206 18.0332 2.63965L17.6143 2.91113L17.6826 3.02246L17.834 3.28418L18.2666 3.03418L19.4736 5.125L19.041 5.375L19.9463 6.94336L20.3789 6.69434L20.9824 7.73926L20.5498 7.98828L20.7012 8.25C20.7231 8.28794 20.7439 8.3265 20.7637 8.36523L21.207 8.13867C21.4008 8.51867 21.5087 8.92906 21.5303 9.34375L21.0322 9.36914C21.0425 9.56496 21.0299 9.76166 20.9941 9.95508L20.9512 10.1475L21.4336 10.2764V10.2773C21.3798 10.478 21.3033 10.6736 21.207 10.8623L20.7637 10.6348C20.7439 10.6735 20.7231 10.7121 20.7012 10.75L20.5498 11.0117L20.9824 11.2617L19.7754 13.3525L19.3428 13.1025L18.4375 14.6709L18.8701 14.9209V14.9219L18.2666 15.9668V15.9658L17.834 15.7158L17.6826 15.9775L17.6143 16.0889L18.0332 16.3613C17.8012 16.7186 17.4992 17.0163 17.1514 17.2422L16.8799 16.8242C16.6606 16.9666 16.4193 17.0744 16.165 17.1426L16.293 17.625C16.0924 17.6786 15.8852 17.7117 15.6738 17.7227L15.6484 17.2236L15.5176 17.2275H15.2158V17.7275H12.8018V17.2275H10.9912V17.7275H9.78418V17.2275H9.48242C9.43873 17.2275 9.39486 17.2259 9.35156 17.2236L9.3252 17.7227C8.89955 17.7004 8.48983 17.5888 8.12012 17.4004L8.34668 16.9551C8.11386 16.8364 7.89996 16.6812 7.71387 16.4951L7.36035 16.8486C7.21357 16.7018 7.08105 16.5388 6.96582 16.3613L7.38574 16.0889L7.31738 15.9775L7.16602 15.7158L6.7334 15.9658L6.73242 15.9668L5.52539 13.876L5.52637 13.875L5.95898 13.625L5.05371 12.0566L4.62012 12.3066L4.0166 11.2617L4.4502 11.0117L4.29883 10.75C4.27693 10.7121 4.25607 10.6735 4.23633 10.6348L3.79199 10.8623C3.59828 10.4825 3.49048 10.0717 3.46875 9.65723L3.96777 9.63086C3.95411 9.36982 3.98071 9.10681 4.04883 8.85254L3.56641 8.72363H3.56543C3.61916 8.52298 3.69584 8.32734 3.79199 8.13867L4.23633 8.36523L4.29883 8.25L4.4502 7.98828L4.0166 7.73926L5.22363 5.64844L5.65723 5.89746L6.5625 4.3291L6.12988 4.0791H6.12891L6.73242 3.03418H6.7334L7.16602 3.28418L7.31738 3.02246C7.33923 2.98463 7.36213 2.9475 7.38574 2.91113L6.96582 2.63965C7.19767 2.28231 7.49997 1.9848 7.84766 1.75879L8.12012 2.17578C8.33935 2.03343 8.5807 1.92557 8.83496 1.85742L8.70605 1.37598Z" stroke="#FFFDFD" stroke-dasharray="2 4 6 8"/>
</g>
</g>
<defs>
<filter id="filter0_d_885_2180" x="0.964111" y="0.772705" width="21.0718" height="19.4543" filterUnits="userSpaceOnUse" color-interpolation-filters="sRGB">
<feFlood flood-opacity="0" result="BackgroundImageFix"/>
<feColorMatrix in="SourceAlpha" type="matrix" values="0 0 0 0 0 0 0 0 0 0 0 0 0 0 0 0 0 0 127 0" result="hardAlpha"/>
<feOffset dx="-1" dy="1"/>
<feGaussianBlur stdDeviation="0.75"/>
<feComposite in2="hardAlpha" operator="out"/>
<feColorMatrix type="matrix" values="0 0 0 0 0 0 0 0 0 0 0 0 0 0 0 0 0 0 0.25 0"/>
<feBlend mode="normal" in2="BackgroundImageFix" result="effect1_dropShadow_885_2180"/>
<feBlend mode="normal" in="SourceGraphic" in2="effect1_dropShadow_885_2180" result="shape"/>
</filter>
</defs>
</svg>
